G04 #@! TF.GenerationSoftware,KiCad,Pcbnew,no-vcs-found-835c19f~60~ubuntu16.04.1*
G04 #@! TF.CreationDate,2017-10-10T23:17:26+02:00*
G04 #@! TF.ProjectId,arcade_adapter,6172636164655F616461707465722E6B,rev?*
G04 #@! TF.SameCoordinates,Original*
G04 #@! TF.FileFunction,Copper,L2,Bot,Signal*
G04 #@! TF.FilePolarity,Positive*
%FSLAX46Y46*%
G04 Gerber Fmt 4.6, Leading zero omitted, Abs format (unit mm)*
G04 Created by KiCad (PCBNEW no-vcs-found-835c19f~60~ubuntu16.04.1) date Tue Oct 10 23:17:26 2017*
%MOMM*%
%LPD*%
G01*
G04 APERTURE LIST*
%ADD10R,0.914400X1.066800*%
%ADD11R,1.066800X0.914400*%
%ADD12R,1.574800X1.066800*%
%ADD13R,1.066800X1.574800*%
%ADD14R,1.780000X5.080000*%
%ADD15C,1.400000*%
%ADD16C,3.400000*%
%ADD17C,2.200000*%
%ADD18R,1.800000X1.800000*%
%ADD19C,1.800000*%
%ADD20C,0.800000*%
%ADD21C,0.152400*%
%ADD22C,0.609600*%
%ADD23C,0.254000*%
G04 APERTURE END LIST*
D10*
X98907600Y-69857620D03*
X97383600Y-69857620D03*
X97383600Y-71805800D03*
X98907600Y-71805800D03*
X108051600Y-63728600D03*
X109575600Y-63728600D03*
D11*
X111099600Y-86639400D03*
X111099600Y-88163400D03*
X110990380Y-60822840D03*
X110990380Y-62346840D03*
D10*
X98933000Y-89738200D03*
X100457000Y-89738200D03*
X94569280Y-68122800D03*
X93045280Y-68122800D03*
D12*
X111099600Y-91744800D03*
X111099600Y-90017600D03*
D13*
X102412800Y-89738200D03*
X104140000Y-89738200D03*
D14*
X109902800Y-57048400D03*
X107112800Y-57048400D03*
X104312800Y-57048400D03*
X101522800Y-57048400D03*
X98722800Y-57048400D03*
X95932800Y-57048400D03*
X93142800Y-57048400D03*
D15*
X104819800Y-85191600D03*
X102789800Y-85191600D03*
X100759800Y-85191600D03*
X98729800Y-85191600D03*
X103799800Y-83411600D03*
X101769800Y-83411600D03*
X99739800Y-83411600D03*
X97709800Y-83411600D03*
D16*
X94919800Y-87731600D03*
X107619800Y-87731600D03*
D17*
X93139800Y-84301600D03*
X109399800Y-84301600D03*
D18*
X94259400Y-75692000D03*
D19*
X96799400Y-75692000D03*
X99339400Y-75692000D03*
X101879400Y-75692000D03*
X104419400Y-75692000D03*
X106959400Y-75692000D03*
D20*
X109169200Y-74371200D03*
X109143800Y-60807600D03*
X101523800Y-70408800D03*
X100228400Y-70281800D03*
X100126800Y-60528200D03*
X106629200Y-60706000D03*
X98990420Y-60946593D03*
X104089200Y-60756800D03*
X96420798Y-61050289D03*
X101117400Y-60883800D03*
X100634800Y-79197199D03*
X98729798Y-79197200D03*
X110871000Y-63703200D03*
X99857560Y-65074800D03*
X98623120Y-65057020D03*
X96154240Y-65031620D03*
X97388680Y-65051940D03*
X105613200Y-90779600D03*
X106984800Y-90779600D03*
X108280200Y-90779600D03*
X108280200Y-91846400D03*
X106908600Y-91846400D03*
X106908600Y-91846400D03*
X105638600Y-91846400D03*
X105638600Y-91846400D03*
X104419400Y-91846400D03*
X91633040Y-68122800D03*
X98920300Y-68303140D03*
X99808030Y-68303140D03*
X100695760Y-68303140D03*
X100690680Y-67249040D03*
X99805490Y-67256660D03*
X98920300Y-67261740D03*
X93921866Y-64577237D03*
X105664004Y-74447400D03*
X100761800Y-82245200D03*
X105664000Y-82245200D03*
X103098600Y-80086200D03*
X99745802Y-80086200D03*
X103124000Y-74422000D03*
X92557600Y-80772000D03*
X101777800Y-80746600D03*
X93903800Y-70358000D03*
X104267000Y-74142602D03*
X91516200Y-80975200D03*
X102793804Y-81508600D03*
X92659200Y-70358000D03*
X91567092Y-82099312D03*
X93249503Y-65380159D03*
X103073200Y-66167000D03*
X94970600Y-66167000D03*
D21*
X101879400Y-75692000D02*
X101879400Y-73888600D01*
X101879400Y-73888600D02*
X102412800Y-73355200D01*
X102412800Y-73355200D02*
X108153200Y-73355200D01*
X108153200Y-73355200D02*
X109169200Y-74371200D01*
X109143800Y-60807600D02*
X110975140Y-60807600D01*
X110975140Y-60807600D02*
X110990380Y-60822840D01*
X109143800Y-60934600D02*
X109143800Y-60807600D01*
X101522800Y-57048400D02*
X101522800Y-60019200D01*
X101522800Y-60019200D02*
X102413366Y-60909766D01*
X102413366Y-60909766D02*
X102413366Y-69519234D01*
X102413366Y-69519234D02*
X101923799Y-70008801D01*
X101923799Y-70008801D02*
X101523800Y-70408800D01*
X100228400Y-70281800D02*
X100228400Y-70278036D01*
X100228400Y-70278036D02*
X101783005Y-68723431D01*
X101783005Y-68723431D02*
X101783005Y-62890525D01*
X101783005Y-62890525D02*
X100126800Y-61234320D01*
X100126800Y-61234320D02*
X100126800Y-60528200D01*
X107112800Y-57048400D02*
X107112800Y-60222400D01*
X107112800Y-60222400D02*
X106629200Y-60706000D01*
X98722800Y-57048400D02*
X98722800Y-60103570D01*
X98722800Y-60103570D02*
X98990420Y-60371190D01*
X98990420Y-60371190D02*
X98990420Y-60946593D01*
X104089200Y-60756800D02*
X104089200Y-60299600D01*
X104089200Y-60299600D02*
X104312800Y-60076000D01*
X104312800Y-60076000D02*
X104312800Y-57048400D01*
X96020799Y-60650290D02*
X96420798Y-61050289D01*
X95932800Y-60562291D02*
X96020799Y-60650290D01*
X95932800Y-57048400D02*
X95932800Y-60562291D01*
X100634800Y-79197199D02*
X100634800Y-70881934D01*
X100634800Y-70881934D02*
X100882404Y-70634330D01*
X100882404Y-70634330D02*
X100882404Y-70090794D01*
X101517399Y-61283799D02*
X101117400Y-60883800D01*
X100882404Y-70090794D02*
X102087816Y-68885382D01*
X102087816Y-68885382D02*
X102087816Y-61854216D01*
X102087816Y-61854216D02*
X101517399Y-61283799D01*
X98729800Y-79197202D02*
X98729798Y-79197200D01*
X98729800Y-85191600D02*
X98729800Y-79197202D01*
D22*
X110871000Y-63703200D02*
X109601000Y-63703200D01*
X109601000Y-63703200D02*
X109575600Y-63728600D01*
X97388680Y-65051940D02*
X98638360Y-65051940D01*
X98638360Y-65051940D02*
X98643440Y-65057020D01*
X97388680Y-65051940D02*
X96174560Y-65051940D01*
X96174560Y-65051940D02*
X96154240Y-65031620D01*
X97388680Y-68709540D02*
X97388680Y-65051940D01*
X97383600Y-69857620D02*
X97383600Y-68714620D01*
X97383600Y-68714620D02*
X97388680Y-68709540D01*
D21*
X106984800Y-90779600D02*
X105613200Y-90779600D01*
X108280200Y-91846400D02*
X108280200Y-90779600D01*
X108280200Y-91846400D02*
X106908600Y-91846400D01*
X106908600Y-91846400D02*
X105638600Y-91846400D01*
X104165400Y-90703400D02*
X104165400Y-91592400D01*
X104165400Y-91592400D02*
X104419400Y-91846400D01*
X104140000Y-89738200D02*
X104140000Y-90678000D01*
X104140000Y-90678000D02*
X104165400Y-90703400D01*
X111099600Y-91744800D02*
X110921800Y-91744800D01*
D22*
X95859600Y-76606400D02*
X95859600Y-77012800D01*
X95874001Y-76591999D02*
X95859600Y-76606400D01*
X96799400Y-75692000D02*
X95899401Y-76591999D01*
X95899401Y-76591999D02*
X95874001Y-76591999D01*
X93045280Y-68122800D02*
X91633040Y-68122800D01*
X98912680Y-68709540D02*
X98912680Y-68132960D01*
X98912680Y-68132960D02*
X98912680Y-67091560D01*
X100688140Y-68132960D02*
X99857560Y-68132960D01*
X99832160Y-67086480D02*
X100675440Y-67086480D01*
X100675440Y-67086480D02*
X100683060Y-67078860D01*
X98907600Y-69857620D02*
X98907600Y-68714620D01*
X98907600Y-68714620D02*
X98912680Y-68709540D01*
X97729879Y-74792001D02*
X98907600Y-73614280D01*
X98907600Y-73614280D02*
X98907600Y-71805800D01*
X96799400Y-75692000D02*
X97699399Y-74792001D01*
X97699399Y-74792001D02*
X97729879Y-74792001D01*
D21*
X93142800Y-57048400D02*
X93142800Y-63798171D01*
X93521867Y-64177238D02*
X93921866Y-64577237D01*
X93142800Y-63798171D02*
X93521867Y-64177238D01*
X105664000Y-74447404D02*
X105664004Y-74447400D01*
X105664000Y-82245200D02*
X105664000Y-74447404D01*
X100761800Y-82245200D02*
X100761800Y-83032600D01*
X100761800Y-83032600D02*
X100761800Y-85189600D01*
X100761800Y-85189600D02*
X100759800Y-85191600D01*
X103124000Y-80060800D02*
X103098600Y-80086200D01*
X103124000Y-74422000D02*
X103124000Y-80060800D01*
X99739800Y-83411600D02*
X99739800Y-80092202D01*
X99739800Y-80092202D02*
X99745802Y-80086200D01*
X92557600Y-80206315D02*
X92557600Y-80772000D01*
X93903800Y-70358000D02*
X92557600Y-71704200D01*
X92557600Y-71704200D02*
X92557600Y-80206315D01*
X101769800Y-83411600D02*
X101769800Y-80754600D01*
X101769800Y-80754600D02*
X101777800Y-80746600D01*
X111099600Y-86639400D02*
X111099600Y-77673200D01*
X111099600Y-77673200D02*
X107169003Y-73742603D01*
X107169003Y-73742603D02*
X104666999Y-73742603D01*
X104666999Y-73742603D02*
X104267000Y-74142602D01*
X91516200Y-80409515D02*
X91516200Y-80975200D01*
X91516200Y-71501000D02*
X91516200Y-80409515D01*
X92659200Y-70358000D02*
X91516200Y-71501000D01*
X102789800Y-81512604D02*
X102793804Y-81508600D01*
X102789800Y-85191600D02*
X102789800Y-81512604D01*
X93249503Y-65380159D02*
X91543431Y-65380159D01*
X91543431Y-65380159D02*
X90886521Y-66037069D01*
X90886521Y-66037069D02*
X90886521Y-81418741D01*
X90886521Y-81418741D02*
X91167093Y-81699313D01*
X91167093Y-81699313D02*
X91567092Y-82099312D01*
X107442000Y-65151000D02*
X108051600Y-64541400D01*
X108051600Y-64541400D02*
X108051600Y-63728600D01*
X104089200Y-65151000D02*
X106603800Y-65151000D01*
X106603800Y-65151000D02*
X107442000Y-65151000D01*
X108315760Y-62346840D02*
X108051600Y-62611000D01*
X108051600Y-62611000D02*
X108051600Y-63728600D01*
X110990380Y-62346840D02*
X108315760Y-62346840D01*
X103073200Y-66167000D02*
X104089200Y-65151000D01*
X109631480Y-62346840D02*
X110990380Y-62346840D01*
X103073200Y-66167000D02*
X103098600Y-66192400D01*
X94259400Y-71399400D02*
X94526100Y-71132700D01*
X94569280Y-68122800D02*
X94569280Y-71089520D01*
X94569280Y-71089520D02*
X94526100Y-71132700D01*
X94569280Y-68122800D02*
X94569280Y-66568320D01*
X94569280Y-66568320D02*
X94970600Y-66167000D01*
X94259400Y-75692000D02*
X94259400Y-71399400D01*
X100457000Y-89738200D02*
X102412800Y-89738200D01*
X111099600Y-90017600D02*
X111099600Y-88163400D01*
D23*
G36*
X107061000Y-85436019D02*
X106298857Y-85750929D01*
X105641438Y-86407202D01*
X105285207Y-87265102D01*
X105284396Y-88194022D01*
X105639129Y-89052543D01*
X106295402Y-89709962D01*
X107153302Y-90066193D01*
X108082222Y-90067004D01*
X108644010Y-89834878D01*
X109487770Y-90642733D01*
X109529561Y-90669361D01*
X109575600Y-90678000D01*
X109690022Y-90678000D01*
X109714043Y-90798765D01*
X109764513Y-90874298D01*
X109677200Y-91085091D01*
X109677200Y-91459050D01*
X109835950Y-91617800D01*
X110972600Y-91617800D01*
X110972600Y-91597800D01*
X111226600Y-91597800D01*
X111226600Y-91617800D01*
X111246600Y-91617800D01*
X111246600Y-91871800D01*
X111226600Y-91871800D01*
X111226600Y-91891800D01*
X110972600Y-91891800D01*
X110972600Y-91871800D01*
X109835950Y-91871800D01*
X109677200Y-92030550D01*
X109677200Y-92404509D01*
X109741109Y-92558800D01*
X103733600Y-92558800D01*
X103733600Y-91160600D01*
X103854250Y-91160600D01*
X104013000Y-91001850D01*
X104013000Y-89865200D01*
X104267000Y-89865200D01*
X104267000Y-91001850D01*
X104425750Y-91160600D01*
X104799709Y-91160600D01*
X105033098Y-91063927D01*
X105211727Y-90885299D01*
X105308400Y-90651910D01*
X105308400Y-90023950D01*
X105149650Y-89865200D01*
X104267000Y-89865200D01*
X104013000Y-89865200D01*
X103993000Y-89865200D01*
X103993000Y-89611200D01*
X104013000Y-89611200D01*
X104013000Y-88474550D01*
X104267000Y-88474550D01*
X104267000Y-89611200D01*
X105149650Y-89611200D01*
X105308400Y-89452450D01*
X105308400Y-88824490D01*
X105211727Y-88591101D01*
X105033098Y-88412473D01*
X104799709Y-88315800D01*
X104425750Y-88315800D01*
X104267000Y-88474550D01*
X104013000Y-88474550D01*
X103854250Y-88315800D01*
X103612506Y-88315800D01*
X103555800Y-88024169D01*
X103555800Y-86313266D01*
X103742516Y-86126875D01*
X104064131Y-86126875D01*
X104125969Y-86362642D01*
X104626922Y-86539019D01*
X105157240Y-86510264D01*
X105513631Y-86362642D01*
X105575469Y-86126875D01*
X104819800Y-85371205D01*
X104064131Y-86126875D01*
X103742516Y-86126875D01*
X103920898Y-85948804D01*
X103947816Y-85883978D01*
X104640195Y-85191600D01*
X104999405Y-85191600D01*
X105755075Y-85947269D01*
X105990842Y-85885431D01*
X106167219Y-85384478D01*
X106138464Y-84854160D01*
X105990842Y-84497769D01*
X105755075Y-84435931D01*
X104999405Y-85191600D01*
X104640195Y-85191600D01*
X104626053Y-85177458D01*
X104805658Y-84997852D01*
X104819800Y-85011995D01*
X105575469Y-84256325D01*
X105513631Y-84020558D01*
X105058931Y-83860466D01*
X105134568Y-83678313D01*
X105134777Y-83439000D01*
X107061000Y-83439000D01*
X107061000Y-85436019D01*
X107061000Y-85436019D01*
G37*
X107061000Y-85436019D02*
X106298857Y-85750929D01*
X105641438Y-86407202D01*
X105285207Y-87265102D01*
X105284396Y-88194022D01*
X105639129Y-89052543D01*
X106295402Y-89709962D01*
X107153302Y-90066193D01*
X108082222Y-90067004D01*
X108644010Y-89834878D01*
X109487770Y-90642733D01*
X109529561Y-90669361D01*
X109575600Y-90678000D01*
X109690022Y-90678000D01*
X109714043Y-90798765D01*
X109764513Y-90874298D01*
X109677200Y-91085091D01*
X109677200Y-91459050D01*
X109835950Y-91617800D01*
X110972600Y-91617800D01*
X110972600Y-91597800D01*
X111226600Y-91597800D01*
X111226600Y-91617800D01*
X111246600Y-91617800D01*
X111246600Y-91871800D01*
X111226600Y-91871800D01*
X111226600Y-91891800D01*
X110972600Y-91891800D01*
X110972600Y-91871800D01*
X109835950Y-91871800D01*
X109677200Y-92030550D01*
X109677200Y-92404509D01*
X109741109Y-92558800D01*
X103733600Y-92558800D01*
X103733600Y-91160600D01*
X103854250Y-91160600D01*
X104013000Y-91001850D01*
X104013000Y-89865200D01*
X104267000Y-89865200D01*
X104267000Y-91001850D01*
X104425750Y-91160600D01*
X104799709Y-91160600D01*
X105033098Y-91063927D01*
X105211727Y-90885299D01*
X105308400Y-90651910D01*
X105308400Y-90023950D01*
X105149650Y-89865200D01*
X104267000Y-89865200D01*
X104013000Y-89865200D01*
X103993000Y-89865200D01*
X103993000Y-89611200D01*
X104013000Y-89611200D01*
X104013000Y-88474550D01*
X104267000Y-88474550D01*
X104267000Y-89611200D01*
X105149650Y-89611200D01*
X105308400Y-89452450D01*
X105308400Y-88824490D01*
X105211727Y-88591101D01*
X105033098Y-88412473D01*
X104799709Y-88315800D01*
X104425750Y-88315800D01*
X104267000Y-88474550D01*
X104013000Y-88474550D01*
X103854250Y-88315800D01*
X103612506Y-88315800D01*
X103555800Y-88024169D01*
X103555800Y-86313266D01*
X103742516Y-86126875D01*
X104064131Y-86126875D01*
X104125969Y-86362642D01*
X104626922Y-86539019D01*
X105157240Y-86510264D01*
X105513631Y-86362642D01*
X105575469Y-86126875D01*
X104819800Y-85371205D01*
X104064131Y-86126875D01*
X103742516Y-86126875D01*
X103920898Y-85948804D01*
X103947816Y-85883978D01*
X104640195Y-85191600D01*
X104999405Y-85191600D01*
X105755075Y-85947269D01*
X105990842Y-85885431D01*
X106167219Y-85384478D01*
X106138464Y-84854160D01*
X105990842Y-84497769D01*
X105755075Y-84435931D01*
X104999405Y-85191600D01*
X104640195Y-85191600D01*
X104626053Y-85177458D01*
X104805658Y-84997852D01*
X104819800Y-85011995D01*
X105575469Y-84256325D01*
X105513631Y-84020558D01*
X105058931Y-83860466D01*
X105134568Y-83678313D01*
X105134777Y-83439000D01*
X107061000Y-83439000D01*
X107061000Y-85436019D01*
G36*
X96993148Y-75677858D02*
X96979005Y-75692000D01*
X97879559Y-76592554D01*
X98029727Y-76541965D01*
X98037332Y-76560371D01*
X98328779Y-76852328D01*
X98332617Y-78241440D01*
X98144283Y-78319258D01*
X97852879Y-78610154D01*
X97694978Y-78990423D01*
X97694619Y-79402171D01*
X97851856Y-79782715D01*
X98018600Y-79949750D01*
X98018600Y-82104995D01*
X97902678Y-82064181D01*
X97372360Y-82092936D01*
X97015969Y-82240558D01*
X96954131Y-82476325D01*
X97709800Y-83231995D01*
X97723943Y-83217853D01*
X97903548Y-83397458D01*
X97889405Y-83411600D01*
X97903548Y-83425743D01*
X97723943Y-83605348D01*
X97709800Y-83591205D01*
X96954131Y-84346875D01*
X97015969Y-84582642D01*
X97362023Y-84704481D01*
X97338695Y-84746956D01*
X97333204Y-84775072D01*
X97282404Y-85410072D01*
X97288165Y-85459289D01*
X97303854Y-85491428D01*
X97573973Y-85890176D01*
X97597382Y-85946829D01*
X97643958Y-85993486D01*
X97837254Y-86278828D01*
X97872516Y-86313643D01*
X97934717Y-86334367D01*
X98011974Y-86339049D01*
X98463087Y-86526368D01*
X98959660Y-86526801D01*
X99240958Y-86710256D01*
X99327448Y-88569800D01*
X99218750Y-88569800D01*
X99060000Y-88728550D01*
X99060000Y-89611200D01*
X99080000Y-89611200D01*
X99080000Y-89865200D01*
X99060000Y-89865200D01*
X99060000Y-90747850D01*
X99218750Y-90906600D01*
X99327564Y-90906600D01*
X99318177Y-92558800D01*
X91210200Y-92558800D01*
X91210200Y-83071799D01*
X91360315Y-83134132D01*
X91772063Y-83134491D01*
X91910404Y-83077330D01*
X91669796Y-83317518D01*
X91405101Y-83954973D01*
X91404499Y-84645199D01*
X91668081Y-85283115D01*
X92155718Y-85771604D01*
X92793173Y-86036299D01*
X93312535Y-86036752D01*
X92941438Y-86407202D01*
X92585207Y-87265102D01*
X92584396Y-88194022D01*
X92939129Y-89052543D01*
X93595402Y-89709962D01*
X94453302Y-90066193D01*
X95382222Y-90067004D01*
X95486420Y-90023950D01*
X97840800Y-90023950D01*
X97840800Y-90397910D01*
X97937473Y-90631299D01*
X98116102Y-90809927D01*
X98349491Y-90906600D01*
X98647250Y-90906600D01*
X98806000Y-90747850D01*
X98806000Y-89865200D01*
X97999550Y-89865200D01*
X97840800Y-90023950D01*
X95486420Y-90023950D01*
X96240743Y-89712271D01*
X96875630Y-89078490D01*
X97840800Y-89078490D01*
X97840800Y-89452450D01*
X97999550Y-89611200D01*
X98806000Y-89611200D01*
X98806000Y-88728550D01*
X98647250Y-88569800D01*
X98349491Y-88569800D01*
X98116102Y-88666473D01*
X97937473Y-88845101D01*
X97840800Y-89078490D01*
X96875630Y-89078490D01*
X96898162Y-89055998D01*
X97254393Y-88198098D01*
X97255204Y-87269178D01*
X96900471Y-86410657D01*
X96244198Y-85753238D01*
X95386298Y-85397007D01*
X94499060Y-85396232D01*
X94609804Y-85285682D01*
X94874499Y-84648227D01*
X94875101Y-83958001D01*
X94611519Y-83320085D01*
X94510333Y-83218722D01*
X96362381Y-83218722D01*
X96391136Y-83749040D01*
X96538758Y-84105431D01*
X96774525Y-84167269D01*
X97530195Y-83411600D01*
X96774525Y-82655931D01*
X96538758Y-82717769D01*
X96362381Y-83218722D01*
X94510333Y-83218722D01*
X94123882Y-82831596D01*
X93486427Y-82566901D01*
X92842224Y-82566339D01*
X93254389Y-82443075D01*
X93298182Y-82419888D01*
X93329768Y-82381707D01*
X93344998Y-82322048D01*
X93349478Y-81443939D01*
X93434519Y-81359046D01*
X93592420Y-80978777D01*
X93592779Y-80567029D01*
X93435542Y-80186485D01*
X93356299Y-80107103D01*
X93369753Y-77470000D01*
X94665800Y-77470000D01*
X94714401Y-77460333D01*
X94755603Y-77432803D01*
X94783133Y-77391601D01*
X94792800Y-77343000D01*
X94792800Y-77239440D01*
X95159400Y-77239440D01*
X95407165Y-77190157D01*
X95617209Y-77049809D01*
X95749458Y-76851886D01*
X95784290Y-76886718D01*
X95898847Y-76772161D01*
X95985252Y-77028643D01*
X96558736Y-77238458D01*
X97168860Y-77212839D01*
X97613548Y-77028643D01*
X97699954Y-76772159D01*
X96799400Y-75871605D01*
X96785258Y-75885748D01*
X96605653Y-75706143D01*
X96619795Y-75692000D01*
X96605653Y-75677858D01*
X96785258Y-75498253D01*
X96799400Y-75512395D01*
X96813543Y-75498253D01*
X96993148Y-75677858D01*
X96993148Y-75677858D01*
G37*
X96993148Y-75677858D02*
X96979005Y-75692000D01*
X97879559Y-76592554D01*
X98029727Y-76541965D01*
X98037332Y-76560371D01*
X98328779Y-76852328D01*
X98332617Y-78241440D01*
X98144283Y-78319258D01*
X97852879Y-78610154D01*
X97694978Y-78990423D01*
X97694619Y-79402171D01*
X97851856Y-79782715D01*
X98018600Y-79949750D01*
X98018600Y-82104995D01*
X97902678Y-82064181D01*
X97372360Y-82092936D01*
X97015969Y-82240558D01*
X96954131Y-82476325D01*
X97709800Y-83231995D01*
X97723943Y-83217853D01*
X97903548Y-83397458D01*
X97889405Y-83411600D01*
X97903548Y-83425743D01*
X97723943Y-83605348D01*
X97709800Y-83591205D01*
X96954131Y-84346875D01*
X97015969Y-84582642D01*
X97362023Y-84704481D01*
X97338695Y-84746956D01*
X97333204Y-84775072D01*
X97282404Y-85410072D01*
X97288165Y-85459289D01*
X97303854Y-85491428D01*
X97573973Y-85890176D01*
X97597382Y-85946829D01*
X97643958Y-85993486D01*
X97837254Y-86278828D01*
X97872516Y-86313643D01*
X97934717Y-86334367D01*
X98011974Y-86339049D01*
X98463087Y-86526368D01*
X98959660Y-86526801D01*
X99240958Y-86710256D01*
X99327448Y-88569800D01*
X99218750Y-88569800D01*
X99060000Y-88728550D01*
X99060000Y-89611200D01*
X99080000Y-89611200D01*
X99080000Y-89865200D01*
X99060000Y-89865200D01*
X99060000Y-90747850D01*
X99218750Y-90906600D01*
X99327564Y-90906600D01*
X99318177Y-92558800D01*
X91210200Y-92558800D01*
X91210200Y-83071799D01*
X91360315Y-83134132D01*
X91772063Y-83134491D01*
X91910404Y-83077330D01*
X91669796Y-83317518D01*
X91405101Y-83954973D01*
X91404499Y-84645199D01*
X91668081Y-85283115D01*
X92155718Y-85771604D01*
X92793173Y-86036299D01*
X93312535Y-86036752D01*
X92941438Y-86407202D01*
X92585207Y-87265102D01*
X92584396Y-88194022D01*
X92939129Y-89052543D01*
X93595402Y-89709962D01*
X94453302Y-90066193D01*
X95382222Y-90067004D01*
X95486420Y-90023950D01*
X97840800Y-90023950D01*
X97840800Y-90397910D01*
X97937473Y-90631299D01*
X98116102Y-90809927D01*
X98349491Y-90906600D01*
X98647250Y-90906600D01*
X98806000Y-90747850D01*
X98806000Y-89865200D01*
X97999550Y-89865200D01*
X97840800Y-90023950D01*
X95486420Y-90023950D01*
X96240743Y-89712271D01*
X96875630Y-89078490D01*
X97840800Y-89078490D01*
X97840800Y-89452450D01*
X97999550Y-89611200D01*
X98806000Y-89611200D01*
X98806000Y-88728550D01*
X98647250Y-88569800D01*
X98349491Y-88569800D01*
X98116102Y-88666473D01*
X97937473Y-88845101D01*
X97840800Y-89078490D01*
X96875630Y-89078490D01*
X96898162Y-89055998D01*
X97254393Y-88198098D01*
X97255204Y-87269178D01*
X96900471Y-86410657D01*
X96244198Y-85753238D01*
X95386298Y-85397007D01*
X94499060Y-85396232D01*
X94609804Y-85285682D01*
X94874499Y-84648227D01*
X94875101Y-83958001D01*
X94611519Y-83320085D01*
X94510333Y-83218722D01*
X96362381Y-83218722D01*
X96391136Y-83749040D01*
X96538758Y-84105431D01*
X96774525Y-84167269D01*
X97530195Y-83411600D01*
X96774525Y-82655931D01*
X96538758Y-82717769D01*
X96362381Y-83218722D01*
X94510333Y-83218722D01*
X94123882Y-82831596D01*
X93486427Y-82566901D01*
X92842224Y-82566339D01*
X93254389Y-82443075D01*
X93298182Y-82419888D01*
X93329768Y-82381707D01*
X93344998Y-82322048D01*
X93349478Y-81443939D01*
X93434519Y-81359046D01*
X93592420Y-80978777D01*
X93592779Y-80567029D01*
X93435542Y-80186485D01*
X93356299Y-80107103D01*
X93369753Y-77470000D01*
X94665800Y-77470000D01*
X94714401Y-77460333D01*
X94755603Y-77432803D01*
X94783133Y-77391601D01*
X94792800Y-77343000D01*
X94792800Y-77239440D01*
X95159400Y-77239440D01*
X95407165Y-77190157D01*
X95617209Y-77049809D01*
X95749458Y-76851886D01*
X95784290Y-76886718D01*
X95898847Y-76772161D01*
X95985252Y-77028643D01*
X96558736Y-77238458D01*
X97168860Y-77212839D01*
X97613548Y-77028643D01*
X97699954Y-76772159D01*
X96799400Y-75871605D01*
X96785258Y-75885748D01*
X96605653Y-75706143D01*
X96619795Y-75692000D01*
X96605653Y-75677858D01*
X96785258Y-75498253D01*
X96799400Y-75512395D01*
X96813543Y-75498253D01*
X96993148Y-75677858D01*
G36*
X101071805Y-66862487D02*
X101071805Y-68428842D01*
X100253826Y-69246822D01*
X100023429Y-69246621D01*
X99999800Y-69256384D01*
X99999800Y-69197910D01*
X99903127Y-68964521D01*
X99724498Y-68785893D01*
X99491109Y-68689220D01*
X99193350Y-68689220D01*
X99034600Y-68847970D01*
X99034600Y-69730620D01*
X99054600Y-69730620D01*
X99054600Y-69984620D01*
X99034600Y-69984620D01*
X99034600Y-71678800D01*
X99054600Y-71678800D01*
X99054600Y-71932800D01*
X99034600Y-71932800D01*
X99034600Y-71952800D01*
X98780600Y-71952800D01*
X98780600Y-71932800D01*
X98760600Y-71932800D01*
X98760600Y-71678800D01*
X98780600Y-71678800D01*
X98780600Y-69984620D01*
X98760600Y-69984620D01*
X98760600Y-69730620D01*
X98780600Y-69730620D01*
X98780600Y-68847970D01*
X98621850Y-68689220D01*
X98606277Y-68689220D01*
X98603026Y-66853275D01*
X101071805Y-66862487D01*
X101071805Y-66862487D01*
G37*
X101071805Y-66862487D02*
X101071805Y-68428842D01*
X100253826Y-69246822D01*
X100023429Y-69246621D01*
X99999800Y-69256384D01*
X99999800Y-69197910D01*
X99903127Y-68964521D01*
X99724498Y-68785893D01*
X99491109Y-68689220D01*
X99193350Y-68689220D01*
X99034600Y-68847970D01*
X99034600Y-69730620D01*
X99054600Y-69730620D01*
X99054600Y-69984620D01*
X99034600Y-69984620D01*
X99034600Y-71678800D01*
X99054600Y-71678800D01*
X99054600Y-71932800D01*
X99034600Y-71932800D01*
X99034600Y-71952800D01*
X98780600Y-71952800D01*
X98780600Y-71932800D01*
X98760600Y-71932800D01*
X98760600Y-71678800D01*
X98780600Y-71678800D01*
X98780600Y-69984620D01*
X98760600Y-69984620D01*
X98760600Y-69730620D01*
X98780600Y-69730620D01*
X98780600Y-68847970D01*
X98621850Y-68689220D01*
X98606277Y-68689220D01*
X98603026Y-66853275D01*
X101071805Y-66862487D01*
G36*
X101071805Y-65953334D02*
X97789595Y-65963801D01*
X97741025Y-65973623D01*
X97699912Y-66001284D01*
X97672513Y-66042574D01*
X97663000Y-66090453D01*
X97655865Y-68702705D01*
X97510600Y-68847970D01*
X97510600Y-69730620D01*
X97530600Y-69730620D01*
X97530600Y-69984620D01*
X97510600Y-69984620D01*
X97510600Y-71678800D01*
X97530600Y-71678800D01*
X97530600Y-71932800D01*
X97510600Y-71932800D01*
X97510600Y-72815450D01*
X97644266Y-72949116D01*
X97642772Y-73496269D01*
X97569331Y-73623471D01*
X97126717Y-74066085D01*
X97107509Y-74078919D01*
X95450850Y-74093236D01*
X95453819Y-72091550D01*
X96291400Y-72091550D01*
X96291400Y-72465510D01*
X96388073Y-72698899D01*
X96566702Y-72877527D01*
X96800091Y-72974200D01*
X97097850Y-72974200D01*
X97256600Y-72815450D01*
X97256600Y-71932800D01*
X96450150Y-71932800D01*
X96291400Y-72091550D01*
X95453819Y-72091550D01*
X95456708Y-70143370D01*
X96291400Y-70143370D01*
X96291400Y-70517330D01*
X96388073Y-70750719D01*
X96469064Y-70831710D01*
X96388073Y-70912701D01*
X96291400Y-71146090D01*
X96291400Y-71520050D01*
X96450150Y-71678800D01*
X97256600Y-71678800D01*
X97256600Y-69984620D01*
X96450150Y-69984620D01*
X96291400Y-70143370D01*
X95456708Y-70143370D01*
X95458111Y-69197910D01*
X96291400Y-69197910D01*
X96291400Y-69571870D01*
X96450150Y-69730620D01*
X97256600Y-69730620D01*
X97256600Y-68847970D01*
X97097850Y-68689220D01*
X96800091Y-68689220D01*
X96566702Y-68785893D01*
X96388073Y-68964521D01*
X96291400Y-69197910D01*
X95458111Y-69197910D01*
X95458210Y-69131435D01*
X95484289Y-69114009D01*
X95624637Y-68903965D01*
X95673920Y-68656200D01*
X95673920Y-67589400D01*
X95624637Y-67341635D01*
X95484289Y-67131591D01*
X95461199Y-67116163D01*
X95461247Y-67084140D01*
X95556115Y-67044942D01*
X95847519Y-66754046D01*
X96005420Y-66373777D01*
X96005779Y-65962029D01*
X95848542Y-65581485D01*
X95557646Y-65290081D01*
X95463966Y-65251182D01*
X95465712Y-64073789D01*
X101071805Y-64062661D01*
X101071805Y-65953334D01*
X101071805Y-65953334D01*
G37*
X101071805Y-65953334D02*
X97789595Y-65963801D01*
X97741025Y-65973623D01*
X97699912Y-66001284D01*
X97672513Y-66042574D01*
X97663000Y-66090453D01*
X97655865Y-68702705D01*
X97510600Y-68847970D01*
X97510600Y-69730620D01*
X97530600Y-69730620D01*
X97530600Y-69984620D01*
X97510600Y-69984620D01*
X97510600Y-71678800D01*
X97530600Y-71678800D01*
X97530600Y-71932800D01*
X97510600Y-71932800D01*
X97510600Y-72815450D01*
X97644266Y-72949116D01*
X97642772Y-73496269D01*
X97569331Y-73623471D01*
X97126717Y-74066085D01*
X97107509Y-74078919D01*
X95450850Y-74093236D01*
X95453819Y-72091550D01*
X96291400Y-72091550D01*
X96291400Y-72465510D01*
X96388073Y-72698899D01*
X96566702Y-72877527D01*
X96800091Y-72974200D01*
X97097850Y-72974200D01*
X97256600Y-72815450D01*
X97256600Y-71932800D01*
X96450150Y-71932800D01*
X96291400Y-72091550D01*
X95453819Y-72091550D01*
X95456708Y-70143370D01*
X96291400Y-70143370D01*
X96291400Y-70517330D01*
X96388073Y-70750719D01*
X96469064Y-70831710D01*
X96388073Y-70912701D01*
X96291400Y-71146090D01*
X96291400Y-71520050D01*
X96450150Y-71678800D01*
X97256600Y-71678800D01*
X97256600Y-69984620D01*
X96450150Y-69984620D01*
X96291400Y-70143370D01*
X95456708Y-70143370D01*
X95458111Y-69197910D01*
X96291400Y-69197910D01*
X96291400Y-69571870D01*
X96450150Y-69730620D01*
X97256600Y-69730620D01*
X97256600Y-68847970D01*
X97097850Y-68689220D01*
X96800091Y-68689220D01*
X96566702Y-68785893D01*
X96388073Y-68964521D01*
X96291400Y-69197910D01*
X95458111Y-69197910D01*
X95458210Y-69131435D01*
X95484289Y-69114009D01*
X95624637Y-68903965D01*
X95673920Y-68656200D01*
X95673920Y-67589400D01*
X95624637Y-67341635D01*
X95484289Y-67131591D01*
X95461199Y-67116163D01*
X95461247Y-67084140D01*
X95556115Y-67044942D01*
X95847519Y-66754046D01*
X96005420Y-66373777D01*
X96005779Y-65962029D01*
X95848542Y-65581485D01*
X95557646Y-65290081D01*
X95463966Y-65251182D01*
X95465712Y-64073789D01*
X101071805Y-64062661D01*
X101071805Y-65953334D01*
G36*
X111761200Y-73177400D02*
X108981188Y-73177400D01*
X108656094Y-72852306D01*
X108425365Y-72698137D01*
X108153200Y-72644000D01*
X102412800Y-72644000D01*
X102140636Y-72698137D01*
X101909906Y-72852305D01*
X101584812Y-73177400D01*
X101346000Y-73177400D01*
X101346000Y-71525968D01*
X101377324Y-71443672D01*
X101728771Y-71443979D01*
X102109315Y-71286742D01*
X102400719Y-70995846D01*
X102558620Y-70615577D01*
X102558826Y-70379562D01*
X102916260Y-70022129D01*
X103070429Y-69791399D01*
X103089653Y-69694754D01*
X103124566Y-69519234D01*
X103124566Y-67202045D01*
X103278171Y-67202179D01*
X103658715Y-67044942D01*
X103950119Y-66754046D01*
X104108020Y-66373777D01*
X104108226Y-66137762D01*
X104383788Y-65862200D01*
X107442000Y-65862200D01*
X107714165Y-65808063D01*
X107944894Y-65653894D01*
X108554495Y-65044294D01*
X108665416Y-64878287D01*
X108756565Y-64860157D01*
X108813600Y-64822047D01*
X108870635Y-64860157D01*
X109118400Y-64909440D01*
X110032800Y-64909440D01*
X110280565Y-64860157D01*
X110490609Y-64719809D01*
X110518791Y-64677632D01*
X110664223Y-64738020D01*
X111075971Y-64738379D01*
X111456515Y-64581142D01*
X111747919Y-64290246D01*
X111761200Y-64258262D01*
X111761200Y-73177400D01*
X111761200Y-73177400D01*
G37*
X111761200Y-73177400D02*
X108981188Y-73177400D01*
X108656094Y-72852306D01*
X108425365Y-72698137D01*
X108153200Y-72644000D01*
X102412800Y-72644000D01*
X102140636Y-72698137D01*
X101909906Y-72852305D01*
X101584812Y-73177400D01*
X101346000Y-73177400D01*
X101346000Y-71525968D01*
X101377324Y-71443672D01*
X101728771Y-71443979D01*
X102109315Y-71286742D01*
X102400719Y-70995846D01*
X102558620Y-70615577D01*
X102558826Y-70379562D01*
X102916260Y-70022129D01*
X103070429Y-69791399D01*
X103089653Y-69694754D01*
X103124566Y-69519234D01*
X103124566Y-67202045D01*
X103278171Y-67202179D01*
X103658715Y-67044942D01*
X103950119Y-66754046D01*
X104108020Y-66373777D01*
X104108226Y-66137762D01*
X104383788Y-65862200D01*
X107442000Y-65862200D01*
X107714165Y-65808063D01*
X107944894Y-65653894D01*
X108554495Y-65044294D01*
X108665416Y-64878287D01*
X108756565Y-64860157D01*
X108813600Y-64822047D01*
X108870635Y-64860157D01*
X109118400Y-64909440D01*
X110032800Y-64909440D01*
X110280565Y-64860157D01*
X110490609Y-64719809D01*
X110518791Y-64677632D01*
X110664223Y-64738020D01*
X111075971Y-64738379D01*
X111456515Y-64581142D01*
X111747919Y-64290246D01*
X111761200Y-64258262D01*
X111761200Y-73177400D01*
M02*
