G04 #@! TF.GenerationSoftware,KiCad,Pcbnew,no-vcs-found-835c19f~60~ubuntu16.04.1*
G04 #@! TF.CreationDate,2017-10-10T23:17:26+02:00*
G04 #@! TF.ProjectId,arcade_adapter,6172636164655F616461707465722E6B,rev?*
G04 #@! TF.SameCoordinates,Original*
G04 #@! TF.FileFunction,Legend,Bot*
G04 #@! TF.FilePolarity,Positive*
%FSLAX46Y46*%
G04 Gerber Fmt 4.6, Leading zero omitted, Abs format (unit mm)*
G04 Created by KiCad (PCBNEW no-vcs-found-835c19f~60~ubuntu16.04.1) date Tue Oct 10 23:17:26 2017*
%MOMM*%
%LPD*%
G01*
G04 APERTURE LIST*
%ADD10C,0.200000*%
%ADD11C,0.203200*%
%ADD12C,0.300000*%
%ADD13C,0.150000*%
G04 APERTURE END LIST*
D10*
X91437114Y-76184057D02*
X92122828Y-76184057D01*
X91779971Y-76184057D02*
X91779971Y-74984057D01*
X91894257Y-75155485D01*
X92008542Y-75269771D01*
X92122828Y-75326914D01*
X110880857Y-77835171D02*
X110995142Y-77778028D01*
X111223714Y-77778028D01*
X111338000Y-77835171D01*
X111452285Y-77949457D01*
X111509428Y-78063742D01*
X111509428Y-78292314D01*
X111452285Y-78406600D01*
X111338000Y-78520885D01*
X111223714Y-78578028D01*
X110995142Y-78578028D01*
X110880857Y-78520885D01*
X111109428Y-77378028D02*
X111395142Y-77435171D01*
X111680857Y-77606600D01*
X111852285Y-77892314D01*
X111909428Y-78178028D01*
X111852285Y-78463742D01*
X111680857Y-78749457D01*
X111395142Y-78920885D01*
X111109428Y-78978028D01*
X110823714Y-78920885D01*
X110538000Y-78749457D01*
X110366571Y-78463742D01*
X110309428Y-78178028D01*
X110366571Y-77892314D01*
X110538000Y-77606600D01*
X110823714Y-77435171D01*
X111109428Y-77378028D01*
X108938000Y-77663742D02*
X108880857Y-77606600D01*
X108766571Y-77549457D01*
X108480857Y-77549457D01*
X108366571Y-77606600D01*
X108309428Y-77663742D01*
X108252285Y-77778028D01*
X108252285Y-77892314D01*
X108309428Y-78063742D01*
X108995142Y-78749457D01*
X108252285Y-78749457D01*
X107509428Y-77549457D02*
X107395142Y-77549457D01*
X107280857Y-77606600D01*
X107223714Y-77663742D01*
X107166571Y-77778028D01*
X107109428Y-78006600D01*
X107109428Y-78292314D01*
X107166571Y-78520885D01*
X107223714Y-78635171D01*
X107280857Y-78692314D01*
X107395142Y-78749457D01*
X107509428Y-78749457D01*
X107623714Y-78692314D01*
X107680857Y-78635171D01*
X107738000Y-78520885D01*
X107795142Y-78292314D01*
X107795142Y-78006600D01*
X107738000Y-77778028D01*
X107680857Y-77663742D01*
X107623714Y-77606600D01*
X107509428Y-77549457D01*
X105966571Y-78749457D02*
X106652285Y-78749457D01*
X106309428Y-78749457D02*
X106309428Y-77549457D01*
X106423714Y-77720885D01*
X106538000Y-77835171D01*
X106652285Y-77892314D01*
X105566571Y-77549457D02*
X104766571Y-77549457D01*
X105280857Y-78749457D01*
X103395142Y-78749457D02*
X103395142Y-77549457D01*
X102709428Y-78749457D01*
X102709428Y-77549457D01*
X102138000Y-78749457D02*
X102138000Y-77949457D01*
X102138000Y-77549457D02*
X102195142Y-77606600D01*
X102138000Y-77663742D01*
X102080857Y-77606600D01*
X102138000Y-77549457D01*
X102138000Y-77663742D01*
X101395142Y-78749457D02*
X101509428Y-78692314D01*
X101566571Y-78578028D01*
X101566571Y-77549457D01*
X100423714Y-77949457D02*
X100423714Y-78749457D01*
X100938000Y-77949457D02*
X100938000Y-78578028D01*
X100880857Y-78692314D01*
X100766571Y-78749457D01*
X100595142Y-78749457D01*
X100480857Y-78692314D01*
X100423714Y-78635171D01*
X99852285Y-77949457D02*
X99852285Y-78978028D01*
X99909428Y-79092314D01*
X100023714Y-79149457D01*
X100080857Y-79149457D01*
X99852285Y-77549457D02*
X99909428Y-77606600D01*
X99852285Y-77663742D01*
X99795142Y-77606600D01*
X99852285Y-77549457D01*
X99852285Y-77663742D01*
X98823714Y-78692314D02*
X98938000Y-78749457D01*
X99166571Y-78749457D01*
X99280857Y-78692314D01*
X99338000Y-78578028D01*
X99338000Y-78120885D01*
X99280857Y-78006600D01*
X99166571Y-77949457D01*
X98938000Y-77949457D01*
X98823714Y-78006600D01*
X98766571Y-78120885D01*
X98766571Y-78235171D01*
X99338000Y-78349457D01*
X103589057Y-62474657D02*
X103589057Y-61274657D01*
X103303342Y-61274657D01*
X103131914Y-61331800D01*
X103017628Y-61446085D01*
X102960485Y-61560371D01*
X102903342Y-61788942D01*
X102903342Y-61960371D01*
X102960485Y-62188942D01*
X103017628Y-62303228D01*
X103131914Y-62417514D01*
X103303342Y-62474657D01*
X103589057Y-62474657D01*
X102217628Y-62474657D02*
X102331914Y-62417514D01*
X102389057Y-62360371D01*
X102446200Y-62246085D01*
X102446200Y-61903228D01*
X102389057Y-61788942D01*
X102331914Y-61731800D01*
X102217628Y-61674657D01*
X102046200Y-61674657D01*
X101931914Y-61731800D01*
X101874771Y-61788942D01*
X101817628Y-61903228D01*
X101817628Y-62246085D01*
X101874771Y-62360371D01*
X101931914Y-62417514D01*
X102046200Y-62474657D01*
X102217628Y-62474657D01*
X101303342Y-61674657D02*
X101303342Y-62874657D01*
X101303342Y-61731800D02*
X101189057Y-61674657D01*
X100960485Y-61674657D01*
X100846200Y-61731800D01*
X100789057Y-61788942D01*
X100731914Y-61903228D01*
X100731914Y-62246085D01*
X100789057Y-62360371D01*
X100846200Y-62417514D01*
X100960485Y-62474657D01*
X101189057Y-62474657D01*
X101303342Y-62417514D01*
X100217628Y-61674657D02*
X100217628Y-62874657D01*
X100217628Y-61731800D02*
X100103342Y-61674657D01*
X99874771Y-61674657D01*
X99760485Y-61731800D01*
X99703342Y-61788942D01*
X99646200Y-61903228D01*
X99646200Y-62246085D01*
X99703342Y-62360371D01*
X99760485Y-62417514D01*
X99874771Y-62474657D01*
X100103342Y-62474657D01*
X100217628Y-62417514D01*
X98674771Y-62417514D02*
X98789057Y-62474657D01*
X99017628Y-62474657D01*
X99131914Y-62417514D01*
X99189057Y-62303228D01*
X99189057Y-61846085D01*
X99131914Y-61731800D01*
X99017628Y-61674657D01*
X98789057Y-61674657D01*
X98674771Y-61731800D01*
X98617628Y-61846085D01*
X98617628Y-61960371D01*
X99189057Y-62074657D01*
X97931914Y-62474657D02*
X98046200Y-62417514D01*
X98103342Y-62303228D01*
X98103342Y-61274657D01*
X96960485Y-61674657D02*
X96960485Y-62646085D01*
X97017628Y-62760371D01*
X97074771Y-62817514D01*
X97189057Y-62874657D01*
X97360485Y-62874657D01*
X97474771Y-62817514D01*
X96960485Y-62417514D02*
X97074771Y-62474657D01*
X97303342Y-62474657D01*
X97417628Y-62417514D01*
X97474771Y-62360371D01*
X97531914Y-62246085D01*
X97531914Y-61903228D01*
X97474771Y-61788942D01*
X97417628Y-61731800D01*
X97303342Y-61674657D01*
X97074771Y-61674657D01*
X96960485Y-61731800D01*
X95874771Y-62474657D02*
X95874771Y-61846085D01*
X95931914Y-61731800D01*
X96046200Y-61674657D01*
X96274771Y-61674657D01*
X96389057Y-61731800D01*
X95874771Y-62417514D02*
X95989057Y-62474657D01*
X96274771Y-62474657D01*
X96389057Y-62417514D01*
X96446200Y-62303228D01*
X96446200Y-62188942D01*
X96389057Y-62074657D01*
X96274771Y-62017514D01*
X95989057Y-62017514D01*
X95874771Y-61960371D01*
X95303342Y-61674657D02*
X95303342Y-62474657D01*
X95303342Y-61788942D02*
X95246200Y-61731800D01*
X95131914Y-61674657D01*
X94960485Y-61674657D01*
X94846200Y-61731800D01*
X94789057Y-61846085D01*
X94789057Y-62474657D01*
X93703342Y-61674657D02*
X93703342Y-62646085D01*
X93760485Y-62760371D01*
X93817628Y-62817514D01*
X93931914Y-62874657D01*
X94103342Y-62874657D01*
X94217628Y-62817514D01*
X93703342Y-62417514D02*
X93817628Y-62474657D01*
X94046200Y-62474657D01*
X94160485Y-62417514D01*
X94217628Y-62360371D01*
X94274771Y-62246085D01*
X94274771Y-61903228D01*
X94217628Y-61788942D01*
X94160485Y-61731800D01*
X94046200Y-61674657D01*
X93817628Y-61674657D01*
X93703342Y-61731800D01*
X92674771Y-62417514D02*
X92789057Y-62474657D01*
X93017628Y-62474657D01*
X93131914Y-62417514D01*
X93189057Y-62303228D01*
X93189057Y-61846085D01*
X93131914Y-61731800D01*
X93017628Y-61674657D01*
X92789057Y-61674657D01*
X92674771Y-61731800D01*
X92617628Y-61846085D01*
X92617628Y-61960371D01*
X93189057Y-62074657D01*
X92103342Y-62474657D02*
X92103342Y-61674657D01*
X92103342Y-61903228D02*
X92046200Y-61788942D01*
X91989057Y-61731800D01*
X91874771Y-61674657D01*
X91760485Y-61674657D01*
X105074771Y-64131800D02*
X104503342Y-64131800D01*
X105189057Y-64474657D02*
X104789057Y-63274657D01*
X104389057Y-64474657D01*
X103989057Y-64474657D02*
X103989057Y-63674657D01*
X103989057Y-63903228D02*
X103931914Y-63788942D01*
X103874771Y-63731800D01*
X103760485Y-63674657D01*
X103646200Y-63674657D01*
X102731914Y-64417514D02*
X102846200Y-64474657D01*
X103074771Y-64474657D01*
X103189057Y-64417514D01*
X103246200Y-64360371D01*
X103303342Y-64246085D01*
X103303342Y-63903228D01*
X103246200Y-63788942D01*
X103189057Y-63731800D01*
X103074771Y-63674657D01*
X102846200Y-63674657D01*
X102731914Y-63731800D01*
X101703342Y-64474657D02*
X101703342Y-63846085D01*
X101760485Y-63731800D01*
X101874771Y-63674657D01*
X102103342Y-63674657D01*
X102217628Y-63731800D01*
X101703342Y-64417514D02*
X101817628Y-64474657D01*
X102103342Y-64474657D01*
X102217628Y-64417514D01*
X102274771Y-64303228D01*
X102274771Y-64188942D01*
X102217628Y-64074657D01*
X102103342Y-64017514D01*
X101817628Y-64017514D01*
X101703342Y-63960371D01*
X100617628Y-64474657D02*
X100617628Y-63274657D01*
X100617628Y-64417514D02*
X100731914Y-64474657D01*
X100960485Y-64474657D01*
X101074771Y-64417514D01*
X101131914Y-64360371D01*
X101189057Y-64246085D01*
X101189057Y-63903228D01*
X101131914Y-63788942D01*
X101074771Y-63731800D01*
X100960485Y-63674657D01*
X100731914Y-63674657D01*
X100617628Y-63731800D01*
X99589057Y-64417514D02*
X99703342Y-64474657D01*
X99931914Y-64474657D01*
X100046200Y-64417514D01*
X100103342Y-64303228D01*
X100103342Y-63846085D01*
X100046200Y-63731800D01*
X99931914Y-63674657D01*
X99703342Y-63674657D01*
X99589057Y-63731800D01*
X99531914Y-63846085D01*
X99531914Y-63960371D01*
X100103342Y-64074657D01*
X98160485Y-64131800D02*
X97589057Y-64131800D01*
X98274771Y-64474657D02*
X97874771Y-63274657D01*
X97474771Y-64474657D01*
X96560485Y-64474657D02*
X96560485Y-63274657D01*
X96560485Y-64417514D02*
X96674771Y-64474657D01*
X96903342Y-64474657D01*
X97017628Y-64417514D01*
X97074771Y-64360371D01*
X97131914Y-64246085D01*
X97131914Y-63903228D01*
X97074771Y-63788942D01*
X97017628Y-63731800D01*
X96903342Y-63674657D01*
X96674771Y-63674657D01*
X96560485Y-63731800D01*
X95474771Y-64474657D02*
X95474771Y-63846085D01*
X95531914Y-63731800D01*
X95646200Y-63674657D01*
X95874771Y-63674657D01*
X95989057Y-63731800D01*
X95474771Y-64417514D02*
X95589057Y-64474657D01*
X95874771Y-64474657D01*
X95989057Y-64417514D01*
X96046200Y-64303228D01*
X96046200Y-64188942D01*
X95989057Y-64074657D01*
X95874771Y-64017514D01*
X95589057Y-64017514D01*
X95474771Y-63960371D01*
X94903342Y-63674657D02*
X94903342Y-64874657D01*
X94903342Y-63731800D02*
X94789057Y-63674657D01*
X94560485Y-63674657D01*
X94446200Y-63731800D01*
X94389057Y-63788942D01*
X94331914Y-63903228D01*
X94331914Y-64246085D01*
X94389057Y-64360371D01*
X94446200Y-64417514D01*
X94560485Y-64474657D01*
X94789057Y-64474657D01*
X94903342Y-64417514D01*
X93989057Y-63674657D02*
X93531914Y-63674657D01*
X93817628Y-63274657D02*
X93817628Y-64303228D01*
X93760485Y-64417514D01*
X93646200Y-64474657D01*
X93531914Y-64474657D01*
X92674771Y-64417514D02*
X92789057Y-64474657D01*
X93017628Y-64474657D01*
X93131914Y-64417514D01*
X93189057Y-64303228D01*
X93189057Y-63846085D01*
X93131914Y-63731800D01*
X93017628Y-63674657D01*
X92789057Y-63674657D01*
X92674771Y-63731800D01*
X92617628Y-63846085D01*
X92617628Y-63960371D01*
X93189057Y-64074657D01*
X92103342Y-64474657D02*
X92103342Y-63674657D01*
X92103342Y-63903228D02*
X92046200Y-63788942D01*
X91989057Y-63731800D01*
X91874771Y-63674657D01*
X91760485Y-63674657D01*
X97074771Y-66474657D02*
X97474771Y-65903228D01*
X97760485Y-66474657D02*
X97760485Y-65274657D01*
X97303342Y-65274657D01*
X97189057Y-65331800D01*
X97131914Y-65388942D01*
X97074771Y-65503228D01*
X97074771Y-65674657D01*
X97131914Y-65788942D01*
X97189057Y-65846085D01*
X97303342Y-65903228D01*
X97760485Y-65903228D01*
X96103342Y-66417514D02*
X96217628Y-66474657D01*
X96446200Y-66474657D01*
X96560485Y-66417514D01*
X96617628Y-66303228D01*
X96617628Y-65846085D01*
X96560485Y-65731800D01*
X96446200Y-65674657D01*
X96217628Y-65674657D01*
X96103342Y-65731800D01*
X96046200Y-65846085D01*
X96046200Y-65960371D01*
X96617628Y-66074657D01*
X95646200Y-65674657D02*
X95360485Y-66474657D01*
X95074771Y-65674657D01*
X93303342Y-65846085D02*
X93131914Y-65903228D01*
X93074771Y-65960371D01*
X93017628Y-66074657D01*
X93017628Y-66246085D01*
X93074771Y-66360371D01*
X93131914Y-66417514D01*
X93246200Y-66474657D01*
X93703342Y-66474657D01*
X93703342Y-65274657D01*
X93303342Y-65274657D01*
X93189057Y-65331800D01*
X93131914Y-65388942D01*
X93074771Y-65503228D01*
X93074771Y-65617514D01*
X93131914Y-65731800D01*
X93189057Y-65788942D01*
X93303342Y-65846085D01*
X93703342Y-65846085D01*
X92274771Y-65274657D02*
X92160485Y-65274657D01*
X92046200Y-65331800D01*
X91989057Y-65388942D01*
X91931914Y-65503228D01*
X91874771Y-65731800D01*
X91874771Y-66017514D01*
X91931914Y-66246085D01*
X91989057Y-66360371D01*
X92046200Y-66417514D01*
X92160485Y-66474657D01*
X92274771Y-66474657D01*
X92389057Y-66417514D01*
X92446200Y-66360371D01*
X92503342Y-66246085D01*
X92560485Y-66017514D01*
X92560485Y-65731800D01*
X92503342Y-65503228D01*
X92446200Y-65388942D01*
X92389057Y-65331800D01*
X92274771Y-65274657D01*
D11*
X99669600Y-70695820D02*
X96621600Y-70695820D01*
X99669600Y-69019420D02*
X96621600Y-69019420D01*
X99669600Y-69019420D02*
X99669600Y-70695820D01*
X96621600Y-69019420D02*
X96621600Y-70695820D01*
X96621600Y-70967600D02*
X96621600Y-72644000D01*
X99669600Y-70967600D02*
X99669600Y-72644000D01*
X99669600Y-70967600D02*
X96621600Y-70967600D01*
X99669600Y-72644000D02*
X96621600Y-72644000D01*
X107289600Y-62890400D02*
X110337600Y-62890400D01*
X107289600Y-64566800D02*
X110337600Y-64566800D01*
X107289600Y-64566800D02*
X107289600Y-62890400D01*
X110337600Y-64566800D02*
X110337600Y-62890400D01*
X111937800Y-85877400D02*
X110261400Y-85877400D01*
X111937800Y-88925400D02*
X110261400Y-88925400D01*
X111937800Y-88925400D02*
X111937800Y-85877400D01*
X110261400Y-88925400D02*
X110261400Y-85877400D01*
X111828580Y-60060840D02*
X111828580Y-63108840D01*
X110152180Y-60060840D02*
X110152180Y-63108840D01*
X110152180Y-60060840D02*
X111828580Y-60060840D01*
X110152180Y-63108840D02*
X111828580Y-63108840D01*
X98171000Y-88900000D02*
X98171000Y-90576400D01*
X101219000Y-88900000D02*
X101219000Y-90576400D01*
X101219000Y-88900000D02*
X98171000Y-88900000D01*
X101219000Y-90576400D02*
X98171000Y-90576400D01*
X95331280Y-68961000D02*
X92283280Y-68961000D01*
X95331280Y-67284600D02*
X92283280Y-67284600D01*
X95331280Y-67284600D02*
X95331280Y-68961000D01*
X92283280Y-67284600D02*
X92283280Y-68961000D01*
X110007400Y-92836200D02*
X112191800Y-92836200D01*
X112191800Y-89179400D02*
X112191800Y-92836200D01*
X110007400Y-92583000D02*
X112191800Y-92583000D01*
X110007400Y-89179400D02*
X110007400Y-92836200D01*
X110007400Y-89179400D02*
X112191800Y-89179400D01*
X101574600Y-90830400D02*
X101574600Y-88646000D01*
X101574600Y-90830400D02*
X105231400Y-90830400D01*
X104978200Y-90830400D02*
X104978200Y-88646000D01*
X101574600Y-88646000D02*
X105231400Y-88646000D01*
X105231400Y-90830400D02*
X105231400Y-88646000D01*
D12*
X92989400Y-74422000D02*
X92989400Y-76962000D01*
X108229400Y-74422000D02*
X92989400Y-74422000D01*
X108229400Y-76962000D02*
X108229400Y-74422000D01*
X92989400Y-76962000D02*
X108229400Y-76962000D01*
D13*
X101131666Y-70283342D02*
X101179285Y-70330961D01*
X101322142Y-70378580D01*
X101417380Y-70378580D01*
X101560238Y-70330961D01*
X101655476Y-70235723D01*
X101703095Y-70140485D01*
X101750714Y-69950009D01*
X101750714Y-69807152D01*
X101703095Y-69616676D01*
X101655476Y-69521438D01*
X101560238Y-69426200D01*
X101417380Y-69378580D01*
X101322142Y-69378580D01*
X101179285Y-69426200D01*
X101131666Y-69473819D01*
X100798333Y-69378580D02*
X100179285Y-69378580D01*
X100512619Y-69759533D01*
X100369761Y-69759533D01*
X100274523Y-69807152D01*
X100226904Y-69854771D01*
X100179285Y-69950009D01*
X100179285Y-70188104D01*
X100226904Y-70283342D01*
X100274523Y-70330961D01*
X100369761Y-70378580D01*
X100655476Y-70378580D01*
X100750714Y-70330961D01*
X100798333Y-70283342D01*
X101182466Y-72086742D02*
X101230085Y-72134361D01*
X101372942Y-72181980D01*
X101468180Y-72181980D01*
X101611038Y-72134361D01*
X101706276Y-72039123D01*
X101753895Y-71943885D01*
X101801514Y-71753409D01*
X101801514Y-71610552D01*
X101753895Y-71420076D01*
X101706276Y-71324838D01*
X101611038Y-71229600D01*
X101468180Y-71181980D01*
X101372942Y-71181980D01*
X101230085Y-71229600D01*
X101182466Y-71277219D01*
X100801514Y-71277219D02*
X100753895Y-71229600D01*
X100658657Y-71181980D01*
X100420561Y-71181980D01*
X100325323Y-71229600D01*
X100277704Y-71277219D01*
X100230085Y-71372457D01*
X100230085Y-71467695D01*
X100277704Y-71610552D01*
X100849133Y-72181980D01*
X100230085Y-72181980D01*
X107024466Y-62561742D02*
X107072085Y-62609361D01*
X107214942Y-62656980D01*
X107310180Y-62656980D01*
X107453038Y-62609361D01*
X107548276Y-62514123D01*
X107595895Y-62418885D01*
X107643514Y-62228409D01*
X107643514Y-62085552D01*
X107595895Y-61895076D01*
X107548276Y-61799838D01*
X107453038Y-61704600D01*
X107310180Y-61656980D01*
X107214942Y-61656980D01*
X107072085Y-61704600D01*
X107024466Y-61752219D01*
X106072085Y-62656980D02*
X106643514Y-62656980D01*
X106357800Y-62656980D02*
X106357800Y-61656980D01*
X106453038Y-61799838D01*
X106548276Y-61895076D01*
X106643514Y-61942695D01*
X112009180Y-84516933D02*
X111532990Y-84183600D01*
X112009180Y-83945504D02*
X111009180Y-83945504D01*
X111009180Y-84326457D01*
X111056800Y-84421695D01*
X111104419Y-84469314D01*
X111199657Y-84516933D01*
X111342514Y-84516933D01*
X111437752Y-84469314D01*
X111485371Y-84421695D01*
X111532990Y-84326457D01*
X111532990Y-83945504D01*
X111342514Y-85374076D02*
X112009180Y-85374076D01*
X110961561Y-85135980D02*
X111675847Y-84897885D01*
X111675847Y-85516933D01*
X109208866Y-61183780D02*
X109542200Y-60707590D01*
X109780295Y-61183780D02*
X109780295Y-60183780D01*
X109399342Y-60183780D01*
X109304104Y-60231400D01*
X109256485Y-60279019D01*
X109208866Y-60374257D01*
X109208866Y-60517114D01*
X109256485Y-60612352D01*
X109304104Y-60659971D01*
X109399342Y-60707590D01*
X109780295Y-60707590D01*
X108875533Y-60183780D02*
X108256485Y-60183780D01*
X108589819Y-60564733D01*
X108446961Y-60564733D01*
X108351723Y-60612352D01*
X108304104Y-60659971D01*
X108256485Y-60755209D01*
X108256485Y-60993304D01*
X108304104Y-61088542D01*
X108351723Y-61136161D01*
X108446961Y-61183780D01*
X108732676Y-61183780D01*
X108827914Y-61136161D01*
X108875533Y-61088542D01*
X99937866Y-88514180D02*
X100271200Y-88037990D01*
X100509295Y-88514180D02*
X100509295Y-87514180D01*
X100128342Y-87514180D01*
X100033104Y-87561800D01*
X99985485Y-87609419D01*
X99937866Y-87704657D01*
X99937866Y-87847514D01*
X99985485Y-87942752D01*
X100033104Y-87990371D01*
X100128342Y-88037990D01*
X100509295Y-88037990D01*
X99556914Y-87609419D02*
X99509295Y-87561800D01*
X99414057Y-87514180D01*
X99175961Y-87514180D01*
X99080723Y-87561800D01*
X99033104Y-87609419D01*
X98985485Y-87704657D01*
X98985485Y-87799895D01*
X99033104Y-87942752D01*
X99604533Y-88514180D01*
X98985485Y-88514180D01*
X93943466Y-70251580D02*
X94276800Y-69775390D01*
X94514895Y-70251580D02*
X94514895Y-69251580D01*
X94133942Y-69251580D01*
X94038704Y-69299200D01*
X93991085Y-69346819D01*
X93943466Y-69442057D01*
X93943466Y-69584914D01*
X93991085Y-69680152D01*
X94038704Y-69727771D01*
X94133942Y-69775390D01*
X94514895Y-69775390D01*
X92991085Y-70251580D02*
X93562514Y-70251580D01*
X93276800Y-70251580D02*
X93276800Y-69251580D01*
X93372038Y-69394438D01*
X93467276Y-69489676D01*
X93562514Y-69537295D01*
X109799380Y-89635104D02*
X108799380Y-89635104D01*
X108799380Y-89873200D01*
X108847000Y-90016057D01*
X108942238Y-90111295D01*
X109037476Y-90158914D01*
X109227952Y-90206533D01*
X109370809Y-90206533D01*
X109561285Y-90158914D01*
X109656523Y-90111295D01*
X109751761Y-90016057D01*
X109799380Y-89873200D01*
X109799380Y-89635104D01*
X108894619Y-90587485D02*
X108847000Y-90635104D01*
X108799380Y-90730342D01*
X108799380Y-90968438D01*
X108847000Y-91063676D01*
X108894619Y-91111295D01*
X108989857Y-91158914D01*
X109085095Y-91158914D01*
X109227952Y-91111295D01*
X109799380Y-90539866D01*
X109799380Y-91158914D01*
X104090695Y-88310980D02*
X104090695Y-87310980D01*
X103852600Y-87310980D01*
X103709742Y-87358600D01*
X103614504Y-87453838D01*
X103566885Y-87549076D01*
X103519266Y-87739552D01*
X103519266Y-87882409D01*
X103566885Y-88072885D01*
X103614504Y-88168123D01*
X103709742Y-88263361D01*
X103852600Y-88310980D01*
X104090695Y-88310980D01*
X102566885Y-88310980D02*
X103138314Y-88310980D01*
X102852600Y-88310980D02*
X102852600Y-87310980D01*
X102947838Y-87453838D01*
X103043076Y-87549076D01*
X103138314Y-87596695D01*
X94710200Y-77270057D02*
X94710200Y-78127200D01*
X94767342Y-78298628D01*
X94881628Y-78412914D01*
X95053057Y-78470057D01*
X95167342Y-78470057D01*
X94195914Y-77384342D02*
X94138771Y-77327200D01*
X94024485Y-77270057D01*
X93738771Y-77270057D01*
X93624485Y-77327200D01*
X93567342Y-77384342D01*
X93510200Y-77498628D01*
X93510200Y-77612914D01*
X93567342Y-77784342D01*
X94253057Y-78470057D01*
X93510200Y-78470057D01*
M02*
