G04 #@! TF.GenerationSoftware,KiCad,Pcbnew,no-vcs-found-835c19f~60~ubuntu16.04.1*
G04 #@! TF.CreationDate,2017-10-10T23:17:26+02:00*
G04 #@! TF.ProjectId,arcade_adapter,6172636164655F616461707465722E6B,rev?*
G04 #@! TF.SameCoordinates,Original*
G04 #@! TF.FileFunction,Soldermask,Bot*
G04 #@! TF.FilePolarity,Negative*
%FSLAX46Y46*%
G04 Gerber Fmt 4.6, Leading zero omitted, Abs format (unit mm)*
G04 Created by KiCad (PCBNEW no-vcs-found-835c19f~60~ubuntu16.04.1) date Tue Oct 10 23:17:26 2017*
%MOMM*%
%LPD*%
G01*
G04 APERTURE LIST*
%ADD10C,0.010000*%
%ADD11R,1.314400X1.466800*%
%ADD12R,1.466800X1.314400*%
%ADD13R,1.974800X1.466800*%
%ADD14R,1.466800X1.974800*%
%ADD15R,2.180000X5.480000*%
%ADD16C,1.800000*%
%ADD17C,3.800000*%
%ADD18C,2.600000*%
%ADD19R,2.200000X2.200000*%
%ADD20C,2.200000*%
G04 APERTURE END LIST*
D10*
G36*
X103597045Y-66825475D02*
X103601837Y-67180739D01*
X103727586Y-67027882D01*
X103776326Y-66969687D01*
X103818172Y-66921691D01*
X103848902Y-66888599D01*
X103864293Y-66875116D01*
X103864764Y-66875025D01*
X103882084Y-66865638D01*
X103915805Y-66841190D01*
X103953036Y-66811525D01*
X103995038Y-66778347D01*
X104028318Y-66759352D01*
X104064749Y-66750594D01*
X104116207Y-66748131D01*
X104144231Y-66748024D01*
X104226782Y-66750292D01*
X104282393Y-66758413D01*
X104315635Y-66774369D01*
X104331082Y-66800141D01*
X104333675Y-66830070D01*
X104328035Y-66868081D01*
X104309797Y-66884846D01*
X104294721Y-66888251D01*
X104257354Y-66893540D01*
X104290752Y-66916932D01*
X104317360Y-66944890D01*
X104322334Y-66970876D01*
X104304982Y-66986213D01*
X104296368Y-66987403D01*
X104281325Y-66991468D01*
X104288431Y-66996663D01*
X104302989Y-67016749D01*
X104308275Y-67048771D01*
X104304435Y-67079850D01*
X104286950Y-67087764D01*
X104268587Y-67085285D01*
X104237076Y-67085833D01*
X104231032Y-67101031D01*
X104250940Y-67125932D01*
X104263632Y-67135677D01*
X104298364Y-67160004D01*
X104262106Y-67418358D01*
X104246849Y-67519396D01*
X104229421Y-67622470D01*
X104211609Y-67717733D01*
X104195198Y-67795339D01*
X104189335Y-67819587D01*
X104168975Y-67884887D01*
X104135713Y-67974046D01*
X104091440Y-68082829D01*
X104038048Y-68207002D01*
X103977427Y-68342329D01*
X103911468Y-68484577D01*
X103842063Y-68629510D01*
X103771103Y-68772895D01*
X103712107Y-68888217D01*
X103593900Y-69115472D01*
X103593900Y-69753981D01*
X103593899Y-70392489D01*
X103690860Y-70395177D01*
X103767557Y-70403343D01*
X103823363Y-70421873D01*
X103854701Y-70448963D01*
X103858826Y-70479982D01*
X103859300Y-70509416D01*
X103866960Y-70520306D01*
X103871430Y-70535588D01*
X103861501Y-70545342D01*
X103849044Y-70560344D01*
X103858914Y-70568196D01*
X103872316Y-70584374D01*
X103865026Y-70603148D01*
X103844269Y-70611985D01*
X103834679Y-70610248D01*
X103817376Y-70606734D01*
X103826104Y-70620240D01*
X103828056Y-70622363D01*
X103843599Y-70647280D01*
X103845039Y-70678819D01*
X103831466Y-70724238D01*
X103808787Y-70776306D01*
X103785539Y-70823314D01*
X103766335Y-70848198D01*
X103742612Y-70857971D01*
X103707053Y-70859650D01*
X103669084Y-70859634D01*
X103640710Y-70862274D01*
X103620536Y-70871594D01*
X103607169Y-70891624D01*
X103599215Y-70926390D01*
X103595280Y-70979918D01*
X103593970Y-71056237D01*
X103593890Y-71159373D01*
X103593900Y-71186557D01*
X103593900Y-71494192D01*
X103665519Y-71512226D01*
X103718583Y-71533204D01*
X103745783Y-71565333D01*
X103748558Y-71612624D01*
X103728346Y-71679087D01*
X103726747Y-71683010D01*
X103701890Y-71732344D01*
X103673687Y-71759832D01*
X103645192Y-71771776D01*
X103593900Y-71786965D01*
X103593900Y-72450432D01*
X103594095Y-72592098D01*
X103594654Y-72723421D01*
X103595534Y-72841112D01*
X103596693Y-72941886D01*
X103598089Y-73022454D01*
X103599681Y-73079528D01*
X103601426Y-73109821D01*
X103602365Y-73113899D01*
X103620022Y-73107321D01*
X103657014Y-73090289D01*
X103693646Y-73072315D01*
X103811827Y-73003217D01*
X103930985Y-72916305D01*
X104037246Y-72821825D01*
X104049213Y-72809703D01*
X104083806Y-72772771D01*
X104109448Y-72740080D01*
X104129721Y-72704339D01*
X104148208Y-72658259D01*
X104168489Y-72594551D01*
X104188119Y-72527026D01*
X104220251Y-72402867D01*
X104239302Y-72301280D01*
X104244774Y-72232793D01*
X104246046Y-72178271D01*
X104252259Y-72145717D01*
X104267009Y-72125376D01*
X104290177Y-72109675D01*
X104355268Y-72057994D01*
X104422481Y-71980943D01*
X104487935Y-71884328D01*
X104547753Y-71773958D01*
X104598055Y-71655640D01*
X104603439Y-71640696D01*
X104635314Y-71504886D01*
X104640731Y-71359245D01*
X104621041Y-71209258D01*
X104577600Y-71060408D01*
X104511759Y-70918182D01*
X104424871Y-70788063D01*
X104380274Y-70736008D01*
X104339091Y-70687952D01*
X104308248Y-70645156D01*
X104293105Y-70615264D01*
X104292400Y-70610650D01*
X104297141Y-70578645D01*
X104309528Y-70526175D01*
X104326801Y-70462771D01*
X104346201Y-70397968D01*
X104364970Y-70341295D01*
X104380350Y-70302286D01*
X104383337Y-70296419D01*
X104392737Y-70285052D01*
X104403743Y-70287811D01*
X104419365Y-70308517D01*
X104442615Y-70350994D01*
X104470868Y-70407573D01*
X104503199Y-70471213D01*
X104546795Y-70553922D01*
X104597111Y-70647235D01*
X104649601Y-70742685D01*
X104679510Y-70796150D01*
X104726482Y-70881455D01*
X104783343Y-70987832D01*
X104846175Y-71107762D01*
X104911061Y-71233725D01*
X104974080Y-71358203D01*
X105010405Y-71431150D01*
X105086208Y-71581584D01*
X105153267Y-71707169D01*
X105214799Y-71812464D01*
X105274022Y-71902031D01*
X105334152Y-71980430D01*
X105398407Y-72052223D01*
X105470003Y-72121969D01*
X105543351Y-72186741D01*
X105585574Y-72221813D01*
X105626326Y-72252882D01*
X105669564Y-72282066D01*
X105719245Y-72311484D01*
X105779325Y-72343254D01*
X105853762Y-72379493D01*
X105946513Y-72422321D01*
X106061534Y-72473856D01*
X106165650Y-72519870D01*
X106267543Y-72565137D01*
X106373279Y-72612776D01*
X106474009Y-72658755D01*
X106560880Y-72699042D01*
X106610150Y-72722391D01*
X106683584Y-72757092D01*
X106737804Y-72780035D01*
X106781981Y-72793682D01*
X106825288Y-72800491D01*
X106876900Y-72802923D01*
X106911775Y-72803284D01*
X107042116Y-72793674D01*
X107159827Y-72762059D01*
X107267749Y-72706538D01*
X107368720Y-72625210D01*
X107465581Y-72516174D01*
X107561170Y-72377530D01*
X107570587Y-72362260D01*
X107618212Y-72284338D01*
X107806811Y-72230601D01*
X107908287Y-72199036D01*
X108009074Y-72162944D01*
X108103095Y-72124929D01*
X108184271Y-72087591D01*
X108246521Y-72053535D01*
X108282054Y-72027136D01*
X108305020Y-72009533D01*
X108331644Y-72006794D01*
X108373336Y-72016967D01*
X108412286Y-72032403D01*
X108434092Y-72048354D01*
X108435775Y-72052804D01*
X108426080Y-72082995D01*
X108400490Y-72129314D01*
X108364246Y-72184196D01*
X108322590Y-72240076D01*
X108280764Y-72289390D01*
X108252213Y-72317712D01*
X108203607Y-72354175D01*
X108154351Y-72381275D01*
X108127469Y-72390304D01*
X108077820Y-72403690D01*
X108004197Y-72429004D01*
X107911189Y-72464312D01*
X107803388Y-72507681D01*
X107685383Y-72557176D01*
X107561764Y-72610866D01*
X107437122Y-72666815D01*
X107316047Y-72723090D01*
X107203129Y-72777759D01*
X107178789Y-72789905D01*
X107093429Y-72834150D01*
X106998395Y-72885750D01*
X106897424Y-72942441D01*
X106794253Y-73001958D01*
X106692620Y-73062037D01*
X106596263Y-73120412D01*
X106508917Y-73174819D01*
X106434322Y-73222992D01*
X106376213Y-73262667D01*
X106338330Y-73291578D01*
X106324408Y-73307462D01*
X106324399Y-73307673D01*
X106336559Y-73321272D01*
X106370889Y-73316966D01*
X106424164Y-73295906D01*
X106493159Y-73259245D01*
X106540258Y-73230559D01*
X106668161Y-73151890D01*
X106816364Y-73064964D01*
X106978179Y-72973394D01*
X107146920Y-72880795D01*
X107315901Y-72790780D01*
X107478434Y-72706963D01*
X107627834Y-72632958D01*
X107757412Y-72572380D01*
X107761087Y-72570735D01*
X107816947Y-72547460D01*
X107897693Y-72516127D01*
X107998055Y-72478609D01*
X108112763Y-72436779D01*
X108236545Y-72392511D01*
X108364130Y-72347675D01*
X108490249Y-72304146D01*
X108609631Y-72263796D01*
X108717004Y-72228497D01*
X108785025Y-72206918D01*
X108878571Y-72180640D01*
X108963327Y-72164147D01*
X109047536Y-72157115D01*
X109139445Y-72159216D01*
X109247296Y-72170127D01*
X109348587Y-72184666D01*
X109532051Y-72202250D01*
X109724022Y-72201076D01*
X109882009Y-72185180D01*
X109901747Y-72183804D01*
X109891218Y-72190024D01*
X109852618Y-72203013D01*
X109797450Y-72223173D01*
X109773109Y-72239528D01*
X109779785Y-72251771D01*
X109817668Y-72259594D01*
X109817843Y-72259612D01*
X109836593Y-72262503D01*
X109844393Y-72268621D01*
X109838547Y-72281302D01*
X109816358Y-72303883D01*
X109775130Y-72339700D01*
X109712166Y-72392089D01*
X109707973Y-72395556D01*
X109647817Y-72444585D01*
X109596310Y-72485258D01*
X109558404Y-72513756D01*
X109539055Y-72526263D01*
X109538008Y-72526525D01*
X109520952Y-72534331D01*
X109488382Y-72558511D01*
X109439005Y-72600203D01*
X109371529Y-72660547D01*
X109284660Y-72740682D01*
X109177105Y-72841748D01*
X109134275Y-72882334D01*
X109049509Y-72961171D01*
X108963175Y-73038576D01*
X108880949Y-73109664D01*
X108808508Y-73169556D01*
X108751528Y-73213366D01*
X108739737Y-73221664D01*
X108607136Y-73312337D01*
X109694101Y-73316415D01*
X110781067Y-73320492D01*
X110874452Y-73264258D01*
X110946614Y-73225886D01*
X111023124Y-73193504D01*
X111093936Y-73170829D01*
X111149005Y-73161574D01*
X111152247Y-73161525D01*
X111176731Y-73156696D01*
X111225069Y-73143427D01*
X111291068Y-73123542D01*
X111368536Y-73098865D01*
X111399397Y-73088709D01*
X111677550Y-72983177D01*
X111932845Y-72858585D01*
X112007650Y-72815993D01*
X112110837Y-72755141D01*
X112114894Y-71376149D01*
X112115576Y-71134696D01*
X112116086Y-70922990D01*
X112116391Y-70739030D01*
X112116457Y-70580814D01*
X112116251Y-70446340D01*
X112115737Y-70333605D01*
X112114884Y-70240607D01*
X112113656Y-70165345D01*
X112112020Y-70105817D01*
X112109942Y-70060020D01*
X112107389Y-70025953D01*
X112104326Y-70001614D01*
X112100720Y-69985000D01*
X112096536Y-69974109D01*
X112091742Y-69966940D01*
X112091081Y-69966187D01*
X112050450Y-69931412D01*
X111994535Y-69896097D01*
X111934370Y-69866028D01*
X111880987Y-69846995D01*
X111876681Y-69846333D01*
X111876681Y-70335783D01*
X111893061Y-70346872D01*
X111894242Y-70381546D01*
X111880254Y-70441881D01*
X111878404Y-70448133D01*
X111843913Y-70522794D01*
X111791447Y-70587999D01*
X111728012Y-70637577D01*
X111660613Y-70665360D01*
X111627462Y-70669150D01*
X111599466Y-70656206D01*
X111585001Y-70622454D01*
X111583454Y-70575512D01*
X111594215Y-70522999D01*
X111616673Y-70472534D01*
X111646226Y-70435304D01*
X111679569Y-70412573D01*
X111730448Y-70386420D01*
X111787664Y-70361681D01*
X111840018Y-70343190D01*
X111876313Y-70335784D01*
X111876681Y-70335783D01*
X111876681Y-69846333D01*
X111856837Y-69843280D01*
X111814975Y-69837580D01*
X111758841Y-69823670D01*
X111721900Y-69811900D01*
X111618837Y-69785689D01*
X111526389Y-69785466D01*
X111467913Y-69802453D01*
X111467913Y-69827775D01*
X111494878Y-69839277D01*
X111530231Y-69868844D01*
X111567812Y-69909067D01*
X111601462Y-69952536D01*
X111625022Y-69991842D01*
X111632333Y-70019575D01*
X111630893Y-70023843D01*
X111611355Y-70030523D01*
X111575472Y-70027880D01*
X111574575Y-70027703D01*
X111533778Y-70026498D01*
X111477902Y-70032869D01*
X111477902Y-70224650D01*
X111553983Y-70226777D01*
X111601262Y-70234672D01*
X111622498Y-70250607D01*
X111620447Y-70276853D01*
X111597865Y-70315680D01*
X111594386Y-70320620D01*
X111569572Y-70360794D01*
X111540313Y-70415571D01*
X111522183Y-70453171D01*
X111482243Y-70540412D01*
X111515866Y-70606319D01*
X111537169Y-70653413D01*
X111539849Y-70677828D01*
X111523274Y-70683045D01*
X111502827Y-70678096D01*
X111464566Y-70655872D01*
X111417876Y-70614080D01*
X111367760Y-70559207D01*
X111319222Y-70497741D01*
X111277265Y-70436171D01*
X111246893Y-70380983D01*
X111233109Y-70338666D01*
X111233093Y-70328339D01*
X111252631Y-70295088D01*
X111296766Y-70265163D01*
X111358346Y-70241592D01*
X111430220Y-70227406D01*
X111477902Y-70224650D01*
X111477902Y-70032869D01*
X111476197Y-70033064D01*
X111423927Y-70043746D01*
X111368674Y-70056947D01*
X111335010Y-70061632D01*
X111313827Y-70057399D01*
X111296018Y-70043846D01*
X111289896Y-70037826D01*
X111269243Y-70013685D01*
X111268888Y-69993217D01*
X111285506Y-69964681D01*
X111316297Y-69928515D01*
X111359742Y-69889903D01*
X111406591Y-69855789D01*
X111447589Y-69833117D01*
X111467913Y-69827775D01*
X111467913Y-69802453D01*
X111436403Y-69811607D01*
X111404816Y-69826622D01*
X111317920Y-69871597D01*
X111269879Y-69835775D01*
X111180461Y-69787496D01*
X111083738Y-69769860D01*
X111079255Y-69770149D01*
X111079255Y-69911285D01*
X111094193Y-69912905D01*
X111111262Y-69938687D01*
X111115826Y-69946837D01*
X111127932Y-69978852D01*
X111133570Y-70013475D01*
X111131983Y-70039605D01*
X111122618Y-70046244D01*
X111063609Y-70016161D01*
X111031700Y-69992642D01*
X111024243Y-69971155D01*
X111038591Y-69947166D01*
X111055247Y-69930874D01*
X111079255Y-69911285D01*
X111079255Y-69770149D01*
X111027907Y-69773465D01*
X110983788Y-69780027D01*
X110983788Y-69859525D01*
X111013630Y-69870749D01*
X111025158Y-69898262D01*
X111018935Y-69932822D01*
X111006112Y-69950549D01*
X111006112Y-70177025D01*
X111053863Y-70187017D01*
X111084766Y-70218899D01*
X111100692Y-70275524D01*
X111103890Y-70326329D01*
X111106682Y-70383805D01*
X111112743Y-70432104D01*
X111118650Y-70454837D01*
X111131069Y-70490578D01*
X111124175Y-70511348D01*
X111093163Y-70530417D01*
X111090868Y-70531576D01*
X111012571Y-70560886D01*
X110947750Y-70562319D01*
X110894338Y-70535682D01*
X110870766Y-70511153D01*
X110853090Y-70471590D01*
X110843204Y-70415480D01*
X110841971Y-70356363D01*
X110850250Y-70307778D01*
X110856926Y-70293533D01*
X110899320Y-70241109D01*
X110947144Y-70200684D01*
X110991799Y-70178972D01*
X111006112Y-70177025D01*
X111006112Y-69950549D01*
X110995523Y-69965189D01*
X110976563Y-69978179D01*
X110931387Y-69994700D01*
X110894836Y-70000272D01*
X110894836Y-70084359D01*
X110911839Y-70085877D01*
X110906104Y-70109050D01*
X110878222Y-70154623D01*
X110840837Y-70207073D01*
X110799270Y-70267411D01*
X110777104Y-70313460D01*
X110772351Y-70354395D01*
X110783025Y-70399394D01*
X110793420Y-70426034D01*
X110806904Y-70464326D01*
X110810763Y-70488541D01*
X110809699Y-70491267D01*
X110793982Y-70486819D01*
X110767800Y-70469185D01*
X110767800Y-70566787D01*
X110922585Y-70643648D01*
X110998802Y-70680067D01*
X111057012Y-70703535D01*
X111106680Y-70717017D01*
X111157271Y-70723479D01*
X111181666Y-70724838D01*
X111247613Y-70731240D01*
X111310679Y-70743342D01*
X111347306Y-70754799D01*
X111384372Y-70774295D01*
X111427621Y-70802648D01*
X111469689Y-70834163D01*
X111503215Y-70863144D01*
X111520833Y-70883899D01*
X111521372Y-70889418D01*
X111505386Y-70887728D01*
X111470406Y-70876491D01*
X111452474Y-70869619D01*
X111358586Y-70840990D01*
X111238666Y-70818882D01*
X111097884Y-70803961D01*
X110941412Y-70796889D01*
X110882414Y-70796393D01*
X110798222Y-70797520D01*
X110724261Y-70800452D01*
X110666873Y-70804794D01*
X110632402Y-70810146D01*
X110626525Y-70812432D01*
X110624552Y-70820637D01*
X110649963Y-70825445D01*
X110704575Y-70827113D01*
X110729712Y-70827014D01*
X110867440Y-70837425D01*
X111003334Y-70869230D01*
X111125025Y-70919421D01*
X111137257Y-70926072D01*
X111182874Y-70955657D01*
X111198630Y-70978123D01*
X111184943Y-70995892D01*
X111151595Y-71008790D01*
X111117635Y-71023344D01*
X111102615Y-71038662D01*
X111110560Y-71048963D01*
X111122618Y-71050420D01*
X111121121Y-71057636D01*
X111097290Y-71076134D01*
X111063087Y-71097775D01*
X110983712Y-71144858D01*
X111039275Y-71145700D01*
X111094837Y-71146541D01*
X111050892Y-71182516D01*
X110994942Y-71222148D01*
X110914913Y-71270380D01*
X110816385Y-71324488D01*
X110704941Y-71381747D01*
X110586161Y-71439431D01*
X110465628Y-71494814D01*
X110348923Y-71545172D01*
X110241627Y-71587780D01*
X110166150Y-71614509D01*
X110105621Y-71635587D01*
X110057860Y-71654478D01*
X110030032Y-71668244D01*
X110025920Y-71671989D01*
X110007675Y-71683856D01*
X109996943Y-71685150D01*
X109969484Y-71691159D01*
X109920992Y-71707130D01*
X109859154Y-71729974D01*
X109791656Y-71756605D01*
X109726182Y-71783936D01*
X109670420Y-71808880D01*
X109632055Y-71828349D01*
X109620237Y-71836455D01*
X109599719Y-71851769D01*
X109592401Y-71852234D01*
X109574353Y-71852976D01*
X109536943Y-71863200D01*
X109489791Y-71879430D01*
X109442519Y-71898185D01*
X109404748Y-71915988D01*
X109389709Y-71925516D01*
X109355679Y-71942048D01*
X109311197Y-71951284D01*
X109263091Y-71961136D01*
X109207960Y-71980487D01*
X109193553Y-71987003D01*
X109149339Y-72006186D01*
X109114856Y-72017360D01*
X109106610Y-72018525D01*
X109074719Y-72025569D01*
X109024945Y-72043833D01*
X108966641Y-72069013D01*
X108912025Y-72095418D01*
X108912025Y-72129650D01*
X108925091Y-72135458D01*
X108922608Y-72140233D01*
X108903768Y-72142133D01*
X108901441Y-72140233D01*
X108903620Y-72130795D01*
X108912025Y-72129650D01*
X108912025Y-72095418D01*
X108909158Y-72096805D01*
X108861850Y-72122903D01*
X108834067Y-72143005D01*
X108832650Y-72144609D01*
X108806537Y-72161673D01*
X108753087Y-72184217D01*
X108675958Y-72210853D01*
X108586698Y-72237933D01*
X108508031Y-72260307D01*
X108441173Y-72278825D01*
X108391567Y-72292018D01*
X108364659Y-72298418D01*
X108361424Y-72298716D01*
X108368765Y-72285099D01*
X108391058Y-72248506D01*
X108425997Y-72192612D01*
X108471273Y-72121090D01*
X108524578Y-72037612D01*
X108566026Y-71973109D01*
X108693234Y-71783455D01*
X108814362Y-71621043D01*
X108933366Y-71482992D01*
X109054202Y-71366422D01*
X109180829Y-71268454D01*
X109317201Y-71186208D01*
X109467277Y-71116803D01*
X109635013Y-71057360D01*
X109824365Y-71004998D01*
X109930185Y-70980170D01*
X110011085Y-70962646D01*
X110088347Y-70946865D01*
X110152340Y-70934742D01*
X110188587Y-70928814D01*
X110234386Y-70919675D01*
X110265651Y-70908147D01*
X110272031Y-70902916D01*
X110272019Y-70896596D01*
X110259692Y-70893922D01*
X110231489Y-70895260D01*
X110183846Y-70900977D01*
X110113199Y-70911440D01*
X110015986Y-70927016D01*
X109979257Y-70933045D01*
X109913392Y-70943085D01*
X109858976Y-70949868D01*
X109823866Y-70952487D01*
X109815834Y-70951898D01*
X109821946Y-70941202D01*
X109849792Y-70915493D01*
X109895275Y-70878222D01*
X109954297Y-70832839D01*
X109978914Y-70814558D01*
X110050021Y-70762489D01*
X110101091Y-70726626D01*
X110137644Y-70704334D01*
X110165201Y-70692982D01*
X110189281Y-70689936D01*
X110215405Y-70692563D01*
X110229650Y-70694955D01*
X110278849Y-70702534D01*
X110322054Y-70705851D01*
X110364662Y-70703735D01*
X110412069Y-70695016D01*
X110469675Y-70678524D01*
X110542875Y-70653087D01*
X110637069Y-70617536D01*
X110701131Y-70592721D01*
X110767800Y-70566787D01*
X110767800Y-70469185D01*
X110763296Y-70466151D01*
X110725093Y-70435525D01*
X110686824Y-70401201D01*
X110655942Y-70369440D01*
X110641481Y-70349933D01*
X110637467Y-70310476D01*
X110659635Y-70262356D01*
X110705074Y-70209617D01*
X110770870Y-70156306D01*
X110790248Y-70143305D01*
X110854503Y-70103750D01*
X110894836Y-70084359D01*
X110894836Y-70000272D01*
X110883871Y-70001944D01*
X110843500Y-69999799D01*
X110819759Y-69988150D01*
X110817025Y-69980083D01*
X110829419Y-69960575D01*
X110860539Y-69932336D01*
X110901294Y-69901941D01*
X110942591Y-69875962D01*
X110975338Y-69860972D01*
X110983788Y-69859525D01*
X110983788Y-69780027D01*
X110951962Y-69784762D01*
X111018297Y-69712603D01*
X111079281Y-69642204D01*
X111137784Y-69567449D01*
X111188640Y-69495549D01*
X111226687Y-69433718D01*
X111244131Y-69397170D01*
X111280094Y-69307742D01*
X111312918Y-69244190D01*
X111345754Y-69201268D01*
X111376486Y-69176806D01*
X111416999Y-69155969D01*
X111449764Y-69145498D01*
X111453611Y-69145209D01*
X111480246Y-69136833D01*
X111517139Y-69115965D01*
X111555723Y-69088869D01*
X111587431Y-69061805D01*
X111603696Y-69041037D01*
X111603736Y-69035480D01*
X111585936Y-69033829D01*
X111545212Y-69040630D01*
X111488831Y-69054498D01*
X111458766Y-69063130D01*
X111322044Y-69104124D01*
X111235817Y-69058979D01*
X111171650Y-69019421D01*
X111120486Y-68976488D01*
X111091861Y-68941899D01*
X111091861Y-69305637D01*
X111125717Y-69309838D01*
X111134898Y-69320492D01*
X111121065Y-69337926D01*
X111085884Y-69362467D01*
X111064449Y-69375378D01*
X111028130Y-69390776D01*
X111028130Y-69631463D01*
X111033007Y-69635586D01*
X111026552Y-69648575D01*
X111019088Y-69659485D01*
X110993657Y-69691333D01*
X110952317Y-69738722D01*
X110901395Y-69794531D01*
X110861138Y-69837197D01*
X110738042Y-69965683D01*
X110652397Y-69924510D01*
X110604406Y-69899217D01*
X110582518Y-69880965D01*
X110582873Y-69866301D01*
X110584750Y-69864042D01*
X110604474Y-69850402D01*
X110647226Y-69825290D01*
X110707748Y-69791654D01*
X110780782Y-69752442D01*
X110828345Y-69727503D01*
X110912028Y-69684225D01*
X110970988Y-69654589D01*
X111008573Y-69637399D01*
X111028130Y-69631463D01*
X111028130Y-69390776D01*
X110954158Y-69422139D01*
X110833181Y-69441505D01*
X110707360Y-69433191D01*
X110586837Y-69398663D01*
X110539212Y-69379490D01*
X110578900Y-69366284D01*
X110609347Y-69359457D01*
X110663936Y-69350319D01*
X110735246Y-69340006D01*
X110815855Y-69329655D01*
X110825602Y-69328488D01*
X110943467Y-69315289D01*
X111031666Y-69307563D01*
X111091861Y-69305637D01*
X111091861Y-68941899D01*
X111085854Y-68934640D01*
X111071279Y-68898336D01*
X111080290Y-68872035D01*
X111085109Y-68868444D01*
X111106601Y-68862216D01*
X111150925Y-68853528D01*
X111209427Y-68844032D01*
X111224015Y-68841902D01*
X111288055Y-68830750D01*
X111343220Y-68817579D01*
X111379055Y-68804953D01*
X111382454Y-68803056D01*
X111413240Y-68776385D01*
X111457533Y-68728074D01*
X111511449Y-68663043D01*
X111571103Y-68586216D01*
X111632610Y-68502513D01*
X111692086Y-68416856D01*
X111717067Y-68379116D01*
X111793376Y-68273423D01*
X111868772Y-68194607D01*
X111948336Y-68138366D01*
X112037149Y-68100398D01*
X112051306Y-68096093D01*
X112118775Y-68076499D01*
X112118775Y-67658324D01*
X112118467Y-67546837D01*
X112117601Y-67446547D01*
X112116259Y-67361595D01*
X112114527Y-67296120D01*
X112112487Y-67254265D01*
X112110309Y-67240150D01*
X112092494Y-67246711D01*
X112055942Y-67263539D01*
X112026966Y-67277784D01*
X111965546Y-67305753D01*
X111893087Y-67334396D01*
X111818073Y-67360849D01*
X111748985Y-67382244D01*
X111694307Y-67395716D01*
X111689967Y-67396252D01*
X111689967Y-67803492D01*
X111698934Y-67804669D01*
X111743317Y-67813787D01*
X111764127Y-67827104D01*
X111769514Y-67850054D01*
X111769525Y-67851728D01*
X111757227Y-67887311D01*
X111726145Y-67924622D01*
X111722828Y-67927495D01*
X111679423Y-67954271D01*
X111621789Y-67977997D01*
X111591859Y-67986566D01*
X111528752Y-68003527D01*
X111481909Y-68020335D01*
X111456797Y-68034756D01*
X111455241Y-68042408D01*
X111472461Y-68041474D01*
X111508295Y-68031937D01*
X111522338Y-68027318D01*
X111573255Y-68015268D01*
X111615172Y-68014930D01*
X111639551Y-68025806D01*
X111642525Y-68034340D01*
X111628810Y-68056293D01*
X111592476Y-68085384D01*
X111540735Y-68117884D01*
X111480800Y-68150065D01*
X111419885Y-68178199D01*
X111365203Y-68198559D01*
X111323966Y-68207416D01*
X111310043Y-68206176D01*
X111308875Y-68191962D01*
X111326913Y-68161172D01*
X111348500Y-68133846D01*
X111386762Y-68083081D01*
X111419393Y-68029572D01*
X111430176Y-68007093D01*
X111480767Y-67911466D01*
X111541203Y-67845452D01*
X111611073Y-67809357D01*
X111689967Y-67803492D01*
X111689967Y-67396252D01*
X111668538Y-67398900D01*
X111633243Y-67387816D01*
X111588020Y-67352980D01*
X111550856Y-67315556D01*
X111511757Y-67273571D01*
X111457255Y-67215067D01*
X111393597Y-67146749D01*
X111327032Y-67075320D01*
X111303106Y-67049650D01*
X111256686Y-67001880D01*
X111256686Y-68264661D01*
X111293939Y-68275839D01*
X111309225Y-68281845D01*
X111346900Y-68301088D01*
X111366566Y-68319478D01*
X111367357Y-68325606D01*
X111348767Y-68339055D01*
X111340145Y-68338580D01*
X111313705Y-68333887D01*
X111267636Y-68327014D01*
X111235935Y-68322673D01*
X111235935Y-68361894D01*
X111286866Y-68368889D01*
X111308332Y-68385297D01*
X111309150Y-68390590D01*
X111300757Y-68415478D01*
X111279940Y-68452656D01*
X111273431Y-68462519D01*
X111235034Y-68512782D01*
X111200892Y-68537724D01*
X111162508Y-68539086D01*
X111111381Y-68518609D01*
X111080639Y-68501995D01*
X110987067Y-68449380D01*
X111029763Y-68409811D01*
X111073683Y-68380857D01*
X111132208Y-68366434D01*
X111155085Y-68364232D01*
X111235935Y-68361894D01*
X111235935Y-68322673D01*
X111231004Y-68321997D01*
X111142462Y-68310295D01*
X111193471Y-68283117D01*
X111228305Y-68267031D01*
X111256686Y-68264661D01*
X111256686Y-67001880D01*
X111125067Y-66866430D01*
X110977974Y-66729205D01*
X110977974Y-68494275D01*
X111017025Y-68501861D01*
X111058331Y-68520420D01*
X111090645Y-68543653D01*
X111102775Y-68564176D01*
X111091326Y-68592282D01*
X111082931Y-68600670D01*
X111058758Y-68614295D01*
X111014918Y-68635251D01*
X110963868Y-68657722D01*
X110864650Y-68699742D01*
X110864650Y-68645851D01*
X110875062Y-68597017D01*
X110901491Y-68549086D01*
X110936724Y-68511705D01*
X110973549Y-68494522D01*
X110977974Y-68494275D01*
X110977974Y-66729205D01*
X110948697Y-66701891D01*
X110762615Y-66545768D01*
X110660527Y-66466688D01*
X110660527Y-68798019D01*
X110680632Y-68811284D01*
X110688522Y-68818352D01*
X110716876Y-68864225D01*
X110720137Y-68924580D01*
X110698596Y-68994827D01*
X110674499Y-69038854D01*
X110645475Y-69079917D01*
X110620622Y-69106992D01*
X110609315Y-69113400D01*
X110586901Y-69122538D01*
X110551055Y-69145620D01*
X110533559Y-69158727D01*
X110498933Y-69184306D01*
X110498933Y-69953034D01*
X110530977Y-70005498D01*
X110550594Y-70040477D01*
X110553325Y-70059992D01*
X110539930Y-70074976D01*
X110536013Y-70077925D01*
X110495587Y-70090464D01*
X110452671Y-70087746D01*
X110411767Y-70079099D01*
X110385419Y-70071210D01*
X110383660Y-70070339D01*
X110381491Y-70054257D01*
X110403582Y-70026272D01*
X110446678Y-69990328D01*
X110454162Y-69984913D01*
X110498933Y-69953034D01*
X110498933Y-69184306D01*
X110490157Y-69190790D01*
X110451100Y-69216518D01*
X110441196Y-69222142D01*
X110417389Y-69230948D01*
X110402681Y-69220824D01*
X110388749Y-69185894D01*
X110388418Y-69184893D01*
X110379155Y-69146328D01*
X110382719Y-69112089D01*
X110401061Y-69067778D01*
X110405530Y-69058728D01*
X110439370Y-69003089D01*
X110481028Y-68949967D01*
X110494027Y-68936410D01*
X110547150Y-68884921D01*
X110547150Y-68944535D01*
X110550736Y-68982300D01*
X110560310Y-68995330D01*
X110563025Y-68994337D01*
X110573832Y-68973191D01*
X110578855Y-68934854D01*
X110578900Y-68930785D01*
X110593612Y-68868752D01*
X110617085Y-68832652D01*
X110643223Y-68804366D01*
X110660527Y-68798019D01*
X110660527Y-66466688D01*
X110634462Y-66446497D01*
X110493465Y-66342778D01*
X110367637Y-66256283D01*
X110249265Y-66182228D01*
X110130633Y-66115829D01*
X110004029Y-66052301D01*
X109982182Y-66041926D01*
X109899722Y-66001892D01*
X109800350Y-65951893D01*
X109694868Y-65897460D01*
X109594078Y-65844122D01*
X109563277Y-65827480D01*
X109329326Y-65700275D01*
X108771425Y-65700275D01*
X108619897Y-65700461D01*
X108497326Y-65701092D01*
X108400924Y-65702276D01*
X108327901Y-65704120D01*
X108275466Y-65706731D01*
X108240830Y-65710217D01*
X108221203Y-65714685D01*
X108213794Y-65720244D01*
X108213525Y-65721787D01*
X108225768Y-65740607D01*
X108258137Y-65770692D01*
X108304085Y-65806081D01*
X108312743Y-65812173D01*
X108414973Y-65884192D01*
X108516863Y-65957888D01*
X108613495Y-66029552D01*
X108699952Y-66095473D01*
X108771315Y-66151943D01*
X108822666Y-66195251D01*
X108832391Y-66204139D01*
X108874236Y-66241200D01*
X108909787Y-66268814D01*
X108927900Y-66279430D01*
X108943853Y-66292203D01*
X108979429Y-66325323D01*
X109032150Y-66376339D01*
X109099541Y-66442802D01*
X109179124Y-66522263D01*
X109268422Y-66612271D01*
X109364959Y-66710378D01*
X109404150Y-66750423D01*
X109547333Y-66896908D01*
X109670409Y-67022613D01*
X109775449Y-67129478D01*
X109864522Y-67219447D01*
X109939698Y-67294458D01*
X110003048Y-67356455D01*
X110056640Y-67407377D01*
X110102546Y-67449166D01*
X110142836Y-67483764D01*
X110179578Y-67513111D01*
X110214844Y-67539148D01*
X110250703Y-67563818D01*
X110289225Y-67589060D01*
X110318470Y-67607845D01*
X110374564Y-67644797D01*
X110418983Y-67676011D01*
X110445936Y-67697305D01*
X110451345Y-67703789D01*
X110438480Y-67705856D01*
X110405339Y-67698090D01*
X110386404Y-67691883D01*
X110370883Y-67686980D01*
X110370883Y-70147455D01*
X110405940Y-70155060D01*
X110440106Y-70177600D01*
X110448528Y-70184561D01*
X110484515Y-70218038D01*
X110497040Y-70243848D01*
X110488596Y-70272612D01*
X110474584Y-70295581D01*
X110458629Y-70332356D01*
X110466646Y-70365416D01*
X110478381Y-70403143D01*
X110483630Y-70451255D01*
X110483650Y-70454027D01*
X110478270Y-70496699D01*
X110456392Y-70525620D01*
X110432056Y-70542323D01*
X110390080Y-70563259D01*
X110354365Y-70573607D01*
X110350387Y-70573840D01*
X110327922Y-70567752D01*
X110284113Y-70551574D01*
X110226460Y-70528490D01*
X110162460Y-70501686D01*
X110099614Y-70474345D01*
X110045418Y-70449653D01*
X110007373Y-70430793D01*
X109994095Y-70422529D01*
X109998450Y-70407724D01*
X110016155Y-70377834D01*
X110019601Y-70372741D01*
X110050312Y-70326443D01*
X110076444Y-70284919D01*
X110118671Y-70238696D01*
X110182033Y-70196893D01*
X110255944Y-70165341D01*
X110319902Y-70150845D01*
X110370883Y-70147455D01*
X110370883Y-67686980D01*
X110340984Y-67677533D01*
X110306152Y-67669438D01*
X110299091Y-67668775D01*
X110278830Y-67675488D01*
X110283904Y-67691609D01*
X110311902Y-67711106D01*
X110316962Y-67713511D01*
X110346092Y-67730972D01*
X110356650Y-67744578D01*
X110343616Y-67754001D01*
X110317008Y-67756221D01*
X110317008Y-69986525D01*
X110348840Y-69994249D01*
X110353291Y-70016490D01*
X110330450Y-70051848D01*
X110311503Y-70071463D01*
X110277223Y-70095949D01*
X110235012Y-70115334D01*
X110193818Y-70127067D01*
X110162590Y-70128595D01*
X110150275Y-70117449D01*
X110162746Y-70093113D01*
X110194141Y-70060813D01*
X110235428Y-70027640D01*
X110277576Y-70000684D01*
X110311557Y-69987037D01*
X110317008Y-69986525D01*
X110317008Y-67756221D01*
X110314300Y-67756447D01*
X110283379Y-67751981D01*
X110268008Y-67744181D01*
X110238808Y-67732482D01*
X110205843Y-67738607D01*
X110187538Y-67756678D01*
X110190308Y-67785430D01*
X110207690Y-67813697D01*
X110237205Y-67846311D01*
X110023084Y-67837170D01*
X109914164Y-67832012D01*
X109801779Y-67825792D01*
X109690981Y-67818880D01*
X109674025Y-67817703D01*
X109674025Y-68950539D01*
X109839975Y-69123250D01*
X109897741Y-69183709D01*
X109946860Y-69235765D01*
X109983497Y-69275303D01*
X110003818Y-69298207D01*
X110006663Y-69302142D01*
X109992981Y-69304041D01*
X109957281Y-69302014D01*
X109931136Y-69299290D01*
X109918049Y-69296872D01*
X109918049Y-70182006D01*
X109918847Y-70182290D01*
X109940430Y-70204608D01*
X109941887Y-70240218D01*
X109924617Y-70279074D01*
X109902063Y-70302879D01*
X109863232Y-70326931D01*
X109827565Y-70342588D01*
X109827565Y-70452360D01*
X109884673Y-70456757D01*
X109930179Y-70474568D01*
X109956351Y-70503508D01*
X109959775Y-70520734D01*
X109952939Y-70545852D01*
X109935137Y-70588983D01*
X109913650Y-70633883D01*
X109868005Y-70707313D01*
X109813157Y-70770249D01*
X109754566Y-70818370D01*
X109697692Y-70847357D01*
X109647996Y-70852888D01*
X109639473Y-70850823D01*
X109615219Y-70851288D01*
X109610525Y-70861614D01*
X109602760Y-70866827D01*
X109585534Y-70850777D01*
X109567914Y-70830619D01*
X109565469Y-70836993D01*
X109571051Y-70859650D01*
X109583188Y-70914457D01*
X109581719Y-70946334D01*
X109564252Y-70962051D01*
X109532814Y-70967983D01*
X109488878Y-70965661D01*
X109465589Y-70952108D01*
X109459242Y-70926993D01*
X109454467Y-70879447D01*
X109452121Y-70818783D01*
X109452018Y-70805069D01*
X109453487Y-70735766D01*
X109459534Y-70688186D01*
X109472130Y-70652409D01*
X109487493Y-70626724D01*
X109520853Y-70584420D01*
X109545689Y-70565594D01*
X109559062Y-70571342D01*
X109558523Y-70600283D01*
X109559731Y-70641478D01*
X109571418Y-70664061D01*
X109588836Y-70674939D01*
X109600397Y-70659074D01*
X109603677Y-70649354D01*
X109635944Y-70580958D01*
X109683986Y-70519988D01*
X109739378Y-70476047D01*
X109766588Y-70463661D01*
X109827565Y-70452360D01*
X109827565Y-70342588D01*
X109815950Y-70347687D01*
X109770376Y-70361718D01*
X109736667Y-70365595D01*
X109726767Y-70362058D01*
X109729480Y-70344531D01*
X109749337Y-70312476D01*
X109780494Y-70273268D01*
X109817107Y-70234282D01*
X109852298Y-70203659D01*
X109888280Y-70184824D01*
X109918049Y-70182006D01*
X109918049Y-69296872D01*
X109867929Y-69287609D01*
X109804525Y-69269655D01*
X109789492Y-69264097D01*
X109731831Y-69225814D01*
X109694180Y-69164532D01*
X109675999Y-69079164D01*
X109674025Y-69031648D01*
X109674025Y-68950539D01*
X109674025Y-67817703D01*
X109586824Y-67811646D01*
X109494362Y-67804460D01*
X109418648Y-67797692D01*
X109364735Y-67791711D01*
X109338162Y-67787047D01*
X109305262Y-67780173D01*
X109257206Y-67773810D01*
X109242247Y-67772374D01*
X109194677Y-67765055D01*
X109129060Y-67750869D01*
X109057619Y-67732530D01*
X109039025Y-67727250D01*
X108937887Y-67699324D01*
X108818188Y-67668587D01*
X108689974Y-67637426D01*
X108563296Y-67608227D01*
X108448202Y-67583378D01*
X108364337Y-67566979D01*
X108291514Y-67552387D01*
X108219305Y-67535594D01*
X108162539Y-67520065D01*
X108159396Y-67519073D01*
X108096958Y-67494655D01*
X108011501Y-67454544D01*
X107906417Y-67400672D01*
X107785098Y-67334969D01*
X107650934Y-67259365D01*
X107507318Y-67175793D01*
X107357640Y-67086181D01*
X107205292Y-66992460D01*
X107053666Y-66896563D01*
X106965004Y-66839146D01*
X106877085Y-66779696D01*
X106799166Y-66721945D01*
X106723750Y-66659662D01*
X106643339Y-66586620D01*
X106550437Y-66496587D01*
X106538550Y-66484799D01*
X106457183Y-66402912D01*
X106380044Y-66323323D01*
X106310214Y-66249397D01*
X106250779Y-66184497D01*
X106204821Y-66131988D01*
X106175426Y-66095234D01*
X106165650Y-66077965D01*
X106176960Y-66066197D01*
X106208319Y-66037032D01*
X106255874Y-65993965D01*
X106315767Y-65940495D01*
X106371569Y-65891175D01*
X106438232Y-65831791D01*
X106495091Y-65779767D01*
X106538442Y-65738606D01*
X106564578Y-65711815D01*
X106570540Y-65702998D01*
X106555812Y-65708458D01*
X106525834Y-65730057D01*
X106504300Y-65748107D01*
X106464566Y-65778776D01*
X106442682Y-65784941D01*
X106438082Y-65779386D01*
X106443846Y-65754721D01*
X106459962Y-65737542D01*
X106479766Y-65718497D01*
X106481735Y-65709443D01*
X106466147Y-65714216D01*
X106427217Y-65731798D01*
X106413380Y-65738552D01*
X106413380Y-65816309D01*
X106412819Y-65825483D01*
X106412744Y-65825605D01*
X106390937Y-65846588D01*
X106369225Y-65860523D01*
X106346544Y-65869990D01*
X106347105Y-65860816D01*
X106347180Y-65860694D01*
X106368987Y-65839711D01*
X106390699Y-65825776D01*
X106413380Y-65816309D01*
X106413380Y-65738552D01*
X106395837Y-65747115D01*
X106395837Y-65763775D01*
X106403775Y-65771712D01*
X106395837Y-65779650D01*
X106387900Y-65771712D01*
X106395837Y-65763775D01*
X106395837Y-65747115D01*
X106369558Y-65759943D01*
X106351462Y-65769136D01*
X106351462Y-65800231D01*
X106356150Y-65803810D01*
X106345376Y-65816472D01*
X106323366Y-65839747D01*
X106323366Y-65894667D01*
X106324400Y-65896838D01*
X106313224Y-65911325D01*
X106308525Y-65914587D01*
X106293683Y-65918632D01*
X106292650Y-65916461D01*
X106303825Y-65901974D01*
X106308525Y-65898712D01*
X106323366Y-65894667D01*
X106323366Y-65839747D01*
X106314931Y-65848667D01*
X106267631Y-65897508D01*
X106206290Y-65960113D01*
X106133723Y-66033597D01*
X106052745Y-66115076D01*
X106034681Y-66133186D01*
X105975318Y-66193271D01*
X105975318Y-66276172D01*
X106019384Y-66277954D01*
X106078294Y-66288144D01*
X106144534Y-66305563D01*
X106190244Y-66321055D01*
X106281806Y-66364913D01*
X106384668Y-66430756D01*
X106492601Y-66514096D01*
X106599380Y-66610444D01*
X106620243Y-66631074D01*
X106760411Y-66758639D01*
X106930621Y-66890226D01*
X107129535Y-67025013D01*
X107355816Y-67162176D01*
X107608127Y-67300893D01*
X107885132Y-67440340D01*
X108094462Y-67538610D01*
X108214337Y-67593780D01*
X108330662Y-67648137D01*
X108440052Y-67700024D01*
X108539120Y-67747786D01*
X108624482Y-67789767D01*
X108692752Y-67824312D01*
X108740544Y-67849765D01*
X108764473Y-67864471D01*
X108766487Y-67867229D01*
X108749070Y-67868007D01*
X108705169Y-67865633D01*
X108639852Y-67860506D01*
X108558186Y-67853023D01*
X108465674Y-67843627D01*
X108301619Y-67827109D01*
X108155565Y-67814204D01*
X108029653Y-67805017D01*
X107926027Y-67799649D01*
X107846829Y-67798204D01*
X107794200Y-67800786D01*
X107770284Y-67807495D01*
X107769025Y-67810167D01*
X107776476Y-67823236D01*
X107781303Y-67821810D01*
X107799309Y-67821649D01*
X107845434Y-67824421D01*
X107916208Y-67829830D01*
X108008164Y-67837581D01*
X108117834Y-67847381D01*
X108241751Y-67858933D01*
X108376446Y-67871943D01*
X108412334Y-67875481D01*
X108555508Y-67889446D01*
X108694173Y-67902574D01*
X108823884Y-67914475D01*
X108940196Y-67924756D01*
X109038667Y-67933025D01*
X109114851Y-67938890D01*
X109164304Y-67941959D01*
X109167370Y-67942088D01*
X109259069Y-67949774D01*
X109325173Y-67966193D01*
X109371230Y-67993907D01*
X109402787Y-68035476D01*
X109411940Y-68054978D01*
X109421614Y-68091644D01*
X109431855Y-68153139D01*
X109441975Y-68232568D01*
X109451286Y-68323033D01*
X109459101Y-68417640D01*
X109464730Y-68509492D01*
X109467486Y-68591693D01*
X109467650Y-68613265D01*
X109470076Y-68667315D01*
X109476405Y-68707869D01*
X109484295Y-68724938D01*
X109492071Y-68742322D01*
X109483916Y-68755741D01*
X109477147Y-68780437D01*
X109472208Y-68834627D01*
X109469217Y-68916101D01*
X109468288Y-69022650D01*
X109468386Y-69051984D01*
X109468142Y-69178586D01*
X109466163Y-69299371D01*
X109462669Y-69410423D01*
X109457877Y-69507823D01*
X109452006Y-69587655D01*
X109445274Y-69646003D01*
X109437900Y-69678948D01*
X109433100Y-69684900D01*
X109414374Y-69676487D01*
X109376512Y-69654027D01*
X109326386Y-69621685D01*
X109304391Y-69606880D01*
X109218041Y-69552103D01*
X109114525Y-69492899D01*
X108999562Y-69431960D01*
X108878869Y-69371975D01*
X108758166Y-69315635D01*
X108643171Y-69265632D01*
X108539604Y-69224655D01*
X108453181Y-69195395D01*
X108402921Y-69182733D01*
X108365956Y-69177485D01*
X108357777Y-69181008D01*
X108376896Y-69192509D01*
X108421824Y-69211196D01*
X108491072Y-69236279D01*
X108525945Y-69248159D01*
X108669275Y-69301295D01*
X108820467Y-69366252D01*
X108971620Y-69439043D01*
X109114830Y-69515677D01*
X109242194Y-69592166D01*
X109336064Y-69657073D01*
X109381346Y-69693092D01*
X109405136Y-69718785D01*
X109412450Y-69741302D01*
X109409744Y-69762101D01*
X109400040Y-69797440D01*
X109393218Y-69815645D01*
X109378622Y-69811988D01*
X109344993Y-69792411D01*
X109298293Y-69760571D01*
X109272382Y-69741553D01*
X109207937Y-69695583D01*
X109130151Y-69643894D01*
X109043130Y-69588829D01*
X108950980Y-69532729D01*
X108857809Y-69477936D01*
X108767723Y-69426792D01*
X108684827Y-69381639D01*
X108613230Y-69344817D01*
X108557037Y-69318670D01*
X108520355Y-69305539D01*
X108508064Y-69305693D01*
X108518410Y-69315420D01*
X108551856Y-69336805D01*
X108603356Y-69366812D01*
X108667865Y-69402405D01*
X108676451Y-69407020D01*
X108766749Y-69457311D01*
X108863224Y-69514333D01*
X108962095Y-69575511D01*
X109059586Y-69638273D01*
X109151917Y-69700045D01*
X109235310Y-69758256D01*
X109305987Y-69810331D01*
X109360169Y-69853697D01*
X109394079Y-69885782D01*
X109404150Y-69902589D01*
X109395473Y-69944296D01*
X109389493Y-69959483D01*
X109389493Y-70939025D01*
X109402072Y-70951909D01*
X109402258Y-70984307D01*
X109390805Y-71026832D01*
X109380577Y-71049686D01*
X109356773Y-71083311D01*
X109323393Y-71116790D01*
X109288624Y-71143518D01*
X109260651Y-71156885D01*
X109249880Y-71155171D01*
X109245752Y-71131161D01*
X109256302Y-71091358D01*
X109277294Y-71045474D01*
X109304497Y-71003221D01*
X109326279Y-70979882D01*
X109360589Y-70953856D01*
X109385676Y-70939818D01*
X109389493Y-70939025D01*
X109389493Y-69959483D01*
X109372215Y-70003366D01*
X109338536Y-70071531D01*
X109298595Y-70140526D01*
X109256552Y-70202083D01*
X109247760Y-70213397D01*
X109178324Y-70293643D01*
X109091955Y-70383378D01*
X109017741Y-70454725D01*
X109017741Y-71224775D01*
X109033867Y-71236560D01*
X109032222Y-71268395D01*
X109014180Y-71315001D01*
X108981113Y-71371099D01*
X108978825Y-71374442D01*
X108944665Y-71416931D01*
X108921137Y-71430651D01*
X108909087Y-71415540D01*
X108908537Y-71379572D01*
X108920770Y-71335402D01*
X108945861Y-71288846D01*
X108977042Y-71249496D01*
X109007545Y-71226945D01*
X109017741Y-71224775D01*
X109017741Y-70454725D01*
X108997104Y-70474565D01*
X108902227Y-70559165D01*
X108815775Y-70629142D01*
X108792498Y-70646259D01*
X108712882Y-70711411D01*
X108662629Y-70772006D01*
X108642518Y-70827065D01*
X108642150Y-70835003D01*
X108652207Y-70860258D01*
X108677873Y-70897545D01*
X108697048Y-70920324D01*
X108755783Y-71001806D01*
X108782991Y-71081219D01*
X108778634Y-71158347D01*
X108752136Y-71218680D01*
X108728525Y-71246089D01*
X108728525Y-71479282D01*
X108745373Y-71483693D01*
X108746228Y-71509586D01*
X108744908Y-71514493D01*
X108733274Y-71546393D01*
X108712595Y-71596567D01*
X108687214Y-71654501D01*
X108685625Y-71658022D01*
X108654603Y-71719981D01*
X108630086Y-71753479D01*
X108611717Y-71761047D01*
X108586818Y-71743182D01*
X108582150Y-71705727D01*
X108596720Y-71652706D01*
X108629535Y-71588144D01*
X108668644Y-71530368D01*
X108701132Y-71495218D01*
X108728525Y-71479282D01*
X108728525Y-71246089D01*
X108724362Y-71250922D01*
X108677479Y-71292763D01*
X108619515Y-71337322D01*
X108589417Y-71358120D01*
X108485759Y-71436811D01*
X108373038Y-71540582D01*
X108302823Y-71613305D01*
X108243890Y-71675785D01*
X108189709Y-71731332D01*
X108145253Y-71774980D01*
X108115499Y-71801762D01*
X108109668Y-71806110D01*
X108067685Y-71821447D01*
X108016222Y-71816912D01*
X107952946Y-71791428D01*
X107875524Y-71743917D01*
X107781622Y-71673301D01*
X107729537Y-71630484D01*
X107700084Y-71603470D01*
X107692818Y-71585932D01*
X107704560Y-71568242D01*
X107707879Y-71564867D01*
X107741682Y-71547789D01*
X107790591Y-71539519D01*
X107838818Y-71541540D01*
X107864222Y-71550180D01*
X107888506Y-71549564D01*
X107914919Y-71530606D01*
X107932341Y-71503816D01*
X107932943Y-71485220D01*
X107933019Y-71465690D01*
X107939011Y-71462900D01*
X107954510Y-71449923D01*
X107974932Y-71417652D01*
X107980543Y-71406491D01*
X108000832Y-71373132D01*
X108018621Y-71358756D01*
X108022575Y-71359434D01*
X108038191Y-71377584D01*
X108062537Y-71414543D01*
X108081959Y-71447577D01*
X108110188Y-71493525D01*
X108133658Y-71517301D01*
X108160492Y-71525754D01*
X108175424Y-71526383D01*
X108225908Y-71514051D01*
X108287342Y-71480083D01*
X108352773Y-71429062D01*
X108409566Y-71372081D01*
X108456138Y-71315512D01*
X108500805Y-71254559D01*
X108539074Y-71196140D01*
X108566454Y-71147172D01*
X108578453Y-71114570D01*
X108578650Y-71111719D01*
X108566536Y-71070259D01*
X108535234Y-71021405D01*
X108492303Y-70973130D01*
X108445300Y-70933406D01*
X108401784Y-70910204D01*
X108384815Y-70907275D01*
X108366574Y-70918015D01*
X108333384Y-70946444D01*
X108291780Y-70986874D01*
X108283177Y-70995740D01*
X108235267Y-71042814D01*
X108201469Y-71068313D01*
X108176488Y-71075787D01*
X108166305Y-71074091D01*
X108128680Y-71068935D01*
X108113823Y-71083176D01*
X108121275Y-71114568D01*
X108150575Y-71160862D01*
X108194737Y-71212868D01*
X108216895Y-71239367D01*
X108220135Y-71252315D01*
X108202231Y-71251476D01*
X108160957Y-71236614D01*
X108094088Y-71207495D01*
X108078972Y-71200635D01*
X107956330Y-71144745D01*
X107833052Y-71268104D01*
X107754935Y-71349613D01*
X107699490Y-71415998D01*
X107664042Y-71471255D01*
X107645918Y-71519378D01*
X107642084Y-71553434D01*
X107655038Y-71630172D01*
X107689561Y-71702692D01*
X107703205Y-71720966D01*
X107719876Y-71748015D01*
X107713726Y-71758188D01*
X107689090Y-71751053D01*
X107650377Y-71726230D01*
X107587019Y-71661763D01*
X107552012Y-71584815D01*
X107543128Y-71521887D01*
X107543999Y-71486252D01*
X107552266Y-71452660D01*
X107571287Y-71413406D01*
X107604422Y-71360785D01*
X107629309Y-71324180D01*
X107673228Y-71261053D01*
X107715704Y-71201072D01*
X107750082Y-71153598D01*
X107761503Y-71138328D01*
X107784929Y-71104855D01*
X107795025Y-71084628D01*
X107793818Y-71081900D01*
X107799060Y-71072828D01*
X107825162Y-71048008D01*
X107867801Y-71011037D01*
X107922660Y-70965509D01*
X107985418Y-70915019D01*
X108051756Y-70863162D01*
X108107076Y-70821184D01*
X108158992Y-70781300D01*
X108198748Y-70748618D01*
X108221193Y-70727495D01*
X108224135Y-70722093D01*
X108205921Y-70723097D01*
X108173227Y-70736397D01*
X108137468Y-70755919D01*
X108110060Y-70775588D01*
X108101820Y-70787183D01*
X108089092Y-70803987D01*
X108058051Y-70829298D01*
X108018348Y-70856587D01*
X107979632Y-70879322D01*
X107951554Y-70890972D01*
X107947843Y-70891400D01*
X107925989Y-70899182D01*
X107885084Y-70919780D01*
X107832094Y-70949065D01*
X107773987Y-70982912D01*
X107717728Y-71017194D01*
X107670284Y-71047785D01*
X107638621Y-71070557D01*
X107629423Y-71080015D01*
X107635375Y-71090777D01*
X107652604Y-71087366D01*
X107662590Y-71087847D01*
X107647741Y-71104185D01*
X107638056Y-71112320D01*
X107604982Y-71150125D01*
X107594157Y-71198509D01*
X107593993Y-71206083D01*
X107593587Y-71264462D01*
X107586462Y-71253415D01*
X107586462Y-71304150D01*
X107594400Y-71312087D01*
X107586462Y-71320025D01*
X107578525Y-71312087D01*
X107586462Y-71304150D01*
X107586462Y-71253415D01*
X107537276Y-71177150D01*
X107473480Y-71072154D01*
X107426973Y-70982351D01*
X107399012Y-70910498D01*
X107390850Y-70859347D01*
X107391087Y-70856252D01*
X107395962Y-70807913D01*
X107448705Y-70881633D01*
X107479501Y-70919956D01*
X107504713Y-70942976D01*
X107516174Y-70946252D01*
X107530685Y-70923653D01*
X107518374Y-70896154D01*
X107490207Y-70874987D01*
X107452160Y-70844962D01*
X107423284Y-70808804D01*
X107398112Y-70773416D01*
X107381202Y-70768111D01*
X107371029Y-70792771D01*
X107369235Y-70804581D01*
X107360746Y-70833946D01*
X107350112Y-70842912D01*
X107330367Y-70852808D01*
X107322779Y-70862262D01*
X107310771Y-70864046D01*
X107285484Y-70848792D01*
X107244813Y-70814774D01*
X107186650Y-70760262D01*
X107127068Y-70701690D01*
X107065280Y-70641294D01*
X107011208Y-70590621D01*
X106968794Y-70553191D01*
X106941978Y-70532524D01*
X106934665Y-70529843D01*
X106932876Y-70549517D01*
X106947809Y-70571803D01*
X106968794Y-70581837D01*
X106984533Y-70593658D01*
X107015457Y-70626033D01*
X107057420Y-70674325D01*
X107106276Y-70733902D01*
X107117902Y-70748525D01*
X107169106Y-70813209D01*
X107215135Y-70871203D01*
X107251402Y-70916736D01*
X107273322Y-70944042D01*
X107275195Y-70946339D01*
X107290833Y-70966333D01*
X107287586Y-70968376D01*
X107261802Y-70952889D01*
X107255101Y-70948661D01*
X107234019Y-70935710D01*
X107222748Y-70931361D01*
X107222820Y-70939098D01*
X107235769Y-70962409D01*
X107263127Y-71004780D01*
X107306430Y-71069699D01*
X107311974Y-71077980D01*
X107348254Y-71133437D01*
X107378031Y-71181288D01*
X107396448Y-71213639D01*
X107399336Y-71219904D01*
X107393457Y-71225147D01*
X107367354Y-71213218D01*
X107325375Y-71187056D01*
X107271867Y-71149596D01*
X107211179Y-71103775D01*
X107147658Y-71052530D01*
X107131881Y-71039246D01*
X107091520Y-70998696D01*
X107039014Y-70936828D01*
X106978603Y-70859517D01*
X106914526Y-70772642D01*
X106851024Y-70682079D01*
X106792335Y-70593705D01*
X106742700Y-70513397D01*
X106710269Y-70454837D01*
X106669834Y-70375462D01*
X106711469Y-70413986D01*
X106738223Y-70442537D01*
X106777858Y-70489473D01*
X106824437Y-70547606D01*
X106860221Y-70594050D01*
X106911886Y-70659632D01*
X106948125Y-70699554D01*
X106968430Y-70713296D01*
X106972643Y-70709406D01*
X106974064Y-70695580D01*
X106970399Y-70680407D01*
X106958650Y-70659453D01*
X106935822Y-70628286D01*
X106898918Y-70582472D01*
X106844940Y-70517578D01*
X106834705Y-70505350D01*
X106787120Y-70450566D01*
X106742742Y-70403055D01*
X106708138Y-70369691D01*
X106695798Y-70359957D01*
X106668790Y-70344146D01*
X106658982Y-70347482D01*
X106657775Y-70362460D01*
X106650360Y-70362649D01*
X106630532Y-70339902D01*
X106601915Y-70298686D01*
X106587424Y-70275772D01*
X106553538Y-70222629D01*
X106506370Y-70151138D01*
X106450988Y-70068861D01*
X106392461Y-69983359D01*
X106361205Y-69938324D01*
X106300734Y-69850144D01*
X106238660Y-69756982D01*
X106180805Y-69667748D01*
X106132988Y-69591351D01*
X106116133Y-69563255D01*
X106078731Y-69501037D01*
X106046037Y-69449220D01*
X106021974Y-69413864D01*
X106011378Y-69401370D01*
X105995589Y-69377917D01*
X105993176Y-69367400D01*
X105989443Y-69337435D01*
X105983304Y-69291225D01*
X105981008Y-69274414D01*
X105971490Y-69205241D01*
X106167788Y-69215660D01*
X106251245Y-69218557D01*
X106330268Y-69218587D01*
X106395542Y-69215907D01*
X106435525Y-69211166D01*
X106506962Y-69196253D01*
X106427587Y-69193398D01*
X106359706Y-69188704D01*
X106321271Y-69180894D01*
X106312886Y-69170490D01*
X106335156Y-69158010D01*
X106373844Y-69147251D01*
X106437906Y-69127700D01*
X106508645Y-69099236D01*
X106546650Y-69080704D01*
X106633962Y-69033946D01*
X106570462Y-69044213D01*
X106528552Y-69052985D01*
X106502107Y-69062235D01*
X106499025Y-69064585D01*
X106479861Y-69068598D01*
X106435130Y-69069745D01*
X106370848Y-69068398D01*
X106293032Y-69064928D01*
X106207699Y-69059707D01*
X106120866Y-69053107D01*
X106038550Y-69045498D01*
X105966767Y-69037253D01*
X105911535Y-69028742D01*
X105908281Y-69028114D01*
X105821082Y-69008596D01*
X105762736Y-68989599D01*
X105730392Y-68969933D01*
X105721150Y-68950007D01*
X105708578Y-68931455D01*
X105676362Y-68904961D01*
X105665587Y-68897884D01*
X105665587Y-68922900D01*
X105673525Y-68930837D01*
X105665587Y-68938775D01*
X105657650Y-68930837D01*
X105665587Y-68922900D01*
X105665587Y-68897884D01*
X105649712Y-68887456D01*
X105609481Y-68860682D01*
X105583570Y-68838690D01*
X105578275Y-68830161D01*
X105589704Y-68816236D01*
X105621880Y-68784370D01*
X105671637Y-68737508D01*
X105735809Y-68678594D01*
X105811228Y-68610573D01*
X105883868Y-68545978D01*
X105968456Y-68470966D01*
X106046450Y-68401299D01*
X106114267Y-68340217D01*
X106168323Y-68290961D01*
X106205035Y-68256773D01*
X106219653Y-68242288D01*
X106247015Y-68220149D01*
X106269026Y-68224589D01*
X106270216Y-68225544D01*
X106284369Y-68230834D01*
X106289269Y-68211095D01*
X106289223Y-68194461D01*
X106285204Y-68167126D01*
X106273417Y-68157751D01*
X106251215Y-68167915D01*
X106215953Y-68199196D01*
X106164984Y-68253171D01*
X106135475Y-68286123D01*
X106091382Y-68331231D01*
X106027802Y-68390079D01*
X105950713Y-68457443D01*
X105866092Y-68528099D01*
X105780087Y-68596692D01*
X105522712Y-68796708D01*
X105479751Y-68744710D01*
X105430930Y-68674021D01*
X105380251Y-68580005D01*
X105331615Y-68470556D01*
X105293838Y-68368443D01*
X105250335Y-68238783D01*
X105295242Y-68144499D01*
X105318234Y-68094509D01*
X105334433Y-68056014D01*
X105340167Y-68038088D01*
X105353671Y-68026578D01*
X105389667Y-68006365D01*
X105441405Y-67981118D01*
X105463198Y-67971230D01*
X105588549Y-67898536D01*
X105705731Y-67796180D01*
X105813750Y-67665428D01*
X105911612Y-67507549D01*
X105998322Y-67323809D01*
X106025319Y-67255050D01*
X106046893Y-67194202D01*
X106061745Y-67141446D01*
X106071453Y-67087377D01*
X106077597Y-67022591D01*
X106081755Y-66937685D01*
X106082620Y-66913629D01*
X106082387Y-66767519D01*
X106069504Y-66641756D01*
X106042207Y-66526866D01*
X105998735Y-66413370D01*
X105983544Y-66380799D01*
X105963640Y-66333891D01*
X105953297Y-66297866D01*
X105953608Y-66283975D01*
X105975318Y-66276172D01*
X105975318Y-66193271D01*
X105945830Y-66223119D01*
X105859267Y-66312419D01*
X105779076Y-66396745D01*
X105709338Y-66471760D01*
X105654137Y-66533124D01*
X105617962Y-66575986D01*
X105502124Y-66723822D01*
X105404967Y-66850365D01*
X105324592Y-66958498D01*
X105259097Y-67051102D01*
X105206583Y-67131061D01*
X105165149Y-67201256D01*
X105132895Y-67264570D01*
X105107921Y-67323885D01*
X105089853Y-67377031D01*
X105070634Y-67447289D01*
X105055976Y-67514946D01*
X105046854Y-67573395D01*
X105044246Y-67616029D01*
X105049129Y-67636242D01*
X105051396Y-67637025D01*
X105064236Y-67623899D01*
X105085439Y-67589716D01*
X105107131Y-67548390D01*
X105163024Y-67449595D01*
X105237404Y-67345049D01*
X105333825Y-67229914D01*
X105371634Y-67188175D01*
X105428173Y-67128928D01*
X105470430Y-67088772D01*
X105496890Y-67068265D01*
X105506038Y-67067971D01*
X105496359Y-67088448D01*
X105466336Y-67130259D01*
X105440494Y-67162685D01*
X105314558Y-67327559D01*
X105215992Y-67480807D01*
X105160521Y-67586580D01*
X105126684Y-67675236D01*
X105107636Y-67769062D01*
X105103614Y-67872187D01*
X105114859Y-67988741D01*
X105141609Y-68122853D01*
X105184102Y-68278651D01*
X105204367Y-68344207D01*
X105225507Y-68413210D01*
X105241597Y-68470394D01*
X105250961Y-68509469D01*
X105252211Y-68524004D01*
X105243358Y-68512900D01*
X105223388Y-68477708D01*
X105194747Y-68423048D01*
X105159878Y-68353539D01*
X105149308Y-68331861D01*
X105149308Y-68414900D01*
X105161489Y-68427372D01*
X105184362Y-68459824D01*
X105208665Y-68498243D01*
X105242463Y-68549726D01*
X105288380Y-68614145D01*
X105338182Y-68680068D01*
X105354422Y-68700650D01*
X105395487Y-68753108D01*
X105427838Y-68796522D01*
X105447058Y-68824852D01*
X105450447Y-68831959D01*
X105438335Y-68846800D01*
X105412431Y-68861903D01*
X105388639Y-68868861D01*
X105379800Y-68868107D01*
X105379800Y-68945691D01*
X105399887Y-68946088D01*
X105448809Y-68959194D01*
X105507059Y-68977926D01*
X105684427Y-69029279D01*
X105861601Y-69063711D01*
X106048995Y-69082836D01*
X106219014Y-69088235D01*
X106311187Y-69089705D01*
X106371859Y-69092700D01*
X106401227Y-69096957D01*
X106399491Y-69102212D01*
X106366847Y-69108202D01*
X106303496Y-69114661D01*
X106209634Y-69121326D01*
X106193431Y-69122299D01*
X106105890Y-69129171D01*
X106049308Y-69137643D01*
X106023893Y-69147648D01*
X106029855Y-69159120D01*
X106050556Y-69167302D01*
X106051246Y-69170740D01*
X106025866Y-69171306D01*
X105983087Y-69169079D01*
X105914570Y-69159623D01*
X105829132Y-69141213D01*
X105735966Y-69116531D01*
X105644266Y-69088262D01*
X105563224Y-69059088D01*
X105502034Y-69031691D01*
X105490962Y-69025461D01*
X105425497Y-68984907D01*
X105388390Y-68958474D01*
X105379800Y-68945691D01*
X105379800Y-68868107D01*
X105360520Y-68866461D01*
X105320470Y-68852824D01*
X105260887Y-68826070D01*
X105253681Y-68822658D01*
X105199299Y-68798122D01*
X105157790Y-68781851D01*
X105135709Y-68776312D01*
X105133775Y-68777502D01*
X105144277Y-68793960D01*
X105171632Y-68825071D01*
X105204771Y-68858967D01*
X105246950Y-68906295D01*
X105261112Y-68939397D01*
X105246755Y-68959890D01*
X105203378Y-68969391D01*
X105170160Y-68970525D01*
X105126016Y-68964501D01*
X105070674Y-68948715D01*
X105012099Y-68926598D01*
X104958260Y-68901578D01*
X104917122Y-68877085D01*
X104896653Y-68856550D01*
X104895698Y-68852377D01*
X104903359Y-68826117D01*
X104924000Y-68780671D01*
X104954243Y-68721871D01*
X104990708Y-68655548D01*
X105030013Y-68587531D01*
X105068779Y-68523653D01*
X105103627Y-68469742D01*
X105131175Y-68431631D01*
X105148044Y-68415150D01*
X105149308Y-68414900D01*
X105149308Y-68331861D01*
X105134892Y-68302293D01*
X105053677Y-68122186D01*
X104992628Y-67957947D01*
X104950059Y-67802412D01*
X104924282Y-67648418D01*
X104913608Y-67488802D01*
X104914338Y-67366070D01*
X104917549Y-67281338D01*
X104921954Y-67220128D01*
X104929117Y-67174215D01*
X104940601Y-67135371D01*
X104957971Y-67095373D01*
X104970686Y-67069731D01*
X105062851Y-66910124D01*
X105178183Y-66750556D01*
X105318191Y-66589423D01*
X105484385Y-66425123D01*
X105678274Y-66256053D01*
X105901366Y-66080610D01*
X105903712Y-66078846D01*
X105975926Y-66025110D01*
X106032448Y-65984112D01*
X106071496Y-65957000D01*
X106091291Y-65944926D01*
X106090049Y-65949037D01*
X106065992Y-65970484D01*
X106046587Y-65986640D01*
X105996978Y-66030072D01*
X105938848Y-66085175D01*
X105875525Y-66148302D01*
X105810338Y-66215809D01*
X105746615Y-66284050D01*
X105687683Y-66349379D01*
X105636870Y-66408151D01*
X105597506Y-66456722D01*
X105572917Y-66491444D01*
X105566432Y-66508674D01*
X105568878Y-66509900D01*
X105582299Y-66499013D01*
X105612984Y-66469271D01*
X105656557Y-66425045D01*
X105708638Y-66370709D01*
X105715876Y-66363056D01*
X105828900Y-66244830D01*
X105934269Y-66137482D01*
X106029351Y-66043560D01*
X106111510Y-65965615D01*
X106178113Y-65906199D01*
X106226527Y-65867862D01*
X106229150Y-65866045D01*
X106283816Y-65830966D01*
X106326287Y-65808195D01*
X106351462Y-65800231D01*
X106351462Y-65769136D01*
X106297783Y-65796408D01*
X106226780Y-65833506D01*
X105978861Y-65964603D01*
X105822224Y-65912618D01*
X105752027Y-65890556D01*
X105689011Y-65872969D01*
X105641787Y-65862148D01*
X105623745Y-65859829D01*
X105578751Y-65851696D01*
X105536433Y-65835298D01*
X105487172Y-65815475D01*
X105435400Y-65802057D01*
X105397089Y-65793853D01*
X105337366Y-65779188D01*
X105265337Y-65760355D01*
X105210109Y-65745265D01*
X105136555Y-65726411D01*
X105070102Y-65712323D01*
X105019154Y-65704616D01*
X104995796Y-65704046D01*
X104974635Y-65707490D01*
X104967163Y-65711726D01*
X104976981Y-65718537D01*
X105007688Y-65729709D01*
X105062883Y-65747026D01*
X105113467Y-65762383D01*
X105170218Y-65781362D01*
X105214539Y-65799556D01*
X105237948Y-65813422D01*
X105239103Y-65814864D01*
X105238954Y-65826018D01*
X105223885Y-65822607D01*
X105193565Y-65814855D01*
X105145133Y-65806182D01*
X105114124Y-65801747D01*
X105030587Y-65790950D01*
X105062337Y-65827364D01*
X105094087Y-65863779D01*
X105054400Y-65854548D01*
X105012053Y-65845805D01*
X104959560Y-65836314D01*
X104951212Y-65834926D01*
X104887712Y-65824535D01*
X104943275Y-65861003D01*
X104998837Y-65897472D01*
X104943275Y-65907908D01*
X104912871Y-65915030D01*
X104906076Y-65919815D01*
X104909235Y-65920435D01*
X104914191Y-65930856D01*
X104894950Y-65956619D01*
X104885422Y-65966181D01*
X104843561Y-66010024D01*
X104803042Y-66057630D01*
X104800400Y-66061007D01*
X104760712Y-66112177D01*
X104757995Y-66111513D01*
X104757995Y-68942454D01*
X104809116Y-68942514D01*
X104854278Y-68971486D01*
X104896142Y-69029499D01*
X104902920Y-69041877D01*
X104921480Y-69079569D01*
X104924710Y-69099649D01*
X104913144Y-69112009D01*
X104906889Y-69115678D01*
X104885030Y-69141609D01*
X104881041Y-69175291D01*
X104896630Y-69201304D01*
X104897350Y-69201763D01*
X104908285Y-69200490D01*
X104904662Y-69180286D01*
X104903215Y-69155419D01*
X104924485Y-69142033D01*
X104938680Y-69138512D01*
X104988080Y-69135887D01*
X105057703Y-69142383D01*
X105137846Y-69156512D01*
X105218806Y-69176785D01*
X105248546Y-69186048D01*
X105293985Y-69199274D01*
X105325769Y-69205049D01*
X105334254Y-69203961D01*
X105324569Y-69195477D01*
X105291597Y-69180722D01*
X105242378Y-69162829D01*
X105240296Y-69162134D01*
X105160675Y-69132599D01*
X105111148Y-69106732D01*
X105090381Y-69083685D01*
X105092599Y-69068183D01*
X105117255Y-69054778D01*
X105162143Y-69050543D01*
X105217198Y-69055154D01*
X105272356Y-69068285D01*
X105289066Y-69074517D01*
X105362948Y-69118318D01*
X105437290Y-69189086D01*
X105514301Y-69288950D01*
X105519088Y-69295962D01*
X105546078Y-69334641D01*
X105588647Y-69394277D01*
X105643491Y-69470307D01*
X105707307Y-69558164D01*
X105776789Y-69653282D01*
X105840802Y-69740462D01*
X105940260Y-69877336D01*
X106023721Y-69995914D01*
X106090378Y-70094959D01*
X106139426Y-70173230D01*
X106170057Y-70229489D01*
X106181466Y-70262496D01*
X106181525Y-70264022D01*
X106168883Y-70265298D01*
X106134895Y-70253025D01*
X106085470Y-70229942D01*
X106026513Y-70198789D01*
X105969391Y-70165635D01*
X105925054Y-70136313D01*
X105865158Y-70093369D01*
X105795096Y-70041027D01*
X105720258Y-69983517D01*
X105646036Y-69925065D01*
X105577821Y-69869900D01*
X105521006Y-69822249D01*
X105480981Y-69786339D01*
X105466590Y-69771379D01*
X105452210Y-69752143D01*
X105460587Y-69752738D01*
X105478012Y-69761675D01*
X105510469Y-69776935D01*
X105521268Y-69775690D01*
X105509964Y-69756356D01*
X105476112Y-69717347D01*
X105461011Y-69701056D01*
X105418621Y-69651846D01*
X105397665Y-69616196D01*
X105394648Y-69588004D01*
X105395060Y-69585962D01*
X105418411Y-69472892D01*
X105433912Y-69379150D01*
X105441208Y-69307789D01*
X105439941Y-69261860D01*
X105434597Y-69247371D01*
X105411429Y-69226748D01*
X105398439Y-69234879D01*
X105394139Y-69272826D01*
X105394125Y-69276239D01*
X105390763Y-69322032D01*
X105383055Y-69356800D01*
X105373582Y-69374746D01*
X105359482Y-69373891D01*
X105331054Y-69353449D01*
X105329832Y-69352488D01*
X105299017Y-69332687D01*
X105279350Y-69328071D01*
X105278195Y-69328856D01*
X105282293Y-69344130D01*
X105305241Y-69367986D01*
X105306594Y-69369094D01*
X105331818Y-69391901D01*
X105333779Y-69408747D01*
X105314551Y-69432873D01*
X105282733Y-69460831D01*
X105236990Y-69493182D01*
X105215596Y-69506394D01*
X105171667Y-69529542D01*
X105146326Y-69535079D01*
X105133841Y-69526257D01*
X105122154Y-69516961D01*
X105114266Y-69535752D01*
X105107718Y-69552740D01*
X105097861Y-69544404D01*
X105086298Y-69522181D01*
X105067960Y-69491441D01*
X105053369Y-69478525D01*
X105053292Y-69478525D01*
X105046951Y-69489223D01*
X105058005Y-69517319D01*
X105082388Y-69556815D01*
X105116031Y-69601713D01*
X105154868Y-69646013D01*
X105189214Y-69678969D01*
X105234256Y-69720260D01*
X105264116Y-69752316D01*
X105276837Y-69772044D01*
X105270466Y-69776350D01*
X105243048Y-69762143D01*
X105240931Y-69760789D01*
X105206898Y-69739971D01*
X105158304Y-69711502D01*
X105125837Y-69692960D01*
X105046462Y-69648142D01*
X105141215Y-69745896D01*
X105182339Y-69789630D01*
X105211549Y-69823259D01*
X105224518Y-69841678D01*
X105224049Y-69843650D01*
X105202906Y-69838012D01*
X105165369Y-69824027D01*
X105154640Y-69819629D01*
X105111036Y-69803989D01*
X105090708Y-69805595D01*
X105089251Y-69826150D01*
X105093908Y-69843084D01*
X105118060Y-69883653D01*
X105166661Y-69935672D01*
X105236047Y-69995827D01*
X105322558Y-70060806D01*
X105371900Y-70094608D01*
X105429910Y-70137099D01*
X105499600Y-70194333D01*
X105576801Y-70262229D01*
X105657341Y-70336707D01*
X105737053Y-70413685D01*
X105811766Y-70489084D01*
X105877311Y-70558821D01*
X105929519Y-70618818D01*
X105964219Y-70664992D01*
X105975166Y-70685025D01*
X106020713Y-70773902D01*
X106080995Y-70840972D01*
X106160473Y-70889510D01*
X106263608Y-70922788D01*
X106312475Y-70932557D01*
X106486972Y-70970643D01*
X106633752Y-71020245D01*
X106755202Y-71082786D01*
X106853708Y-71159689D01*
X106931657Y-71252378D01*
X106975539Y-71327962D01*
X106993187Y-71366993D01*
X107002824Y-71401944D01*
X107004401Y-71440615D01*
X106997866Y-71490802D01*
X106983168Y-71560304D01*
X106973758Y-71600464D01*
X106959315Y-71663318D01*
X106950943Y-71710935D01*
X106948459Y-71753456D01*
X106951677Y-71801023D01*
X106960413Y-71863774D01*
X106968094Y-71912105D01*
X106982583Y-72030767D01*
X106989144Y-72152021D01*
X106988278Y-72270981D01*
X106980489Y-72382761D01*
X106966277Y-72482473D01*
X106946144Y-72565231D01*
X106920594Y-72626147D01*
X106891302Y-72659624D01*
X106857497Y-72672329D01*
X106804188Y-72683735D01*
X106749770Y-72690664D01*
X106643327Y-72699822D01*
X106424332Y-72588838D01*
X106332303Y-72543499D01*
X106221841Y-72491104D01*
X106103862Y-72436715D01*
X105989278Y-72385394D01*
X105930280Y-72359716D01*
X105770513Y-72286273D01*
X105636780Y-72213177D01*
X105523680Y-72136324D01*
X105425811Y-72051610D01*
X105337771Y-71954931D01*
X105259565Y-71850079D01*
X105221016Y-71787624D01*
X105174712Y-71702387D01*
X105124049Y-71601313D01*
X105072422Y-71491346D01*
X105023227Y-71379433D01*
X104990436Y-71299578D01*
X104963002Y-71236934D01*
X104922151Y-71152447D01*
X104870701Y-71051557D01*
X104811472Y-70939707D01*
X104747285Y-70822335D01*
X104694237Y-70728078D01*
X104619521Y-70595235D01*
X104556243Y-70478880D01*
X104505638Y-70381416D01*
X104468941Y-70305246D01*
X104447387Y-70252774D01*
X104443668Y-70240525D01*
X104410896Y-70071751D01*
X104392250Y-69880262D01*
X104387925Y-69719470D01*
X104395387Y-69546521D01*
X104418087Y-69398332D01*
X104457332Y-69271132D01*
X104514428Y-69161150D01*
X104590681Y-69064616D01*
X104627235Y-69028555D01*
X104698255Y-68971177D01*
X104757995Y-68942454D01*
X104757995Y-66111513D01*
X104633712Y-66081120D01*
X104493329Y-66052418D01*
X104368818Y-66038358D01*
X104264481Y-66039251D01*
X104201849Y-66049976D01*
X104086305Y-66087840D01*
X103984111Y-66136304D01*
X103886673Y-66200494D01*
X103785393Y-66285539D01*
X103747858Y-66320785D01*
X103592253Y-66470212D01*
X103597045Y-66825475D01*
X103597045Y-66825475D01*
G37*
X103597045Y-66825475D02*
X103601837Y-67180739D01*
X103727586Y-67027882D01*
X103776326Y-66969687D01*
X103818172Y-66921691D01*
X103848902Y-66888599D01*
X103864293Y-66875116D01*
X103864764Y-66875025D01*
X103882084Y-66865638D01*
X103915805Y-66841190D01*
X103953036Y-66811525D01*
X103995038Y-66778347D01*
X104028318Y-66759352D01*
X104064749Y-66750594D01*
X104116207Y-66748131D01*
X104144231Y-66748024D01*
X104226782Y-66750292D01*
X104282393Y-66758413D01*
X104315635Y-66774369D01*
X104331082Y-66800141D01*
X104333675Y-66830070D01*
X104328035Y-66868081D01*
X104309797Y-66884846D01*
X104294721Y-66888251D01*
X104257354Y-66893540D01*
X104290752Y-66916932D01*
X104317360Y-66944890D01*
X104322334Y-66970876D01*
X104304982Y-66986213D01*
X104296368Y-66987403D01*
X104281325Y-66991468D01*
X104288431Y-66996663D01*
X104302989Y-67016749D01*
X104308275Y-67048771D01*
X104304435Y-67079850D01*
X104286950Y-67087764D01*
X104268587Y-67085285D01*
X104237076Y-67085833D01*
X104231032Y-67101031D01*
X104250940Y-67125932D01*
X104263632Y-67135677D01*
X104298364Y-67160004D01*
X104262106Y-67418358D01*
X104246849Y-67519396D01*
X104229421Y-67622470D01*
X104211609Y-67717733D01*
X104195198Y-67795339D01*
X104189335Y-67819587D01*
X104168975Y-67884887D01*
X104135713Y-67974046D01*
X104091440Y-68082829D01*
X104038048Y-68207002D01*
X103977427Y-68342329D01*
X103911468Y-68484577D01*
X103842063Y-68629510D01*
X103771103Y-68772895D01*
X103712107Y-68888217D01*
X103593900Y-69115472D01*
X103593900Y-69753981D01*
X103593899Y-70392489D01*
X103690860Y-70395177D01*
X103767557Y-70403343D01*
X103823363Y-70421873D01*
X103854701Y-70448963D01*
X103858826Y-70479982D01*
X103859300Y-70509416D01*
X103866960Y-70520306D01*
X103871430Y-70535588D01*
X103861501Y-70545342D01*
X103849044Y-70560344D01*
X103858914Y-70568196D01*
X103872316Y-70584374D01*
X103865026Y-70603148D01*
X103844269Y-70611985D01*
X103834679Y-70610248D01*
X103817376Y-70606734D01*
X103826104Y-70620240D01*
X103828056Y-70622363D01*
X103843599Y-70647280D01*
X103845039Y-70678819D01*
X103831466Y-70724238D01*
X103808787Y-70776306D01*
X103785539Y-70823314D01*
X103766335Y-70848198D01*
X103742612Y-70857971D01*
X103707053Y-70859650D01*
X103669084Y-70859634D01*
X103640710Y-70862274D01*
X103620536Y-70871594D01*
X103607169Y-70891624D01*
X103599215Y-70926390D01*
X103595280Y-70979918D01*
X103593970Y-71056237D01*
X103593890Y-71159373D01*
X103593900Y-71186557D01*
X103593900Y-71494192D01*
X103665519Y-71512226D01*
X103718583Y-71533204D01*
X103745783Y-71565333D01*
X103748558Y-71612624D01*
X103728346Y-71679087D01*
X103726747Y-71683010D01*
X103701890Y-71732344D01*
X103673687Y-71759832D01*
X103645192Y-71771776D01*
X103593900Y-71786965D01*
X103593900Y-72450432D01*
X103594095Y-72592098D01*
X103594654Y-72723421D01*
X103595534Y-72841112D01*
X103596693Y-72941886D01*
X103598089Y-73022454D01*
X103599681Y-73079528D01*
X103601426Y-73109821D01*
X103602365Y-73113899D01*
X103620022Y-73107321D01*
X103657014Y-73090289D01*
X103693646Y-73072315D01*
X103811827Y-73003217D01*
X103930985Y-72916305D01*
X104037246Y-72821825D01*
X104049213Y-72809703D01*
X104083806Y-72772771D01*
X104109448Y-72740080D01*
X104129721Y-72704339D01*
X104148208Y-72658259D01*
X104168489Y-72594551D01*
X104188119Y-72527026D01*
X104220251Y-72402867D01*
X104239302Y-72301280D01*
X104244774Y-72232793D01*
X104246046Y-72178271D01*
X104252259Y-72145717D01*
X104267009Y-72125376D01*
X104290177Y-72109675D01*
X104355268Y-72057994D01*
X104422481Y-71980943D01*
X104487935Y-71884328D01*
X104547753Y-71773958D01*
X104598055Y-71655640D01*
X104603439Y-71640696D01*
X104635314Y-71504886D01*
X104640731Y-71359245D01*
X104621041Y-71209258D01*
X104577600Y-71060408D01*
X104511759Y-70918182D01*
X104424871Y-70788063D01*
X104380274Y-70736008D01*
X104339091Y-70687952D01*
X104308248Y-70645156D01*
X104293105Y-70615264D01*
X104292400Y-70610650D01*
X104297141Y-70578645D01*
X104309528Y-70526175D01*
X104326801Y-70462771D01*
X104346201Y-70397968D01*
X104364970Y-70341295D01*
X104380350Y-70302286D01*
X104383337Y-70296419D01*
X104392737Y-70285052D01*
X104403743Y-70287811D01*
X104419365Y-70308517D01*
X104442615Y-70350994D01*
X104470868Y-70407573D01*
X104503199Y-70471213D01*
X104546795Y-70553922D01*
X104597111Y-70647235D01*
X104649601Y-70742685D01*
X104679510Y-70796150D01*
X104726482Y-70881455D01*
X104783343Y-70987832D01*
X104846175Y-71107762D01*
X104911061Y-71233725D01*
X104974080Y-71358203D01*
X105010405Y-71431150D01*
X105086208Y-71581584D01*
X105153267Y-71707169D01*
X105214799Y-71812464D01*
X105274022Y-71902031D01*
X105334152Y-71980430D01*
X105398407Y-72052223D01*
X105470003Y-72121969D01*
X105543351Y-72186741D01*
X105585574Y-72221813D01*
X105626326Y-72252882D01*
X105669564Y-72282066D01*
X105719245Y-72311484D01*
X105779325Y-72343254D01*
X105853762Y-72379493D01*
X105946513Y-72422321D01*
X106061534Y-72473856D01*
X106165650Y-72519870D01*
X106267543Y-72565137D01*
X106373279Y-72612776D01*
X106474009Y-72658755D01*
X106560880Y-72699042D01*
X106610150Y-72722391D01*
X106683584Y-72757092D01*
X106737804Y-72780035D01*
X106781981Y-72793682D01*
X106825288Y-72800491D01*
X106876900Y-72802923D01*
X106911775Y-72803284D01*
X107042116Y-72793674D01*
X107159827Y-72762059D01*
X107267749Y-72706538D01*
X107368720Y-72625210D01*
X107465581Y-72516174D01*
X107561170Y-72377530D01*
X107570587Y-72362260D01*
X107618212Y-72284338D01*
X107806811Y-72230601D01*
X107908287Y-72199036D01*
X108009074Y-72162944D01*
X108103095Y-72124929D01*
X108184271Y-72087591D01*
X108246521Y-72053535D01*
X108282054Y-72027136D01*
X108305020Y-72009533D01*
X108331644Y-72006794D01*
X108373336Y-72016967D01*
X108412286Y-72032403D01*
X108434092Y-72048354D01*
X108435775Y-72052804D01*
X108426080Y-72082995D01*
X108400490Y-72129314D01*
X108364246Y-72184196D01*
X108322590Y-72240076D01*
X108280764Y-72289390D01*
X108252213Y-72317712D01*
X108203607Y-72354175D01*
X108154351Y-72381275D01*
X108127469Y-72390304D01*
X108077820Y-72403690D01*
X108004197Y-72429004D01*
X107911189Y-72464312D01*
X107803388Y-72507681D01*
X107685383Y-72557176D01*
X107561764Y-72610866D01*
X107437122Y-72666815D01*
X107316047Y-72723090D01*
X107203129Y-72777759D01*
X107178789Y-72789905D01*
X107093429Y-72834150D01*
X106998395Y-72885750D01*
X106897424Y-72942441D01*
X106794253Y-73001958D01*
X106692620Y-73062037D01*
X106596263Y-73120412D01*
X106508917Y-73174819D01*
X106434322Y-73222992D01*
X106376213Y-73262667D01*
X106338330Y-73291578D01*
X106324408Y-73307462D01*
X106324399Y-73307673D01*
X106336559Y-73321272D01*
X106370889Y-73316966D01*
X106424164Y-73295906D01*
X106493159Y-73259245D01*
X106540258Y-73230559D01*
X106668161Y-73151890D01*
X106816364Y-73064964D01*
X106978179Y-72973394D01*
X107146920Y-72880795D01*
X107315901Y-72790780D01*
X107478434Y-72706963D01*
X107627834Y-72632958D01*
X107757412Y-72572380D01*
X107761087Y-72570735D01*
X107816947Y-72547460D01*
X107897693Y-72516127D01*
X107998055Y-72478609D01*
X108112763Y-72436779D01*
X108236545Y-72392511D01*
X108364130Y-72347675D01*
X108490249Y-72304146D01*
X108609631Y-72263796D01*
X108717004Y-72228497D01*
X108785025Y-72206918D01*
X108878571Y-72180640D01*
X108963327Y-72164147D01*
X109047536Y-72157115D01*
X109139445Y-72159216D01*
X109247296Y-72170127D01*
X109348587Y-72184666D01*
X109532051Y-72202250D01*
X109724022Y-72201076D01*
X109882009Y-72185180D01*
X109901747Y-72183804D01*
X109891218Y-72190024D01*
X109852618Y-72203013D01*
X109797450Y-72223173D01*
X109773109Y-72239528D01*
X109779785Y-72251771D01*
X109817668Y-72259594D01*
X109817843Y-72259612D01*
X109836593Y-72262503D01*
X109844393Y-72268621D01*
X109838547Y-72281302D01*
X109816358Y-72303883D01*
X109775130Y-72339700D01*
X109712166Y-72392089D01*
X109707973Y-72395556D01*
X109647817Y-72444585D01*
X109596310Y-72485258D01*
X109558404Y-72513756D01*
X109539055Y-72526263D01*
X109538008Y-72526525D01*
X109520952Y-72534331D01*
X109488382Y-72558511D01*
X109439005Y-72600203D01*
X109371529Y-72660547D01*
X109284660Y-72740682D01*
X109177105Y-72841748D01*
X109134275Y-72882334D01*
X109049509Y-72961171D01*
X108963175Y-73038576D01*
X108880949Y-73109664D01*
X108808508Y-73169556D01*
X108751528Y-73213366D01*
X108739737Y-73221664D01*
X108607136Y-73312337D01*
X109694101Y-73316415D01*
X110781067Y-73320492D01*
X110874452Y-73264258D01*
X110946614Y-73225886D01*
X111023124Y-73193504D01*
X111093936Y-73170829D01*
X111149005Y-73161574D01*
X111152247Y-73161525D01*
X111176731Y-73156696D01*
X111225069Y-73143427D01*
X111291068Y-73123542D01*
X111368536Y-73098865D01*
X111399397Y-73088709D01*
X111677550Y-72983177D01*
X111932845Y-72858585D01*
X112007650Y-72815993D01*
X112110837Y-72755141D01*
X112114894Y-71376149D01*
X112115576Y-71134696D01*
X112116086Y-70922990D01*
X112116391Y-70739030D01*
X112116457Y-70580814D01*
X112116251Y-70446340D01*
X112115737Y-70333605D01*
X112114884Y-70240607D01*
X112113656Y-70165345D01*
X112112020Y-70105817D01*
X112109942Y-70060020D01*
X112107389Y-70025953D01*
X112104326Y-70001614D01*
X112100720Y-69985000D01*
X112096536Y-69974109D01*
X112091742Y-69966940D01*
X112091081Y-69966187D01*
X112050450Y-69931412D01*
X111994535Y-69896097D01*
X111934370Y-69866028D01*
X111880987Y-69846995D01*
X111876681Y-69846333D01*
X111876681Y-70335783D01*
X111893061Y-70346872D01*
X111894242Y-70381546D01*
X111880254Y-70441881D01*
X111878404Y-70448133D01*
X111843913Y-70522794D01*
X111791447Y-70587999D01*
X111728012Y-70637577D01*
X111660613Y-70665360D01*
X111627462Y-70669150D01*
X111599466Y-70656206D01*
X111585001Y-70622454D01*
X111583454Y-70575512D01*
X111594215Y-70522999D01*
X111616673Y-70472534D01*
X111646226Y-70435304D01*
X111679569Y-70412573D01*
X111730448Y-70386420D01*
X111787664Y-70361681D01*
X111840018Y-70343190D01*
X111876313Y-70335784D01*
X111876681Y-70335783D01*
X111876681Y-69846333D01*
X111856837Y-69843280D01*
X111814975Y-69837580D01*
X111758841Y-69823670D01*
X111721900Y-69811900D01*
X111618837Y-69785689D01*
X111526389Y-69785466D01*
X111467913Y-69802453D01*
X111467913Y-69827775D01*
X111494878Y-69839277D01*
X111530231Y-69868844D01*
X111567812Y-69909067D01*
X111601462Y-69952536D01*
X111625022Y-69991842D01*
X111632333Y-70019575D01*
X111630893Y-70023843D01*
X111611355Y-70030523D01*
X111575472Y-70027880D01*
X111574575Y-70027703D01*
X111533778Y-70026498D01*
X111477902Y-70032869D01*
X111477902Y-70224650D01*
X111553983Y-70226777D01*
X111601262Y-70234672D01*
X111622498Y-70250607D01*
X111620447Y-70276853D01*
X111597865Y-70315680D01*
X111594386Y-70320620D01*
X111569572Y-70360794D01*
X111540313Y-70415571D01*
X111522183Y-70453171D01*
X111482243Y-70540412D01*
X111515866Y-70606319D01*
X111537169Y-70653413D01*
X111539849Y-70677828D01*
X111523274Y-70683045D01*
X111502827Y-70678096D01*
X111464566Y-70655872D01*
X111417876Y-70614080D01*
X111367760Y-70559207D01*
X111319222Y-70497741D01*
X111277265Y-70436171D01*
X111246893Y-70380983D01*
X111233109Y-70338666D01*
X111233093Y-70328339D01*
X111252631Y-70295088D01*
X111296766Y-70265163D01*
X111358346Y-70241592D01*
X111430220Y-70227406D01*
X111477902Y-70224650D01*
X111477902Y-70032869D01*
X111476197Y-70033064D01*
X111423927Y-70043746D01*
X111368674Y-70056947D01*
X111335010Y-70061632D01*
X111313827Y-70057399D01*
X111296018Y-70043846D01*
X111289896Y-70037826D01*
X111269243Y-70013685D01*
X111268888Y-69993217D01*
X111285506Y-69964681D01*
X111316297Y-69928515D01*
X111359742Y-69889903D01*
X111406591Y-69855789D01*
X111447589Y-69833117D01*
X111467913Y-69827775D01*
X111467913Y-69802453D01*
X111436403Y-69811607D01*
X111404816Y-69826622D01*
X111317920Y-69871597D01*
X111269879Y-69835775D01*
X111180461Y-69787496D01*
X111083738Y-69769860D01*
X111079255Y-69770149D01*
X111079255Y-69911285D01*
X111094193Y-69912905D01*
X111111262Y-69938687D01*
X111115826Y-69946837D01*
X111127932Y-69978852D01*
X111133570Y-70013475D01*
X111131983Y-70039605D01*
X111122618Y-70046244D01*
X111063609Y-70016161D01*
X111031700Y-69992642D01*
X111024243Y-69971155D01*
X111038591Y-69947166D01*
X111055247Y-69930874D01*
X111079255Y-69911285D01*
X111079255Y-69770149D01*
X111027907Y-69773465D01*
X110983788Y-69780027D01*
X110983788Y-69859525D01*
X111013630Y-69870749D01*
X111025158Y-69898262D01*
X111018935Y-69932822D01*
X111006112Y-69950549D01*
X111006112Y-70177025D01*
X111053863Y-70187017D01*
X111084766Y-70218899D01*
X111100692Y-70275524D01*
X111103890Y-70326329D01*
X111106682Y-70383805D01*
X111112743Y-70432104D01*
X111118650Y-70454837D01*
X111131069Y-70490578D01*
X111124175Y-70511348D01*
X111093163Y-70530417D01*
X111090868Y-70531576D01*
X111012571Y-70560886D01*
X110947750Y-70562319D01*
X110894338Y-70535682D01*
X110870766Y-70511153D01*
X110853090Y-70471590D01*
X110843204Y-70415480D01*
X110841971Y-70356363D01*
X110850250Y-70307778D01*
X110856926Y-70293533D01*
X110899320Y-70241109D01*
X110947144Y-70200684D01*
X110991799Y-70178972D01*
X111006112Y-70177025D01*
X111006112Y-69950549D01*
X110995523Y-69965189D01*
X110976563Y-69978179D01*
X110931387Y-69994700D01*
X110894836Y-70000272D01*
X110894836Y-70084359D01*
X110911839Y-70085877D01*
X110906104Y-70109050D01*
X110878222Y-70154623D01*
X110840837Y-70207073D01*
X110799270Y-70267411D01*
X110777104Y-70313460D01*
X110772351Y-70354395D01*
X110783025Y-70399394D01*
X110793420Y-70426034D01*
X110806904Y-70464326D01*
X110810763Y-70488541D01*
X110809699Y-70491267D01*
X110793982Y-70486819D01*
X110767800Y-70469185D01*
X110767800Y-70566787D01*
X110922585Y-70643648D01*
X110998802Y-70680067D01*
X111057012Y-70703535D01*
X111106680Y-70717017D01*
X111157271Y-70723479D01*
X111181666Y-70724838D01*
X111247613Y-70731240D01*
X111310679Y-70743342D01*
X111347306Y-70754799D01*
X111384372Y-70774295D01*
X111427621Y-70802648D01*
X111469689Y-70834163D01*
X111503215Y-70863144D01*
X111520833Y-70883899D01*
X111521372Y-70889418D01*
X111505386Y-70887728D01*
X111470406Y-70876491D01*
X111452474Y-70869619D01*
X111358586Y-70840990D01*
X111238666Y-70818882D01*
X111097884Y-70803961D01*
X110941412Y-70796889D01*
X110882414Y-70796393D01*
X110798222Y-70797520D01*
X110724261Y-70800452D01*
X110666873Y-70804794D01*
X110632402Y-70810146D01*
X110626525Y-70812432D01*
X110624552Y-70820637D01*
X110649963Y-70825445D01*
X110704575Y-70827113D01*
X110729712Y-70827014D01*
X110867440Y-70837425D01*
X111003334Y-70869230D01*
X111125025Y-70919421D01*
X111137257Y-70926072D01*
X111182874Y-70955657D01*
X111198630Y-70978123D01*
X111184943Y-70995892D01*
X111151595Y-71008790D01*
X111117635Y-71023344D01*
X111102615Y-71038662D01*
X111110560Y-71048963D01*
X111122618Y-71050420D01*
X111121121Y-71057636D01*
X111097290Y-71076134D01*
X111063087Y-71097775D01*
X110983712Y-71144858D01*
X111039275Y-71145700D01*
X111094837Y-71146541D01*
X111050892Y-71182516D01*
X110994942Y-71222148D01*
X110914913Y-71270380D01*
X110816385Y-71324488D01*
X110704941Y-71381747D01*
X110586161Y-71439431D01*
X110465628Y-71494814D01*
X110348923Y-71545172D01*
X110241627Y-71587780D01*
X110166150Y-71614509D01*
X110105621Y-71635587D01*
X110057860Y-71654478D01*
X110030032Y-71668244D01*
X110025920Y-71671989D01*
X110007675Y-71683856D01*
X109996943Y-71685150D01*
X109969484Y-71691159D01*
X109920992Y-71707130D01*
X109859154Y-71729974D01*
X109791656Y-71756605D01*
X109726182Y-71783936D01*
X109670420Y-71808880D01*
X109632055Y-71828349D01*
X109620237Y-71836455D01*
X109599719Y-71851769D01*
X109592401Y-71852234D01*
X109574353Y-71852976D01*
X109536943Y-71863200D01*
X109489791Y-71879430D01*
X109442519Y-71898185D01*
X109404748Y-71915988D01*
X109389709Y-71925516D01*
X109355679Y-71942048D01*
X109311197Y-71951284D01*
X109263091Y-71961136D01*
X109207960Y-71980487D01*
X109193553Y-71987003D01*
X109149339Y-72006186D01*
X109114856Y-72017360D01*
X109106610Y-72018525D01*
X109074719Y-72025569D01*
X109024945Y-72043833D01*
X108966641Y-72069013D01*
X108912025Y-72095418D01*
X108912025Y-72129650D01*
X108925091Y-72135458D01*
X108922608Y-72140233D01*
X108903768Y-72142133D01*
X108901441Y-72140233D01*
X108903620Y-72130795D01*
X108912025Y-72129650D01*
X108912025Y-72095418D01*
X108909158Y-72096805D01*
X108861850Y-72122903D01*
X108834067Y-72143005D01*
X108832650Y-72144609D01*
X108806537Y-72161673D01*
X108753087Y-72184217D01*
X108675958Y-72210853D01*
X108586698Y-72237933D01*
X108508031Y-72260307D01*
X108441173Y-72278825D01*
X108391567Y-72292018D01*
X108364659Y-72298418D01*
X108361424Y-72298716D01*
X108368765Y-72285099D01*
X108391058Y-72248506D01*
X108425997Y-72192612D01*
X108471273Y-72121090D01*
X108524578Y-72037612D01*
X108566026Y-71973109D01*
X108693234Y-71783455D01*
X108814362Y-71621043D01*
X108933366Y-71482992D01*
X109054202Y-71366422D01*
X109180829Y-71268454D01*
X109317201Y-71186208D01*
X109467277Y-71116803D01*
X109635013Y-71057360D01*
X109824365Y-71004998D01*
X109930185Y-70980170D01*
X110011085Y-70962646D01*
X110088347Y-70946865D01*
X110152340Y-70934742D01*
X110188587Y-70928814D01*
X110234386Y-70919675D01*
X110265651Y-70908147D01*
X110272031Y-70902916D01*
X110272019Y-70896596D01*
X110259692Y-70893922D01*
X110231489Y-70895260D01*
X110183846Y-70900977D01*
X110113199Y-70911440D01*
X110015986Y-70927016D01*
X109979257Y-70933045D01*
X109913392Y-70943085D01*
X109858976Y-70949868D01*
X109823866Y-70952487D01*
X109815834Y-70951898D01*
X109821946Y-70941202D01*
X109849792Y-70915493D01*
X109895275Y-70878222D01*
X109954297Y-70832839D01*
X109978914Y-70814558D01*
X110050021Y-70762489D01*
X110101091Y-70726626D01*
X110137644Y-70704334D01*
X110165201Y-70692982D01*
X110189281Y-70689936D01*
X110215405Y-70692563D01*
X110229650Y-70694955D01*
X110278849Y-70702534D01*
X110322054Y-70705851D01*
X110364662Y-70703735D01*
X110412069Y-70695016D01*
X110469675Y-70678524D01*
X110542875Y-70653087D01*
X110637069Y-70617536D01*
X110701131Y-70592721D01*
X110767800Y-70566787D01*
X110767800Y-70469185D01*
X110763296Y-70466151D01*
X110725093Y-70435525D01*
X110686824Y-70401201D01*
X110655942Y-70369440D01*
X110641481Y-70349933D01*
X110637467Y-70310476D01*
X110659635Y-70262356D01*
X110705074Y-70209617D01*
X110770870Y-70156306D01*
X110790248Y-70143305D01*
X110854503Y-70103750D01*
X110894836Y-70084359D01*
X110894836Y-70000272D01*
X110883871Y-70001944D01*
X110843500Y-69999799D01*
X110819759Y-69988150D01*
X110817025Y-69980083D01*
X110829419Y-69960575D01*
X110860539Y-69932336D01*
X110901294Y-69901941D01*
X110942591Y-69875962D01*
X110975338Y-69860972D01*
X110983788Y-69859525D01*
X110983788Y-69780027D01*
X110951962Y-69784762D01*
X111018297Y-69712603D01*
X111079281Y-69642204D01*
X111137784Y-69567449D01*
X111188640Y-69495549D01*
X111226687Y-69433718D01*
X111244131Y-69397170D01*
X111280094Y-69307742D01*
X111312918Y-69244190D01*
X111345754Y-69201268D01*
X111376486Y-69176806D01*
X111416999Y-69155969D01*
X111449764Y-69145498D01*
X111453611Y-69145209D01*
X111480246Y-69136833D01*
X111517139Y-69115965D01*
X111555723Y-69088869D01*
X111587431Y-69061805D01*
X111603696Y-69041037D01*
X111603736Y-69035480D01*
X111585936Y-69033829D01*
X111545212Y-69040630D01*
X111488831Y-69054498D01*
X111458766Y-69063130D01*
X111322044Y-69104124D01*
X111235817Y-69058979D01*
X111171650Y-69019421D01*
X111120486Y-68976488D01*
X111091861Y-68941899D01*
X111091861Y-69305637D01*
X111125717Y-69309838D01*
X111134898Y-69320492D01*
X111121065Y-69337926D01*
X111085884Y-69362467D01*
X111064449Y-69375378D01*
X111028130Y-69390776D01*
X111028130Y-69631463D01*
X111033007Y-69635586D01*
X111026552Y-69648575D01*
X111019088Y-69659485D01*
X110993657Y-69691333D01*
X110952317Y-69738722D01*
X110901395Y-69794531D01*
X110861138Y-69837197D01*
X110738042Y-69965683D01*
X110652397Y-69924510D01*
X110604406Y-69899217D01*
X110582518Y-69880965D01*
X110582873Y-69866301D01*
X110584750Y-69864042D01*
X110604474Y-69850402D01*
X110647226Y-69825290D01*
X110707748Y-69791654D01*
X110780782Y-69752442D01*
X110828345Y-69727503D01*
X110912028Y-69684225D01*
X110970988Y-69654589D01*
X111008573Y-69637399D01*
X111028130Y-69631463D01*
X111028130Y-69390776D01*
X110954158Y-69422139D01*
X110833181Y-69441505D01*
X110707360Y-69433191D01*
X110586837Y-69398663D01*
X110539212Y-69379490D01*
X110578900Y-69366284D01*
X110609347Y-69359457D01*
X110663936Y-69350319D01*
X110735246Y-69340006D01*
X110815855Y-69329655D01*
X110825602Y-69328488D01*
X110943467Y-69315289D01*
X111031666Y-69307563D01*
X111091861Y-69305637D01*
X111091861Y-68941899D01*
X111085854Y-68934640D01*
X111071279Y-68898336D01*
X111080290Y-68872035D01*
X111085109Y-68868444D01*
X111106601Y-68862216D01*
X111150925Y-68853528D01*
X111209427Y-68844032D01*
X111224015Y-68841902D01*
X111288055Y-68830750D01*
X111343220Y-68817579D01*
X111379055Y-68804953D01*
X111382454Y-68803056D01*
X111413240Y-68776385D01*
X111457533Y-68728074D01*
X111511449Y-68663043D01*
X111571103Y-68586216D01*
X111632610Y-68502513D01*
X111692086Y-68416856D01*
X111717067Y-68379116D01*
X111793376Y-68273423D01*
X111868772Y-68194607D01*
X111948336Y-68138366D01*
X112037149Y-68100398D01*
X112051306Y-68096093D01*
X112118775Y-68076499D01*
X112118775Y-67658324D01*
X112118467Y-67546837D01*
X112117601Y-67446547D01*
X112116259Y-67361595D01*
X112114527Y-67296120D01*
X112112487Y-67254265D01*
X112110309Y-67240150D01*
X112092494Y-67246711D01*
X112055942Y-67263539D01*
X112026966Y-67277784D01*
X111965546Y-67305753D01*
X111893087Y-67334396D01*
X111818073Y-67360849D01*
X111748985Y-67382244D01*
X111694307Y-67395716D01*
X111689967Y-67396252D01*
X111689967Y-67803492D01*
X111698934Y-67804669D01*
X111743317Y-67813787D01*
X111764127Y-67827104D01*
X111769514Y-67850054D01*
X111769525Y-67851728D01*
X111757227Y-67887311D01*
X111726145Y-67924622D01*
X111722828Y-67927495D01*
X111679423Y-67954271D01*
X111621789Y-67977997D01*
X111591859Y-67986566D01*
X111528752Y-68003527D01*
X111481909Y-68020335D01*
X111456797Y-68034756D01*
X111455241Y-68042408D01*
X111472461Y-68041474D01*
X111508295Y-68031937D01*
X111522338Y-68027318D01*
X111573255Y-68015268D01*
X111615172Y-68014930D01*
X111639551Y-68025806D01*
X111642525Y-68034340D01*
X111628810Y-68056293D01*
X111592476Y-68085384D01*
X111540735Y-68117884D01*
X111480800Y-68150065D01*
X111419885Y-68178199D01*
X111365203Y-68198559D01*
X111323966Y-68207416D01*
X111310043Y-68206176D01*
X111308875Y-68191962D01*
X111326913Y-68161172D01*
X111348500Y-68133846D01*
X111386762Y-68083081D01*
X111419393Y-68029572D01*
X111430176Y-68007093D01*
X111480767Y-67911466D01*
X111541203Y-67845452D01*
X111611073Y-67809357D01*
X111689967Y-67803492D01*
X111689967Y-67396252D01*
X111668538Y-67398900D01*
X111633243Y-67387816D01*
X111588020Y-67352980D01*
X111550856Y-67315556D01*
X111511757Y-67273571D01*
X111457255Y-67215067D01*
X111393597Y-67146749D01*
X111327032Y-67075320D01*
X111303106Y-67049650D01*
X111256686Y-67001880D01*
X111256686Y-68264661D01*
X111293939Y-68275839D01*
X111309225Y-68281845D01*
X111346900Y-68301088D01*
X111366566Y-68319478D01*
X111367357Y-68325606D01*
X111348767Y-68339055D01*
X111340145Y-68338580D01*
X111313705Y-68333887D01*
X111267636Y-68327014D01*
X111235935Y-68322673D01*
X111235935Y-68361894D01*
X111286866Y-68368889D01*
X111308332Y-68385297D01*
X111309150Y-68390590D01*
X111300757Y-68415478D01*
X111279940Y-68452656D01*
X111273431Y-68462519D01*
X111235034Y-68512782D01*
X111200892Y-68537724D01*
X111162508Y-68539086D01*
X111111381Y-68518609D01*
X111080639Y-68501995D01*
X110987067Y-68449380D01*
X111029763Y-68409811D01*
X111073683Y-68380857D01*
X111132208Y-68366434D01*
X111155085Y-68364232D01*
X111235935Y-68361894D01*
X111235935Y-68322673D01*
X111231004Y-68321997D01*
X111142462Y-68310295D01*
X111193471Y-68283117D01*
X111228305Y-68267031D01*
X111256686Y-68264661D01*
X111256686Y-67001880D01*
X111125067Y-66866430D01*
X110977974Y-66729205D01*
X110977974Y-68494275D01*
X111017025Y-68501861D01*
X111058331Y-68520420D01*
X111090645Y-68543653D01*
X111102775Y-68564176D01*
X111091326Y-68592282D01*
X111082931Y-68600670D01*
X111058758Y-68614295D01*
X111014918Y-68635251D01*
X110963868Y-68657722D01*
X110864650Y-68699742D01*
X110864650Y-68645851D01*
X110875062Y-68597017D01*
X110901491Y-68549086D01*
X110936724Y-68511705D01*
X110973549Y-68494522D01*
X110977974Y-68494275D01*
X110977974Y-66729205D01*
X110948697Y-66701891D01*
X110762615Y-66545768D01*
X110660527Y-66466688D01*
X110660527Y-68798019D01*
X110680632Y-68811284D01*
X110688522Y-68818352D01*
X110716876Y-68864225D01*
X110720137Y-68924580D01*
X110698596Y-68994827D01*
X110674499Y-69038854D01*
X110645475Y-69079917D01*
X110620622Y-69106992D01*
X110609315Y-69113400D01*
X110586901Y-69122538D01*
X110551055Y-69145620D01*
X110533559Y-69158727D01*
X110498933Y-69184306D01*
X110498933Y-69953034D01*
X110530977Y-70005498D01*
X110550594Y-70040477D01*
X110553325Y-70059992D01*
X110539930Y-70074976D01*
X110536013Y-70077925D01*
X110495587Y-70090464D01*
X110452671Y-70087746D01*
X110411767Y-70079099D01*
X110385419Y-70071210D01*
X110383660Y-70070339D01*
X110381491Y-70054257D01*
X110403582Y-70026272D01*
X110446678Y-69990328D01*
X110454162Y-69984913D01*
X110498933Y-69953034D01*
X110498933Y-69184306D01*
X110490157Y-69190790D01*
X110451100Y-69216518D01*
X110441196Y-69222142D01*
X110417389Y-69230948D01*
X110402681Y-69220824D01*
X110388749Y-69185894D01*
X110388418Y-69184893D01*
X110379155Y-69146328D01*
X110382719Y-69112089D01*
X110401061Y-69067778D01*
X110405530Y-69058728D01*
X110439370Y-69003089D01*
X110481028Y-68949967D01*
X110494027Y-68936410D01*
X110547150Y-68884921D01*
X110547150Y-68944535D01*
X110550736Y-68982300D01*
X110560310Y-68995330D01*
X110563025Y-68994337D01*
X110573832Y-68973191D01*
X110578855Y-68934854D01*
X110578900Y-68930785D01*
X110593612Y-68868752D01*
X110617085Y-68832652D01*
X110643223Y-68804366D01*
X110660527Y-68798019D01*
X110660527Y-66466688D01*
X110634462Y-66446497D01*
X110493465Y-66342778D01*
X110367637Y-66256283D01*
X110249265Y-66182228D01*
X110130633Y-66115829D01*
X110004029Y-66052301D01*
X109982182Y-66041926D01*
X109899722Y-66001892D01*
X109800350Y-65951893D01*
X109694868Y-65897460D01*
X109594078Y-65844122D01*
X109563277Y-65827480D01*
X109329326Y-65700275D01*
X108771425Y-65700275D01*
X108619897Y-65700461D01*
X108497326Y-65701092D01*
X108400924Y-65702276D01*
X108327901Y-65704120D01*
X108275466Y-65706731D01*
X108240830Y-65710217D01*
X108221203Y-65714685D01*
X108213794Y-65720244D01*
X108213525Y-65721787D01*
X108225768Y-65740607D01*
X108258137Y-65770692D01*
X108304085Y-65806081D01*
X108312743Y-65812173D01*
X108414973Y-65884192D01*
X108516863Y-65957888D01*
X108613495Y-66029552D01*
X108699952Y-66095473D01*
X108771315Y-66151943D01*
X108822666Y-66195251D01*
X108832391Y-66204139D01*
X108874236Y-66241200D01*
X108909787Y-66268814D01*
X108927900Y-66279430D01*
X108943853Y-66292203D01*
X108979429Y-66325323D01*
X109032150Y-66376339D01*
X109099541Y-66442802D01*
X109179124Y-66522263D01*
X109268422Y-66612271D01*
X109364959Y-66710378D01*
X109404150Y-66750423D01*
X109547333Y-66896908D01*
X109670409Y-67022613D01*
X109775449Y-67129478D01*
X109864522Y-67219447D01*
X109939698Y-67294458D01*
X110003048Y-67356455D01*
X110056640Y-67407377D01*
X110102546Y-67449166D01*
X110142836Y-67483764D01*
X110179578Y-67513111D01*
X110214844Y-67539148D01*
X110250703Y-67563818D01*
X110289225Y-67589060D01*
X110318470Y-67607845D01*
X110374564Y-67644797D01*
X110418983Y-67676011D01*
X110445936Y-67697305D01*
X110451345Y-67703789D01*
X110438480Y-67705856D01*
X110405339Y-67698090D01*
X110386404Y-67691883D01*
X110370883Y-67686980D01*
X110370883Y-70147455D01*
X110405940Y-70155060D01*
X110440106Y-70177600D01*
X110448528Y-70184561D01*
X110484515Y-70218038D01*
X110497040Y-70243848D01*
X110488596Y-70272612D01*
X110474584Y-70295581D01*
X110458629Y-70332356D01*
X110466646Y-70365416D01*
X110478381Y-70403143D01*
X110483630Y-70451255D01*
X110483650Y-70454027D01*
X110478270Y-70496699D01*
X110456392Y-70525620D01*
X110432056Y-70542323D01*
X110390080Y-70563259D01*
X110354365Y-70573607D01*
X110350387Y-70573840D01*
X110327922Y-70567752D01*
X110284113Y-70551574D01*
X110226460Y-70528490D01*
X110162460Y-70501686D01*
X110099614Y-70474345D01*
X110045418Y-70449653D01*
X110007373Y-70430793D01*
X109994095Y-70422529D01*
X109998450Y-70407724D01*
X110016155Y-70377834D01*
X110019601Y-70372741D01*
X110050312Y-70326443D01*
X110076444Y-70284919D01*
X110118671Y-70238696D01*
X110182033Y-70196893D01*
X110255944Y-70165341D01*
X110319902Y-70150845D01*
X110370883Y-70147455D01*
X110370883Y-67686980D01*
X110340984Y-67677533D01*
X110306152Y-67669438D01*
X110299091Y-67668775D01*
X110278830Y-67675488D01*
X110283904Y-67691609D01*
X110311902Y-67711106D01*
X110316962Y-67713511D01*
X110346092Y-67730972D01*
X110356650Y-67744578D01*
X110343616Y-67754001D01*
X110317008Y-67756221D01*
X110317008Y-69986525D01*
X110348840Y-69994249D01*
X110353291Y-70016490D01*
X110330450Y-70051848D01*
X110311503Y-70071463D01*
X110277223Y-70095949D01*
X110235012Y-70115334D01*
X110193818Y-70127067D01*
X110162590Y-70128595D01*
X110150275Y-70117449D01*
X110162746Y-70093113D01*
X110194141Y-70060813D01*
X110235428Y-70027640D01*
X110277576Y-70000684D01*
X110311557Y-69987037D01*
X110317008Y-69986525D01*
X110317008Y-67756221D01*
X110314300Y-67756447D01*
X110283379Y-67751981D01*
X110268008Y-67744181D01*
X110238808Y-67732482D01*
X110205843Y-67738607D01*
X110187538Y-67756678D01*
X110190308Y-67785430D01*
X110207690Y-67813697D01*
X110237205Y-67846311D01*
X110023084Y-67837170D01*
X109914164Y-67832012D01*
X109801779Y-67825792D01*
X109690981Y-67818880D01*
X109674025Y-67817703D01*
X109674025Y-68950539D01*
X109839975Y-69123250D01*
X109897741Y-69183709D01*
X109946860Y-69235765D01*
X109983497Y-69275303D01*
X110003818Y-69298207D01*
X110006663Y-69302142D01*
X109992981Y-69304041D01*
X109957281Y-69302014D01*
X109931136Y-69299290D01*
X109918049Y-69296872D01*
X109918049Y-70182006D01*
X109918847Y-70182290D01*
X109940430Y-70204608D01*
X109941887Y-70240218D01*
X109924617Y-70279074D01*
X109902063Y-70302879D01*
X109863232Y-70326931D01*
X109827565Y-70342588D01*
X109827565Y-70452360D01*
X109884673Y-70456757D01*
X109930179Y-70474568D01*
X109956351Y-70503508D01*
X109959775Y-70520734D01*
X109952939Y-70545852D01*
X109935137Y-70588983D01*
X109913650Y-70633883D01*
X109868005Y-70707313D01*
X109813157Y-70770249D01*
X109754566Y-70818370D01*
X109697692Y-70847357D01*
X109647996Y-70852888D01*
X109639473Y-70850823D01*
X109615219Y-70851288D01*
X109610525Y-70861614D01*
X109602760Y-70866827D01*
X109585534Y-70850777D01*
X109567914Y-70830619D01*
X109565469Y-70836993D01*
X109571051Y-70859650D01*
X109583188Y-70914457D01*
X109581719Y-70946334D01*
X109564252Y-70962051D01*
X109532814Y-70967983D01*
X109488878Y-70965661D01*
X109465589Y-70952108D01*
X109459242Y-70926993D01*
X109454467Y-70879447D01*
X109452121Y-70818783D01*
X109452018Y-70805069D01*
X109453487Y-70735766D01*
X109459534Y-70688186D01*
X109472130Y-70652409D01*
X109487493Y-70626724D01*
X109520853Y-70584420D01*
X109545689Y-70565594D01*
X109559062Y-70571342D01*
X109558523Y-70600283D01*
X109559731Y-70641478D01*
X109571418Y-70664061D01*
X109588836Y-70674939D01*
X109600397Y-70659074D01*
X109603677Y-70649354D01*
X109635944Y-70580958D01*
X109683986Y-70519988D01*
X109739378Y-70476047D01*
X109766588Y-70463661D01*
X109827565Y-70452360D01*
X109827565Y-70342588D01*
X109815950Y-70347687D01*
X109770376Y-70361718D01*
X109736667Y-70365595D01*
X109726767Y-70362058D01*
X109729480Y-70344531D01*
X109749337Y-70312476D01*
X109780494Y-70273268D01*
X109817107Y-70234282D01*
X109852298Y-70203659D01*
X109888280Y-70184824D01*
X109918049Y-70182006D01*
X109918049Y-69296872D01*
X109867929Y-69287609D01*
X109804525Y-69269655D01*
X109789492Y-69264097D01*
X109731831Y-69225814D01*
X109694180Y-69164532D01*
X109675999Y-69079164D01*
X109674025Y-69031648D01*
X109674025Y-68950539D01*
X109674025Y-67817703D01*
X109586824Y-67811646D01*
X109494362Y-67804460D01*
X109418648Y-67797692D01*
X109364735Y-67791711D01*
X109338162Y-67787047D01*
X109305262Y-67780173D01*
X109257206Y-67773810D01*
X109242247Y-67772374D01*
X109194677Y-67765055D01*
X109129060Y-67750869D01*
X109057619Y-67732530D01*
X109039025Y-67727250D01*
X108937887Y-67699324D01*
X108818188Y-67668587D01*
X108689974Y-67637426D01*
X108563296Y-67608227D01*
X108448202Y-67583378D01*
X108364337Y-67566979D01*
X108291514Y-67552387D01*
X108219305Y-67535594D01*
X108162539Y-67520065D01*
X108159396Y-67519073D01*
X108096958Y-67494655D01*
X108011501Y-67454544D01*
X107906417Y-67400672D01*
X107785098Y-67334969D01*
X107650934Y-67259365D01*
X107507318Y-67175793D01*
X107357640Y-67086181D01*
X107205292Y-66992460D01*
X107053666Y-66896563D01*
X106965004Y-66839146D01*
X106877085Y-66779696D01*
X106799166Y-66721945D01*
X106723750Y-66659662D01*
X106643339Y-66586620D01*
X106550437Y-66496587D01*
X106538550Y-66484799D01*
X106457183Y-66402912D01*
X106380044Y-66323323D01*
X106310214Y-66249397D01*
X106250779Y-66184497D01*
X106204821Y-66131988D01*
X106175426Y-66095234D01*
X106165650Y-66077965D01*
X106176960Y-66066197D01*
X106208319Y-66037032D01*
X106255874Y-65993965D01*
X106315767Y-65940495D01*
X106371569Y-65891175D01*
X106438232Y-65831791D01*
X106495091Y-65779767D01*
X106538442Y-65738606D01*
X106564578Y-65711815D01*
X106570540Y-65702998D01*
X106555812Y-65708458D01*
X106525834Y-65730057D01*
X106504300Y-65748107D01*
X106464566Y-65778776D01*
X106442682Y-65784941D01*
X106438082Y-65779386D01*
X106443846Y-65754721D01*
X106459962Y-65737542D01*
X106479766Y-65718497D01*
X106481735Y-65709443D01*
X106466147Y-65714216D01*
X106427217Y-65731798D01*
X106413380Y-65738552D01*
X106413380Y-65816309D01*
X106412819Y-65825483D01*
X106412744Y-65825605D01*
X106390937Y-65846588D01*
X106369225Y-65860523D01*
X106346544Y-65869990D01*
X106347105Y-65860816D01*
X106347180Y-65860694D01*
X106368987Y-65839711D01*
X106390699Y-65825776D01*
X106413380Y-65816309D01*
X106413380Y-65738552D01*
X106395837Y-65747115D01*
X106395837Y-65763775D01*
X106403775Y-65771712D01*
X106395837Y-65779650D01*
X106387900Y-65771712D01*
X106395837Y-65763775D01*
X106395837Y-65747115D01*
X106369558Y-65759943D01*
X106351462Y-65769136D01*
X106351462Y-65800231D01*
X106356150Y-65803810D01*
X106345376Y-65816472D01*
X106323366Y-65839747D01*
X106323366Y-65894667D01*
X106324400Y-65896838D01*
X106313224Y-65911325D01*
X106308525Y-65914587D01*
X106293683Y-65918632D01*
X106292650Y-65916461D01*
X106303825Y-65901974D01*
X106308525Y-65898712D01*
X106323366Y-65894667D01*
X106323366Y-65839747D01*
X106314931Y-65848667D01*
X106267631Y-65897508D01*
X106206290Y-65960113D01*
X106133723Y-66033597D01*
X106052745Y-66115076D01*
X106034681Y-66133186D01*
X105975318Y-66193271D01*
X105975318Y-66276172D01*
X106019384Y-66277954D01*
X106078294Y-66288144D01*
X106144534Y-66305563D01*
X106190244Y-66321055D01*
X106281806Y-66364913D01*
X106384668Y-66430756D01*
X106492601Y-66514096D01*
X106599380Y-66610444D01*
X106620243Y-66631074D01*
X106760411Y-66758639D01*
X106930621Y-66890226D01*
X107129535Y-67025013D01*
X107355816Y-67162176D01*
X107608127Y-67300893D01*
X107885132Y-67440340D01*
X108094462Y-67538610D01*
X108214337Y-67593780D01*
X108330662Y-67648137D01*
X108440052Y-67700024D01*
X108539120Y-67747786D01*
X108624482Y-67789767D01*
X108692752Y-67824312D01*
X108740544Y-67849765D01*
X108764473Y-67864471D01*
X108766487Y-67867229D01*
X108749070Y-67868007D01*
X108705169Y-67865633D01*
X108639852Y-67860506D01*
X108558186Y-67853023D01*
X108465674Y-67843627D01*
X108301619Y-67827109D01*
X108155565Y-67814204D01*
X108029653Y-67805017D01*
X107926027Y-67799649D01*
X107846829Y-67798204D01*
X107794200Y-67800786D01*
X107770284Y-67807495D01*
X107769025Y-67810167D01*
X107776476Y-67823236D01*
X107781303Y-67821810D01*
X107799309Y-67821649D01*
X107845434Y-67824421D01*
X107916208Y-67829830D01*
X108008164Y-67837581D01*
X108117834Y-67847381D01*
X108241751Y-67858933D01*
X108376446Y-67871943D01*
X108412334Y-67875481D01*
X108555508Y-67889446D01*
X108694173Y-67902574D01*
X108823884Y-67914475D01*
X108940196Y-67924756D01*
X109038667Y-67933025D01*
X109114851Y-67938890D01*
X109164304Y-67941959D01*
X109167370Y-67942088D01*
X109259069Y-67949774D01*
X109325173Y-67966193D01*
X109371230Y-67993907D01*
X109402787Y-68035476D01*
X109411940Y-68054978D01*
X109421614Y-68091644D01*
X109431855Y-68153139D01*
X109441975Y-68232568D01*
X109451286Y-68323033D01*
X109459101Y-68417640D01*
X109464730Y-68509492D01*
X109467486Y-68591693D01*
X109467650Y-68613265D01*
X109470076Y-68667315D01*
X109476405Y-68707869D01*
X109484295Y-68724938D01*
X109492071Y-68742322D01*
X109483916Y-68755741D01*
X109477147Y-68780437D01*
X109472208Y-68834627D01*
X109469217Y-68916101D01*
X109468288Y-69022650D01*
X109468386Y-69051984D01*
X109468142Y-69178586D01*
X109466163Y-69299371D01*
X109462669Y-69410423D01*
X109457877Y-69507823D01*
X109452006Y-69587655D01*
X109445274Y-69646003D01*
X109437900Y-69678948D01*
X109433100Y-69684900D01*
X109414374Y-69676487D01*
X109376512Y-69654027D01*
X109326386Y-69621685D01*
X109304391Y-69606880D01*
X109218041Y-69552103D01*
X109114525Y-69492899D01*
X108999562Y-69431960D01*
X108878869Y-69371975D01*
X108758166Y-69315635D01*
X108643171Y-69265632D01*
X108539604Y-69224655D01*
X108453181Y-69195395D01*
X108402921Y-69182733D01*
X108365956Y-69177485D01*
X108357777Y-69181008D01*
X108376896Y-69192509D01*
X108421824Y-69211196D01*
X108491072Y-69236279D01*
X108525945Y-69248159D01*
X108669275Y-69301295D01*
X108820467Y-69366252D01*
X108971620Y-69439043D01*
X109114830Y-69515677D01*
X109242194Y-69592166D01*
X109336064Y-69657073D01*
X109381346Y-69693092D01*
X109405136Y-69718785D01*
X109412450Y-69741302D01*
X109409744Y-69762101D01*
X109400040Y-69797440D01*
X109393218Y-69815645D01*
X109378622Y-69811988D01*
X109344993Y-69792411D01*
X109298293Y-69760571D01*
X109272382Y-69741553D01*
X109207937Y-69695583D01*
X109130151Y-69643894D01*
X109043130Y-69588829D01*
X108950980Y-69532729D01*
X108857809Y-69477936D01*
X108767723Y-69426792D01*
X108684827Y-69381639D01*
X108613230Y-69344817D01*
X108557037Y-69318670D01*
X108520355Y-69305539D01*
X108508064Y-69305693D01*
X108518410Y-69315420D01*
X108551856Y-69336805D01*
X108603356Y-69366812D01*
X108667865Y-69402405D01*
X108676451Y-69407020D01*
X108766749Y-69457311D01*
X108863224Y-69514333D01*
X108962095Y-69575511D01*
X109059586Y-69638273D01*
X109151917Y-69700045D01*
X109235310Y-69758256D01*
X109305987Y-69810331D01*
X109360169Y-69853697D01*
X109394079Y-69885782D01*
X109404150Y-69902589D01*
X109395473Y-69944296D01*
X109389493Y-69959483D01*
X109389493Y-70939025D01*
X109402072Y-70951909D01*
X109402258Y-70984307D01*
X109390805Y-71026832D01*
X109380577Y-71049686D01*
X109356773Y-71083311D01*
X109323393Y-71116790D01*
X109288624Y-71143518D01*
X109260651Y-71156885D01*
X109249880Y-71155171D01*
X109245752Y-71131161D01*
X109256302Y-71091358D01*
X109277294Y-71045474D01*
X109304497Y-71003221D01*
X109326279Y-70979882D01*
X109360589Y-70953856D01*
X109385676Y-70939818D01*
X109389493Y-70939025D01*
X109389493Y-69959483D01*
X109372215Y-70003366D01*
X109338536Y-70071531D01*
X109298595Y-70140526D01*
X109256552Y-70202083D01*
X109247760Y-70213397D01*
X109178324Y-70293643D01*
X109091955Y-70383378D01*
X109017741Y-70454725D01*
X109017741Y-71224775D01*
X109033867Y-71236560D01*
X109032222Y-71268395D01*
X109014180Y-71315001D01*
X108981113Y-71371099D01*
X108978825Y-71374442D01*
X108944665Y-71416931D01*
X108921137Y-71430651D01*
X108909087Y-71415540D01*
X108908537Y-71379572D01*
X108920770Y-71335402D01*
X108945861Y-71288846D01*
X108977042Y-71249496D01*
X109007545Y-71226945D01*
X109017741Y-71224775D01*
X109017741Y-70454725D01*
X108997104Y-70474565D01*
X108902227Y-70559165D01*
X108815775Y-70629142D01*
X108792498Y-70646259D01*
X108712882Y-70711411D01*
X108662629Y-70772006D01*
X108642518Y-70827065D01*
X108642150Y-70835003D01*
X108652207Y-70860258D01*
X108677873Y-70897545D01*
X108697048Y-70920324D01*
X108755783Y-71001806D01*
X108782991Y-71081219D01*
X108778634Y-71158347D01*
X108752136Y-71218680D01*
X108728525Y-71246089D01*
X108728525Y-71479282D01*
X108745373Y-71483693D01*
X108746228Y-71509586D01*
X108744908Y-71514493D01*
X108733274Y-71546393D01*
X108712595Y-71596567D01*
X108687214Y-71654501D01*
X108685625Y-71658022D01*
X108654603Y-71719981D01*
X108630086Y-71753479D01*
X108611717Y-71761047D01*
X108586818Y-71743182D01*
X108582150Y-71705727D01*
X108596720Y-71652706D01*
X108629535Y-71588144D01*
X108668644Y-71530368D01*
X108701132Y-71495218D01*
X108728525Y-71479282D01*
X108728525Y-71246089D01*
X108724362Y-71250922D01*
X108677479Y-71292763D01*
X108619515Y-71337322D01*
X108589417Y-71358120D01*
X108485759Y-71436811D01*
X108373038Y-71540582D01*
X108302823Y-71613305D01*
X108243890Y-71675785D01*
X108189709Y-71731332D01*
X108145253Y-71774980D01*
X108115499Y-71801762D01*
X108109668Y-71806110D01*
X108067685Y-71821447D01*
X108016222Y-71816912D01*
X107952946Y-71791428D01*
X107875524Y-71743917D01*
X107781622Y-71673301D01*
X107729537Y-71630484D01*
X107700084Y-71603470D01*
X107692818Y-71585932D01*
X107704560Y-71568242D01*
X107707879Y-71564867D01*
X107741682Y-71547789D01*
X107790591Y-71539519D01*
X107838818Y-71541540D01*
X107864222Y-71550180D01*
X107888506Y-71549564D01*
X107914919Y-71530606D01*
X107932341Y-71503816D01*
X107932943Y-71485220D01*
X107933019Y-71465690D01*
X107939011Y-71462900D01*
X107954510Y-71449923D01*
X107974932Y-71417652D01*
X107980543Y-71406491D01*
X108000832Y-71373132D01*
X108018621Y-71358756D01*
X108022575Y-71359434D01*
X108038191Y-71377584D01*
X108062537Y-71414543D01*
X108081959Y-71447577D01*
X108110188Y-71493525D01*
X108133658Y-71517301D01*
X108160492Y-71525754D01*
X108175424Y-71526383D01*
X108225908Y-71514051D01*
X108287342Y-71480083D01*
X108352773Y-71429062D01*
X108409566Y-71372081D01*
X108456138Y-71315512D01*
X108500805Y-71254559D01*
X108539074Y-71196140D01*
X108566454Y-71147172D01*
X108578453Y-71114570D01*
X108578650Y-71111719D01*
X108566536Y-71070259D01*
X108535234Y-71021405D01*
X108492303Y-70973130D01*
X108445300Y-70933406D01*
X108401784Y-70910204D01*
X108384815Y-70907275D01*
X108366574Y-70918015D01*
X108333384Y-70946444D01*
X108291780Y-70986874D01*
X108283177Y-70995740D01*
X108235267Y-71042814D01*
X108201469Y-71068313D01*
X108176488Y-71075787D01*
X108166305Y-71074091D01*
X108128680Y-71068935D01*
X108113823Y-71083176D01*
X108121275Y-71114568D01*
X108150575Y-71160862D01*
X108194737Y-71212868D01*
X108216895Y-71239367D01*
X108220135Y-71252315D01*
X108202231Y-71251476D01*
X108160957Y-71236614D01*
X108094088Y-71207495D01*
X108078972Y-71200635D01*
X107956330Y-71144745D01*
X107833052Y-71268104D01*
X107754935Y-71349613D01*
X107699490Y-71415998D01*
X107664042Y-71471255D01*
X107645918Y-71519378D01*
X107642084Y-71553434D01*
X107655038Y-71630172D01*
X107689561Y-71702692D01*
X107703205Y-71720966D01*
X107719876Y-71748015D01*
X107713726Y-71758188D01*
X107689090Y-71751053D01*
X107650377Y-71726230D01*
X107587019Y-71661763D01*
X107552012Y-71584815D01*
X107543128Y-71521887D01*
X107543999Y-71486252D01*
X107552266Y-71452660D01*
X107571287Y-71413406D01*
X107604422Y-71360785D01*
X107629309Y-71324180D01*
X107673228Y-71261053D01*
X107715704Y-71201072D01*
X107750082Y-71153598D01*
X107761503Y-71138328D01*
X107784929Y-71104855D01*
X107795025Y-71084628D01*
X107793818Y-71081900D01*
X107799060Y-71072828D01*
X107825162Y-71048008D01*
X107867801Y-71011037D01*
X107922660Y-70965509D01*
X107985418Y-70915019D01*
X108051756Y-70863162D01*
X108107076Y-70821184D01*
X108158992Y-70781300D01*
X108198748Y-70748618D01*
X108221193Y-70727495D01*
X108224135Y-70722093D01*
X108205921Y-70723097D01*
X108173227Y-70736397D01*
X108137468Y-70755919D01*
X108110060Y-70775588D01*
X108101820Y-70787183D01*
X108089092Y-70803987D01*
X108058051Y-70829298D01*
X108018348Y-70856587D01*
X107979632Y-70879322D01*
X107951554Y-70890972D01*
X107947843Y-70891400D01*
X107925989Y-70899182D01*
X107885084Y-70919780D01*
X107832094Y-70949065D01*
X107773987Y-70982912D01*
X107717728Y-71017194D01*
X107670284Y-71047785D01*
X107638621Y-71070557D01*
X107629423Y-71080015D01*
X107635375Y-71090777D01*
X107652604Y-71087366D01*
X107662590Y-71087847D01*
X107647741Y-71104185D01*
X107638056Y-71112320D01*
X107604982Y-71150125D01*
X107594157Y-71198509D01*
X107593993Y-71206083D01*
X107593587Y-71264462D01*
X107586462Y-71253415D01*
X107586462Y-71304150D01*
X107594400Y-71312087D01*
X107586462Y-71320025D01*
X107578525Y-71312087D01*
X107586462Y-71304150D01*
X107586462Y-71253415D01*
X107537276Y-71177150D01*
X107473480Y-71072154D01*
X107426973Y-70982351D01*
X107399012Y-70910498D01*
X107390850Y-70859347D01*
X107391087Y-70856252D01*
X107395962Y-70807913D01*
X107448705Y-70881633D01*
X107479501Y-70919956D01*
X107504713Y-70942976D01*
X107516174Y-70946252D01*
X107530685Y-70923653D01*
X107518374Y-70896154D01*
X107490207Y-70874987D01*
X107452160Y-70844962D01*
X107423284Y-70808804D01*
X107398112Y-70773416D01*
X107381202Y-70768111D01*
X107371029Y-70792771D01*
X107369235Y-70804581D01*
X107360746Y-70833946D01*
X107350112Y-70842912D01*
X107330367Y-70852808D01*
X107322779Y-70862262D01*
X107310771Y-70864046D01*
X107285484Y-70848792D01*
X107244813Y-70814774D01*
X107186650Y-70760262D01*
X107127068Y-70701690D01*
X107065280Y-70641294D01*
X107011208Y-70590621D01*
X106968794Y-70553191D01*
X106941978Y-70532524D01*
X106934665Y-70529843D01*
X106932876Y-70549517D01*
X106947809Y-70571803D01*
X106968794Y-70581837D01*
X106984533Y-70593658D01*
X107015457Y-70626033D01*
X107057420Y-70674325D01*
X107106276Y-70733902D01*
X107117902Y-70748525D01*
X107169106Y-70813209D01*
X107215135Y-70871203D01*
X107251402Y-70916736D01*
X107273322Y-70944042D01*
X107275195Y-70946339D01*
X107290833Y-70966333D01*
X107287586Y-70968376D01*
X107261802Y-70952889D01*
X107255101Y-70948661D01*
X107234019Y-70935710D01*
X107222748Y-70931361D01*
X107222820Y-70939098D01*
X107235769Y-70962409D01*
X107263127Y-71004780D01*
X107306430Y-71069699D01*
X107311974Y-71077980D01*
X107348254Y-71133437D01*
X107378031Y-71181288D01*
X107396448Y-71213639D01*
X107399336Y-71219904D01*
X107393457Y-71225147D01*
X107367354Y-71213218D01*
X107325375Y-71187056D01*
X107271867Y-71149596D01*
X107211179Y-71103775D01*
X107147658Y-71052530D01*
X107131881Y-71039246D01*
X107091520Y-70998696D01*
X107039014Y-70936828D01*
X106978603Y-70859517D01*
X106914526Y-70772642D01*
X106851024Y-70682079D01*
X106792335Y-70593705D01*
X106742700Y-70513397D01*
X106710269Y-70454837D01*
X106669834Y-70375462D01*
X106711469Y-70413986D01*
X106738223Y-70442537D01*
X106777858Y-70489473D01*
X106824437Y-70547606D01*
X106860221Y-70594050D01*
X106911886Y-70659632D01*
X106948125Y-70699554D01*
X106968430Y-70713296D01*
X106972643Y-70709406D01*
X106974064Y-70695580D01*
X106970399Y-70680407D01*
X106958650Y-70659453D01*
X106935822Y-70628286D01*
X106898918Y-70582472D01*
X106844940Y-70517578D01*
X106834705Y-70505350D01*
X106787120Y-70450566D01*
X106742742Y-70403055D01*
X106708138Y-70369691D01*
X106695798Y-70359957D01*
X106668790Y-70344146D01*
X106658982Y-70347482D01*
X106657775Y-70362460D01*
X106650360Y-70362649D01*
X106630532Y-70339902D01*
X106601915Y-70298686D01*
X106587424Y-70275772D01*
X106553538Y-70222629D01*
X106506370Y-70151138D01*
X106450988Y-70068861D01*
X106392461Y-69983359D01*
X106361205Y-69938324D01*
X106300734Y-69850144D01*
X106238660Y-69756982D01*
X106180805Y-69667748D01*
X106132988Y-69591351D01*
X106116133Y-69563255D01*
X106078731Y-69501037D01*
X106046037Y-69449220D01*
X106021974Y-69413864D01*
X106011378Y-69401370D01*
X105995589Y-69377917D01*
X105993176Y-69367400D01*
X105989443Y-69337435D01*
X105983304Y-69291225D01*
X105981008Y-69274414D01*
X105971490Y-69205241D01*
X106167788Y-69215660D01*
X106251245Y-69218557D01*
X106330268Y-69218587D01*
X106395542Y-69215907D01*
X106435525Y-69211166D01*
X106506962Y-69196253D01*
X106427587Y-69193398D01*
X106359706Y-69188704D01*
X106321271Y-69180894D01*
X106312886Y-69170490D01*
X106335156Y-69158010D01*
X106373844Y-69147251D01*
X106437906Y-69127700D01*
X106508645Y-69099236D01*
X106546650Y-69080704D01*
X106633962Y-69033946D01*
X106570462Y-69044213D01*
X106528552Y-69052985D01*
X106502107Y-69062235D01*
X106499025Y-69064585D01*
X106479861Y-69068598D01*
X106435130Y-69069745D01*
X106370848Y-69068398D01*
X106293032Y-69064928D01*
X106207699Y-69059707D01*
X106120866Y-69053107D01*
X106038550Y-69045498D01*
X105966767Y-69037253D01*
X105911535Y-69028742D01*
X105908281Y-69028114D01*
X105821082Y-69008596D01*
X105762736Y-68989599D01*
X105730392Y-68969933D01*
X105721150Y-68950007D01*
X105708578Y-68931455D01*
X105676362Y-68904961D01*
X105665587Y-68897884D01*
X105665587Y-68922900D01*
X105673525Y-68930837D01*
X105665587Y-68938775D01*
X105657650Y-68930837D01*
X105665587Y-68922900D01*
X105665587Y-68897884D01*
X105649712Y-68887456D01*
X105609481Y-68860682D01*
X105583570Y-68838690D01*
X105578275Y-68830161D01*
X105589704Y-68816236D01*
X105621880Y-68784370D01*
X105671637Y-68737508D01*
X105735809Y-68678594D01*
X105811228Y-68610573D01*
X105883868Y-68545978D01*
X105968456Y-68470966D01*
X106046450Y-68401299D01*
X106114267Y-68340217D01*
X106168323Y-68290961D01*
X106205035Y-68256773D01*
X106219653Y-68242288D01*
X106247015Y-68220149D01*
X106269026Y-68224589D01*
X106270216Y-68225544D01*
X106284369Y-68230834D01*
X106289269Y-68211095D01*
X106289223Y-68194461D01*
X106285204Y-68167126D01*
X106273417Y-68157751D01*
X106251215Y-68167915D01*
X106215953Y-68199196D01*
X106164984Y-68253171D01*
X106135475Y-68286123D01*
X106091382Y-68331231D01*
X106027802Y-68390079D01*
X105950713Y-68457443D01*
X105866092Y-68528099D01*
X105780087Y-68596692D01*
X105522712Y-68796708D01*
X105479751Y-68744710D01*
X105430930Y-68674021D01*
X105380251Y-68580005D01*
X105331615Y-68470556D01*
X105293838Y-68368443D01*
X105250335Y-68238783D01*
X105295242Y-68144499D01*
X105318234Y-68094509D01*
X105334433Y-68056014D01*
X105340167Y-68038088D01*
X105353671Y-68026578D01*
X105389667Y-68006365D01*
X105441405Y-67981118D01*
X105463198Y-67971230D01*
X105588549Y-67898536D01*
X105705731Y-67796180D01*
X105813750Y-67665428D01*
X105911612Y-67507549D01*
X105998322Y-67323809D01*
X106025319Y-67255050D01*
X106046893Y-67194202D01*
X106061745Y-67141446D01*
X106071453Y-67087377D01*
X106077597Y-67022591D01*
X106081755Y-66937685D01*
X106082620Y-66913629D01*
X106082387Y-66767519D01*
X106069504Y-66641756D01*
X106042207Y-66526866D01*
X105998735Y-66413370D01*
X105983544Y-66380799D01*
X105963640Y-66333891D01*
X105953297Y-66297866D01*
X105953608Y-66283975D01*
X105975318Y-66276172D01*
X105975318Y-66193271D01*
X105945830Y-66223119D01*
X105859267Y-66312419D01*
X105779076Y-66396745D01*
X105709338Y-66471760D01*
X105654137Y-66533124D01*
X105617962Y-66575986D01*
X105502124Y-66723822D01*
X105404967Y-66850365D01*
X105324592Y-66958498D01*
X105259097Y-67051102D01*
X105206583Y-67131061D01*
X105165149Y-67201256D01*
X105132895Y-67264570D01*
X105107921Y-67323885D01*
X105089853Y-67377031D01*
X105070634Y-67447289D01*
X105055976Y-67514946D01*
X105046854Y-67573395D01*
X105044246Y-67616029D01*
X105049129Y-67636242D01*
X105051396Y-67637025D01*
X105064236Y-67623899D01*
X105085439Y-67589716D01*
X105107131Y-67548390D01*
X105163024Y-67449595D01*
X105237404Y-67345049D01*
X105333825Y-67229914D01*
X105371634Y-67188175D01*
X105428173Y-67128928D01*
X105470430Y-67088772D01*
X105496890Y-67068265D01*
X105506038Y-67067971D01*
X105496359Y-67088448D01*
X105466336Y-67130259D01*
X105440494Y-67162685D01*
X105314558Y-67327559D01*
X105215992Y-67480807D01*
X105160521Y-67586580D01*
X105126684Y-67675236D01*
X105107636Y-67769062D01*
X105103614Y-67872187D01*
X105114859Y-67988741D01*
X105141609Y-68122853D01*
X105184102Y-68278651D01*
X105204367Y-68344207D01*
X105225507Y-68413210D01*
X105241597Y-68470394D01*
X105250961Y-68509469D01*
X105252211Y-68524004D01*
X105243358Y-68512900D01*
X105223388Y-68477708D01*
X105194747Y-68423048D01*
X105159878Y-68353539D01*
X105149308Y-68331861D01*
X105149308Y-68414900D01*
X105161489Y-68427372D01*
X105184362Y-68459824D01*
X105208665Y-68498243D01*
X105242463Y-68549726D01*
X105288380Y-68614145D01*
X105338182Y-68680068D01*
X105354422Y-68700650D01*
X105395487Y-68753108D01*
X105427838Y-68796522D01*
X105447058Y-68824852D01*
X105450447Y-68831959D01*
X105438335Y-68846800D01*
X105412431Y-68861903D01*
X105388639Y-68868861D01*
X105379800Y-68868107D01*
X105379800Y-68945691D01*
X105399887Y-68946088D01*
X105448809Y-68959194D01*
X105507059Y-68977926D01*
X105684427Y-69029279D01*
X105861601Y-69063711D01*
X106048995Y-69082836D01*
X106219014Y-69088235D01*
X106311187Y-69089705D01*
X106371859Y-69092700D01*
X106401227Y-69096957D01*
X106399491Y-69102212D01*
X106366847Y-69108202D01*
X106303496Y-69114661D01*
X106209634Y-69121326D01*
X106193431Y-69122299D01*
X106105890Y-69129171D01*
X106049308Y-69137643D01*
X106023893Y-69147648D01*
X106029855Y-69159120D01*
X106050556Y-69167302D01*
X106051246Y-69170740D01*
X106025866Y-69171306D01*
X105983087Y-69169079D01*
X105914570Y-69159623D01*
X105829132Y-69141213D01*
X105735966Y-69116531D01*
X105644266Y-69088262D01*
X105563224Y-69059088D01*
X105502034Y-69031691D01*
X105490962Y-69025461D01*
X105425497Y-68984907D01*
X105388390Y-68958474D01*
X105379800Y-68945691D01*
X105379800Y-68868107D01*
X105360520Y-68866461D01*
X105320470Y-68852824D01*
X105260887Y-68826070D01*
X105253681Y-68822658D01*
X105199299Y-68798122D01*
X105157790Y-68781851D01*
X105135709Y-68776312D01*
X105133775Y-68777502D01*
X105144277Y-68793960D01*
X105171632Y-68825071D01*
X105204771Y-68858967D01*
X105246950Y-68906295D01*
X105261112Y-68939397D01*
X105246755Y-68959890D01*
X105203378Y-68969391D01*
X105170160Y-68970525D01*
X105126016Y-68964501D01*
X105070674Y-68948715D01*
X105012099Y-68926598D01*
X104958260Y-68901578D01*
X104917122Y-68877085D01*
X104896653Y-68856550D01*
X104895698Y-68852377D01*
X104903359Y-68826117D01*
X104924000Y-68780671D01*
X104954243Y-68721871D01*
X104990708Y-68655548D01*
X105030013Y-68587531D01*
X105068779Y-68523653D01*
X105103627Y-68469742D01*
X105131175Y-68431631D01*
X105148044Y-68415150D01*
X105149308Y-68414900D01*
X105149308Y-68331861D01*
X105134892Y-68302293D01*
X105053677Y-68122186D01*
X104992628Y-67957947D01*
X104950059Y-67802412D01*
X104924282Y-67648418D01*
X104913608Y-67488802D01*
X104914338Y-67366070D01*
X104917549Y-67281338D01*
X104921954Y-67220128D01*
X104929117Y-67174215D01*
X104940601Y-67135371D01*
X104957971Y-67095373D01*
X104970686Y-67069731D01*
X105062851Y-66910124D01*
X105178183Y-66750556D01*
X105318191Y-66589423D01*
X105484385Y-66425123D01*
X105678274Y-66256053D01*
X105901366Y-66080610D01*
X105903712Y-66078846D01*
X105975926Y-66025110D01*
X106032448Y-65984112D01*
X106071496Y-65957000D01*
X106091291Y-65944926D01*
X106090049Y-65949037D01*
X106065992Y-65970484D01*
X106046587Y-65986640D01*
X105996978Y-66030072D01*
X105938848Y-66085175D01*
X105875525Y-66148302D01*
X105810338Y-66215809D01*
X105746615Y-66284050D01*
X105687683Y-66349379D01*
X105636870Y-66408151D01*
X105597506Y-66456722D01*
X105572917Y-66491444D01*
X105566432Y-66508674D01*
X105568878Y-66509900D01*
X105582299Y-66499013D01*
X105612984Y-66469271D01*
X105656557Y-66425045D01*
X105708638Y-66370709D01*
X105715876Y-66363056D01*
X105828900Y-66244830D01*
X105934269Y-66137482D01*
X106029351Y-66043560D01*
X106111510Y-65965615D01*
X106178113Y-65906199D01*
X106226527Y-65867862D01*
X106229150Y-65866045D01*
X106283816Y-65830966D01*
X106326287Y-65808195D01*
X106351462Y-65800231D01*
X106351462Y-65769136D01*
X106297783Y-65796408D01*
X106226780Y-65833506D01*
X105978861Y-65964603D01*
X105822224Y-65912618D01*
X105752027Y-65890556D01*
X105689011Y-65872969D01*
X105641787Y-65862148D01*
X105623745Y-65859829D01*
X105578751Y-65851696D01*
X105536433Y-65835298D01*
X105487172Y-65815475D01*
X105435400Y-65802057D01*
X105397089Y-65793853D01*
X105337366Y-65779188D01*
X105265337Y-65760355D01*
X105210109Y-65745265D01*
X105136555Y-65726411D01*
X105070102Y-65712323D01*
X105019154Y-65704616D01*
X104995796Y-65704046D01*
X104974635Y-65707490D01*
X104967163Y-65711726D01*
X104976981Y-65718537D01*
X105007688Y-65729709D01*
X105062883Y-65747026D01*
X105113467Y-65762383D01*
X105170218Y-65781362D01*
X105214539Y-65799556D01*
X105237948Y-65813422D01*
X105239103Y-65814864D01*
X105238954Y-65826018D01*
X105223885Y-65822607D01*
X105193565Y-65814855D01*
X105145133Y-65806182D01*
X105114124Y-65801747D01*
X105030587Y-65790950D01*
X105062337Y-65827364D01*
X105094087Y-65863779D01*
X105054400Y-65854548D01*
X105012053Y-65845805D01*
X104959560Y-65836314D01*
X104951212Y-65834926D01*
X104887712Y-65824535D01*
X104943275Y-65861003D01*
X104998837Y-65897472D01*
X104943275Y-65907908D01*
X104912871Y-65915030D01*
X104906076Y-65919815D01*
X104909235Y-65920435D01*
X104914191Y-65930856D01*
X104894950Y-65956619D01*
X104885422Y-65966181D01*
X104843561Y-66010024D01*
X104803042Y-66057630D01*
X104800400Y-66061007D01*
X104760712Y-66112177D01*
X104757995Y-66111513D01*
X104757995Y-68942454D01*
X104809116Y-68942514D01*
X104854278Y-68971486D01*
X104896142Y-69029499D01*
X104902920Y-69041877D01*
X104921480Y-69079569D01*
X104924710Y-69099649D01*
X104913144Y-69112009D01*
X104906889Y-69115678D01*
X104885030Y-69141609D01*
X104881041Y-69175291D01*
X104896630Y-69201304D01*
X104897350Y-69201763D01*
X104908285Y-69200490D01*
X104904662Y-69180286D01*
X104903215Y-69155419D01*
X104924485Y-69142033D01*
X104938680Y-69138512D01*
X104988080Y-69135887D01*
X105057703Y-69142383D01*
X105137846Y-69156512D01*
X105218806Y-69176785D01*
X105248546Y-69186048D01*
X105293985Y-69199274D01*
X105325769Y-69205049D01*
X105334254Y-69203961D01*
X105324569Y-69195477D01*
X105291597Y-69180722D01*
X105242378Y-69162829D01*
X105240296Y-69162134D01*
X105160675Y-69132599D01*
X105111148Y-69106732D01*
X105090381Y-69083685D01*
X105092599Y-69068183D01*
X105117255Y-69054778D01*
X105162143Y-69050543D01*
X105217198Y-69055154D01*
X105272356Y-69068285D01*
X105289066Y-69074517D01*
X105362948Y-69118318D01*
X105437290Y-69189086D01*
X105514301Y-69288950D01*
X105519088Y-69295962D01*
X105546078Y-69334641D01*
X105588647Y-69394277D01*
X105643491Y-69470307D01*
X105707307Y-69558164D01*
X105776789Y-69653282D01*
X105840802Y-69740462D01*
X105940260Y-69877336D01*
X106023721Y-69995914D01*
X106090378Y-70094959D01*
X106139426Y-70173230D01*
X106170057Y-70229489D01*
X106181466Y-70262496D01*
X106181525Y-70264022D01*
X106168883Y-70265298D01*
X106134895Y-70253025D01*
X106085470Y-70229942D01*
X106026513Y-70198789D01*
X105969391Y-70165635D01*
X105925054Y-70136313D01*
X105865158Y-70093369D01*
X105795096Y-70041027D01*
X105720258Y-69983517D01*
X105646036Y-69925065D01*
X105577821Y-69869900D01*
X105521006Y-69822249D01*
X105480981Y-69786339D01*
X105466590Y-69771379D01*
X105452210Y-69752143D01*
X105460587Y-69752738D01*
X105478012Y-69761675D01*
X105510469Y-69776935D01*
X105521268Y-69775690D01*
X105509964Y-69756356D01*
X105476112Y-69717347D01*
X105461011Y-69701056D01*
X105418621Y-69651846D01*
X105397665Y-69616196D01*
X105394648Y-69588004D01*
X105395060Y-69585962D01*
X105418411Y-69472892D01*
X105433912Y-69379150D01*
X105441208Y-69307789D01*
X105439941Y-69261860D01*
X105434597Y-69247371D01*
X105411429Y-69226748D01*
X105398439Y-69234879D01*
X105394139Y-69272826D01*
X105394125Y-69276239D01*
X105390763Y-69322032D01*
X105383055Y-69356800D01*
X105373582Y-69374746D01*
X105359482Y-69373891D01*
X105331054Y-69353449D01*
X105329832Y-69352488D01*
X105299017Y-69332687D01*
X105279350Y-69328071D01*
X105278195Y-69328856D01*
X105282293Y-69344130D01*
X105305241Y-69367986D01*
X105306594Y-69369094D01*
X105331818Y-69391901D01*
X105333779Y-69408747D01*
X105314551Y-69432873D01*
X105282733Y-69460831D01*
X105236990Y-69493182D01*
X105215596Y-69506394D01*
X105171667Y-69529542D01*
X105146326Y-69535079D01*
X105133841Y-69526257D01*
X105122154Y-69516961D01*
X105114266Y-69535752D01*
X105107718Y-69552740D01*
X105097861Y-69544404D01*
X105086298Y-69522181D01*
X105067960Y-69491441D01*
X105053369Y-69478525D01*
X105053292Y-69478525D01*
X105046951Y-69489223D01*
X105058005Y-69517319D01*
X105082388Y-69556815D01*
X105116031Y-69601713D01*
X105154868Y-69646013D01*
X105189214Y-69678969D01*
X105234256Y-69720260D01*
X105264116Y-69752316D01*
X105276837Y-69772044D01*
X105270466Y-69776350D01*
X105243048Y-69762143D01*
X105240931Y-69760789D01*
X105206898Y-69739971D01*
X105158304Y-69711502D01*
X105125837Y-69692960D01*
X105046462Y-69648142D01*
X105141215Y-69745896D01*
X105182339Y-69789630D01*
X105211549Y-69823259D01*
X105224518Y-69841678D01*
X105224049Y-69843650D01*
X105202906Y-69838012D01*
X105165369Y-69824027D01*
X105154640Y-69819629D01*
X105111036Y-69803989D01*
X105090708Y-69805595D01*
X105089251Y-69826150D01*
X105093908Y-69843084D01*
X105118060Y-69883653D01*
X105166661Y-69935672D01*
X105236047Y-69995827D01*
X105322558Y-70060806D01*
X105371900Y-70094608D01*
X105429910Y-70137099D01*
X105499600Y-70194333D01*
X105576801Y-70262229D01*
X105657341Y-70336707D01*
X105737053Y-70413685D01*
X105811766Y-70489084D01*
X105877311Y-70558821D01*
X105929519Y-70618818D01*
X105964219Y-70664992D01*
X105975166Y-70685025D01*
X106020713Y-70773902D01*
X106080995Y-70840972D01*
X106160473Y-70889510D01*
X106263608Y-70922788D01*
X106312475Y-70932557D01*
X106486972Y-70970643D01*
X106633752Y-71020245D01*
X106755202Y-71082786D01*
X106853708Y-71159689D01*
X106931657Y-71252378D01*
X106975539Y-71327962D01*
X106993187Y-71366993D01*
X107002824Y-71401944D01*
X107004401Y-71440615D01*
X106997866Y-71490802D01*
X106983168Y-71560304D01*
X106973758Y-71600464D01*
X106959315Y-71663318D01*
X106950943Y-71710935D01*
X106948459Y-71753456D01*
X106951677Y-71801023D01*
X106960413Y-71863774D01*
X106968094Y-71912105D01*
X106982583Y-72030767D01*
X106989144Y-72152021D01*
X106988278Y-72270981D01*
X106980489Y-72382761D01*
X106966277Y-72482473D01*
X106946144Y-72565231D01*
X106920594Y-72626147D01*
X106891302Y-72659624D01*
X106857497Y-72672329D01*
X106804188Y-72683735D01*
X106749770Y-72690664D01*
X106643327Y-72699822D01*
X106424332Y-72588838D01*
X106332303Y-72543499D01*
X106221841Y-72491104D01*
X106103862Y-72436715D01*
X105989278Y-72385394D01*
X105930280Y-72359716D01*
X105770513Y-72286273D01*
X105636780Y-72213177D01*
X105523680Y-72136324D01*
X105425811Y-72051610D01*
X105337771Y-71954931D01*
X105259565Y-71850079D01*
X105221016Y-71787624D01*
X105174712Y-71702387D01*
X105124049Y-71601313D01*
X105072422Y-71491346D01*
X105023227Y-71379433D01*
X104990436Y-71299578D01*
X104963002Y-71236934D01*
X104922151Y-71152447D01*
X104870701Y-71051557D01*
X104811472Y-70939707D01*
X104747285Y-70822335D01*
X104694237Y-70728078D01*
X104619521Y-70595235D01*
X104556243Y-70478880D01*
X104505638Y-70381416D01*
X104468941Y-70305246D01*
X104447387Y-70252774D01*
X104443668Y-70240525D01*
X104410896Y-70071751D01*
X104392250Y-69880262D01*
X104387925Y-69719470D01*
X104395387Y-69546521D01*
X104418087Y-69398332D01*
X104457332Y-69271132D01*
X104514428Y-69161150D01*
X104590681Y-69064616D01*
X104627235Y-69028555D01*
X104698255Y-68971177D01*
X104757995Y-68942454D01*
X104757995Y-66111513D01*
X104633712Y-66081120D01*
X104493329Y-66052418D01*
X104368818Y-66038358D01*
X104264481Y-66039251D01*
X104201849Y-66049976D01*
X104086305Y-66087840D01*
X103984111Y-66136304D01*
X103886673Y-66200494D01*
X103785393Y-66285539D01*
X103747858Y-66320785D01*
X103592253Y-66470212D01*
X103597045Y-66825475D01*
G36*
X112108261Y-68402993D02*
X112114055Y-68404988D01*
X112116268Y-68383150D01*
X112113773Y-68360613D01*
X112108261Y-68363306D01*
X112106164Y-68395807D01*
X112108261Y-68402993D01*
X112108261Y-68402993D01*
G37*
X112108261Y-68402993D02*
X112114055Y-68404988D01*
X112116268Y-68383150D01*
X112113773Y-68360613D01*
X112108261Y-68363306D01*
X112106164Y-68395807D01*
X112108261Y-68402993D01*
G36*
X103597745Y-66305020D02*
X103608313Y-66316811D01*
X103624153Y-66298097D01*
X103640121Y-66259868D01*
X103665730Y-66194882D01*
X103700787Y-66117002D01*
X103741827Y-66032821D01*
X103785389Y-65948929D01*
X103828011Y-65871918D01*
X103866231Y-65808380D01*
X103896585Y-65764907D01*
X103905242Y-65755115D01*
X103937238Y-65722394D01*
X103948346Y-65706253D01*
X103940139Y-65700831D01*
X103919966Y-65700275D01*
X103892764Y-65707266D01*
X103863188Y-65730088D01*
X103829228Y-65771513D01*
X103788878Y-65834312D01*
X103740130Y-65921259D01*
X103689305Y-66018741D01*
X103639332Y-66122130D01*
X103607762Y-66200239D01*
X103594412Y-66253533D01*
X103593900Y-66262636D01*
X103597745Y-66305020D01*
X103597745Y-66305020D01*
G37*
X103597745Y-66305020D02*
X103608313Y-66316811D01*
X103624153Y-66298097D01*
X103640121Y-66259868D01*
X103665730Y-66194882D01*
X103700787Y-66117002D01*
X103741827Y-66032821D01*
X103785389Y-65948929D01*
X103828011Y-65871918D01*
X103866231Y-65808380D01*
X103896585Y-65764907D01*
X103905242Y-65755115D01*
X103937238Y-65722394D01*
X103948346Y-65706253D01*
X103940139Y-65700831D01*
X103919966Y-65700275D01*
X103892764Y-65707266D01*
X103863188Y-65730088D01*
X103829228Y-65771513D01*
X103788878Y-65834312D01*
X103740130Y-65921259D01*
X103689305Y-66018741D01*
X103639332Y-66122130D01*
X103607762Y-66200239D01*
X103594412Y-66253533D01*
X103593900Y-66262636D01*
X103597745Y-66305020D01*
G36*
X110409592Y-70875163D02*
X110416181Y-70875281D01*
X110446996Y-70871568D01*
X110448252Y-70860533D01*
X110439235Y-70853696D01*
X110416628Y-70854258D01*
X110403517Y-70860454D01*
X110392272Y-70871458D01*
X110409592Y-70875163D01*
X110409592Y-70875163D01*
G37*
X110409592Y-70875163D02*
X110416181Y-70875281D01*
X110446996Y-70871568D01*
X110448252Y-70860533D01*
X110439235Y-70853696D01*
X110416628Y-70854258D01*
X110403517Y-70860454D01*
X110392272Y-70871458D01*
X110409592Y-70875163D01*
G36*
X108866684Y-68010347D02*
X108902330Y-68040811D01*
X108926190Y-68089400D01*
X108939569Y-68160317D01*
X108943774Y-68257764D01*
X108943775Y-68258518D01*
X108945540Y-68316884D01*
X108950226Y-68360614D01*
X108956917Y-68382130D01*
X108958842Y-68383150D01*
X108978211Y-68370586D01*
X109006929Y-68338152D01*
X109038930Y-68293736D01*
X109068147Y-68245226D01*
X109074827Y-68232337D01*
X109100641Y-68175517D01*
X109109911Y-68137340D01*
X109103084Y-68109631D01*
X109082828Y-68086222D01*
X109032077Y-68048788D01*
X108970638Y-68016058D01*
X108910600Y-67993646D01*
X108869001Y-67986910D01*
X108824712Y-67987546D01*
X108866684Y-68010347D01*
X108866684Y-68010347D01*
G37*
X108866684Y-68010347D02*
X108902330Y-68040811D01*
X108926190Y-68089400D01*
X108939569Y-68160317D01*
X108943774Y-68257764D01*
X108943775Y-68258518D01*
X108945540Y-68316884D01*
X108950226Y-68360614D01*
X108956917Y-68382130D01*
X108958842Y-68383150D01*
X108978211Y-68370586D01*
X109006929Y-68338152D01*
X109038930Y-68293736D01*
X109068147Y-68245226D01*
X109074827Y-68232337D01*
X109100641Y-68175517D01*
X109109911Y-68137340D01*
X109103084Y-68109631D01*
X109082828Y-68086222D01*
X109032077Y-68048788D01*
X108970638Y-68016058D01*
X108910600Y-67993646D01*
X108869001Y-67986910D01*
X108824712Y-67987546D01*
X108866684Y-68010347D01*
G36*
X108382751Y-68040539D02*
X108404855Y-68072851D01*
X108424289Y-68094864D01*
X108459336Y-68136324D01*
X108484735Y-68175203D01*
X108490930Y-68189464D01*
X108515707Y-68222593D01*
X108568692Y-68256636D01*
X108583937Y-68264045D01*
X108643784Y-68294495D01*
X108711822Y-68332956D01*
X108755765Y-68359960D01*
X108818185Y-68397176D01*
X108858411Y-68412907D01*
X108878231Y-68406476D01*
X108879433Y-68377204D01*
X108863805Y-68324414D01*
X108862064Y-68319650D01*
X108842392Y-68260981D01*
X108826899Y-68205336D01*
X108821397Y-68179129D01*
X108807805Y-68137919D01*
X108776953Y-68111783D01*
X108758247Y-68103075D01*
X108718606Y-68077935D01*
X108710728Y-68053202D01*
X108710728Y-68163708D01*
X108749420Y-68165230D01*
X108777191Y-68181239D01*
X108787857Y-68204581D01*
X108775235Y-68228102D01*
X108769729Y-68231979D01*
X108749236Y-68228516D01*
X108720297Y-68207260D01*
X108718317Y-68205317D01*
X108695431Y-68180247D01*
X108694679Y-68168719D01*
X108710728Y-68163708D01*
X108710728Y-68053202D01*
X108709941Y-68050731D01*
X108731900Y-68024532D01*
X108769343Y-68007014D01*
X108801123Y-67994727D01*
X108803977Y-67988693D01*
X108788483Y-67987171D01*
X108749729Y-67992673D01*
X108702098Y-68007338D01*
X108695301Y-68010071D01*
X108655779Y-68023729D01*
X108621971Y-68024827D01*
X108577983Y-68013316D01*
X108567089Y-68009675D01*
X108509043Y-67996807D01*
X108451352Y-67995027D01*
X108404168Y-68003712D01*
X108378214Y-68021257D01*
X108382751Y-68040539D01*
X108382751Y-68040539D01*
G37*
X108382751Y-68040539D02*
X108404855Y-68072851D01*
X108424289Y-68094864D01*
X108459336Y-68136324D01*
X108484735Y-68175203D01*
X108490930Y-68189464D01*
X108515707Y-68222593D01*
X108568692Y-68256636D01*
X108583937Y-68264045D01*
X108643784Y-68294495D01*
X108711822Y-68332956D01*
X108755765Y-68359960D01*
X108818185Y-68397176D01*
X108858411Y-68412907D01*
X108878231Y-68406476D01*
X108879433Y-68377204D01*
X108863805Y-68324414D01*
X108862064Y-68319650D01*
X108842392Y-68260981D01*
X108826899Y-68205336D01*
X108821397Y-68179129D01*
X108807805Y-68137919D01*
X108776953Y-68111783D01*
X108758247Y-68103075D01*
X108718606Y-68077935D01*
X108710728Y-68053202D01*
X108710728Y-68163708D01*
X108749420Y-68165230D01*
X108777191Y-68181239D01*
X108787857Y-68204581D01*
X108775235Y-68228102D01*
X108769729Y-68231979D01*
X108749236Y-68228516D01*
X108720297Y-68207260D01*
X108718317Y-68205317D01*
X108695431Y-68180247D01*
X108694679Y-68168719D01*
X108710728Y-68163708D01*
X108710728Y-68053202D01*
X108709941Y-68050731D01*
X108731900Y-68024532D01*
X108769343Y-68007014D01*
X108801123Y-67994727D01*
X108803977Y-67988693D01*
X108788483Y-67987171D01*
X108749729Y-67992673D01*
X108702098Y-68007338D01*
X108695301Y-68010071D01*
X108655779Y-68023729D01*
X108621971Y-68024827D01*
X108577983Y-68013316D01*
X108567089Y-68009675D01*
X108509043Y-67996807D01*
X108451352Y-67995027D01*
X108404168Y-68003712D01*
X108378214Y-68021257D01*
X108382751Y-68040539D01*
G36*
X108679191Y-68393733D02*
X108698031Y-68395633D01*
X108700358Y-68393733D01*
X108698179Y-68384295D01*
X108689775Y-68383150D01*
X108676708Y-68388958D01*
X108679191Y-68393733D01*
X108679191Y-68393733D01*
G37*
X108679191Y-68393733D02*
X108698031Y-68395633D01*
X108700358Y-68393733D01*
X108698179Y-68384295D01*
X108689775Y-68383150D01*
X108676708Y-68388958D01*
X108679191Y-68393733D01*
G36*
X108615691Y-68377858D02*
X108634531Y-68379758D01*
X108636858Y-68377858D01*
X108634679Y-68368420D01*
X108626275Y-68367275D01*
X108613208Y-68373083D01*
X108615691Y-68377858D01*
X108615691Y-68377858D01*
G37*
X108615691Y-68377858D02*
X108634531Y-68379758D01*
X108636858Y-68377858D01*
X108634679Y-68368420D01*
X108626275Y-68367275D01*
X108613208Y-68373083D01*
X108615691Y-68377858D01*
G36*
X108460484Y-68286099D02*
X108488591Y-68313067D01*
X108521160Y-68339777D01*
X108551108Y-68359932D01*
X108570479Y-68367275D01*
X108592557Y-68363157D01*
X108584490Y-68351182D01*
X108546742Y-68331920D01*
X108538739Y-68328517D01*
X108499777Y-68307142D01*
X108475460Y-68284428D01*
X108473540Y-68280679D01*
X108455895Y-68259426D01*
X108445982Y-68256579D01*
X108443920Y-68265171D01*
X108460484Y-68286099D01*
X108460484Y-68286099D01*
G37*
X108460484Y-68286099D02*
X108488591Y-68313067D01*
X108521160Y-68339777D01*
X108551108Y-68359932D01*
X108570479Y-68367275D01*
X108592557Y-68363157D01*
X108584490Y-68351182D01*
X108546742Y-68331920D01*
X108538739Y-68328517D01*
X108499777Y-68307142D01*
X108475460Y-68284428D01*
X108473540Y-68280679D01*
X108455895Y-68259426D01*
X108445982Y-68256579D01*
X108443920Y-68265171D01*
X108460484Y-68286099D01*
G36*
X108443712Y-69288025D02*
X108457977Y-69303169D01*
X108460524Y-69303900D01*
X108467342Y-69291617D01*
X108467525Y-69288025D01*
X108455321Y-69272760D01*
X108450713Y-69272150D01*
X108441231Y-69281875D01*
X108443712Y-69288025D01*
X108443712Y-69288025D01*
G37*
X108443712Y-69288025D02*
X108457977Y-69303169D01*
X108460524Y-69303900D01*
X108467342Y-69291617D01*
X108467525Y-69288025D01*
X108455321Y-69272760D01*
X108450713Y-69272150D01*
X108441231Y-69281875D01*
X108443712Y-69288025D01*
G36*
X108368490Y-68131072D02*
X108388150Y-68152962D01*
X108414018Y-68171551D01*
X108428032Y-68173934D01*
X108423684Y-68158977D01*
X108404025Y-68137087D01*
X108378156Y-68118498D01*
X108364142Y-68116115D01*
X108368490Y-68131072D01*
X108368490Y-68131072D01*
G37*
X108368490Y-68131072D02*
X108388150Y-68152962D01*
X108414018Y-68171551D01*
X108428032Y-68173934D01*
X108423684Y-68158977D01*
X108404025Y-68137087D01*
X108378156Y-68118498D01*
X108364142Y-68116115D01*
X108368490Y-68131072D01*
G36*
X108242763Y-69205128D02*
X108267779Y-69218857D01*
X108278261Y-69223069D01*
X108325960Y-69242068D01*
X108366861Y-69259876D01*
X108368282Y-69260546D01*
X108398369Y-69270450D01*
X108412421Y-69269044D01*
X108403945Y-69258843D01*
X108373261Y-69241257D01*
X108339853Y-69225749D01*
X108292058Y-69207433D01*
X108255074Y-69197298D01*
X108241387Y-69196716D01*
X108242763Y-69205128D01*
X108242763Y-69205128D01*
G37*
X108242763Y-69205128D02*
X108267779Y-69218857D01*
X108278261Y-69223069D01*
X108325960Y-69242068D01*
X108366861Y-69259876D01*
X108368282Y-69260546D01*
X108398369Y-69270450D01*
X108412421Y-69269044D01*
X108403945Y-69258843D01*
X108373261Y-69241257D01*
X108339853Y-69225749D01*
X108292058Y-69207433D01*
X108255074Y-69197298D01*
X108241387Y-69196716D01*
X108242763Y-69205128D01*
G36*
X108262691Y-69171240D02*
X108265420Y-69172026D01*
X108300001Y-69174350D01*
X108313045Y-69171437D01*
X108313573Y-69166226D01*
X108288721Y-69164098D01*
X108284962Y-69164119D01*
X108260341Y-69166408D01*
X108262691Y-69171240D01*
X108262691Y-69171240D01*
G37*
X108262691Y-69171240D02*
X108265420Y-69172026D01*
X108300001Y-69174350D01*
X108313045Y-69171437D01*
X108313573Y-69166226D01*
X108288721Y-69164098D01*
X108284962Y-69164119D01*
X108260341Y-69166408D01*
X108262691Y-69171240D01*
G36*
X106343173Y-68143730D02*
X106369504Y-68158137D01*
X106379507Y-68175341D01*
X106401683Y-68213621D01*
X106443302Y-68237509D01*
X106475212Y-68246151D01*
X106522837Y-68256406D01*
X106471243Y-68211465D01*
X106439619Y-68181800D01*
X106421400Y-68160606D01*
X106419650Y-68156494D01*
X106435430Y-68146183D01*
X106482462Y-68137442D01*
X106560286Y-68130330D01*
X106667982Y-68124922D01*
X106741288Y-68123467D01*
X106786058Y-68125865D01*
X106805302Y-68132395D01*
X106806133Y-68137757D01*
X106813374Y-68157479D01*
X106839791Y-68186018D01*
X106855457Y-68198935D01*
X106895300Y-68233998D01*
X106911139Y-68259004D01*
X106901576Y-68271245D01*
X106893181Y-68272025D01*
X106868079Y-68262361D01*
X106842864Y-68244243D01*
X106820494Y-68225814D01*
X106816179Y-68228710D01*
X106821272Y-68244243D01*
X106823248Y-68259535D01*
X106810940Y-68268142D01*
X106778122Y-68272108D01*
X106732683Y-68273314D01*
X106679715Y-68274359D01*
X106654756Y-68276839D01*
X106654062Y-68282445D01*
X106673894Y-68292869D01*
X106681587Y-68296410D01*
X106706902Y-68310969D01*
X106708433Y-68318990D01*
X106705400Y-68319416D01*
X106694193Y-68324376D01*
X106711590Y-68338308D01*
X106713337Y-68339347D01*
X106745401Y-68348044D01*
X106805833Y-68354162D01*
X106891335Y-68357444D01*
X106951462Y-68357946D01*
X107043793Y-68357004D01*
X107111196Y-68353820D01*
X107160454Y-68347650D01*
X107198353Y-68337753D01*
X107221337Y-68328404D01*
X107257984Y-68309168D01*
X107266742Y-68297445D01*
X107256277Y-68292133D01*
X107244304Y-68284656D01*
X107257368Y-68271488D01*
X107286944Y-68255075D01*
X107324401Y-68239331D01*
X107350751Y-68233795D01*
X107360020Y-68238277D01*
X107346237Y-68252587D01*
X107339940Y-68256770D01*
X107327978Y-68269019D01*
X107333323Y-68271781D01*
X107364981Y-68261248D01*
X107414276Y-68231254D01*
X107476747Y-68185139D01*
X107547938Y-68126246D01*
X107623388Y-68057913D01*
X107640227Y-68041838D01*
X107697250Y-67989188D01*
X107748227Y-67946382D01*
X107787748Y-67917694D01*
X107810333Y-67907401D01*
X107844983Y-67918134D01*
X107880761Y-67943514D01*
X107908512Y-67974865D01*
X107919083Y-68003510D01*
X107917915Y-68009372D01*
X107917009Y-68026870D01*
X107934125Y-68024374D01*
X107952378Y-68022931D01*
X107950069Y-68040069D01*
X107947467Y-68076173D01*
X107952009Y-68093431D01*
X107960658Y-68127092D01*
X107966991Y-68174694D01*
X107967734Y-68184712D01*
X107976743Y-68241459D01*
X107994102Y-68302523D01*
X107999087Y-68315681D01*
X108018446Y-68357439D01*
X108038321Y-68377129D01*
X108068993Y-68382889D01*
X108084279Y-68383121D01*
X108121774Y-68379610D01*
X108148444Y-68364235D01*
X108175125Y-68329665D01*
X108184009Y-68315652D01*
X108218456Y-68257406D01*
X108250331Y-68198616D01*
X108275690Y-68147091D01*
X108290591Y-68110643D01*
X108292900Y-68099976D01*
X108282081Y-68078170D01*
X108272407Y-68068404D01*
X108245457Y-68055047D01*
X108221462Y-68047297D01*
X108221462Y-68065650D01*
X108229400Y-68073587D01*
X108221462Y-68081525D01*
X108213525Y-68073587D01*
X108221462Y-68065650D01*
X108221462Y-68047297D01*
X108200363Y-68040482D01*
X108175048Y-68034171D01*
X108108334Y-68010161D01*
X108067040Y-67977354D01*
X108007017Y-67924772D01*
X107926905Y-67888915D01*
X107835342Y-67872992D01*
X107787545Y-67873541D01*
X107769401Y-67884653D01*
X107733074Y-67914288D01*
X107682934Y-67958625D01*
X107623356Y-68013844D01*
X107584926Y-68050580D01*
X107522538Y-68109571D01*
X107467615Y-68159002D01*
X107424309Y-68195336D01*
X107396770Y-68215031D01*
X107389411Y-68217319D01*
X107373007Y-68199073D01*
X107349365Y-68164248D01*
X107341970Y-68152059D01*
X107325061Y-68119900D01*
X107321383Y-68104840D01*
X107324497Y-68105320D01*
X107339188Y-68109136D01*
X107333725Y-68091107D01*
X107308781Y-68053354D01*
X107307460Y-68051561D01*
X107275751Y-68019801D01*
X107242174Y-68013403D01*
X107236022Y-68014367D01*
X107223125Y-68015661D01*
X107223125Y-68134606D01*
X107229275Y-68137087D01*
X107244419Y-68151352D01*
X107245150Y-68153899D01*
X107232867Y-68160717D01*
X107229275Y-68160900D01*
X107214010Y-68148696D01*
X107213400Y-68144088D01*
X107223125Y-68134606D01*
X107223125Y-68015661D01*
X107203900Y-68017591D01*
X107201179Y-68009435D01*
X107227676Y-67990042D01*
X107283208Y-67959557D01*
X107344368Y-67929227D01*
X107408218Y-67897577D01*
X107443381Y-67878129D01*
X107450449Y-67870803D01*
X107430012Y-67875516D01*
X107382661Y-67892184D01*
X107308986Y-67920727D01*
X107257808Y-67941314D01*
X107186839Y-67968835D01*
X107120642Y-67992192D01*
X107119832Y-67992440D01*
X107119832Y-68215919D01*
X107153917Y-68235365D01*
X107165775Y-68267798D01*
X107159150Y-68282424D01*
X107134361Y-68284582D01*
X107106364Y-68280288D01*
X107050312Y-68265839D01*
X107023059Y-68249852D01*
X107025457Y-68233872D01*
X107058356Y-68219443D01*
X107071175Y-68216319D01*
X107119832Y-68215919D01*
X107119832Y-67992440D01*
X107068543Y-68008204D01*
X107047464Y-68013040D01*
X107010492Y-68022683D01*
X106991732Y-68034705D01*
X106991150Y-68036914D01*
X106980988Y-68043760D01*
X106972577Y-68040170D01*
X106960441Y-68039334D01*
X106963244Y-68052770D01*
X106965574Y-68066507D01*
X106953037Y-68068329D01*
X106919076Y-68058403D01*
X106906796Y-68054218D01*
X106859238Y-68041647D01*
X106837011Y-68045722D01*
X106835431Y-68048618D01*
X106816943Y-68062984D01*
X106800263Y-68065650D01*
X106770545Y-68073076D01*
X106761176Y-68081179D01*
X106742115Y-68087630D01*
X106698318Y-68092489D01*
X106636783Y-68095171D01*
X106589398Y-68095464D01*
X106490581Y-68097343D01*
X106418990Y-68105011D01*
X106371840Y-68118327D01*
X106343381Y-68133493D01*
X106338305Y-68142666D01*
X106343173Y-68143730D01*
X106343173Y-68143730D01*
G37*
X106343173Y-68143730D02*
X106369504Y-68158137D01*
X106379507Y-68175341D01*
X106401683Y-68213621D01*
X106443302Y-68237509D01*
X106475212Y-68246151D01*
X106522837Y-68256406D01*
X106471243Y-68211465D01*
X106439619Y-68181800D01*
X106421400Y-68160606D01*
X106419650Y-68156494D01*
X106435430Y-68146183D01*
X106482462Y-68137442D01*
X106560286Y-68130330D01*
X106667982Y-68124922D01*
X106741288Y-68123467D01*
X106786058Y-68125865D01*
X106805302Y-68132395D01*
X106806133Y-68137757D01*
X106813374Y-68157479D01*
X106839791Y-68186018D01*
X106855457Y-68198935D01*
X106895300Y-68233998D01*
X106911139Y-68259004D01*
X106901576Y-68271245D01*
X106893181Y-68272025D01*
X106868079Y-68262361D01*
X106842864Y-68244243D01*
X106820494Y-68225814D01*
X106816179Y-68228710D01*
X106821272Y-68244243D01*
X106823248Y-68259535D01*
X106810940Y-68268142D01*
X106778122Y-68272108D01*
X106732683Y-68273314D01*
X106679715Y-68274359D01*
X106654756Y-68276839D01*
X106654062Y-68282445D01*
X106673894Y-68292869D01*
X106681587Y-68296410D01*
X106706902Y-68310969D01*
X106708433Y-68318990D01*
X106705400Y-68319416D01*
X106694193Y-68324376D01*
X106711590Y-68338308D01*
X106713337Y-68339347D01*
X106745401Y-68348044D01*
X106805833Y-68354162D01*
X106891335Y-68357444D01*
X106951462Y-68357946D01*
X107043793Y-68357004D01*
X107111196Y-68353820D01*
X107160454Y-68347650D01*
X107198353Y-68337753D01*
X107221337Y-68328404D01*
X107257984Y-68309168D01*
X107266742Y-68297445D01*
X107256277Y-68292133D01*
X107244304Y-68284656D01*
X107257368Y-68271488D01*
X107286944Y-68255075D01*
X107324401Y-68239331D01*
X107350751Y-68233795D01*
X107360020Y-68238277D01*
X107346237Y-68252587D01*
X107339940Y-68256770D01*
X107327978Y-68269019D01*
X107333323Y-68271781D01*
X107364981Y-68261248D01*
X107414276Y-68231254D01*
X107476747Y-68185139D01*
X107547938Y-68126246D01*
X107623388Y-68057913D01*
X107640227Y-68041838D01*
X107697250Y-67989188D01*
X107748227Y-67946382D01*
X107787748Y-67917694D01*
X107810333Y-67907401D01*
X107844983Y-67918134D01*
X107880761Y-67943514D01*
X107908512Y-67974865D01*
X107919083Y-68003510D01*
X107917915Y-68009372D01*
X107917009Y-68026870D01*
X107934125Y-68024374D01*
X107952378Y-68022931D01*
X107950069Y-68040069D01*
X107947467Y-68076173D01*
X107952009Y-68093431D01*
X107960658Y-68127092D01*
X107966991Y-68174694D01*
X107967734Y-68184712D01*
X107976743Y-68241459D01*
X107994102Y-68302523D01*
X107999087Y-68315681D01*
X108018446Y-68357439D01*
X108038321Y-68377129D01*
X108068993Y-68382889D01*
X108084279Y-68383121D01*
X108121774Y-68379610D01*
X108148444Y-68364235D01*
X108175125Y-68329665D01*
X108184009Y-68315652D01*
X108218456Y-68257406D01*
X108250331Y-68198616D01*
X108275690Y-68147091D01*
X108290591Y-68110643D01*
X108292900Y-68099976D01*
X108282081Y-68078170D01*
X108272407Y-68068404D01*
X108245457Y-68055047D01*
X108221462Y-68047297D01*
X108221462Y-68065650D01*
X108229400Y-68073587D01*
X108221462Y-68081525D01*
X108213525Y-68073587D01*
X108221462Y-68065650D01*
X108221462Y-68047297D01*
X108200363Y-68040482D01*
X108175048Y-68034171D01*
X108108334Y-68010161D01*
X108067040Y-67977354D01*
X108007017Y-67924772D01*
X107926905Y-67888915D01*
X107835342Y-67872992D01*
X107787545Y-67873541D01*
X107769401Y-67884653D01*
X107733074Y-67914288D01*
X107682934Y-67958625D01*
X107623356Y-68013844D01*
X107584926Y-68050580D01*
X107522538Y-68109571D01*
X107467615Y-68159002D01*
X107424309Y-68195336D01*
X107396770Y-68215031D01*
X107389411Y-68217319D01*
X107373007Y-68199073D01*
X107349365Y-68164248D01*
X107341970Y-68152059D01*
X107325061Y-68119900D01*
X107321383Y-68104840D01*
X107324497Y-68105320D01*
X107339188Y-68109136D01*
X107333725Y-68091107D01*
X107308781Y-68053354D01*
X107307460Y-68051561D01*
X107275751Y-68019801D01*
X107242174Y-68013403D01*
X107236022Y-68014367D01*
X107223125Y-68015661D01*
X107223125Y-68134606D01*
X107229275Y-68137087D01*
X107244419Y-68151352D01*
X107245150Y-68153899D01*
X107232867Y-68160717D01*
X107229275Y-68160900D01*
X107214010Y-68148696D01*
X107213400Y-68144088D01*
X107223125Y-68134606D01*
X107223125Y-68015661D01*
X107203900Y-68017591D01*
X107201179Y-68009435D01*
X107227676Y-67990042D01*
X107283208Y-67959557D01*
X107344368Y-67929227D01*
X107408218Y-67897577D01*
X107443381Y-67878129D01*
X107450449Y-67870803D01*
X107430012Y-67875516D01*
X107382661Y-67892184D01*
X107308986Y-67920727D01*
X107257808Y-67941314D01*
X107186839Y-67968835D01*
X107120642Y-67992192D01*
X107119832Y-67992440D01*
X107119832Y-68215919D01*
X107153917Y-68235365D01*
X107165775Y-68267798D01*
X107159150Y-68282424D01*
X107134361Y-68284582D01*
X107106364Y-68280288D01*
X107050312Y-68265839D01*
X107023059Y-68249852D01*
X107025457Y-68233872D01*
X107058356Y-68219443D01*
X107071175Y-68216319D01*
X107119832Y-68215919D01*
X107119832Y-67992440D01*
X107068543Y-68008204D01*
X107047464Y-68013040D01*
X107010492Y-68022683D01*
X106991732Y-68034705D01*
X106991150Y-68036914D01*
X106980988Y-68043760D01*
X106972577Y-68040170D01*
X106960441Y-68039334D01*
X106963244Y-68052770D01*
X106965574Y-68066507D01*
X106953037Y-68068329D01*
X106919076Y-68058403D01*
X106906796Y-68054218D01*
X106859238Y-68041647D01*
X106837011Y-68045722D01*
X106835431Y-68048618D01*
X106816943Y-68062984D01*
X106800263Y-68065650D01*
X106770545Y-68073076D01*
X106761176Y-68081179D01*
X106742115Y-68087630D01*
X106698318Y-68092489D01*
X106636783Y-68095171D01*
X106589398Y-68095464D01*
X106490581Y-68097343D01*
X106418990Y-68105011D01*
X106371840Y-68118327D01*
X106343381Y-68133493D01*
X106338305Y-68142666D01*
X106343173Y-68143730D01*
G36*
X108173837Y-69176900D02*
X108181775Y-69168962D01*
X108173837Y-69161025D01*
X108165900Y-69168962D01*
X108173837Y-69176900D01*
X108173837Y-69176900D01*
G37*
X108173837Y-69176900D02*
X108181775Y-69168962D01*
X108173837Y-69161025D01*
X108165900Y-69168962D01*
X108173837Y-69176900D01*
G36*
X108028316Y-69123983D02*
X108047156Y-69125883D01*
X108049483Y-69123983D01*
X108047304Y-69114545D01*
X108038900Y-69113400D01*
X108025833Y-69119208D01*
X108028316Y-69123983D01*
X108028316Y-69123983D01*
G37*
X108028316Y-69123983D02*
X108047156Y-69125883D01*
X108049483Y-69123983D01*
X108047304Y-69114545D01*
X108038900Y-69113400D01*
X108025833Y-69119208D01*
X108028316Y-69123983D01*
G36*
X107014194Y-69473108D02*
X107026314Y-69474094D01*
X107036912Y-69471178D01*
X107063621Y-69473120D01*
X107090792Y-69499966D01*
X107100145Y-69513764D01*
X107122072Y-69544654D01*
X107131872Y-69548774D01*
X107129966Y-69525101D01*
X107116914Y-69473104D01*
X107110989Y-69420378D01*
X107128730Y-69378383D01*
X107173418Y-69341361D01*
X107200667Y-69326087D01*
X107243116Y-69307690D01*
X107266342Y-69310767D01*
X107277066Y-69338485D01*
X107279910Y-69363431D01*
X107284837Y-69422962D01*
X107309972Y-69351525D01*
X107327410Y-69309702D01*
X107343376Y-69283986D01*
X107349392Y-69280087D01*
X107356519Y-69294696D01*
X107362668Y-69333458D01*
X107366745Y-69388777D01*
X107367313Y-69404350D01*
X107384009Y-69535463D01*
X107426660Y-69649898D01*
X107496177Y-69750526D01*
X107526594Y-69791838D01*
X107532766Y-69818063D01*
X107530231Y-69822093D01*
X107525926Y-69846946D01*
X107537060Y-69867716D01*
X107558262Y-69887828D01*
X107579255Y-69881288D01*
X107582236Y-69878907D01*
X107608493Y-69868128D01*
X107623541Y-69886124D01*
X107626150Y-69909795D01*
X107633334Y-69934119D01*
X107642025Y-69938900D01*
X107654699Y-69925532D01*
X107657900Y-69905451D01*
X107664888Y-69881097D01*
X107681712Y-69881140D01*
X107702159Y-69881571D01*
X107705525Y-69875114D01*
X107718733Y-69859735D01*
X107751376Y-69840989D01*
X107760152Y-69837126D01*
X107816230Y-69796606D01*
X107847464Y-69750233D01*
X107871171Y-69700881D01*
X107878671Y-69676461D01*
X107870262Y-69674780D01*
X107856334Y-69684902D01*
X107842474Y-69694294D01*
X107841762Y-69685245D01*
X107854199Y-69652794D01*
X107856334Y-69647668D01*
X107872500Y-69596109D01*
X107880072Y-69546618D01*
X107880150Y-69542534D01*
X107884703Y-69508876D01*
X107895690Y-69494410D01*
X107896025Y-69494400D01*
X107908923Y-69507696D01*
X107911900Y-69526150D01*
X107918548Y-69551946D01*
X107927775Y-69557900D01*
X107939727Y-69554259D01*
X107941109Y-69538722D01*
X107931391Y-69504360D01*
X107921525Y-69476051D01*
X107887901Y-69400362D01*
X107840848Y-69317498D01*
X107789317Y-69242808D01*
X107775698Y-69225917D01*
X107738330Y-69191074D01*
X107725440Y-69186982D01*
X107725440Y-69313839D01*
X107744035Y-69325035D01*
X107749181Y-69331479D01*
X107764330Y-69365366D01*
X107768586Y-69403929D01*
X107760951Y-69432515D01*
X107756360Y-69436853D01*
X107731191Y-69435672D01*
X107702958Y-69406480D01*
X107690771Y-69385942D01*
X107679771Y-69355495D01*
X107690944Y-69334743D01*
X107700301Y-69327143D01*
X107725440Y-69313839D01*
X107725440Y-69186982D01*
X107696742Y-69177871D01*
X107691523Y-69177640D01*
X107691523Y-69272150D01*
X107700130Y-69281931D01*
X107697587Y-69288025D01*
X107676557Y-69303307D01*
X107671901Y-69303900D01*
X107663294Y-69294118D01*
X107665837Y-69288025D01*
X107686867Y-69272742D01*
X107691523Y-69272150D01*
X107691523Y-69177640D01*
X107674886Y-69176900D01*
X107622760Y-69172034D01*
X107561182Y-69159774D01*
X107560471Y-69159580D01*
X107560471Y-69432885D01*
X107601185Y-69445953D01*
X107604147Y-69448276D01*
X107619683Y-69474144D01*
X107619433Y-69517952D01*
X107617752Y-69528870D01*
X107612716Y-69568138D01*
X107618956Y-69585347D01*
X107641476Y-69589563D01*
X107651288Y-69589650D01*
X107689268Y-69579646D01*
X107733803Y-69547283D01*
X107763808Y-69517933D01*
X107802654Y-69480082D01*
X107824398Y-69467025D01*
X107830188Y-69479913D01*
X107821173Y-69519898D01*
X107807601Y-69561890D01*
X107771268Y-69640289D01*
X107725624Y-69692244D01*
X107672800Y-69715553D01*
X107657869Y-69716650D01*
X107593345Y-69704838D01*
X107531959Y-69674312D01*
X107499014Y-69645049D01*
X107485437Y-69622408D01*
X107496044Y-69607531D01*
X107499539Y-69605284D01*
X107511831Y-69591203D01*
X107502091Y-69570607D01*
X107491107Y-69557784D01*
X107471127Y-69530850D01*
X107471716Y-69506837D01*
X107484332Y-69481408D01*
X107518045Y-69445665D01*
X107560471Y-69432885D01*
X107560471Y-69159580D01*
X107537391Y-69153259D01*
X107449255Y-69133215D01*
X107378560Y-69133288D01*
X107318741Y-69153185D01*
X107281907Y-69169812D01*
X107256381Y-69176897D01*
X107256110Y-69176900D01*
X107234276Y-69187046D01*
X107202433Y-69212063D01*
X107195914Y-69218130D01*
X107151355Y-69247008D01*
X107111777Y-69246024D01*
X107080752Y-69215559D01*
X107075571Y-69205259D01*
X107067228Y-69193274D01*
X107059144Y-69200246D01*
X107049708Y-69229994D01*
X107037312Y-69286337D01*
X107033601Y-69304827D01*
X107018761Y-69381311D01*
X107010515Y-69431598D01*
X107008960Y-69460570D01*
X107014194Y-69473108D01*
X107014194Y-69473108D01*
G37*
X107014194Y-69473108D02*
X107026314Y-69474094D01*
X107036912Y-69471178D01*
X107063621Y-69473120D01*
X107090792Y-69499966D01*
X107100145Y-69513764D01*
X107122072Y-69544654D01*
X107131872Y-69548774D01*
X107129966Y-69525101D01*
X107116914Y-69473104D01*
X107110989Y-69420378D01*
X107128730Y-69378383D01*
X107173418Y-69341361D01*
X107200667Y-69326087D01*
X107243116Y-69307690D01*
X107266342Y-69310767D01*
X107277066Y-69338485D01*
X107279910Y-69363431D01*
X107284837Y-69422962D01*
X107309972Y-69351525D01*
X107327410Y-69309702D01*
X107343376Y-69283986D01*
X107349392Y-69280087D01*
X107356519Y-69294696D01*
X107362668Y-69333458D01*
X107366745Y-69388777D01*
X107367313Y-69404350D01*
X107384009Y-69535463D01*
X107426660Y-69649898D01*
X107496177Y-69750526D01*
X107526594Y-69791838D01*
X107532766Y-69818063D01*
X107530231Y-69822093D01*
X107525926Y-69846946D01*
X107537060Y-69867716D01*
X107558262Y-69887828D01*
X107579255Y-69881288D01*
X107582236Y-69878907D01*
X107608493Y-69868128D01*
X107623541Y-69886124D01*
X107626150Y-69909795D01*
X107633334Y-69934119D01*
X107642025Y-69938900D01*
X107654699Y-69925532D01*
X107657900Y-69905451D01*
X107664888Y-69881097D01*
X107681712Y-69881140D01*
X107702159Y-69881571D01*
X107705525Y-69875114D01*
X107718733Y-69859735D01*
X107751376Y-69840989D01*
X107760152Y-69837126D01*
X107816230Y-69796606D01*
X107847464Y-69750233D01*
X107871171Y-69700881D01*
X107878671Y-69676461D01*
X107870262Y-69674780D01*
X107856334Y-69684902D01*
X107842474Y-69694294D01*
X107841762Y-69685245D01*
X107854199Y-69652794D01*
X107856334Y-69647668D01*
X107872500Y-69596109D01*
X107880072Y-69546618D01*
X107880150Y-69542534D01*
X107884703Y-69508876D01*
X107895690Y-69494410D01*
X107896025Y-69494400D01*
X107908923Y-69507696D01*
X107911900Y-69526150D01*
X107918548Y-69551946D01*
X107927775Y-69557900D01*
X107939727Y-69554259D01*
X107941109Y-69538722D01*
X107931391Y-69504360D01*
X107921525Y-69476051D01*
X107887901Y-69400362D01*
X107840848Y-69317498D01*
X107789317Y-69242808D01*
X107775698Y-69225917D01*
X107738330Y-69191074D01*
X107725440Y-69186982D01*
X107725440Y-69313839D01*
X107744035Y-69325035D01*
X107749181Y-69331479D01*
X107764330Y-69365366D01*
X107768586Y-69403929D01*
X107760951Y-69432515D01*
X107756360Y-69436853D01*
X107731191Y-69435672D01*
X107702958Y-69406480D01*
X107690771Y-69385942D01*
X107679771Y-69355495D01*
X107690944Y-69334743D01*
X107700301Y-69327143D01*
X107725440Y-69313839D01*
X107725440Y-69186982D01*
X107696742Y-69177871D01*
X107691523Y-69177640D01*
X107691523Y-69272150D01*
X107700130Y-69281931D01*
X107697587Y-69288025D01*
X107676557Y-69303307D01*
X107671901Y-69303900D01*
X107663294Y-69294118D01*
X107665837Y-69288025D01*
X107686867Y-69272742D01*
X107691523Y-69272150D01*
X107691523Y-69177640D01*
X107674886Y-69176900D01*
X107622760Y-69172034D01*
X107561182Y-69159774D01*
X107560471Y-69159580D01*
X107560471Y-69432885D01*
X107601185Y-69445953D01*
X107604147Y-69448276D01*
X107619683Y-69474144D01*
X107619433Y-69517952D01*
X107617752Y-69528870D01*
X107612716Y-69568138D01*
X107618956Y-69585347D01*
X107641476Y-69589563D01*
X107651288Y-69589650D01*
X107689268Y-69579646D01*
X107733803Y-69547283D01*
X107763808Y-69517933D01*
X107802654Y-69480082D01*
X107824398Y-69467025D01*
X107830188Y-69479913D01*
X107821173Y-69519898D01*
X107807601Y-69561890D01*
X107771268Y-69640289D01*
X107725624Y-69692244D01*
X107672800Y-69715553D01*
X107657869Y-69716650D01*
X107593345Y-69704838D01*
X107531959Y-69674312D01*
X107499014Y-69645049D01*
X107485437Y-69622408D01*
X107496044Y-69607531D01*
X107499539Y-69605284D01*
X107511831Y-69591203D01*
X107502091Y-69570607D01*
X107491107Y-69557784D01*
X107471127Y-69530850D01*
X107471716Y-69506837D01*
X107484332Y-69481408D01*
X107518045Y-69445665D01*
X107560471Y-69432885D01*
X107560471Y-69159580D01*
X107537391Y-69153259D01*
X107449255Y-69133215D01*
X107378560Y-69133288D01*
X107318741Y-69153185D01*
X107281907Y-69169812D01*
X107256381Y-69176897D01*
X107256110Y-69176900D01*
X107234276Y-69187046D01*
X107202433Y-69212063D01*
X107195914Y-69218130D01*
X107151355Y-69247008D01*
X107111777Y-69246024D01*
X107080752Y-69215559D01*
X107075571Y-69205259D01*
X107067228Y-69193274D01*
X107059144Y-69200246D01*
X107049708Y-69229994D01*
X107037312Y-69286337D01*
X107033601Y-69304827D01*
X107018761Y-69381311D01*
X107010515Y-69431598D01*
X107008960Y-69460570D01*
X107014194Y-69473108D01*
G36*
X107903962Y-69637275D02*
X107911900Y-69629337D01*
X107903962Y-69621400D01*
X107896025Y-69629337D01*
X107903962Y-69637275D01*
X107903962Y-69637275D01*
G37*
X107903962Y-69637275D02*
X107911900Y-69629337D01*
X107903962Y-69621400D01*
X107896025Y-69629337D01*
X107903962Y-69637275D01*
G36*
X107621798Y-67842753D02*
X107626150Y-67843400D01*
X107641612Y-67837983D01*
X107642025Y-67836399D01*
X107630900Y-67822845D01*
X107626150Y-67819587D01*
X107611521Y-67820846D01*
X107610275Y-67826588D01*
X107621798Y-67842753D01*
X107621798Y-67842753D01*
G37*
X107621798Y-67842753D02*
X107626150Y-67843400D01*
X107641612Y-67837983D01*
X107642025Y-67836399D01*
X107630900Y-67822845D01*
X107626150Y-67819587D01*
X107611521Y-67820846D01*
X107610275Y-67826588D01*
X107621798Y-67842753D01*
G36*
X107543368Y-70855829D02*
X107571618Y-70872813D01*
X107601914Y-70885302D01*
X107620523Y-70886423D01*
X107620759Y-70886207D01*
X107613774Y-70874218D01*
X107588053Y-70854215D01*
X107587516Y-70853862D01*
X107551433Y-70832571D01*
X107534450Y-70830086D01*
X107530900Y-70841226D01*
X107543368Y-70855829D01*
X107543368Y-70855829D01*
G37*
X107543368Y-70855829D02*
X107571618Y-70872813D01*
X107601914Y-70885302D01*
X107620523Y-70886423D01*
X107620759Y-70886207D01*
X107613774Y-70874218D01*
X107588053Y-70854215D01*
X107587516Y-70853862D01*
X107551433Y-70832571D01*
X107534450Y-70830086D01*
X107530900Y-70841226D01*
X107543368Y-70855829D01*
G36*
X107209960Y-70211685D02*
X107230167Y-70223814D01*
X107236947Y-70222268D01*
X107236456Y-70205682D01*
X107234566Y-70203483D01*
X107210127Y-70193016D01*
X107207579Y-70192900D01*
X107201676Y-70200954D01*
X107209960Y-70211685D01*
X107209960Y-70211685D01*
G37*
X107209960Y-70211685D02*
X107230167Y-70223814D01*
X107236947Y-70222268D01*
X107236456Y-70205682D01*
X107234566Y-70203483D01*
X107210127Y-70193016D01*
X107207579Y-70192900D01*
X107201676Y-70200954D01*
X107209960Y-70211685D01*
G36*
X106974043Y-69897897D02*
X106981664Y-69927418D01*
X107009889Y-69996078D01*
X107051009Y-70062856D01*
X107097797Y-70117472D01*
X107135269Y-70145940D01*
X107160607Y-70157142D01*
X107161328Y-70150137D01*
X107137250Y-70124354D01*
X107124576Y-70112323D01*
X107091208Y-70074694D01*
X107055321Y-70024894D01*
X107042350Y-70004078D01*
X107023727Y-69969802D01*
X107011987Y-69937918D01*
X107005775Y-69899976D01*
X107003735Y-69847529D01*
X107004511Y-69772129D01*
X107004577Y-69768735D01*
X107004383Y-69690233D01*
X107000761Y-69639112D01*
X106994567Y-69616230D01*
X106986658Y-69622442D01*
X106977892Y-69658606D01*
X106969125Y-69725578D01*
X106968420Y-69732597D01*
X106964638Y-69822264D01*
X106974043Y-69897897D01*
X106974043Y-69897897D01*
G37*
X106974043Y-69897897D02*
X106981664Y-69927418D01*
X107009889Y-69996078D01*
X107051009Y-70062856D01*
X107097797Y-70117472D01*
X107135269Y-70145940D01*
X107160607Y-70157142D01*
X107161328Y-70150137D01*
X107137250Y-70124354D01*
X107124576Y-70112323D01*
X107091208Y-70074694D01*
X107055321Y-70024894D01*
X107042350Y-70004078D01*
X107023727Y-69969802D01*
X107011987Y-69937918D01*
X107005775Y-69899976D01*
X107003735Y-69847529D01*
X107004511Y-69772129D01*
X107004577Y-69768735D01*
X107004383Y-69690233D01*
X107000761Y-69639112D01*
X106994567Y-69616230D01*
X106986658Y-69622442D01*
X106977892Y-69658606D01*
X106969125Y-69725578D01*
X106968420Y-69732597D01*
X106964638Y-69822264D01*
X106974043Y-69897897D01*
G36*
X107051754Y-69115795D02*
X107056140Y-69122258D01*
X107066677Y-69115728D01*
X107070525Y-69090524D01*
X107068479Y-69060209D01*
X107064439Y-69049900D01*
X107054313Y-69062866D01*
X107049438Y-69090476D01*
X107051754Y-69115795D01*
X107051754Y-69115795D01*
G37*
X107051754Y-69115795D02*
X107056140Y-69122258D01*
X107066677Y-69115728D01*
X107070525Y-69090524D01*
X107068479Y-69060209D01*
X107064439Y-69049900D01*
X107054313Y-69062866D01*
X107049438Y-69090476D01*
X107051754Y-69115795D01*
G36*
X106922853Y-70036558D02*
X106935587Y-70050025D01*
X106955945Y-70063586D01*
X106955719Y-70054342D01*
X106936092Y-70025277D01*
X106918716Y-70008384D01*
X106912279Y-70012362D01*
X106922853Y-70036558D01*
X106922853Y-70036558D01*
G37*
X106922853Y-70036558D02*
X106935587Y-70050025D01*
X106955945Y-70063586D01*
X106955719Y-70054342D01*
X106936092Y-70025277D01*
X106918716Y-70008384D01*
X106912279Y-70012362D01*
X106922853Y-70036558D01*
G36*
X106862895Y-69928337D02*
X106871088Y-69964354D01*
X106876393Y-69973368D01*
X106886038Y-69975313D01*
X106888752Y-69952451D01*
X106885371Y-69905442D01*
X106885424Y-69822001D01*
X106901314Y-69718827D01*
X106910097Y-69679677D01*
X106930505Y-69589147D01*
X106941343Y-69528804D01*
X106942622Y-69498567D01*
X106935425Y-69497207D01*
X106926720Y-69518231D01*
X106914840Y-69562923D01*
X106901299Y-69623552D01*
X106887613Y-69692386D01*
X106875299Y-69761690D01*
X106865871Y-69823735D01*
X106860845Y-69870786D01*
X106860442Y-69879760D01*
X106862895Y-69928337D01*
X106862895Y-69928337D01*
G37*
X106862895Y-69928337D02*
X106871088Y-69964354D01*
X106876393Y-69973368D01*
X106886038Y-69975313D01*
X106888752Y-69952451D01*
X106885371Y-69905442D01*
X106885424Y-69822001D01*
X106901314Y-69718827D01*
X106910097Y-69679677D01*
X106930505Y-69589147D01*
X106941343Y-69528804D01*
X106942622Y-69498567D01*
X106935425Y-69497207D01*
X106926720Y-69518231D01*
X106914840Y-69562923D01*
X106901299Y-69623552D01*
X106887613Y-69692386D01*
X106875299Y-69761690D01*
X106865871Y-69823735D01*
X106860845Y-69870786D01*
X106860442Y-69879760D01*
X106862895Y-69928337D01*
G36*
X106323779Y-68254658D02*
X106329559Y-68258087D01*
X106356095Y-68268245D01*
X106368624Y-68264305D01*
X106361441Y-68250858D01*
X106337773Y-68241616D01*
X106325722Y-68240757D01*
X106310958Y-68243743D01*
X106323779Y-68254658D01*
X106323779Y-68254658D01*
G37*
X106323779Y-68254658D02*
X106329559Y-68258087D01*
X106356095Y-68268245D01*
X106368624Y-68264305D01*
X106361441Y-68250858D01*
X106337773Y-68241616D01*
X106325722Y-68240757D01*
X106310958Y-68243743D01*
X106323779Y-68254658D01*
G36*
X106300757Y-71751129D02*
X106310221Y-71755949D01*
X106395290Y-71785893D01*
X106454710Y-71804136D01*
X106492038Y-71811435D01*
X106510826Y-71808549D01*
X106514900Y-71799594D01*
X106500783Y-71789564D01*
X106463718Y-71775187D01*
X106411628Y-71759523D01*
X106409910Y-71759063D01*
X106356221Y-71746197D01*
X106315580Y-71739145D01*
X106296618Y-71739398D01*
X106296512Y-71739495D01*
X106300757Y-71751129D01*
X106300757Y-71751129D01*
G37*
X106300757Y-71751129D02*
X106310221Y-71755949D01*
X106395290Y-71785893D01*
X106454710Y-71804136D01*
X106492038Y-71811435D01*
X106510826Y-71808549D01*
X106514900Y-71799594D01*
X106500783Y-71789564D01*
X106463718Y-71775187D01*
X106411628Y-71759523D01*
X106409910Y-71759063D01*
X106356221Y-71746197D01*
X106315580Y-71739145D01*
X106296618Y-71739398D01*
X106296512Y-71739495D01*
X106300757Y-71751129D01*
G36*
X105995725Y-71517881D02*
X106039230Y-71542138D01*
X106048977Y-71547089D01*
X106122196Y-71581429D01*
X106171191Y-71598774D01*
X106195072Y-71598844D01*
X106197400Y-71593638D01*
X106183742Y-71581234D01*
X106147756Y-71561869D01*
X106096919Y-71539515D01*
X106091304Y-71537268D01*
X106029588Y-71514352D01*
X105992213Y-71503684D01*
X105980489Y-71504962D01*
X105995725Y-71517881D01*
X105995725Y-71517881D01*
G37*
X105995725Y-71517881D02*
X106039230Y-71542138D01*
X106048977Y-71547089D01*
X106122196Y-71581429D01*
X106171191Y-71598774D01*
X106195072Y-71598844D01*
X106197400Y-71593638D01*
X106183742Y-71581234D01*
X106147756Y-71561869D01*
X106096919Y-71539515D01*
X106091304Y-71537268D01*
X106029588Y-71514352D01*
X105992213Y-71503684D01*
X105980489Y-71504962D01*
X105995725Y-71517881D01*
G36*
X105000717Y-69390387D02*
X105013528Y-69412733D01*
X105021811Y-69408989D01*
X105022650Y-69400086D01*
X105011120Y-69378560D01*
X105006956Y-69375449D01*
X104997935Y-69378005D01*
X105000717Y-69390387D01*
X105000717Y-69390387D01*
G37*
X105000717Y-69390387D02*
X105013528Y-69412733D01*
X105021811Y-69408989D01*
X105022650Y-69400086D01*
X105011120Y-69378560D01*
X105006956Y-69375449D01*
X104997935Y-69378005D01*
X105000717Y-69390387D01*
G36*
X104954685Y-69305549D02*
X104967087Y-69319775D01*
X104985836Y-69333373D01*
X104987593Y-69326907D01*
X104972360Y-69297314D01*
X104967087Y-69288025D01*
X104950579Y-69264750D01*
X104944019Y-69270776D01*
X104943837Y-69274174D01*
X104954685Y-69305549D01*
X104954685Y-69305549D01*
G37*
X104954685Y-69305549D02*
X104967087Y-69319775D01*
X104985836Y-69333373D01*
X104987593Y-69326907D01*
X104972360Y-69297314D01*
X104967087Y-69288025D01*
X104950579Y-69264750D01*
X104944019Y-69270776D01*
X104943837Y-69274174D01*
X104954685Y-69305549D01*
D11*
X98907600Y-69857620D03*
X97383600Y-69857620D03*
X97383600Y-71805800D03*
X98907600Y-71805800D03*
X108051600Y-63728600D03*
X109575600Y-63728600D03*
D12*
X111099600Y-86639400D03*
X111099600Y-88163400D03*
X110990380Y-60822840D03*
X110990380Y-62346840D03*
D11*
X98933000Y-89738200D03*
X100457000Y-89738200D03*
X94569280Y-68122800D03*
X93045280Y-68122800D03*
D13*
X111099600Y-91744800D03*
X111099600Y-90017600D03*
D14*
X102412800Y-89738200D03*
X104140000Y-89738200D03*
D15*
X109902800Y-57048400D03*
X107112800Y-57048400D03*
X104312800Y-57048400D03*
X101522800Y-57048400D03*
X98722800Y-57048400D03*
X95932800Y-57048400D03*
X93142800Y-57048400D03*
D16*
X104819800Y-85191600D03*
X102789800Y-85191600D03*
X100759800Y-85191600D03*
X98729800Y-85191600D03*
X103799800Y-83411600D03*
X101769800Y-83411600D03*
X99739800Y-83411600D03*
X97709800Y-83411600D03*
D17*
X94919800Y-87731600D03*
X107619800Y-87731600D03*
D18*
X93139800Y-84301600D03*
X109399800Y-84301600D03*
D19*
X94259400Y-75692000D03*
D20*
X96799400Y-75692000D03*
X99339400Y-75692000D03*
X101879400Y-75692000D03*
X104419400Y-75692000D03*
X106959400Y-75692000D03*
M02*
