G04 #@! TF.GenerationSoftware,KiCad,Pcbnew,no-vcs-found-835c19f~60~ubuntu16.04.1*
G04 #@! TF.CreationDate,2017-10-10T23:17:26+02:00*
G04 #@! TF.ProjectId,arcade_adapter,6172636164655F616461707465722E6B,rev?*
G04 #@! TF.SameCoordinates,Original*
G04 #@! TF.FileFunction,Copper,L1,Top,Signal*
G04 #@! TF.FilePolarity,Positive*
%FSLAX46Y46*%
G04 Gerber Fmt 4.6, Leading zero omitted, Abs format (unit mm)*
G04 Created by KiCad (PCBNEW no-vcs-found-835c19f~60~ubuntu16.04.1) date Tue Oct 10 23:17:26 2017*
%MOMM*%
%LPD*%
G01*
G04 APERTURE LIST*
%ADD10R,1.780000X5.080000*%
%ADD11C,1.400000*%
%ADD12C,3.400000*%
%ADD13C,2.200000*%
%ADD14R,1.800000X1.800000*%
%ADD15C,1.800000*%
%ADD16R,0.600000X2.200000*%
%ADD17C,0.800000*%
%ADD18C,0.152400*%
%ADD19C,0.609600*%
%ADD20C,0.254000*%
G04 APERTURE END LIST*
D10*
X111302800Y-57048400D03*
X108502800Y-57048400D03*
X105712800Y-57048400D03*
X102922800Y-57048400D03*
X91742800Y-57048400D03*
X94532800Y-57048400D03*
X97332800Y-57048400D03*
X100122800Y-57048400D03*
D11*
X104819800Y-85191600D03*
X102789800Y-85191600D03*
X100759800Y-85191600D03*
X98729800Y-85191600D03*
X103799800Y-83411600D03*
X101769800Y-83411600D03*
X99739800Y-83411600D03*
X97709800Y-83411600D03*
D12*
X94919800Y-87731600D03*
X107619800Y-87731600D03*
D13*
X93139800Y-84301600D03*
X109399800Y-84301600D03*
D14*
X94259400Y-75692000D03*
D15*
X96799400Y-75692000D03*
X99339400Y-75692000D03*
X101879400Y-75692000D03*
X104419400Y-75692000D03*
X106959400Y-75692000D03*
D16*
X109143800Y-72265000D03*
X109143800Y-62865000D03*
X107873800Y-72265000D03*
X107873800Y-62865000D03*
X106603800Y-72265000D03*
X106603800Y-62865000D03*
X105333800Y-72265000D03*
X105333800Y-62865000D03*
X104063800Y-72265000D03*
X104063800Y-62865000D03*
X102793800Y-72265000D03*
X102793800Y-62865000D03*
X101523800Y-72265000D03*
X101523800Y-62865000D03*
X100253800Y-72265000D03*
X100253800Y-62865000D03*
X98983800Y-72265000D03*
X98983800Y-62865000D03*
X97713800Y-72265000D03*
X97713800Y-62865000D03*
X96443800Y-72265000D03*
X96443800Y-62865000D03*
X95173800Y-72265000D03*
X95173800Y-62865000D03*
X93903800Y-72265000D03*
X93903800Y-62865000D03*
X92633800Y-72265000D03*
X92633800Y-62865000D03*
D17*
X109169200Y-74371200D03*
X109143800Y-60807600D03*
X101523800Y-70408800D03*
X100228400Y-70281800D03*
X100126800Y-60528200D03*
X106629200Y-60706000D03*
X98990420Y-60946593D03*
X104089200Y-60756800D03*
X96420798Y-61050289D03*
X101117400Y-60883800D03*
X100634800Y-79197199D03*
X98729798Y-79197200D03*
X110871000Y-63703200D03*
X99857560Y-65074800D03*
X98623120Y-65057020D03*
X96154240Y-65031620D03*
X97388680Y-65051940D03*
X105613200Y-90779600D03*
X106984800Y-90779600D03*
X108280200Y-90779600D03*
X108280200Y-91846400D03*
X106908600Y-91846400D03*
X106908600Y-91846400D03*
X105638600Y-91846400D03*
X105638600Y-91846400D03*
X104419400Y-91846400D03*
X91633040Y-68122800D03*
X98920300Y-68303140D03*
X99808030Y-68303140D03*
X100695760Y-68303140D03*
X100690680Y-67249040D03*
X99805490Y-67256660D03*
X98920300Y-67261740D03*
X93921866Y-64577237D03*
X105664004Y-74447400D03*
X100761800Y-82245200D03*
X105664000Y-82245200D03*
X103098600Y-80086200D03*
X99745802Y-80086200D03*
X103124000Y-74422000D03*
X92557600Y-80772000D03*
X101777800Y-80746600D03*
X93903800Y-70358000D03*
X104267000Y-74142602D03*
X91516200Y-80975200D03*
X102793804Y-81508600D03*
X92659200Y-70358000D03*
X91567092Y-82099312D03*
X93249503Y-65380159D03*
X103073200Y-66167000D03*
X94970600Y-66167000D03*
D18*
X109169200Y-74371200D02*
X109169200Y-72290400D01*
X109169200Y-72290400D02*
X109143800Y-72265000D01*
X109143800Y-62865000D02*
X109143800Y-60807600D01*
X107594400Y-77444600D02*
X106172000Y-77444600D01*
X106172000Y-77444600D02*
X104419400Y-75692000D01*
X108483400Y-76555600D02*
X107594400Y-77444600D01*
X108483400Y-74127000D02*
X108483400Y-76555600D01*
X107873800Y-72265000D02*
X107873800Y-73517400D01*
X107873800Y-73517400D02*
X108483400Y-74127000D01*
X101523800Y-70408800D02*
X101523800Y-72265000D01*
X102793800Y-62865000D02*
X102793800Y-60809600D01*
X102793800Y-60809600D02*
X102922800Y-60680600D01*
X102922800Y-60680600D02*
X102922800Y-57048400D01*
X100253800Y-72265000D02*
X100253800Y-70307200D01*
X100253800Y-70307200D02*
X100228400Y-70281800D01*
X100122800Y-57048400D02*
X100122800Y-60524200D01*
X100122800Y-60524200D02*
X100126800Y-60528200D01*
X106629200Y-60706000D02*
X106629200Y-62839600D01*
X106629200Y-62839600D02*
X106603800Y-62865000D01*
X98983800Y-62865000D02*
X98983800Y-60953213D01*
X98983800Y-60953213D02*
X98990420Y-60946593D01*
X108502800Y-60204000D02*
X107873800Y-60833000D01*
X107873800Y-60833000D02*
X107873800Y-62865000D01*
X108502800Y-57048400D02*
X108502800Y-60204000D01*
X97332800Y-60248800D02*
X97713800Y-60629800D01*
X97713800Y-60629800D02*
X97713800Y-62865000D01*
X97332800Y-57048400D02*
X97332800Y-60248800D01*
X104089200Y-60756800D02*
X104089200Y-62839600D01*
X104089200Y-62839600D02*
X104063800Y-62865000D01*
X96443800Y-61073291D02*
X96420798Y-61050289D01*
X96443800Y-62865000D02*
X96443800Y-61073291D01*
X105712800Y-57048400D02*
X105712800Y-60428600D01*
X105333800Y-60807600D02*
X105333800Y-62865000D01*
X105712800Y-60428600D02*
X105333800Y-60807600D01*
X101523800Y-62865000D02*
X101523800Y-61290200D01*
X101523800Y-61290200D02*
X101117400Y-60883800D01*
X100069115Y-79197199D02*
X100634800Y-79197199D01*
X98729798Y-79197200D02*
X100069115Y-79197199D01*
D19*
X98643440Y-65057020D02*
X99839780Y-65057020D01*
X99839780Y-65057020D02*
X99857560Y-65074800D01*
X111302800Y-58770520D02*
X110060740Y-60012580D01*
X111302800Y-57048400D02*
X111302800Y-58770520D01*
X98414001Y-74792001D02*
X97713800Y-74091800D01*
X97713800Y-74091800D02*
X97713800Y-72265000D01*
X99339400Y-75692000D02*
X98439401Y-74792001D01*
X98439401Y-74792001D02*
X98414001Y-74792001D01*
X99054920Y-76428600D02*
X99054920Y-77370940D01*
X99339400Y-76144120D02*
X99054920Y-76428600D01*
X99339400Y-75692000D02*
X99339400Y-76144120D01*
D18*
X108280200Y-90779600D02*
X106984800Y-90779600D01*
X104419400Y-91846400D02*
X105638600Y-91846400D01*
D19*
X91742800Y-58740580D02*
X93118940Y-60116720D01*
X91742800Y-57048400D02*
X91742800Y-58740580D01*
X99857560Y-68132960D02*
X98912680Y-68132960D01*
X100683060Y-67078860D02*
X100683060Y-68127880D01*
X100683060Y-68127880D02*
X100688140Y-68132960D01*
X98912680Y-67091560D02*
X99827080Y-67091560D01*
X99827080Y-67091560D02*
X99832160Y-67086480D01*
X96799400Y-75692000D02*
X95899401Y-76591999D01*
X95899401Y-76591999D02*
X95899401Y-77272719D01*
D18*
X93903800Y-64559171D02*
X93921866Y-64577237D01*
X93903800Y-62865000D02*
X93903800Y-64559171D01*
X94532800Y-60293600D02*
X95173800Y-60934600D01*
X95173800Y-60934600D02*
X95173800Y-62865000D01*
X94532800Y-57048400D02*
X94532800Y-60293600D01*
X106273600Y-74447400D02*
X106603800Y-74117200D01*
X106603800Y-74117200D02*
X106603800Y-72265000D01*
X105664004Y-74447400D02*
X106273600Y-74447400D01*
X101327485Y-82245200D02*
X105664000Y-82245200D01*
X100761800Y-82245200D02*
X101327485Y-82245200D01*
X106629200Y-72239600D02*
X106603800Y-72265000D01*
X99745802Y-80086200D02*
X103098600Y-80086200D01*
X102793800Y-72265000D02*
X102793800Y-74091800D01*
X102793800Y-74091800D02*
X103124000Y-74422000D01*
X92583000Y-80746600D02*
X92557600Y-80772000D01*
X101777800Y-80746600D02*
X92583000Y-80746600D01*
X93903800Y-72265000D02*
X93903800Y-70358000D01*
X104267000Y-74142602D02*
X104267000Y-73787000D01*
X104267000Y-73787000D02*
X104063800Y-73583800D01*
X104063800Y-73583800D02*
X104063800Y-72265000D01*
X91916199Y-81375199D02*
X91516200Y-80975200D01*
X92049600Y-81508600D02*
X91916199Y-81375199D01*
X102793804Y-81508600D02*
X92049600Y-81508600D01*
X92633800Y-72265000D02*
X92633800Y-70383400D01*
X92633800Y-70383400D02*
X92659200Y-70358000D01*
X101117400Y-86715600D02*
X98044000Y-86715600D01*
X101752400Y-86080600D02*
X101117400Y-86715600D01*
X92132777Y-82099312D02*
X91567092Y-82099312D01*
X102444131Y-84111599D02*
X101752400Y-84803330D01*
X103099801Y-84111599D02*
X102444131Y-84111599D01*
X103799800Y-83411600D02*
X103099801Y-84111599D01*
X93427712Y-82099312D02*
X92132777Y-82099312D01*
X98044000Y-86715600D02*
X93427712Y-82099312D01*
X101752400Y-84803330D02*
X101752400Y-86080600D01*
X92633800Y-64764456D02*
X92849504Y-64980160D01*
X92633800Y-62865000D02*
X92633800Y-64764456D01*
X92849504Y-64980160D02*
X93249503Y-65380159D01*
X94970600Y-66167000D02*
X103073200Y-66167000D01*
D20*
G36*
X111429800Y-56921400D02*
X111449800Y-56921400D01*
X111449800Y-57175400D01*
X111429800Y-57175400D01*
X111429800Y-60064650D01*
X111588550Y-60223400D01*
X111761200Y-60223400D01*
X111761200Y-92558800D01*
X103507076Y-92558800D01*
X103519838Y-88194022D01*
X105284396Y-88194022D01*
X105639129Y-89052543D01*
X106295402Y-89709962D01*
X107153302Y-90066193D01*
X108082222Y-90067004D01*
X108940743Y-89712271D01*
X109598162Y-89055998D01*
X109954393Y-88198098D01*
X109955204Y-87269178D01*
X109600471Y-86410657D01*
X109226917Y-86036451D01*
X109743399Y-86036901D01*
X110381315Y-85773319D01*
X110869804Y-85285682D01*
X111134499Y-84648227D01*
X111135101Y-83958001D01*
X110871519Y-83320085D01*
X110383882Y-82831596D01*
X109746427Y-82566901D01*
X109056201Y-82566299D01*
X108418285Y-82829881D01*
X107929796Y-83317518D01*
X107665101Y-83954973D01*
X107664499Y-84645199D01*
X107928081Y-85283115D01*
X108041736Y-85396968D01*
X107157378Y-85396196D01*
X106298857Y-85750929D01*
X105641438Y-86407202D01*
X105285207Y-87265102D01*
X105284396Y-88194022D01*
X103519838Y-88194022D01*
X103525283Y-86332177D01*
X103545029Y-86324018D01*
X103742516Y-86126875D01*
X104064131Y-86126875D01*
X104125969Y-86362642D01*
X104626922Y-86539019D01*
X105157240Y-86510264D01*
X105513631Y-86362642D01*
X105575469Y-86126875D01*
X104819800Y-85371205D01*
X104064131Y-86126875D01*
X103742516Y-86126875D01*
X103920898Y-85948804D01*
X103947816Y-85883978D01*
X104640195Y-85191600D01*
X104999405Y-85191600D01*
X105755075Y-85947269D01*
X105990842Y-85885431D01*
X106167219Y-85384478D01*
X106138464Y-84854160D01*
X105990842Y-84497769D01*
X105755075Y-84435931D01*
X104999405Y-85191600D01*
X104640195Y-85191600D01*
X104626053Y-85177458D01*
X104805658Y-84997852D01*
X104819800Y-85011995D01*
X105575469Y-84256325D01*
X105513631Y-84020558D01*
X105058931Y-83860466D01*
X105134568Y-83678313D01*
X105134768Y-83449041D01*
X107161638Y-83464396D01*
X107210311Y-83455098D01*
X107251720Y-83427880D01*
X107279561Y-83386888D01*
X107289344Y-83329345D01*
X107202984Y-81970445D01*
X107190254Y-81922555D01*
X107156433Y-81880021D01*
X102861293Y-78382441D01*
X102817502Y-78359249D01*
X102780939Y-78353920D01*
X101257351Y-78355847D01*
X101221846Y-78320280D01*
X100841577Y-78162379D01*
X100429829Y-78162020D01*
X100049285Y-78319257D01*
X100011052Y-78357424D01*
X99354751Y-78358254D01*
X99316844Y-78320281D01*
X98936575Y-78162380D01*
X98891718Y-78162341D01*
X98889735Y-77161993D01*
X99098736Y-77238458D01*
X99708860Y-77212839D01*
X100153548Y-77028643D01*
X100239954Y-76772159D01*
X99339400Y-75871605D01*
X99325258Y-75885748D01*
X99145653Y-75706143D01*
X99159795Y-75692000D01*
X99145653Y-75677858D01*
X99325258Y-75498253D01*
X99339400Y-75512395D01*
X99353543Y-75498253D01*
X99533148Y-75677858D01*
X99519005Y-75692000D01*
X100419559Y-76592554D01*
X100569727Y-76541965D01*
X100577332Y-76560371D01*
X100647444Y-76630606D01*
X100650053Y-76816462D01*
X100660401Y-76864923D01*
X100688507Y-76905734D01*
X100751048Y-76938992D01*
X101010330Y-76993204D01*
X101572730Y-77226733D01*
X102129556Y-77227218D01*
X105712218Y-77976301D01*
X105899836Y-78101663D01*
X106172000Y-78155800D01*
X106570712Y-78155800D01*
X109473408Y-78762712D01*
X109522959Y-78763196D01*
X109568923Y-78744681D01*
X109604303Y-78709985D01*
X109623712Y-78664392D01*
X109626394Y-78637170D01*
X109594220Y-75315457D01*
X109754715Y-75249142D01*
X110046119Y-74958246D01*
X110204020Y-74577977D01*
X110204379Y-74166229D01*
X110047142Y-73785685D01*
X109974822Y-73713239D01*
X110041957Y-73612765D01*
X110091240Y-73365000D01*
X110091240Y-71165000D01*
X110041957Y-70917235D01*
X109901609Y-70707191D01*
X109691565Y-70566843D01*
X109547949Y-70538276D01*
X109527334Y-68409860D01*
X109517196Y-68361355D01*
X109495896Y-68327436D01*
X107308956Y-65829346D01*
X107269669Y-65799146D01*
X107220604Y-65786205D01*
X103959162Y-65600896D01*
X103951142Y-65581485D01*
X103660246Y-65290081D01*
X103279977Y-65132180D01*
X102868229Y-65131821D01*
X102487685Y-65289058D01*
X102320652Y-65455800D01*
X95723076Y-65455800D01*
X95680123Y-65412772D01*
X95673729Y-64572672D01*
X95721565Y-64563157D01*
X95808800Y-64504868D01*
X95896035Y-64563157D01*
X96143800Y-64612440D01*
X96743800Y-64612440D01*
X96991565Y-64563157D01*
X97078800Y-64504868D01*
X97166035Y-64563157D01*
X97413800Y-64612440D01*
X98013800Y-64612440D01*
X98261565Y-64563157D01*
X98348800Y-64504868D01*
X98436035Y-64563157D01*
X98683800Y-64612440D01*
X99283800Y-64612440D01*
X99531565Y-64563157D01*
X99610772Y-64510232D01*
X99827491Y-64600000D01*
X99968050Y-64600000D01*
X100126800Y-64441250D01*
X100126800Y-62992000D01*
X100121296Y-62992000D01*
X100122478Y-62738000D01*
X100126800Y-62738000D01*
X100126800Y-62718000D01*
X100380800Y-62718000D01*
X100380800Y-62738000D01*
X100400800Y-62738000D01*
X100400800Y-62992000D01*
X100380800Y-62992000D01*
X100380800Y-64441250D01*
X100539550Y-64600000D01*
X100680109Y-64600000D01*
X100896828Y-64510232D01*
X100976035Y-64563157D01*
X101223800Y-64612440D01*
X101823800Y-64612440D01*
X102071565Y-64563157D01*
X102158800Y-64504868D01*
X102246035Y-64563157D01*
X102493800Y-64612440D01*
X103093800Y-64612440D01*
X103341565Y-64563157D01*
X103428800Y-64504868D01*
X103516035Y-64563157D01*
X103763800Y-64612440D01*
X104363800Y-64612440D01*
X104611565Y-64563157D01*
X104698800Y-64504868D01*
X104786035Y-64563157D01*
X105033800Y-64612440D01*
X105633800Y-64612440D01*
X105881565Y-64563157D01*
X105968800Y-64504868D01*
X106056035Y-64563157D01*
X106303800Y-64612440D01*
X106903800Y-64612440D01*
X107151565Y-64563157D01*
X107238800Y-64504868D01*
X107326035Y-64563157D01*
X107573800Y-64612440D01*
X108173800Y-64612440D01*
X108421565Y-64563157D01*
X108508800Y-64504868D01*
X108596035Y-64563157D01*
X108843800Y-64612440D01*
X109443800Y-64612440D01*
X109691565Y-64563157D01*
X109901609Y-64422809D01*
X110041957Y-64212765D01*
X110091240Y-63965000D01*
X110091240Y-61765000D01*
X110041957Y-61517235D01*
X109984322Y-61430979D01*
X110020719Y-61394646D01*
X110178620Y-61014377D01*
X110178979Y-60602629D01*
X110021742Y-60222085D01*
X109847948Y-60047987D01*
X109850609Y-60046209D01*
X109899465Y-59973091D01*
X110053102Y-60126727D01*
X110286491Y-60223400D01*
X111017050Y-60223400D01*
X111175800Y-60064650D01*
X111175800Y-57175400D01*
X111155800Y-57175400D01*
X111155800Y-56921400D01*
X111175800Y-56921400D01*
X111175800Y-56901400D01*
X111429800Y-56901400D01*
X111429800Y-56921400D01*
X111429800Y-56921400D01*
G37*
X111429800Y-56921400D02*
X111449800Y-56921400D01*
X111449800Y-57175400D01*
X111429800Y-57175400D01*
X111429800Y-60064650D01*
X111588550Y-60223400D01*
X111761200Y-60223400D01*
X111761200Y-92558800D01*
X103507076Y-92558800D01*
X103519838Y-88194022D01*
X105284396Y-88194022D01*
X105639129Y-89052543D01*
X106295402Y-89709962D01*
X107153302Y-90066193D01*
X108082222Y-90067004D01*
X108940743Y-89712271D01*
X109598162Y-89055998D01*
X109954393Y-88198098D01*
X109955204Y-87269178D01*
X109600471Y-86410657D01*
X109226917Y-86036451D01*
X109743399Y-86036901D01*
X110381315Y-85773319D01*
X110869804Y-85285682D01*
X111134499Y-84648227D01*
X111135101Y-83958001D01*
X110871519Y-83320085D01*
X110383882Y-82831596D01*
X109746427Y-82566901D01*
X109056201Y-82566299D01*
X108418285Y-82829881D01*
X107929796Y-83317518D01*
X107665101Y-83954973D01*
X107664499Y-84645199D01*
X107928081Y-85283115D01*
X108041736Y-85396968D01*
X107157378Y-85396196D01*
X106298857Y-85750929D01*
X105641438Y-86407202D01*
X105285207Y-87265102D01*
X105284396Y-88194022D01*
X103519838Y-88194022D01*
X103525283Y-86332177D01*
X103545029Y-86324018D01*
X103742516Y-86126875D01*
X104064131Y-86126875D01*
X104125969Y-86362642D01*
X104626922Y-86539019D01*
X105157240Y-86510264D01*
X105513631Y-86362642D01*
X105575469Y-86126875D01*
X104819800Y-85371205D01*
X104064131Y-86126875D01*
X103742516Y-86126875D01*
X103920898Y-85948804D01*
X103947816Y-85883978D01*
X104640195Y-85191600D01*
X104999405Y-85191600D01*
X105755075Y-85947269D01*
X105990842Y-85885431D01*
X106167219Y-85384478D01*
X106138464Y-84854160D01*
X105990842Y-84497769D01*
X105755075Y-84435931D01*
X104999405Y-85191600D01*
X104640195Y-85191600D01*
X104626053Y-85177458D01*
X104805658Y-84997852D01*
X104819800Y-85011995D01*
X105575469Y-84256325D01*
X105513631Y-84020558D01*
X105058931Y-83860466D01*
X105134568Y-83678313D01*
X105134768Y-83449041D01*
X107161638Y-83464396D01*
X107210311Y-83455098D01*
X107251720Y-83427880D01*
X107279561Y-83386888D01*
X107289344Y-83329345D01*
X107202984Y-81970445D01*
X107190254Y-81922555D01*
X107156433Y-81880021D01*
X102861293Y-78382441D01*
X102817502Y-78359249D01*
X102780939Y-78353920D01*
X101257351Y-78355847D01*
X101221846Y-78320280D01*
X100841577Y-78162379D01*
X100429829Y-78162020D01*
X100049285Y-78319257D01*
X100011052Y-78357424D01*
X99354751Y-78358254D01*
X99316844Y-78320281D01*
X98936575Y-78162380D01*
X98891718Y-78162341D01*
X98889735Y-77161993D01*
X99098736Y-77238458D01*
X99708860Y-77212839D01*
X100153548Y-77028643D01*
X100239954Y-76772159D01*
X99339400Y-75871605D01*
X99325258Y-75885748D01*
X99145653Y-75706143D01*
X99159795Y-75692000D01*
X99145653Y-75677858D01*
X99325258Y-75498253D01*
X99339400Y-75512395D01*
X99353543Y-75498253D01*
X99533148Y-75677858D01*
X99519005Y-75692000D01*
X100419559Y-76592554D01*
X100569727Y-76541965D01*
X100577332Y-76560371D01*
X100647444Y-76630606D01*
X100650053Y-76816462D01*
X100660401Y-76864923D01*
X100688507Y-76905734D01*
X100751048Y-76938992D01*
X101010330Y-76993204D01*
X101572730Y-77226733D01*
X102129556Y-77227218D01*
X105712218Y-77976301D01*
X105899836Y-78101663D01*
X106172000Y-78155800D01*
X106570712Y-78155800D01*
X109473408Y-78762712D01*
X109522959Y-78763196D01*
X109568923Y-78744681D01*
X109604303Y-78709985D01*
X109623712Y-78664392D01*
X109626394Y-78637170D01*
X109594220Y-75315457D01*
X109754715Y-75249142D01*
X110046119Y-74958246D01*
X110204020Y-74577977D01*
X110204379Y-74166229D01*
X110047142Y-73785685D01*
X109974822Y-73713239D01*
X110041957Y-73612765D01*
X110091240Y-73365000D01*
X110091240Y-71165000D01*
X110041957Y-70917235D01*
X109901609Y-70707191D01*
X109691565Y-70566843D01*
X109547949Y-70538276D01*
X109527334Y-68409860D01*
X109517196Y-68361355D01*
X109495896Y-68327436D01*
X107308956Y-65829346D01*
X107269669Y-65799146D01*
X107220604Y-65786205D01*
X103959162Y-65600896D01*
X103951142Y-65581485D01*
X103660246Y-65290081D01*
X103279977Y-65132180D01*
X102868229Y-65131821D01*
X102487685Y-65289058D01*
X102320652Y-65455800D01*
X95723076Y-65455800D01*
X95680123Y-65412772D01*
X95673729Y-64572672D01*
X95721565Y-64563157D01*
X95808800Y-64504868D01*
X95896035Y-64563157D01*
X96143800Y-64612440D01*
X96743800Y-64612440D01*
X96991565Y-64563157D01*
X97078800Y-64504868D01*
X97166035Y-64563157D01*
X97413800Y-64612440D01*
X98013800Y-64612440D01*
X98261565Y-64563157D01*
X98348800Y-64504868D01*
X98436035Y-64563157D01*
X98683800Y-64612440D01*
X99283800Y-64612440D01*
X99531565Y-64563157D01*
X99610772Y-64510232D01*
X99827491Y-64600000D01*
X99968050Y-64600000D01*
X100126800Y-64441250D01*
X100126800Y-62992000D01*
X100121296Y-62992000D01*
X100122478Y-62738000D01*
X100126800Y-62738000D01*
X100126800Y-62718000D01*
X100380800Y-62718000D01*
X100380800Y-62738000D01*
X100400800Y-62738000D01*
X100400800Y-62992000D01*
X100380800Y-62992000D01*
X100380800Y-64441250D01*
X100539550Y-64600000D01*
X100680109Y-64600000D01*
X100896828Y-64510232D01*
X100976035Y-64563157D01*
X101223800Y-64612440D01*
X101823800Y-64612440D01*
X102071565Y-64563157D01*
X102158800Y-64504868D01*
X102246035Y-64563157D01*
X102493800Y-64612440D01*
X103093800Y-64612440D01*
X103341565Y-64563157D01*
X103428800Y-64504868D01*
X103516035Y-64563157D01*
X103763800Y-64612440D01*
X104363800Y-64612440D01*
X104611565Y-64563157D01*
X104698800Y-64504868D01*
X104786035Y-64563157D01*
X105033800Y-64612440D01*
X105633800Y-64612440D01*
X105881565Y-64563157D01*
X105968800Y-64504868D01*
X106056035Y-64563157D01*
X106303800Y-64612440D01*
X106903800Y-64612440D01*
X107151565Y-64563157D01*
X107238800Y-64504868D01*
X107326035Y-64563157D01*
X107573800Y-64612440D01*
X108173800Y-64612440D01*
X108421565Y-64563157D01*
X108508800Y-64504868D01*
X108596035Y-64563157D01*
X108843800Y-64612440D01*
X109443800Y-64612440D01*
X109691565Y-64563157D01*
X109901609Y-64422809D01*
X110041957Y-64212765D01*
X110091240Y-63965000D01*
X110091240Y-61765000D01*
X110041957Y-61517235D01*
X109984322Y-61430979D01*
X110020719Y-61394646D01*
X110178620Y-61014377D01*
X110178979Y-60602629D01*
X110021742Y-60222085D01*
X109847948Y-60047987D01*
X109850609Y-60046209D01*
X109899465Y-59973091D01*
X110053102Y-60126727D01*
X110286491Y-60223400D01*
X111017050Y-60223400D01*
X111175800Y-60064650D01*
X111175800Y-57175400D01*
X111155800Y-57175400D01*
X111155800Y-56921400D01*
X111175800Y-56921400D01*
X111175800Y-56901400D01*
X111429800Y-56901400D01*
X111429800Y-56921400D01*
G36*
X91869800Y-56921400D02*
X91889800Y-56921400D01*
X91889800Y-57175400D01*
X91869800Y-57175400D01*
X91869800Y-60064650D01*
X92028550Y-60223400D01*
X92759109Y-60223400D01*
X92992498Y-60126727D01*
X93140140Y-59979086D01*
X93184991Y-60046209D01*
X93327624Y-60141514D01*
X93328498Y-60350347D01*
X93328598Y-60354892D01*
X93350465Y-60901579D01*
X93137122Y-60990472D01*
X92586408Y-61117560D01*
X92333800Y-61117560D01*
X92086035Y-61166843D01*
X91934719Y-61267950D01*
X91826740Y-61292868D01*
X91781557Y-61313216D01*
X91747601Y-61349306D01*
X91728300Y-61415709D01*
X91727274Y-61559308D01*
X91686360Y-61765000D01*
X91686360Y-63965000D01*
X91709268Y-64080168D01*
X91702900Y-64971709D01*
X91712220Y-65020377D01*
X91739455Y-65061775D01*
X91765022Y-65081796D01*
X92209404Y-65345849D01*
X92214528Y-65350973D01*
X92214324Y-65585130D01*
X92371561Y-65965674D01*
X92662457Y-66257078D01*
X93042726Y-66414979D01*
X93454474Y-66415338D01*
X93811444Y-66267842D01*
X93935459Y-66328703D01*
X93935421Y-66371971D01*
X94092658Y-66752515D01*
X94383554Y-67043919D01*
X94763823Y-67201820D01*
X95175571Y-67202179D01*
X95556115Y-67044942D01*
X95723148Y-66878200D01*
X101068439Y-66878200D01*
X101077553Y-69267954D01*
X100487900Y-69268873D01*
X100435177Y-69246980D01*
X100023429Y-69246621D01*
X99967614Y-69269683D01*
X99574159Y-69270296D01*
X99525574Y-69280039D01*
X99484415Y-69307633D01*
X99456949Y-69348878D01*
X99447357Y-69397296D01*
X99447357Y-69599045D01*
X99351481Y-69694754D01*
X99193580Y-70075023D01*
X99193221Y-70486771D01*
X99228177Y-70571373D01*
X99110800Y-70688750D01*
X99110800Y-72138000D01*
X99130800Y-72138000D01*
X99130800Y-72392000D01*
X99110800Y-72392000D01*
X99110800Y-72412000D01*
X98856800Y-72412000D01*
X98856800Y-72392000D01*
X98836800Y-72392000D01*
X98836800Y-72138000D01*
X98856800Y-72138000D01*
X98856800Y-70688750D01*
X98698050Y-70530000D01*
X98557491Y-70530000D01*
X98495057Y-70555861D01*
X98496120Y-69390376D01*
X98486497Y-69341766D01*
X98459004Y-69300539D01*
X98417828Y-69272972D01*
X98369058Y-69263260D01*
X93139198Y-69265800D01*
X93078916Y-69281052D01*
X92942251Y-69354852D01*
X92865977Y-69323180D01*
X92454229Y-69322821D01*
X92073685Y-69480058D01*
X91782281Y-69770954D01*
X91624380Y-70151223D01*
X91624021Y-70562971D01*
X91757119Y-70885094D01*
X91735643Y-70917235D01*
X91686360Y-71165000D01*
X91686360Y-73365000D01*
X91735643Y-73612765D01*
X91875991Y-73822809D01*
X91952203Y-73873733D01*
X91956901Y-74498571D01*
X91956918Y-74499925D01*
X92007718Y-77293925D01*
X92018267Y-77342342D01*
X92046542Y-77383036D01*
X92088237Y-77409813D01*
X92134697Y-77418616D01*
X95208097Y-77418616D01*
X95256698Y-77408949D01*
X95297900Y-77381419D01*
X95325430Y-77340217D01*
X95334972Y-77297255D01*
X95339130Y-77203690D01*
X95407165Y-77190157D01*
X95617209Y-77049809D01*
X95749458Y-76851886D01*
X95784290Y-76886718D01*
X95898847Y-76772161D01*
X95985252Y-77028643D01*
X96558736Y-77238458D01*
X97168860Y-77212839D01*
X97613548Y-77028643D01*
X97699954Y-76772159D01*
X96799400Y-75871605D01*
X96785258Y-75885748D01*
X96605653Y-75706143D01*
X96619795Y-75692000D01*
X96605653Y-75677858D01*
X96785258Y-75498253D01*
X96799400Y-75512395D01*
X96813543Y-75498253D01*
X96993148Y-75677858D01*
X96979005Y-75692000D01*
X97879559Y-76592554D01*
X98029727Y-76541965D01*
X98037332Y-76560371D01*
X98044000Y-76567051D01*
X98044000Y-78419366D01*
X97852879Y-78610154D01*
X97694978Y-78990423D01*
X97694619Y-79402171D01*
X97851856Y-79782715D01*
X98044000Y-79975195D01*
X98044000Y-80009987D01*
X93258875Y-80009510D01*
X93144646Y-79895081D01*
X92764377Y-79737180D01*
X92352629Y-79736821D01*
X91972085Y-79894058D01*
X91936565Y-79929516D01*
X91210200Y-79780263D01*
X91210200Y-60223400D01*
X91457050Y-60223400D01*
X91615800Y-60064650D01*
X91615800Y-57175400D01*
X91595800Y-57175400D01*
X91595800Y-56921400D01*
X91615800Y-56921400D01*
X91615800Y-56901400D01*
X91869800Y-56901400D01*
X91869800Y-56921400D01*
X91869800Y-56921400D01*
G37*
X91869800Y-56921400D02*
X91889800Y-56921400D01*
X91889800Y-57175400D01*
X91869800Y-57175400D01*
X91869800Y-60064650D01*
X92028550Y-60223400D01*
X92759109Y-60223400D01*
X92992498Y-60126727D01*
X93140140Y-59979086D01*
X93184991Y-60046209D01*
X93327624Y-60141514D01*
X93328498Y-60350347D01*
X93328598Y-60354892D01*
X93350465Y-60901579D01*
X93137122Y-60990472D01*
X92586408Y-61117560D01*
X92333800Y-61117560D01*
X92086035Y-61166843D01*
X91934719Y-61267950D01*
X91826740Y-61292868D01*
X91781557Y-61313216D01*
X91747601Y-61349306D01*
X91728300Y-61415709D01*
X91727274Y-61559308D01*
X91686360Y-61765000D01*
X91686360Y-63965000D01*
X91709268Y-64080168D01*
X91702900Y-64971709D01*
X91712220Y-65020377D01*
X91739455Y-65061775D01*
X91765022Y-65081796D01*
X92209404Y-65345849D01*
X92214528Y-65350973D01*
X92214324Y-65585130D01*
X92371561Y-65965674D01*
X92662457Y-66257078D01*
X93042726Y-66414979D01*
X93454474Y-66415338D01*
X93811444Y-66267842D01*
X93935459Y-66328703D01*
X93935421Y-66371971D01*
X94092658Y-66752515D01*
X94383554Y-67043919D01*
X94763823Y-67201820D01*
X95175571Y-67202179D01*
X95556115Y-67044942D01*
X95723148Y-66878200D01*
X101068439Y-66878200D01*
X101077553Y-69267954D01*
X100487900Y-69268873D01*
X100435177Y-69246980D01*
X100023429Y-69246621D01*
X99967614Y-69269683D01*
X99574159Y-69270296D01*
X99525574Y-69280039D01*
X99484415Y-69307633D01*
X99456949Y-69348878D01*
X99447357Y-69397296D01*
X99447357Y-69599045D01*
X99351481Y-69694754D01*
X99193580Y-70075023D01*
X99193221Y-70486771D01*
X99228177Y-70571373D01*
X99110800Y-70688750D01*
X99110800Y-72138000D01*
X99130800Y-72138000D01*
X99130800Y-72392000D01*
X99110800Y-72392000D01*
X99110800Y-72412000D01*
X98856800Y-72412000D01*
X98856800Y-72392000D01*
X98836800Y-72392000D01*
X98836800Y-72138000D01*
X98856800Y-72138000D01*
X98856800Y-70688750D01*
X98698050Y-70530000D01*
X98557491Y-70530000D01*
X98495057Y-70555861D01*
X98496120Y-69390376D01*
X98486497Y-69341766D01*
X98459004Y-69300539D01*
X98417828Y-69272972D01*
X98369058Y-69263260D01*
X93139198Y-69265800D01*
X93078916Y-69281052D01*
X92942251Y-69354852D01*
X92865977Y-69323180D01*
X92454229Y-69322821D01*
X92073685Y-69480058D01*
X91782281Y-69770954D01*
X91624380Y-70151223D01*
X91624021Y-70562971D01*
X91757119Y-70885094D01*
X91735643Y-70917235D01*
X91686360Y-71165000D01*
X91686360Y-73365000D01*
X91735643Y-73612765D01*
X91875991Y-73822809D01*
X91952203Y-73873733D01*
X91956901Y-74498571D01*
X91956918Y-74499925D01*
X92007718Y-77293925D01*
X92018267Y-77342342D01*
X92046542Y-77383036D01*
X92088237Y-77409813D01*
X92134697Y-77418616D01*
X95208097Y-77418616D01*
X95256698Y-77408949D01*
X95297900Y-77381419D01*
X95325430Y-77340217D01*
X95334972Y-77297255D01*
X95339130Y-77203690D01*
X95407165Y-77190157D01*
X95617209Y-77049809D01*
X95749458Y-76851886D01*
X95784290Y-76886718D01*
X95898847Y-76772161D01*
X95985252Y-77028643D01*
X96558736Y-77238458D01*
X97168860Y-77212839D01*
X97613548Y-77028643D01*
X97699954Y-76772159D01*
X96799400Y-75871605D01*
X96785258Y-75885748D01*
X96605653Y-75706143D01*
X96619795Y-75692000D01*
X96605653Y-75677858D01*
X96785258Y-75498253D01*
X96799400Y-75512395D01*
X96813543Y-75498253D01*
X96993148Y-75677858D01*
X96979005Y-75692000D01*
X97879559Y-76592554D01*
X98029727Y-76541965D01*
X98037332Y-76560371D01*
X98044000Y-76567051D01*
X98044000Y-78419366D01*
X97852879Y-78610154D01*
X97694978Y-78990423D01*
X97694619Y-79402171D01*
X97851856Y-79782715D01*
X98044000Y-79975195D01*
X98044000Y-80009987D01*
X93258875Y-80009510D01*
X93144646Y-79895081D01*
X92764377Y-79737180D01*
X92352629Y-79736821D01*
X91972085Y-79894058D01*
X91936565Y-79929516D01*
X91210200Y-79780263D01*
X91210200Y-60223400D01*
X91457050Y-60223400D01*
X91615800Y-60064650D01*
X91615800Y-57175400D01*
X91595800Y-57175400D01*
X91595800Y-56921400D01*
X91615800Y-56921400D01*
X91615800Y-56901400D01*
X91869800Y-56901400D01*
X91869800Y-56921400D01*
M02*
