%TF.GenerationSoftware,KiCad,Pcbnew,no-vcs-found-f685cfa~60~ubuntu16.04.1*%
%TF.CreationDate,2017-10-11T22:15:00+02:00*%
%TF.ProjectId,usb_alien,7573625F616C69656E2E6B696361645F,rev?*%
%TF.SameCoordinates,Original*%
%TF.FileFunction,Copper,L1,Top,Signal*%
%TF.FilePolarity,Positive*%
%FSLAX46Y46*%
G04 Gerber Fmt 4.6, Leading zero omitted, Abs format (unit mm)*
G04 Created by KiCad (PCBNEW no-vcs-found-f685cfa~60~ubuntu16.04.1) date Wed Oct 11 22:15:00 2017*
%MOMM*%
%LPD*%
G01*
G04 APERTURE LIST*
%TA.AperFunction,ComponentPad*%
%ADD10C,2.700000*%
%TD*%
%TA.AperFunction,ComponentPad*%
%ADD11R,2.700000X2.700000*%
%TD*%
%TA.AperFunction,SMDPad,CuDef*%
%ADD12R,0.970000X1.270000*%
%TD*%
%TA.AperFunction,SMDPad,CuDef*%
%ADD13R,1.066800X0.914400*%
%TD*%
%TA.AperFunction,ComponentPad*%
%ADD14R,1.524000X1.524000*%
%TD*%
%TA.AperFunction,ComponentPad*%
%ADD15C,1.524000*%
%TD*%
%TA.AperFunction,SMDPad,CuDef*%
%ADD16R,1.066800X1.574800*%
%TD*%
%TA.AperFunction,ComponentPad*%
%ADD17O,1.200000X1.524000*%
%TD*%
%TA.AperFunction,ComponentPad*%
%ADD18R,1.200000X1.524000*%
%TD*%
%TA.AperFunction,ComponentPad*%
%ADD19O,1.524000X1.200000*%
%TD*%
%TA.AperFunction,ComponentPad*%
%ADD20R,1.524000X1.200000*%
%TD*%
%TA.AperFunction,SMDPad,CuDef*%
%ADD21R,0.914400X1.066800*%
%TD*%
%TA.AperFunction,ViaPad*%
%ADD22C,0.800000*%
%TD*%
%TA.AperFunction,Conductor*%
%ADD23C,0.254000*%
%TD*%
%TA.AperFunction,Conductor*%
%ADD24C,0.152400*%
%TD*%
%TA.AperFunction,Conductor*%
%ADD25C,0.177800*%
%TD*%
G04 APERTURE END LIST*
D10*
%TO.P,P2,4*%
%TO.N,GND*%
X145567400Y-102831900D03*
%TO.P,P2,3*%
%TO.N,/USB+*%
X149377400Y-102831900D03*
%TO.P,P2,2*%
%TO.N,/USB-*%
X153187400Y-102831900D03*
D11*
%TO.P,P2,1*%
%TO.N,VDD*%
X156997400Y-102831900D03*
%TD*%
D12*
%TO.P,J5,2*%
%TO.N,/Down*%
X131605100Y-91554300D03*
%TO.P,J5,1*%
%TO.N,/C_Down*%
X132885100Y-91554300D03*
%TD*%
%TO.P,J4,1*%
%TO.N,/C_Right*%
X149308900Y-97091500D03*
%TO.P,J4,2*%
%TO.N,/Right*%
X150588900Y-97091500D03*
%TD*%
%TO.P,J3,2*%
%TO.N,/Left*%
X148496100Y-91795600D03*
%TO.P,J3,1*%
%TO.N,/C_Left*%
X149776100Y-91795600D03*
%TD*%
D13*
%TO.P,C2,2*%
%TO.N,GND*%
X128993900Y-94640400D03*
%TO.P,C2,1*%
%TO.N,VDD*%
X128993900Y-96164400D03*
%TD*%
%TO.P,C1,1*%
%TO.N,VDD*%
X144106900Y-95135700D03*
%TO.P,C1,2*%
%TO.N,GND*%
X144106900Y-93611700D03*
%TD*%
D11*
%TO.P,P1,1*%
%TO.N,VDD*%
X129476500Y-102831900D03*
D10*
%TO.P,P1,2*%
X133286500Y-102831900D03*
%TO.P,P1,3*%
%TO.N,GND*%
X137096500Y-102831900D03*
%TO.P,P1,4*%
X140906500Y-102831900D03*
%TD*%
D14*
%TO.P,J2,1*%
%TO.N,VDD*%
X130162300Y-80937100D03*
D15*
%TO.P,J2,2*%
X130162300Y-83477100D03*
%TO.P,J2,3*%
%TO.N,/HOME*%
X132702300Y-80937100D03*
%TO.P,J2,4*%
%TO.N,/L2*%
X132702300Y-83477100D03*
%TO.P,J2,5*%
%TO.N,/L1*%
X135242300Y-80937100D03*
%TO.P,J2,6*%
%TO.N,/R2*%
X135242300Y-83477100D03*
%TO.P,J2,7*%
%TO.N,/L3*%
X137782300Y-80937100D03*
%TO.P,J2,8*%
%TO.N,/Select*%
X137782300Y-83477100D03*
%TO.P,J2,9*%
%TO.N,/Up*%
X140322300Y-80937100D03*
%TO.P,J2,10*%
%TO.N,/C_Down*%
X140322300Y-83477100D03*
%TO.P,J2,11*%
%TO.N,/Start*%
X142862300Y-80937100D03*
%TO.P,J2,12*%
%TO.N,/Cross*%
X142862300Y-83477100D03*
%TO.P,J2,13*%
%TO.N,/Circle*%
X145402300Y-80937100D03*
%TO.P,J2,14*%
%TO.N,/Square*%
X145402300Y-83477100D03*
%TO.P,J2,15*%
%TO.N,/Triangle*%
X147942300Y-80937100D03*
%TO.P,J2,16*%
%TO.N,/C_Left*%
X147942300Y-83477100D03*
%TO.P,J2,17*%
%TO.N,/R3*%
X150482300Y-80937100D03*
%TO.P,J2,18*%
%TO.N,/C_Right*%
X150482300Y-83477100D03*
%TO.P,J2,19*%
%TO.N,/R1*%
X153022300Y-80937100D03*
%TO.P,J2,20*%
%TO.N,Net-(J2-Pad20)*%
X153022300Y-83477100D03*
%TO.P,J2,21*%
%TO.N,GND*%
X155562300Y-80937100D03*
%TO.P,J2,22*%
X155562300Y-83477100D03*
%TO.P,J2,23*%
%TO.N,/USB-*%
X158102300Y-80937100D03*
%TO.P,J2,24*%
%TO.N,/USB+*%
X158102300Y-83477100D03*
%TD*%
D10*
%TO.P,P4,10*%
%TO.N,GND*%
X160947100Y-86410800D03*
%TO.P,P4,9*%
X157137100Y-86410800D03*
%TO.P,P4,8*%
%TO.N,/C_Right*%
X153327100Y-86410800D03*
%TO.P,P4,7*%
%TO.N,/C_Left*%
X149517100Y-86410800D03*
%TO.P,P4,6*%
%TO.N,/Square*%
X145707100Y-86410800D03*
%TO.P,P4,5*%
%TO.N,/Cross*%
X141897100Y-86410800D03*
%TO.P,P4,4*%
%TO.N,/C_Down*%
X138087100Y-86410800D03*
%TO.P,P4,3*%
%TO.N,/Select*%
X134277100Y-86410800D03*
%TO.P,P4,2*%
%TO.N,/R2*%
X130467100Y-86410800D03*
D11*
%TO.P,P4,1*%
%TO.N,/L2*%
X126657100Y-86410800D03*
%TD*%
%TO.P,P3,1*%
%TO.N,/HOME*%
X126707900Y-78003400D03*
D10*
%TO.P,P3,2*%
%TO.N,/L1*%
X130517900Y-78003400D03*
%TO.P,P3,3*%
%TO.N,/L3*%
X134327900Y-78003400D03*
%TO.P,P3,4*%
%TO.N,/Up*%
X138137900Y-78003400D03*
%TO.P,P3,5*%
%TO.N,/Start*%
X141947900Y-78003400D03*
%TO.P,P3,6*%
%TO.N,/Circle*%
X145757900Y-78003400D03*
%TO.P,P3,7*%
%TO.N,/Triangle*%
X149567900Y-78003400D03*
%TO.P,P3,8*%
%TO.N,/R3*%
X153377900Y-78003400D03*
%TO.P,P3,9*%
%TO.N,/R1*%
X157187900Y-78003400D03*
%TO.P,P3,10*%
%TO.N,GND*%
X160997900Y-78003400D03*
%TD*%
D16*
%TO.P,D1,A*%
%TO.N,Net-(D1-PadA)*%
X130771900Y-72593200D03*
%TO.P,D1,K*%
%TO.N,GND*%
X132499100Y-72593200D03*
%TD*%
D17*
%TO.P,J1,J4_8*%
%TO.N,GND*%
X162098300Y-108168000D03*
%TO.P,J1,J4_7*%
%TO.N,/R1*%
X160098300Y-108168000D03*
%TO.P,J1,J4_6*%
%TO.N,/R3*%
X158098300Y-108168000D03*
%TO.P,J1,J4_5*%
%TO.N,/Triangle*%
X156098300Y-108168000D03*
%TO.P,J1,J4_4*%
%TO.N,/Square*%
X154098300Y-108168000D03*
%TO.P,J1,J4_3*%
%TO.N,/Circle*%
X152098300Y-108168000D03*
%TO.P,J1,J4_2*%
%TO.N,/Cross*%
X150098300Y-108168000D03*
D18*
%TO.P,J1,J4_1*%
%TO.N,/Select*%
X148098300Y-108168000D03*
D17*
%TO.P,J1,J5_8*%
%TO.N,N/C*%
X145558300Y-108168000D03*
%TO.P,J1,J5_7*%
%TO.N,/R2*%
X143558300Y-108168000D03*
%TO.P,J1,J5_6*%
%TO.N,Net-(J1-PadJ5_6)*%
X141558300Y-108168000D03*
%TO.P,J1,J5_5*%
%TO.N,N/C*%
X139558300Y-108168000D03*
%TO.P,J1,J5_3*%
X135558300Y-108168000D03*
%TO.P,J1,J5_2*%
%TO.N,/L2*%
X133558300Y-108168000D03*
%TO.P,J1,J5_4*%
%TO.N,N/C*%
X137558300Y-108168000D03*
D18*
%TO.P,J1,J5_1*%
%TO.N,Net-(J1-PadJ5_1)*%
X131558300Y-108168000D03*
D17*
%TO.P,J1,J3_9*%
%TO.N,GND*%
X156638300Y-72958000D03*
%TO.P,J1,J3_8*%
%TO.N,/Start*%
X154638300Y-72958000D03*
%TO.P,J1,J3_7*%
%TO.N,/Right*%
X152638300Y-72958000D03*
%TO.P,J1,J3_6*%
%TO.N,/Left*%
X150638300Y-72958000D03*
%TO.P,J1,J3_3*%
%TO.N,/L3*%
X144638300Y-72958000D03*
%TO.P,J1,J3_5*%
%TO.N,/Down*%
X148638300Y-72958000D03*
%TO.P,J1,J3_4*%
%TO.N,/Up*%
X146638300Y-72958000D03*
%TO.P,J1,J3_2*%
%TO.N,/L1*%
X142638300Y-72958000D03*
D18*
%TO.P,J1,J3_1*%
%TO.N,/HOME*%
X140638300Y-72958000D03*
D19*
%TO.P,J1,J1_5*%
%TO.N,GND*%
X160798300Y-91208000D03*
%TO.P,J1,J1_4*%
X160798300Y-93208000D03*
%TO.P,J1,J1_3*%
%TO.N,/USB+*%
X160798300Y-95208000D03*
D20*
%TO.P,J1,J1_1*%
%TO.N,VDD*%
X160798300Y-99208000D03*
D19*
%TO.P,J1,J1_2*%
%TO.N,/USB-*%
X160798300Y-97208000D03*
%TD*%
D21*
%TO.P,R1,1*%
%TO.N,VDD*%
X127139700Y-72580500D03*
%TO.P,R1,2*%
%TO.N,Net-(D1-PadA)*%
X128663700Y-72580500D03*
%TD*%
D22*
%TO.N,GND*%
X162610800Y-98221800D03*
X163169600Y-97066100D03*
X140798600Y-89535000D03*
X139877800Y-89535000D03*
X138976100Y-89522300D03*
X140867795Y-88526233D03*
X139877800Y-88531700D03*
X138976100Y-88531700D03*
X136563100Y-99021900D03*
X128993900Y-91846400D03*
X128993900Y-93027500D03*
X132816600Y-95211900D03*
X136626600Y-95186500D03*
%TO.N,/R1*%
X145199100Y-89496900D03*
X147472400Y-104330500D03*
%TO.N,/R3*%
X144145000Y-104800400D03*
X143764000Y-89535000D03*
%TO.N,/Triangle*%
X142875000Y-90678000D03*
X142925800Y-104724200D03*
%TO.N,/Square*%
X141579601Y-105003599D03*
%TO.N,/Circle*%
X139026900Y-105016300D03*
%TO.N,/Cross*%
X135420100Y-104825800D03*
%TO.N,/Select*%
X127431800Y-105067100D03*
%TO.N,/R2*%
X126695200Y-105752900D03*
%TO.N,/L2*%
X125933200Y-106870498D03*
%TO.N,/Right*%
X150622000Y-95161100D03*
X155549600Y-88823800D03*
X150609300Y-88785700D03*
%TO.N,/Left*%
X146126200Y-93700600D03*
%TO.N,/Down*%
X148640800Y-74637900D03*
X131610102Y-89433400D03*
%TO.N,/Up*%
X146621500Y-75349100D03*
%TO.N,VDD*%
X145719800Y-95123000D03*
X128955800Y-98298000D03*
X128968500Y-97142300D03*
%TO.N,Net-(U1-Pad12)*%
X148094700Y-98920300D03*
%TO.N,Net-(U1-Pad3)*%
X148729700Y-93726000D03*
%TO.N,Net-(U2-Pad3)*%
X134112000Y-89954100D03*
%TO.N,/C_Right*%
X149415500Y-95351600D03*
X152996900Y-88938100D03*
%TO.N,/C_Left*%
X151892000Y-89585800D03*
%TO.N,/C_Down*%
X137299700Y-89281000D03*
%TD*%
D23*
%TO.N,Net-(D1-PadA)*%
X128663700Y-72580500D02*
X130759200Y-72580500D01*
X130759200Y-72580500D02*
X130771900Y-72593200D01*
%TO.N,GND*%
X142550919Y-103943199D02*
X142646400Y-103943199D01*
X141033500Y-102831900D02*
X142227300Y-104025700D01*
X142227300Y-104025700D02*
X142468418Y-104025700D01*
X142468418Y-104025700D02*
X142550919Y-103943199D01*
X140906500Y-102831900D02*
X141033500Y-102831900D01*
X144246600Y-103974900D02*
X143751300Y-103974900D01*
X145389600Y-102831900D02*
X144246600Y-103974900D01*
X145567400Y-102831900D02*
X145389600Y-102831900D01*
X162098300Y-108330000D02*
X162098300Y-108168000D01*
X161800100Y-108168000D02*
X161074100Y-107442000D01*
X162098300Y-108168000D02*
X161800100Y-108168000D01*
X138976100Y-89522300D02*
X139865100Y-89522300D01*
X139865100Y-89522300D02*
X139877800Y-89535000D01*
X139877800Y-88531700D02*
X140862328Y-88531700D01*
X140862328Y-88531700D02*
X140867795Y-88526233D01*
X140906500Y-102831900D02*
X145567400Y-102831900D01*
X137096500Y-102831900D02*
X139005688Y-102831900D01*
X139005688Y-102831900D02*
X140906500Y-102831900D01*
X128993900Y-94640400D02*
X128993900Y-93027500D01*
X156741530Y-83578700D02*
X156908500Y-83578700D01*
X155562300Y-83477100D02*
X156639930Y-83477100D01*
X156639930Y-83477100D02*
X156741530Y-83578700D01*
X156908499Y-80937100D02*
X156908499Y-80975199D01*
X156908499Y-80975199D02*
X156959299Y-81025999D01*
X155562300Y-80937100D02*
X156908499Y-80937100D01*
X156019500Y-84912200D02*
X156235400Y-84696300D01*
X156019500Y-85090000D02*
X156019500Y-84912200D01*
X157137100Y-86207600D02*
X156019500Y-85090000D01*
X157137100Y-86410800D02*
X157137100Y-86207600D01*
X154279600Y-84023200D02*
X154279600Y-82867500D01*
X154584400Y-84328000D02*
X154279600Y-84023200D01*
X154711400Y-84328000D02*
X154584400Y-84328000D01*
X154813000Y-84226400D02*
X154711400Y-84328000D01*
X155562300Y-83477100D02*
X154813000Y-84226400D01*
X155562300Y-83477100D02*
X155562300Y-80937100D01*
D24*
%TO.N,/R1*%
X160098300Y-108168000D02*
X160098300Y-106212200D01*
X148386800Y-104330500D02*
X147472400Y-104330500D01*
X160098300Y-106212200D02*
X158635700Y-104749600D01*
X158635700Y-104749600D02*
X148805900Y-104749600D01*
X148805900Y-104749600D02*
X148386800Y-104330500D01*
X145199100Y-89496900D02*
X149009100Y-89496900D01*
X149009100Y-89496900D02*
X151384000Y-87122000D01*
X151384000Y-87122000D02*
X151384000Y-84874100D01*
X151384000Y-84874100D02*
X151765000Y-84493100D01*
X151765000Y-84493100D02*
X151765000Y-82194400D01*
X151765000Y-82194400D02*
X152260301Y-81699099D01*
X152260301Y-81699099D02*
X153022300Y-80937100D01*
X154305000Y-79654400D02*
X155536900Y-79654400D01*
X155536900Y-79654400D02*
X157187900Y-78003400D01*
X153022300Y-80937100D02*
X154305000Y-79654400D01*
%TO.N,/R3*%
X150482300Y-80937100D02*
X149225000Y-82194400D01*
X149225000Y-82194400D02*
X149225000Y-84023200D01*
X149225000Y-84023200D02*
X147637500Y-85610700D01*
X147637500Y-85610700D02*
X147637500Y-87287100D01*
X146570700Y-88353900D02*
X144945100Y-88353900D01*
X147637500Y-87287100D02*
X146570700Y-88353900D01*
X144945100Y-88353900D02*
X143764000Y-89535000D01*
X151371300Y-105117900D02*
X145376900Y-105117900D01*
X145376900Y-105117900D02*
X145059400Y-104800400D01*
X145059400Y-104800400D02*
X144145000Y-104800400D01*
X158098300Y-108168000D02*
X158098300Y-106206100D01*
X158098300Y-106206100D02*
X157010100Y-105117900D01*
X157010100Y-105117900D02*
X151371300Y-105117900D01*
X150482300Y-80937100D02*
X149390100Y-82029300D01*
X150482300Y-80937100D02*
X153377900Y-78041500D01*
X153377900Y-78041500D02*
X153377900Y-78003400D01*
X151371300Y-105117900D02*
X151345900Y-105143300D01*
%TO.N,/Triangle*%
X156098300Y-108168000D02*
X156098300Y-106288900D01*
X143687800Y-105498900D02*
X142925800Y-104736900D01*
X156098300Y-106288900D02*
X155308300Y-105498900D01*
X155308300Y-105498900D02*
X143687800Y-105498900D01*
X142925800Y-104736900D02*
X142925800Y-104724200D01*
X147942300Y-80937100D02*
X146672300Y-82207100D01*
X146672300Y-82207100D02*
X146672300Y-84188300D01*
X146672300Y-84188300D02*
X146265900Y-84594700D01*
X146265900Y-84594700D02*
X144576800Y-84594700D01*
X144576800Y-84594700D02*
X143840200Y-85331300D01*
X143840200Y-85331300D02*
X143840200Y-88138000D01*
X143840200Y-88138000D02*
X142875000Y-89103200D01*
X142875000Y-89103200D02*
X142875000Y-90678000D01*
%TO.N,/Square*%
X154098300Y-108168000D02*
X154098300Y-106638400D01*
X154098300Y-106638400D02*
X153339800Y-105879900D01*
X153339800Y-105879900D02*
X142455902Y-105879900D01*
X141979600Y-105403598D02*
X141579601Y-105003599D01*
X142455902Y-105879900D02*
X141979600Y-105403598D01*
%TO.N,/Circle*%
X152098300Y-108168000D02*
X152098300Y-106670400D01*
X152098300Y-106670400D02*
X151701478Y-106273578D01*
X151701478Y-106273578D02*
X140284178Y-106273578D01*
X140284178Y-106273578D02*
X139426899Y-105416299D01*
X139426899Y-105416299D02*
X139026900Y-105016300D01*
%TO.N,/Cross*%
X150098300Y-108168000D02*
X150098300Y-106918300D01*
X150098300Y-106918300D02*
X149809200Y-106629200D01*
X135820099Y-105225799D02*
X135420100Y-104825800D01*
X149809200Y-106629200D02*
X137223500Y-106629200D01*
X137223500Y-106629200D02*
X135820099Y-105225799D01*
%TO.N,/Select*%
X127431800Y-105067100D02*
X128498600Y-106133900D01*
X128498600Y-106133900D02*
X132816600Y-106133900D01*
X132816600Y-106133900D02*
X133337300Y-106654600D01*
X133337300Y-106654600D02*
X136309100Y-106654600D01*
X136309100Y-106654600D02*
X136588500Y-106934000D01*
X136588500Y-106934000D02*
X147040600Y-106934000D01*
X147040600Y-106934000D02*
X148098300Y-107991700D01*
X148098300Y-107991700D02*
X148098300Y-108168000D01*
%TO.N,/R2*%
X133096000Y-106972100D02*
X132657799Y-106533899D01*
X136055100Y-106972100D02*
X133096000Y-106972100D01*
X132657799Y-106533899D02*
X127476199Y-106533899D01*
X136575800Y-107492800D02*
X136055100Y-106972100D01*
X136575800Y-108889800D02*
X136575800Y-107492800D01*
X137299700Y-109613700D02*
X136575800Y-108889800D01*
X143027000Y-109613700D02*
X137299700Y-109613700D01*
X143558300Y-109082400D02*
X143027000Y-109613700D01*
X143558300Y-108168000D02*
X143558300Y-109082400D01*
X127476199Y-106533899D02*
X127095199Y-106152899D01*
X127095199Y-106152899D02*
X126695200Y-105752900D01*
%TO.N,/L2*%
X126498885Y-106870498D02*
X125933200Y-106870498D01*
X132422798Y-106870498D02*
X126498885Y-106870498D01*
X133558300Y-108006000D02*
X132422798Y-106870498D01*
X133558300Y-108168000D02*
X133558300Y-108006000D01*
%TO.N,/Start*%
X154638300Y-72958000D02*
X154638300Y-74901500D01*
X154638300Y-74901500D02*
X153314389Y-76225411D01*
X153314389Y-76225411D02*
X145541256Y-76225411D01*
X145541256Y-76225411D02*
X145541234Y-76225433D01*
X145541234Y-76225433D02*
X143725867Y-76225433D01*
X143725867Y-76225433D02*
X141947900Y-78003400D01*
%TO.N,/Right*%
X150622000Y-95161100D02*
X150622000Y-97058400D01*
X150622000Y-97058400D02*
X150588900Y-97091500D01*
X150588900Y-95194200D02*
X150622000Y-95161100D01*
X150588900Y-97091500D02*
X150588900Y-96941500D01*
X150609300Y-88785700D02*
X151187101Y-88207899D01*
X151187101Y-88207899D02*
X154933699Y-88207899D01*
X154933699Y-88207899D02*
X155149601Y-88423801D01*
X155149601Y-88423801D02*
X155549600Y-88823800D01*
%TO.N,/Left*%
X146126200Y-92544900D02*
X146875500Y-91795600D01*
X146875500Y-91795600D02*
X148496100Y-91795600D01*
X146126200Y-93700600D02*
X146126200Y-92544900D01*
%TO.N,/L3*%
X144094200Y-75311000D02*
X135111112Y-75311000D01*
X134327900Y-76094212D02*
X134327900Y-78003400D01*
X144638300Y-72958000D02*
X144638300Y-74766900D01*
X144638300Y-74766900D02*
X144094200Y-75311000D01*
X135111112Y-75311000D02*
X134327900Y-76094212D01*
%TO.N,/Down*%
X148640800Y-74637900D02*
X145567400Y-74637900D01*
X145567400Y-74637900D02*
X144589489Y-75615811D01*
X136245600Y-79921100D02*
X136499600Y-80175100D01*
X136182100Y-85471000D02*
X136182100Y-88061800D01*
X144589489Y-75615811D02*
X137071089Y-75615811D01*
X137071089Y-75615811D02*
X136245600Y-76441300D01*
X136245600Y-76441300D02*
X136245600Y-79921100D01*
X136499600Y-80175100D02*
X136499600Y-85153500D01*
X135585198Y-88658702D02*
X132384800Y-88658702D01*
X136499600Y-85153500D02*
X136182100Y-85471000D01*
X136182100Y-88061800D02*
X135585198Y-88658702D01*
X132384800Y-88658702D02*
X131610102Y-89433400D01*
X131610102Y-89433400D02*
X131610102Y-91549298D01*
X131610102Y-91549298D02*
X131605100Y-91554300D01*
%TO.N,/Up*%
X138137900Y-78003400D02*
X140220678Y-75920622D01*
X140220678Y-75920622D02*
X145135578Y-75920622D01*
X145135578Y-75920622D02*
X145707100Y-75349100D01*
X145707100Y-75349100D02*
X146055815Y-75349100D01*
X146055815Y-75349100D02*
X146621500Y-75349100D01*
X146634199Y-75514199D02*
X146621500Y-75501500D01*
X146621500Y-75501500D02*
X146621500Y-75349100D01*
%TO.N,/L1*%
X131051310Y-75006190D02*
X130517900Y-75539600D01*
X142638300Y-73872400D02*
X142646400Y-73880500D01*
X142646400Y-73880500D02*
X142646400Y-74358500D01*
X142638300Y-72958000D02*
X142638300Y-73872400D01*
X142646400Y-74358500D02*
X141998710Y-75006190D01*
X141998710Y-75006190D02*
X131051310Y-75006190D01*
X130517900Y-75539600D02*
X130517900Y-78003400D01*
X130517900Y-78003400D02*
X132283200Y-79768700D01*
X132283200Y-79768700D02*
X134073900Y-79768700D01*
X134073900Y-79768700D02*
X135242300Y-80937100D01*
%TO.N,/HOME*%
X140638300Y-72958000D02*
X139284400Y-72958000D01*
X139284400Y-72958000D02*
X137541021Y-74701379D01*
X137541021Y-74701379D02*
X130925054Y-74701379D01*
X126707900Y-75755500D02*
X126707900Y-78003400D01*
X130925054Y-74701379D02*
X130925033Y-74701400D01*
X130925033Y-74701400D02*
X127762000Y-74701400D01*
X127762000Y-74701400D02*
X126707900Y-75755500D01*
X132702300Y-80937100D02*
X131508500Y-79743300D01*
X131508500Y-79743300D02*
X128498600Y-79743300D01*
X128498600Y-79743300D02*
X127025400Y-78270100D01*
X127025400Y-78270100D02*
X127025400Y-78193900D01*
X127025400Y-78193900D02*
X126834900Y-78003400D01*
X126834900Y-78003400D02*
X126707900Y-78003400D01*
D25*
%TO.N,/USB+*%
X163220400Y-83220548D02*
X161292552Y-81292700D01*
X160798300Y-95208000D02*
X160960300Y-95208000D01*
X160286700Y-81292700D02*
X158102300Y-83477100D01*
X162480852Y-96030200D02*
X163220400Y-95290652D01*
X161292552Y-81292700D02*
X160286700Y-81292700D01*
X160960300Y-95208000D02*
X161782500Y-96030200D01*
X161782500Y-96030200D02*
X162480852Y-96030200D01*
X163220400Y-95290652D02*
X163220400Y-83220548D01*
D24*
X158102300Y-83477100D02*
X158102300Y-83235800D01*
D23*
%TO.N,VDD*%
X128905000Y-82448400D02*
X128600200Y-82448400D01*
X130162300Y-81191100D02*
X128905000Y-82448400D01*
X130162300Y-80937100D02*
X130162300Y-81191100D01*
X128993900Y-96164400D02*
X128993900Y-97116900D01*
X128993900Y-97116900D02*
X128968500Y-97142300D01*
X128968500Y-97142300D02*
X128968500Y-98285300D01*
X128968500Y-98285300D02*
X128955800Y-98298000D01*
X130162300Y-80937100D02*
X130162300Y-81953100D01*
X130162300Y-81953100D02*
X130162300Y-83477100D01*
D25*
%TO.N,/USB-*%
X160798300Y-97208000D02*
X160960300Y-97208000D01*
X160960300Y-97208000D02*
X161782500Y-96385800D01*
X162628148Y-96385800D02*
X163576000Y-95437948D01*
X161439848Y-80937100D02*
X160286700Y-80937100D01*
X161782500Y-96385800D02*
X162628148Y-96385800D01*
X163576000Y-95437948D02*
X163576000Y-83073252D01*
X163576000Y-83073252D02*
X161439848Y-80937100D01*
X160286700Y-80937100D02*
X158102300Y-80937100D01*
D24*
X158102300Y-80937100D02*
X158102300Y-81254600D01*
%TO.N,/C_Right*%
X149415500Y-95351600D02*
X149415500Y-94449900D01*
X149415500Y-94449900D02*
X152996900Y-90868500D01*
X152996900Y-90868500D02*
X152996900Y-90652600D01*
X152996900Y-90652600D02*
X152996900Y-88938100D01*
X149415500Y-95351600D02*
X149415500Y-96984900D01*
X149415500Y-96984900D02*
X149308900Y-97091500D01*
%TO.N,/C_Left*%
X149776100Y-91795600D02*
X151091900Y-91795600D01*
X151091900Y-91795600D02*
X151892000Y-90995500D01*
X151892000Y-90995500D02*
X151892000Y-89585800D01*
%TO.N,/C_Down*%
X135026400Y-91554300D02*
X136899701Y-89680999D01*
X136899701Y-89680999D02*
X137299700Y-89281000D01*
X132885100Y-91554300D02*
X135026400Y-91554300D01*
%TD*%
D23*
%TO.N,GND*%
G36*
X157035500Y-80525715D02*
X156959499Y-80708746D01*
X156959330Y-80902760D01*
X156943662Y-80589732D01*
X156784697Y-80205957D01*
X156542513Y-80136492D01*
X155741905Y-80937100D01*
X156542513Y-81737708D01*
X156784697Y-81668243D01*
X156962152Y-81170842D01*
X157035500Y-81348358D01*
X157035500Y-82969100D01*
X157045167Y-83017701D01*
X157051501Y-83027181D01*
X156959499Y-83248746D01*
X156959330Y-83442760D01*
X156943662Y-83129732D01*
X156784697Y-82745957D01*
X156542513Y-82676492D01*
X155741905Y-83477100D01*
X156542513Y-84277708D01*
X156784697Y-84208243D01*
X156962152Y-83710842D01*
X157132746Y-84123712D01*
X157426953Y-84418432D01*
X156695682Y-84435636D01*
X156325097Y-84589137D01*
X156362908Y-84457313D01*
X155562300Y-83656705D01*
X154761692Y-84457313D01*
X154831157Y-84699497D01*
X155354602Y-84886244D01*
X155909668Y-84858462D01*
X155996332Y-84822565D01*
X155911112Y-85005207D01*
X157137100Y-86231195D01*
X158363088Y-85005207D01*
X159721112Y-85005207D01*
X160947100Y-86231195D01*
X162173088Y-85005207D01*
X162031622Y-84702018D01*
X161295145Y-84417063D01*
X160505682Y-84435636D01*
X159862578Y-84702018D01*
X159721112Y-85005207D01*
X158363088Y-85005207D01*
X158221622Y-84702018D01*
X158009694Y-84620020D01*
X158328659Y-84620298D01*
X158748912Y-84446654D01*
X159070723Y-84125403D01*
X159245101Y-83705454D01*
X159245498Y-83250741D01*
X159181602Y-83096100D01*
X162431413Y-83096100D01*
X162750500Y-83415187D01*
X162750500Y-85554706D01*
X162655882Y-85326278D01*
X162352693Y-85184812D01*
X161126705Y-86410800D01*
X162352693Y-87636788D01*
X162655882Y-87495322D01*
X162750500Y-87250778D01*
X162750500Y-93853000D01*
X161994099Y-93853000D01*
X162153762Y-93525609D01*
X162029031Y-93335000D01*
X160925300Y-93335000D01*
X160925300Y-93355000D01*
X160671300Y-93355000D01*
X160671300Y-93335000D01*
X159567569Y-93335000D01*
X159442838Y-93525609D01*
X159602501Y-93853000D01*
X158623000Y-93853000D01*
X158574399Y-93862667D01*
X158533197Y-93890197D01*
X158505667Y-93931399D01*
X158496000Y-93980000D01*
X158496000Y-100838000D01*
X149606000Y-100838000D01*
X149557399Y-100847667D01*
X149516197Y-100875197D01*
X149491573Y-100909905D01*
X149399604Y-101100919D01*
X149034593Y-101100600D01*
X148398148Y-101363574D01*
X147910786Y-101850087D01*
X147646701Y-102486072D01*
X147646100Y-103174707D01*
X147836761Y-103636141D01*
X147628432Y-103549636D01*
X147418169Y-103549452D01*
X147561137Y-103179945D01*
X147542564Y-102390482D01*
X147276182Y-101747378D01*
X146972993Y-101605912D01*
X145747005Y-102831900D01*
X145761148Y-102846043D01*
X145581543Y-103025648D01*
X145567400Y-103011505D01*
X145553258Y-103025648D01*
X145373653Y-102846043D01*
X145387795Y-102831900D01*
X144161807Y-101605912D01*
X143858618Y-101747378D01*
X143573663Y-102483855D01*
X143592236Y-103273318D01*
X143858618Y-103916422D01*
X144079195Y-104019342D01*
X143990331Y-104019264D01*
X143703177Y-104137914D01*
X143573866Y-104267000D01*
X143572936Y-104267000D01*
X143368779Y-104062486D01*
X143081832Y-103943336D01*
X142771131Y-103943064D01*
X142483977Y-104061714D01*
X142399876Y-104145668D01*
X142312095Y-104057887D01*
X142615282Y-103916422D01*
X142900237Y-103179945D01*
X142881664Y-102390482D01*
X142615282Y-101747378D01*
X142312093Y-101605912D01*
X141086105Y-102831900D01*
X141100248Y-102846043D01*
X140920643Y-103025648D01*
X140906500Y-103011505D01*
X139680512Y-104237493D01*
X139694280Y-104267000D01*
X139258947Y-104267000D01*
X139182932Y-104235436D01*
X138872231Y-104235164D01*
X138795182Y-104267000D01*
X138308720Y-104267000D01*
X138322488Y-104237493D01*
X137096500Y-103011505D01*
X137082358Y-103025648D01*
X136902753Y-102846043D01*
X136916895Y-102831900D01*
X137276105Y-102831900D01*
X138502093Y-104057888D01*
X138805282Y-103916422D01*
X138994814Y-103426568D01*
X139197718Y-103916422D01*
X139500907Y-104057888D01*
X140726895Y-102831900D01*
X139500907Y-101605912D01*
X139197718Y-101747378D01*
X139008186Y-102237232D01*
X138805282Y-101747378D01*
X138502093Y-101605912D01*
X137276105Y-102831900D01*
X136916895Y-102831900D01*
X135690907Y-101605912D01*
X135636000Y-101631531D01*
X135636000Y-101426307D01*
X135870512Y-101426307D01*
X137096500Y-102652295D01*
X138322488Y-101426307D01*
X139680512Y-101426307D01*
X140906500Y-102652295D01*
X142132488Y-101426307D01*
X144341412Y-101426307D01*
X145567400Y-102652295D01*
X146793388Y-101426307D01*
X146651922Y-101123118D01*
X145915445Y-100838163D01*
X145125982Y-100856736D01*
X144482878Y-101123118D01*
X144341412Y-101426307D01*
X142132488Y-101426307D01*
X141991022Y-101123118D01*
X141254545Y-100838163D01*
X140465082Y-100856736D01*
X139821978Y-101123118D01*
X139680512Y-101426307D01*
X138322488Y-101426307D01*
X138181022Y-101123118D01*
X137444545Y-100838163D01*
X136655082Y-100856736D01*
X136011978Y-101123118D01*
X135870512Y-101426307D01*
X135636000Y-101426307D01*
X135636000Y-94742000D01*
X137668000Y-94742000D01*
X137668000Y-98920300D01*
X137677667Y-98968901D01*
X137705197Y-99010103D01*
X137746399Y-99037633D01*
X137794913Y-99047300D01*
X147313583Y-99053820D01*
X147313564Y-99074969D01*
X147432214Y-99362123D01*
X147651721Y-99582014D01*
X147938668Y-99701164D01*
X148249369Y-99701436D01*
X148536523Y-99582786D01*
X148756414Y-99363279D01*
X148875564Y-99076332D01*
X148875583Y-99054889D01*
X156336913Y-99060000D01*
X156385520Y-99050366D01*
X156426741Y-99022864D01*
X156454299Y-98981681D01*
X156464000Y-98933000D01*
X156464000Y-91525609D01*
X159442838Y-91525609D01*
X159656285Y-91963285D01*
X159936520Y-92208000D01*
X159656285Y-92452715D01*
X159442838Y-92890391D01*
X159567569Y-93081000D01*
X160671300Y-93081000D01*
X160671300Y-91335000D01*
X160925300Y-91335000D01*
X160925300Y-93081000D01*
X162029031Y-93081000D01*
X162153762Y-92890391D01*
X161940315Y-92452715D01*
X161660080Y-92208000D01*
X161940315Y-91963285D01*
X162153762Y-91525609D01*
X162029031Y-91335000D01*
X160925300Y-91335000D01*
X160671300Y-91335000D01*
X159567569Y-91335000D01*
X159442838Y-91525609D01*
X156464000Y-91525609D01*
X156464000Y-90890391D01*
X159442838Y-90890391D01*
X159567569Y-91081000D01*
X160671300Y-91081000D01*
X160671300Y-90129955D01*
X160925300Y-90129955D01*
X160925300Y-91081000D01*
X162029031Y-91081000D01*
X162153762Y-90890391D01*
X161940315Y-90452715D01*
X161576681Y-90135172D01*
X161119208Y-89980957D01*
X160925300Y-90129955D01*
X160671300Y-90129955D01*
X160477392Y-89980957D01*
X160019919Y-90135172D01*
X159656285Y-90452715D01*
X159442838Y-90890391D01*
X156464000Y-90890391D01*
X156464000Y-88480900D01*
X156454333Y-88432299D01*
X156426803Y-88391097D01*
X156393796Y-88367308D01*
X156001774Y-88171297D01*
X155992579Y-88162086D01*
X155938153Y-88139487D01*
X155291966Y-87816393D01*
X155911112Y-87816393D01*
X156052578Y-88119582D01*
X156789055Y-88404537D01*
X157578518Y-88385964D01*
X158221622Y-88119582D01*
X158363088Y-87816393D01*
X159721112Y-87816393D01*
X159862578Y-88119582D01*
X160599055Y-88404537D01*
X161388518Y-88385964D01*
X162031622Y-88119582D01*
X162173088Y-87816393D01*
X160947100Y-86590405D01*
X159721112Y-87816393D01*
X158363088Y-87816393D01*
X157137100Y-86590405D01*
X155911112Y-87816393D01*
X155291966Y-87816393D01*
X154940000Y-87640410D01*
X154940000Y-87040318D01*
X155057799Y-86756628D01*
X155058400Y-86067993D01*
X155056236Y-86062755D01*
X155143363Y-86062755D01*
X155161936Y-86852218D01*
X155428318Y-87495322D01*
X155731507Y-87636788D01*
X156957495Y-86410800D01*
X157316705Y-86410800D01*
X158542693Y-87636788D01*
X158845882Y-87495322D01*
X159035414Y-87005468D01*
X159238318Y-87495322D01*
X159541507Y-87636788D01*
X160767495Y-86410800D01*
X159541507Y-85184812D01*
X159238318Y-85326278D01*
X159048786Y-85816132D01*
X158845882Y-85326278D01*
X158542693Y-85184812D01*
X157316705Y-86410800D01*
X156957495Y-86410800D01*
X155731507Y-85184812D01*
X155428318Y-85326278D01*
X155143363Y-86062755D01*
X155056236Y-86062755D01*
X154940000Y-85781443D01*
X154940000Y-85051900D01*
X154930333Y-85003299D01*
X154901975Y-84961277D01*
X154241500Y-84312811D01*
X154241500Y-83970677D01*
X154339903Y-84208243D01*
X154582087Y-84277708D01*
X155382695Y-83477100D01*
X154582087Y-82676492D01*
X154339903Y-82745957D01*
X154241500Y-83021778D01*
X154241500Y-81917313D01*
X154761692Y-81917313D01*
X154831157Y-82159497D01*
X154954644Y-82203553D01*
X154831157Y-82254703D01*
X154761692Y-82496887D01*
X155562300Y-83297495D01*
X156362908Y-82496887D01*
X156293443Y-82254703D01*
X156169956Y-82210647D01*
X156293443Y-82159497D01*
X156362908Y-81917313D01*
X155562300Y-81116705D01*
X154761692Y-81917313D01*
X154241500Y-81917313D01*
X154241500Y-81430677D01*
X154339903Y-81668243D01*
X154582087Y-81737708D01*
X155382695Y-80937100D01*
X155368553Y-80922958D01*
X155548158Y-80743353D01*
X155562300Y-80757495D01*
X156362908Y-79956887D01*
X156352643Y-79921100D01*
X157035500Y-79921100D01*
X157035500Y-80525715D01*
X157035500Y-80525715D01*
G37*
X157035500Y-80525715D02*
X156959499Y-80708746D01*
X156959330Y-80902760D01*
X156943662Y-80589732D01*
X156784697Y-80205957D01*
X156542513Y-80136492D01*
X155741905Y-80937100D01*
X156542513Y-81737708D01*
X156784697Y-81668243D01*
X156962152Y-81170842D01*
X157035500Y-81348358D01*
X157035500Y-82969100D01*
X157045167Y-83017701D01*
X157051501Y-83027181D01*
X156959499Y-83248746D01*
X156959330Y-83442760D01*
X156943662Y-83129732D01*
X156784697Y-82745957D01*
X156542513Y-82676492D01*
X155741905Y-83477100D01*
X156542513Y-84277708D01*
X156784697Y-84208243D01*
X156962152Y-83710842D01*
X157132746Y-84123712D01*
X157426953Y-84418432D01*
X156695682Y-84435636D01*
X156325097Y-84589137D01*
X156362908Y-84457313D01*
X155562300Y-83656705D01*
X154761692Y-84457313D01*
X154831157Y-84699497D01*
X155354602Y-84886244D01*
X155909668Y-84858462D01*
X155996332Y-84822565D01*
X155911112Y-85005207D01*
X157137100Y-86231195D01*
X158363088Y-85005207D01*
X159721112Y-85005207D01*
X160947100Y-86231195D01*
X162173088Y-85005207D01*
X162031622Y-84702018D01*
X161295145Y-84417063D01*
X160505682Y-84435636D01*
X159862578Y-84702018D01*
X159721112Y-85005207D01*
X158363088Y-85005207D01*
X158221622Y-84702018D01*
X158009694Y-84620020D01*
X158328659Y-84620298D01*
X158748912Y-84446654D01*
X159070723Y-84125403D01*
X159245101Y-83705454D01*
X159245498Y-83250741D01*
X159181602Y-83096100D01*
X162431413Y-83096100D01*
X162750500Y-83415187D01*
X162750500Y-85554706D01*
X162655882Y-85326278D01*
X162352693Y-85184812D01*
X161126705Y-86410800D01*
X162352693Y-87636788D01*
X162655882Y-87495322D01*
X162750500Y-87250778D01*
X162750500Y-93853000D01*
X161994099Y-93853000D01*
X162153762Y-93525609D01*
X162029031Y-93335000D01*
X160925300Y-93335000D01*
X160925300Y-93355000D01*
X160671300Y-93355000D01*
X160671300Y-93335000D01*
X159567569Y-93335000D01*
X159442838Y-93525609D01*
X159602501Y-93853000D01*
X158623000Y-93853000D01*
X158574399Y-93862667D01*
X158533197Y-93890197D01*
X158505667Y-93931399D01*
X158496000Y-93980000D01*
X158496000Y-100838000D01*
X149606000Y-100838000D01*
X149557399Y-100847667D01*
X149516197Y-100875197D01*
X149491573Y-100909905D01*
X149399604Y-101100919D01*
X149034593Y-101100600D01*
X148398148Y-101363574D01*
X147910786Y-101850087D01*
X147646701Y-102486072D01*
X147646100Y-103174707D01*
X147836761Y-103636141D01*
X147628432Y-103549636D01*
X147418169Y-103549452D01*
X147561137Y-103179945D01*
X147542564Y-102390482D01*
X147276182Y-101747378D01*
X146972993Y-101605912D01*
X145747005Y-102831900D01*
X145761148Y-102846043D01*
X145581543Y-103025648D01*
X145567400Y-103011505D01*
X145553258Y-103025648D01*
X145373653Y-102846043D01*
X145387795Y-102831900D01*
X144161807Y-101605912D01*
X143858618Y-101747378D01*
X143573663Y-102483855D01*
X143592236Y-103273318D01*
X143858618Y-103916422D01*
X144079195Y-104019342D01*
X143990331Y-104019264D01*
X143703177Y-104137914D01*
X143573866Y-104267000D01*
X143572936Y-104267000D01*
X143368779Y-104062486D01*
X143081832Y-103943336D01*
X142771131Y-103943064D01*
X142483977Y-104061714D01*
X142399876Y-104145668D01*
X142312095Y-104057887D01*
X142615282Y-103916422D01*
X142900237Y-103179945D01*
X142881664Y-102390482D01*
X142615282Y-101747378D01*
X142312093Y-101605912D01*
X141086105Y-102831900D01*
X141100248Y-102846043D01*
X140920643Y-103025648D01*
X140906500Y-103011505D01*
X139680512Y-104237493D01*
X139694280Y-104267000D01*
X139258947Y-104267000D01*
X139182932Y-104235436D01*
X138872231Y-104235164D01*
X138795182Y-104267000D01*
X138308720Y-104267000D01*
X138322488Y-104237493D01*
X137096500Y-103011505D01*
X137082358Y-103025648D01*
X136902753Y-102846043D01*
X136916895Y-102831900D01*
X137276105Y-102831900D01*
X138502093Y-104057888D01*
X138805282Y-103916422D01*
X138994814Y-103426568D01*
X139197718Y-103916422D01*
X139500907Y-104057888D01*
X140726895Y-102831900D01*
X139500907Y-101605912D01*
X139197718Y-101747378D01*
X139008186Y-102237232D01*
X138805282Y-101747378D01*
X138502093Y-101605912D01*
X137276105Y-102831900D01*
X136916895Y-102831900D01*
X135690907Y-101605912D01*
X135636000Y-101631531D01*
X135636000Y-101426307D01*
X135870512Y-101426307D01*
X137096500Y-102652295D01*
X138322488Y-101426307D01*
X139680512Y-101426307D01*
X140906500Y-102652295D01*
X142132488Y-101426307D01*
X144341412Y-101426307D01*
X145567400Y-102652295D01*
X146793388Y-101426307D01*
X146651922Y-101123118D01*
X145915445Y-100838163D01*
X145125982Y-100856736D01*
X144482878Y-101123118D01*
X144341412Y-101426307D01*
X142132488Y-101426307D01*
X141991022Y-101123118D01*
X141254545Y-100838163D01*
X140465082Y-100856736D01*
X139821978Y-101123118D01*
X139680512Y-101426307D01*
X138322488Y-101426307D01*
X138181022Y-101123118D01*
X137444545Y-100838163D01*
X136655082Y-100856736D01*
X136011978Y-101123118D01*
X135870512Y-101426307D01*
X135636000Y-101426307D01*
X135636000Y-94742000D01*
X137668000Y-94742000D01*
X137668000Y-98920300D01*
X137677667Y-98968901D01*
X137705197Y-99010103D01*
X137746399Y-99037633D01*
X137794913Y-99047300D01*
X147313583Y-99053820D01*
X147313564Y-99074969D01*
X147432214Y-99362123D01*
X147651721Y-99582014D01*
X147938668Y-99701164D01*
X148249369Y-99701436D01*
X148536523Y-99582786D01*
X148756414Y-99363279D01*
X148875564Y-99076332D01*
X148875583Y-99054889D01*
X156336913Y-99060000D01*
X156385520Y-99050366D01*
X156426741Y-99022864D01*
X156454299Y-98981681D01*
X156464000Y-98933000D01*
X156464000Y-91525609D01*
X159442838Y-91525609D01*
X159656285Y-91963285D01*
X159936520Y-92208000D01*
X159656285Y-92452715D01*
X159442838Y-92890391D01*
X159567569Y-93081000D01*
X160671300Y-93081000D01*
X160671300Y-91335000D01*
X160925300Y-91335000D01*
X160925300Y-93081000D01*
X162029031Y-93081000D01*
X162153762Y-92890391D01*
X161940315Y-92452715D01*
X161660080Y-92208000D01*
X161940315Y-91963285D01*
X162153762Y-91525609D01*
X162029031Y-91335000D01*
X160925300Y-91335000D01*
X160671300Y-91335000D01*
X159567569Y-91335000D01*
X159442838Y-91525609D01*
X156464000Y-91525609D01*
X156464000Y-90890391D01*
X159442838Y-90890391D01*
X159567569Y-91081000D01*
X160671300Y-91081000D01*
X160671300Y-90129955D01*
X160925300Y-90129955D01*
X160925300Y-91081000D01*
X162029031Y-91081000D01*
X162153762Y-90890391D01*
X161940315Y-90452715D01*
X161576681Y-90135172D01*
X161119208Y-89980957D01*
X160925300Y-90129955D01*
X160671300Y-90129955D01*
X160477392Y-89980957D01*
X160019919Y-90135172D01*
X159656285Y-90452715D01*
X159442838Y-90890391D01*
X156464000Y-90890391D01*
X156464000Y-88480900D01*
X156454333Y-88432299D01*
X156426803Y-88391097D01*
X156393796Y-88367308D01*
X156001774Y-88171297D01*
X155992579Y-88162086D01*
X155938153Y-88139487D01*
X155291966Y-87816393D01*
X155911112Y-87816393D01*
X156052578Y-88119582D01*
X156789055Y-88404537D01*
X157578518Y-88385964D01*
X158221622Y-88119582D01*
X158363088Y-87816393D01*
X159721112Y-87816393D01*
X159862578Y-88119582D01*
X160599055Y-88404537D01*
X161388518Y-88385964D01*
X162031622Y-88119582D01*
X162173088Y-87816393D01*
X160947100Y-86590405D01*
X159721112Y-87816393D01*
X158363088Y-87816393D01*
X157137100Y-86590405D01*
X155911112Y-87816393D01*
X155291966Y-87816393D01*
X154940000Y-87640410D01*
X154940000Y-87040318D01*
X155057799Y-86756628D01*
X155058400Y-86067993D01*
X155056236Y-86062755D01*
X155143363Y-86062755D01*
X155161936Y-86852218D01*
X155428318Y-87495322D01*
X155731507Y-87636788D01*
X156957495Y-86410800D01*
X157316705Y-86410800D01*
X158542693Y-87636788D01*
X158845882Y-87495322D01*
X159035414Y-87005468D01*
X159238318Y-87495322D01*
X159541507Y-87636788D01*
X160767495Y-86410800D01*
X159541507Y-85184812D01*
X159238318Y-85326278D01*
X159048786Y-85816132D01*
X158845882Y-85326278D01*
X158542693Y-85184812D01*
X157316705Y-86410800D01*
X156957495Y-86410800D01*
X155731507Y-85184812D01*
X155428318Y-85326278D01*
X155143363Y-86062755D01*
X155056236Y-86062755D01*
X154940000Y-85781443D01*
X154940000Y-85051900D01*
X154930333Y-85003299D01*
X154901975Y-84961277D01*
X154241500Y-84312811D01*
X154241500Y-83970677D01*
X154339903Y-84208243D01*
X154582087Y-84277708D01*
X155382695Y-83477100D01*
X154582087Y-82676492D01*
X154339903Y-82745957D01*
X154241500Y-83021778D01*
X154241500Y-81917313D01*
X154761692Y-81917313D01*
X154831157Y-82159497D01*
X154954644Y-82203553D01*
X154831157Y-82254703D01*
X154761692Y-82496887D01*
X155562300Y-83297495D01*
X156362908Y-82496887D01*
X156293443Y-82254703D01*
X156169956Y-82210647D01*
X156293443Y-82159497D01*
X156362908Y-81917313D01*
X155562300Y-81116705D01*
X154761692Y-81917313D01*
X154241500Y-81917313D01*
X154241500Y-81430677D01*
X154339903Y-81668243D01*
X154582087Y-81737708D01*
X155382695Y-80937100D01*
X155368553Y-80922958D01*
X155548158Y-80743353D01*
X155562300Y-80757495D01*
X156362908Y-79956887D01*
X156352643Y-79921100D01*
X157035500Y-79921100D01*
X157035500Y-80525715D01*
%TO.N,VDD*%
G36*
X127635000Y-71412100D02*
X127425450Y-71412100D01*
X127266700Y-71570850D01*
X127266700Y-72453500D01*
X127286700Y-72453500D01*
X127286700Y-72707500D01*
X127266700Y-72707500D01*
X127266700Y-73590150D01*
X127425450Y-73748900D01*
X127635000Y-73748900D01*
X127635000Y-74269462D01*
X127587037Y-74279002D01*
X127438711Y-74378110D01*
X126384611Y-75432211D01*
X126285502Y-75580537D01*
X126250700Y-75755500D01*
X126250700Y-76264936D01*
X125357900Y-76264936D01*
X125209241Y-76294506D01*
X125083214Y-76378714D01*
X124999006Y-76504741D01*
X124969436Y-76653400D01*
X124969436Y-79353400D01*
X124999006Y-79502059D01*
X125083214Y-79628086D01*
X125209241Y-79712294D01*
X125357900Y-79741864D01*
X127255958Y-79741864D01*
X127260234Y-79776816D01*
X127284617Y-79819955D01*
X127323652Y-79850480D01*
X127380653Y-79864096D01*
X127973799Y-79865078D01*
X128175310Y-80066589D01*
X128323637Y-80165698D01*
X128498600Y-80200500D01*
X128765300Y-80200500D01*
X128765300Y-80651350D01*
X128924050Y-80810100D01*
X130035300Y-80810100D01*
X130035300Y-80790100D01*
X130289300Y-80790100D01*
X130289300Y-80810100D01*
X130309300Y-80810100D01*
X130309300Y-81064100D01*
X130289300Y-81064100D01*
X130289300Y-81084100D01*
X130035300Y-81084100D01*
X130035300Y-81064100D01*
X128924050Y-81064100D01*
X128765300Y-81222850D01*
X128765300Y-81825410D01*
X128861973Y-82058799D01*
X129040602Y-82237427D01*
X129273991Y-82334100D01*
X129408384Y-82334100D01*
X129361692Y-82496887D01*
X130162300Y-83297495D01*
X130176443Y-83283353D01*
X130356048Y-83462958D01*
X130341905Y-83477100D01*
X130356048Y-83491243D01*
X130176443Y-83670848D01*
X130162300Y-83656705D01*
X129361692Y-84457313D01*
X129431157Y-84699497D01*
X129777152Y-84822936D01*
X129487848Y-84942474D01*
X129000486Y-85428987D01*
X128736401Y-86064972D01*
X128735800Y-86753607D01*
X128998774Y-87390052D01*
X129073033Y-87464440D01*
X127339205Y-90035493D01*
X127320047Y-90081193D01*
X127317500Y-90106500D01*
X127317500Y-95478600D01*
X127327167Y-95527201D01*
X127354697Y-95568403D01*
X127395899Y-95595933D01*
X127444500Y-95605600D01*
X127825500Y-95605600D01*
X127825500Y-95878650D01*
X127984250Y-96037400D01*
X128866900Y-96037400D01*
X128866900Y-96017400D01*
X129120900Y-96017400D01*
X129120900Y-96037400D01*
X130003550Y-96037400D01*
X130162300Y-95878650D01*
X130162300Y-95605600D01*
X130175000Y-95605600D01*
X130223601Y-95595933D01*
X130264803Y-95568403D01*
X130292333Y-95527201D01*
X130302000Y-95478600D01*
X130302000Y-95366569D01*
X132035464Y-95366569D01*
X132154114Y-95653723D01*
X132373621Y-95873614D01*
X132660568Y-95992764D01*
X132971269Y-95993036D01*
X133258423Y-95874386D01*
X133478314Y-95654879D01*
X133597464Y-95367932D01*
X133597736Y-95057231D01*
X133479086Y-94770077D01*
X133259579Y-94550186D01*
X132972632Y-94431036D01*
X132661931Y-94430764D01*
X132374777Y-94549414D01*
X132154886Y-94768921D01*
X132035736Y-95055868D01*
X132035464Y-95366569D01*
X130302000Y-95366569D01*
X130302000Y-92837000D01*
X140297520Y-92837000D01*
X142941003Y-94546149D01*
X142938500Y-94552191D01*
X142938500Y-94849950D01*
X143097250Y-95008700D01*
X143979900Y-95008700D01*
X143979900Y-94988700D01*
X144233900Y-94988700D01*
X144233900Y-95008700D01*
X145116550Y-95008700D01*
X145275300Y-94849950D01*
X145275300Y-94742000D01*
X146304000Y-94742000D01*
X146304000Y-98425000D01*
X143429981Y-98425000D01*
X142576651Y-97693574D01*
X142533459Y-97669285D01*
X142494000Y-97663000D01*
X138430000Y-97663000D01*
X138430000Y-95421450D01*
X142938500Y-95421450D01*
X142938500Y-95719209D01*
X143035173Y-95952598D01*
X143213801Y-96131227D01*
X143447190Y-96227900D01*
X143821150Y-96227900D01*
X143979900Y-96069150D01*
X143979900Y-95262700D01*
X144233900Y-95262700D01*
X144233900Y-96069150D01*
X144392650Y-96227900D01*
X144766610Y-96227900D01*
X144999999Y-96131227D01*
X145178627Y-95952598D01*
X145275300Y-95719209D01*
X145275300Y-95421450D01*
X145116550Y-95262700D01*
X144233900Y-95262700D01*
X143979900Y-95262700D01*
X143097250Y-95262700D01*
X142938500Y-95421450D01*
X138430000Y-95421450D01*
X138430000Y-94234000D01*
X138420333Y-94185399D01*
X138392803Y-94144197D01*
X138351601Y-94116667D01*
X138303000Y-94107000D01*
X135128000Y-94107000D01*
X135079399Y-94116667D01*
X135038197Y-94144197D01*
X135010667Y-94185399D01*
X135001000Y-94234000D01*
X135001000Y-97663000D01*
X131508500Y-97663000D01*
X131459899Y-97672667D01*
X131418697Y-97700197D01*
X131391167Y-97741399D01*
X131381500Y-97790000D01*
X131381500Y-99733100D01*
X131391167Y-99781701D01*
X131418697Y-99822903D01*
X131459899Y-99850433D01*
X131508500Y-99860100D01*
X134874000Y-99860100D01*
X134874000Y-101690789D01*
X134692093Y-101605912D01*
X133466105Y-102831900D01*
X134692093Y-104057888D01*
X134874000Y-103973011D01*
X134874000Y-104267409D01*
X134758386Y-104382821D01*
X134639236Y-104669768D01*
X134638964Y-104980469D01*
X134757614Y-105267623D01*
X134874000Y-105384213D01*
X134874000Y-105448100D01*
X128459378Y-105448100D01*
X128212683Y-105201405D01*
X128212936Y-104912431D01*
X128173463Y-104816900D01*
X129190750Y-104816900D01*
X129349500Y-104658150D01*
X129349500Y-102958900D01*
X127650250Y-102958900D01*
X127491500Y-103117650D01*
X127491500Y-104286152D01*
X127277131Y-104285964D01*
X126989977Y-104404614D01*
X126770086Y-104624121D01*
X126650936Y-104911068D01*
X126650883Y-104971861D01*
X126540531Y-104971764D01*
X126253377Y-105090414D01*
X126102260Y-105241267D01*
X123659600Y-104722861D01*
X123649776Y-101355590D01*
X127491500Y-101355590D01*
X127491500Y-102546150D01*
X127650250Y-102704900D01*
X129349500Y-102704900D01*
X129349500Y-101005650D01*
X129603500Y-101005650D01*
X129603500Y-102704900D01*
X129623500Y-102704900D01*
X129623500Y-102958900D01*
X129603500Y-102958900D01*
X129603500Y-104658150D01*
X129762250Y-104816900D01*
X130952809Y-104816900D01*
X131186198Y-104720227D01*
X131364827Y-104541599D01*
X131461500Y-104308210D01*
X131461500Y-104237493D01*
X132060512Y-104237493D01*
X132201978Y-104540682D01*
X132938455Y-104825637D01*
X133727918Y-104807064D01*
X134371022Y-104540682D01*
X134512488Y-104237493D01*
X133286500Y-103011505D01*
X132060512Y-104237493D01*
X131461500Y-104237493D01*
X131461500Y-103635847D01*
X131577718Y-103916422D01*
X131880907Y-104057888D01*
X133106895Y-102831900D01*
X131880907Y-101605912D01*
X131577718Y-101747378D01*
X131461500Y-102047748D01*
X131461500Y-101426307D01*
X132060512Y-101426307D01*
X133286500Y-102652295D01*
X134512488Y-101426307D01*
X134371022Y-101123118D01*
X133634545Y-100838163D01*
X132845082Y-100856736D01*
X132201978Y-101123118D01*
X132060512Y-101426307D01*
X131461500Y-101426307D01*
X131461500Y-101355590D01*
X131364827Y-101122201D01*
X131186198Y-100943573D01*
X130952809Y-100846900D01*
X129762250Y-100846900D01*
X129603500Y-101005650D01*
X129349500Y-101005650D01*
X129190750Y-100846900D01*
X128000191Y-100846900D01*
X127766802Y-100943573D01*
X127588173Y-101122201D01*
X127491500Y-101355590D01*
X123649776Y-101355590D01*
X123635464Y-96450150D01*
X127825500Y-96450150D01*
X127825500Y-96747909D01*
X127922173Y-96981298D01*
X128100801Y-97159927D01*
X128334190Y-97256600D01*
X128708150Y-97256600D01*
X128866900Y-97097850D01*
X128866900Y-96291400D01*
X129120900Y-96291400D01*
X129120900Y-97097850D01*
X129279650Y-97256600D01*
X129653610Y-97256600D01*
X129886999Y-97159927D01*
X130065627Y-96981298D01*
X130162300Y-96747909D01*
X130162300Y-96450150D01*
X130003550Y-96291400D01*
X129120900Y-96291400D01*
X128866900Y-96291400D01*
X127984250Y-96291400D01*
X127825500Y-96450150D01*
X123635464Y-96450150D01*
X123607900Y-87002662D01*
X123607900Y-85060800D01*
X124918636Y-85060800D01*
X124918636Y-87760800D01*
X124948206Y-87909459D01*
X125032414Y-88035486D01*
X125158441Y-88119694D01*
X125307100Y-88149264D01*
X128007100Y-88149264D01*
X128155759Y-88119694D01*
X128281786Y-88035486D01*
X128365994Y-87909459D01*
X128395564Y-87760800D01*
X128395564Y-85060800D01*
X128365994Y-84912141D01*
X128281786Y-84786114D01*
X128155759Y-84701906D01*
X128007100Y-84672336D01*
X125307100Y-84672336D01*
X125158441Y-84701906D01*
X125032414Y-84786114D01*
X124948206Y-84912141D01*
X124918636Y-85060800D01*
X123607900Y-85060800D01*
X123607900Y-83269402D01*
X128753156Y-83269402D01*
X128780938Y-83824468D01*
X128939903Y-84208243D01*
X129182087Y-84277708D01*
X129982695Y-83477100D01*
X129182087Y-82676492D01*
X128939903Y-82745957D01*
X128753156Y-83269402D01*
X123607900Y-83269402D01*
X123607900Y-72866250D01*
X126047500Y-72866250D01*
X126047500Y-73240210D01*
X126144173Y-73473599D01*
X126322802Y-73652227D01*
X126556191Y-73748900D01*
X126853950Y-73748900D01*
X127012700Y-73590150D01*
X127012700Y-72707500D01*
X126206250Y-72707500D01*
X126047500Y-72866250D01*
X123607900Y-72866250D01*
X123607900Y-71920790D01*
X126047500Y-71920790D01*
X126047500Y-72294750D01*
X126206250Y-72453500D01*
X127012700Y-72453500D01*
X127012700Y-71570850D01*
X126853950Y-71412100D01*
X126556191Y-71412100D01*
X126322802Y-71508773D01*
X126144173Y-71687401D01*
X126047500Y-71920790D01*
X123607900Y-71920790D01*
X123607900Y-70369389D01*
X127635000Y-70368131D01*
X127635000Y-71412100D01*
X127635000Y-71412100D01*
G37*
X127635000Y-71412100D02*
X127425450Y-71412100D01*
X127266700Y-71570850D01*
X127266700Y-72453500D01*
X127286700Y-72453500D01*
X127286700Y-72707500D01*
X127266700Y-72707500D01*
X127266700Y-73590150D01*
X127425450Y-73748900D01*
X127635000Y-73748900D01*
X127635000Y-74269462D01*
X127587037Y-74279002D01*
X127438711Y-74378110D01*
X126384611Y-75432211D01*
X126285502Y-75580537D01*
X126250700Y-75755500D01*
X126250700Y-76264936D01*
X125357900Y-76264936D01*
X125209241Y-76294506D01*
X125083214Y-76378714D01*
X124999006Y-76504741D01*
X124969436Y-76653400D01*
X124969436Y-79353400D01*
X124999006Y-79502059D01*
X125083214Y-79628086D01*
X125209241Y-79712294D01*
X125357900Y-79741864D01*
X127255958Y-79741864D01*
X127260234Y-79776816D01*
X127284617Y-79819955D01*
X127323652Y-79850480D01*
X127380653Y-79864096D01*
X127973799Y-79865078D01*
X128175310Y-80066589D01*
X128323637Y-80165698D01*
X128498600Y-80200500D01*
X128765300Y-80200500D01*
X128765300Y-80651350D01*
X128924050Y-80810100D01*
X130035300Y-80810100D01*
X130035300Y-80790100D01*
X130289300Y-80790100D01*
X130289300Y-80810100D01*
X130309300Y-80810100D01*
X130309300Y-81064100D01*
X130289300Y-81064100D01*
X130289300Y-81084100D01*
X130035300Y-81084100D01*
X130035300Y-81064100D01*
X128924050Y-81064100D01*
X128765300Y-81222850D01*
X128765300Y-81825410D01*
X128861973Y-82058799D01*
X129040602Y-82237427D01*
X129273991Y-82334100D01*
X129408384Y-82334100D01*
X129361692Y-82496887D01*
X130162300Y-83297495D01*
X130176443Y-83283353D01*
X130356048Y-83462958D01*
X130341905Y-83477100D01*
X130356048Y-83491243D01*
X130176443Y-83670848D01*
X130162300Y-83656705D01*
X129361692Y-84457313D01*
X129431157Y-84699497D01*
X129777152Y-84822936D01*
X129487848Y-84942474D01*
X129000486Y-85428987D01*
X128736401Y-86064972D01*
X128735800Y-86753607D01*
X128998774Y-87390052D01*
X129073033Y-87464440D01*
X127339205Y-90035493D01*
X127320047Y-90081193D01*
X127317500Y-90106500D01*
X127317500Y-95478600D01*
X127327167Y-95527201D01*
X127354697Y-95568403D01*
X127395899Y-95595933D01*
X127444500Y-95605600D01*
X127825500Y-95605600D01*
X127825500Y-95878650D01*
X127984250Y-96037400D01*
X128866900Y-96037400D01*
X128866900Y-96017400D01*
X129120900Y-96017400D01*
X129120900Y-96037400D01*
X130003550Y-96037400D01*
X130162300Y-95878650D01*
X130162300Y-95605600D01*
X130175000Y-95605600D01*
X130223601Y-95595933D01*
X130264803Y-95568403D01*
X130292333Y-95527201D01*
X130302000Y-95478600D01*
X130302000Y-95366569D01*
X132035464Y-95366569D01*
X132154114Y-95653723D01*
X132373621Y-95873614D01*
X132660568Y-95992764D01*
X132971269Y-95993036D01*
X133258423Y-95874386D01*
X133478314Y-95654879D01*
X133597464Y-95367932D01*
X133597736Y-95057231D01*
X133479086Y-94770077D01*
X133259579Y-94550186D01*
X132972632Y-94431036D01*
X132661931Y-94430764D01*
X132374777Y-94549414D01*
X132154886Y-94768921D01*
X132035736Y-95055868D01*
X132035464Y-95366569D01*
X130302000Y-95366569D01*
X130302000Y-92837000D01*
X140297520Y-92837000D01*
X142941003Y-94546149D01*
X142938500Y-94552191D01*
X142938500Y-94849950D01*
X143097250Y-95008700D01*
X143979900Y-95008700D01*
X143979900Y-94988700D01*
X144233900Y-94988700D01*
X144233900Y-95008700D01*
X145116550Y-95008700D01*
X145275300Y-94849950D01*
X145275300Y-94742000D01*
X146304000Y-94742000D01*
X146304000Y-98425000D01*
X143429981Y-98425000D01*
X142576651Y-97693574D01*
X142533459Y-97669285D01*
X142494000Y-97663000D01*
X138430000Y-97663000D01*
X138430000Y-95421450D01*
X142938500Y-95421450D01*
X142938500Y-95719209D01*
X143035173Y-95952598D01*
X143213801Y-96131227D01*
X143447190Y-96227900D01*
X143821150Y-96227900D01*
X143979900Y-96069150D01*
X143979900Y-95262700D01*
X144233900Y-95262700D01*
X144233900Y-96069150D01*
X144392650Y-96227900D01*
X144766610Y-96227900D01*
X144999999Y-96131227D01*
X145178627Y-95952598D01*
X145275300Y-95719209D01*
X145275300Y-95421450D01*
X145116550Y-95262700D01*
X144233900Y-95262700D01*
X143979900Y-95262700D01*
X143097250Y-95262700D01*
X142938500Y-95421450D01*
X138430000Y-95421450D01*
X138430000Y-94234000D01*
X138420333Y-94185399D01*
X138392803Y-94144197D01*
X138351601Y-94116667D01*
X138303000Y-94107000D01*
X135128000Y-94107000D01*
X135079399Y-94116667D01*
X135038197Y-94144197D01*
X135010667Y-94185399D01*
X135001000Y-94234000D01*
X135001000Y-97663000D01*
X131508500Y-97663000D01*
X131459899Y-97672667D01*
X131418697Y-97700197D01*
X131391167Y-97741399D01*
X131381500Y-97790000D01*
X131381500Y-99733100D01*
X131391167Y-99781701D01*
X131418697Y-99822903D01*
X131459899Y-99850433D01*
X131508500Y-99860100D01*
X134874000Y-99860100D01*
X134874000Y-101690789D01*
X134692093Y-101605912D01*
X133466105Y-102831900D01*
X134692093Y-104057888D01*
X134874000Y-103973011D01*
X134874000Y-104267409D01*
X134758386Y-104382821D01*
X134639236Y-104669768D01*
X134638964Y-104980469D01*
X134757614Y-105267623D01*
X134874000Y-105384213D01*
X134874000Y-105448100D01*
X128459378Y-105448100D01*
X128212683Y-105201405D01*
X128212936Y-104912431D01*
X128173463Y-104816900D01*
X129190750Y-104816900D01*
X129349500Y-104658150D01*
X129349500Y-102958900D01*
X127650250Y-102958900D01*
X127491500Y-103117650D01*
X127491500Y-104286152D01*
X127277131Y-104285964D01*
X126989977Y-104404614D01*
X126770086Y-104624121D01*
X126650936Y-104911068D01*
X126650883Y-104971861D01*
X126540531Y-104971764D01*
X126253377Y-105090414D01*
X126102260Y-105241267D01*
X123659600Y-104722861D01*
X123649776Y-101355590D01*
X127491500Y-101355590D01*
X127491500Y-102546150D01*
X127650250Y-102704900D01*
X129349500Y-102704900D01*
X129349500Y-101005650D01*
X129603500Y-101005650D01*
X129603500Y-102704900D01*
X129623500Y-102704900D01*
X129623500Y-102958900D01*
X129603500Y-102958900D01*
X129603500Y-104658150D01*
X129762250Y-104816900D01*
X130952809Y-104816900D01*
X131186198Y-104720227D01*
X131364827Y-104541599D01*
X131461500Y-104308210D01*
X131461500Y-104237493D01*
X132060512Y-104237493D01*
X132201978Y-104540682D01*
X132938455Y-104825637D01*
X133727918Y-104807064D01*
X134371022Y-104540682D01*
X134512488Y-104237493D01*
X133286500Y-103011505D01*
X132060512Y-104237493D01*
X131461500Y-104237493D01*
X131461500Y-103635847D01*
X131577718Y-103916422D01*
X131880907Y-104057888D01*
X133106895Y-102831900D01*
X131880907Y-101605912D01*
X131577718Y-101747378D01*
X131461500Y-102047748D01*
X131461500Y-101426307D01*
X132060512Y-101426307D01*
X133286500Y-102652295D01*
X134512488Y-101426307D01*
X134371022Y-101123118D01*
X133634545Y-100838163D01*
X132845082Y-100856736D01*
X132201978Y-101123118D01*
X132060512Y-101426307D01*
X131461500Y-101426307D01*
X131461500Y-101355590D01*
X131364827Y-101122201D01*
X131186198Y-100943573D01*
X130952809Y-100846900D01*
X129762250Y-100846900D01*
X129603500Y-101005650D01*
X129349500Y-101005650D01*
X129190750Y-100846900D01*
X128000191Y-100846900D01*
X127766802Y-100943573D01*
X127588173Y-101122201D01*
X127491500Y-101355590D01*
X123649776Y-101355590D01*
X123635464Y-96450150D01*
X127825500Y-96450150D01*
X127825500Y-96747909D01*
X127922173Y-96981298D01*
X128100801Y-97159927D01*
X128334190Y-97256600D01*
X128708150Y-97256600D01*
X128866900Y-97097850D01*
X128866900Y-96291400D01*
X129120900Y-96291400D01*
X129120900Y-97097850D01*
X129279650Y-97256600D01*
X129653610Y-97256600D01*
X129886999Y-97159927D01*
X130065627Y-96981298D01*
X130162300Y-96747909D01*
X130162300Y-96450150D01*
X130003550Y-96291400D01*
X129120900Y-96291400D01*
X128866900Y-96291400D01*
X127984250Y-96291400D01*
X127825500Y-96450150D01*
X123635464Y-96450150D01*
X123607900Y-87002662D01*
X123607900Y-85060800D01*
X124918636Y-85060800D01*
X124918636Y-87760800D01*
X124948206Y-87909459D01*
X125032414Y-88035486D01*
X125158441Y-88119694D01*
X125307100Y-88149264D01*
X128007100Y-88149264D01*
X128155759Y-88119694D01*
X128281786Y-88035486D01*
X128365994Y-87909459D01*
X128395564Y-87760800D01*
X128395564Y-85060800D01*
X128365994Y-84912141D01*
X128281786Y-84786114D01*
X128155759Y-84701906D01*
X128007100Y-84672336D01*
X125307100Y-84672336D01*
X125158441Y-84701906D01*
X125032414Y-84786114D01*
X124948206Y-84912141D01*
X124918636Y-85060800D01*
X123607900Y-85060800D01*
X123607900Y-83269402D01*
X128753156Y-83269402D01*
X128780938Y-83824468D01*
X128939903Y-84208243D01*
X129182087Y-84277708D01*
X129982695Y-83477100D01*
X129182087Y-82676492D01*
X128939903Y-82745957D01*
X128753156Y-83269402D01*
X123607900Y-83269402D01*
X123607900Y-72866250D01*
X126047500Y-72866250D01*
X126047500Y-73240210D01*
X126144173Y-73473599D01*
X126322802Y-73652227D01*
X126556191Y-73748900D01*
X126853950Y-73748900D01*
X127012700Y-73590150D01*
X127012700Y-72707500D01*
X126206250Y-72707500D01*
X126047500Y-72866250D01*
X123607900Y-72866250D01*
X123607900Y-71920790D01*
X126047500Y-71920790D01*
X126047500Y-72294750D01*
X126206250Y-72453500D01*
X127012700Y-72453500D01*
X127012700Y-71570850D01*
X126853950Y-71412100D01*
X126556191Y-71412100D01*
X126322802Y-71508773D01*
X126144173Y-71687401D01*
X126047500Y-71920790D01*
X123607900Y-71920790D01*
X123607900Y-70369389D01*
X127635000Y-70368131D01*
X127635000Y-71412100D01*
%TO.N,GND*%
G36*
X141551272Y-88141499D02*
X141859000Y-88141768D01*
X141859000Y-91059000D01*
X141868667Y-91107601D01*
X141896197Y-91148803D01*
X141938833Y-91176917D01*
X142573833Y-91430917D01*
X142621000Y-91440000D01*
X142673538Y-91440000D01*
X142718968Y-91458864D01*
X143029669Y-91459136D01*
X143075982Y-91440000D01*
X145542000Y-91440000D01*
X145542000Y-93180242D01*
X145464486Y-93257621D01*
X145345336Y-93544568D01*
X145345065Y-93854484D01*
X145232849Y-93854999D01*
X145116550Y-93738700D01*
X144233900Y-93738700D01*
X144233900Y-93758700D01*
X143979900Y-93758700D01*
X143979900Y-93738700D01*
X143097250Y-93738700D01*
X142970574Y-93865376D01*
X142937950Y-93865526D01*
X141656574Y-93028191D01*
X142938500Y-93028191D01*
X142938500Y-93325950D01*
X143097250Y-93484700D01*
X143979900Y-93484700D01*
X143979900Y-92678250D01*
X144233900Y-92678250D01*
X144233900Y-93484700D01*
X145116550Y-93484700D01*
X145275300Y-93325950D01*
X145275300Y-93028191D01*
X145178627Y-92794802D01*
X144999999Y-92616173D01*
X144766610Y-92519500D01*
X144392650Y-92519500D01*
X144233900Y-92678250D01*
X143979900Y-92678250D01*
X143821150Y-92519500D01*
X143447190Y-92519500D01*
X143213801Y-92616173D01*
X143035173Y-92794802D01*
X142938500Y-93028191D01*
X141656574Y-93028191D01*
X140404472Y-92209986D01*
X140335000Y-92189300D01*
X138303000Y-92189300D01*
X138303000Y-88141989D01*
X138429907Y-88142100D01*
X138439830Y-88138000D01*
X141542846Y-88138000D01*
X141551272Y-88141499D01*
X141551272Y-88141499D01*
G37*
X141551272Y-88141499D02*
X141859000Y-88141768D01*
X141859000Y-91059000D01*
X141868667Y-91107601D01*
X141896197Y-91148803D01*
X141938833Y-91176917D01*
X142573833Y-91430917D01*
X142621000Y-91440000D01*
X142673538Y-91440000D01*
X142718968Y-91458864D01*
X143029669Y-91459136D01*
X143075982Y-91440000D01*
X145542000Y-91440000D01*
X145542000Y-93180242D01*
X145464486Y-93257621D01*
X145345336Y-93544568D01*
X145345065Y-93854484D01*
X145232849Y-93854999D01*
X145116550Y-93738700D01*
X144233900Y-93738700D01*
X144233900Y-93758700D01*
X143979900Y-93758700D01*
X143979900Y-93738700D01*
X143097250Y-93738700D01*
X142970574Y-93865376D01*
X142937950Y-93865526D01*
X141656574Y-93028191D01*
X142938500Y-93028191D01*
X142938500Y-93325950D01*
X143097250Y-93484700D01*
X143979900Y-93484700D01*
X143979900Y-92678250D01*
X144233900Y-92678250D01*
X144233900Y-93484700D01*
X145116550Y-93484700D01*
X145275300Y-93325950D01*
X145275300Y-93028191D01*
X145178627Y-92794802D01*
X144999999Y-92616173D01*
X144766610Y-92519500D01*
X144392650Y-92519500D01*
X144233900Y-92678250D01*
X143979900Y-92678250D01*
X143821150Y-92519500D01*
X143447190Y-92519500D01*
X143213801Y-92616173D01*
X143035173Y-92794802D01*
X142938500Y-93028191D01*
X141656574Y-93028191D01*
X140404472Y-92209986D01*
X140335000Y-92189300D01*
X138303000Y-92189300D01*
X138303000Y-88141989D01*
X138429907Y-88142100D01*
X138439830Y-88138000D01*
X141542846Y-88138000D01*
X141551272Y-88141499D01*
G36*
X163539100Y-108429377D02*
X163277899Y-108427163D01*
X163176345Y-108295000D01*
X162225300Y-108295000D01*
X162225300Y-108315000D01*
X161971300Y-108315000D01*
X161971300Y-108295000D01*
X161951300Y-108295000D01*
X161951300Y-108041000D01*
X161971300Y-108041000D01*
X161971300Y-106937269D01*
X162225300Y-106937269D01*
X162225300Y-108041000D01*
X163176345Y-108041000D01*
X163325343Y-107847092D01*
X163171128Y-107389619D01*
X162853585Y-107025985D01*
X162415909Y-106812538D01*
X162225300Y-106937269D01*
X161971300Y-106937269D01*
X161780691Y-106812538D01*
X161343015Y-107025985D01*
X161042091Y-107370588D01*
X161036425Y-106373491D01*
X161215589Y-106273955D01*
X161589551Y-106119437D01*
X161709809Y-105999389D01*
X162113677Y-105775018D01*
X162151467Y-105742965D01*
X162174114Y-105698890D01*
X162179000Y-105664000D01*
X162179000Y-105248128D01*
X162189059Y-105223903D01*
X162189539Y-104674507D01*
X162179000Y-104649001D01*
X162179000Y-96855700D01*
X162628148Y-96855700D01*
X162807971Y-96819931D01*
X162960417Y-96718069D01*
X163031486Y-96647000D01*
X163539100Y-96647000D01*
X163539100Y-108429377D01*
X163539100Y-108429377D01*
G37*
X163539100Y-108429377D02*
X163277899Y-108427163D01*
X163176345Y-108295000D01*
X162225300Y-108295000D01*
X162225300Y-108315000D01*
X161971300Y-108315000D01*
X161971300Y-108295000D01*
X161951300Y-108295000D01*
X161951300Y-108041000D01*
X161971300Y-108041000D01*
X161971300Y-106937269D01*
X162225300Y-106937269D01*
X162225300Y-108041000D01*
X163176345Y-108041000D01*
X163325343Y-107847092D01*
X163171128Y-107389619D01*
X162853585Y-107025985D01*
X162415909Y-106812538D01*
X162225300Y-106937269D01*
X161971300Y-106937269D01*
X161780691Y-106812538D01*
X161343015Y-107025985D01*
X161042091Y-107370588D01*
X161036425Y-106373491D01*
X161215589Y-106273955D01*
X161589551Y-106119437D01*
X161709809Y-105999389D01*
X162113677Y-105775018D01*
X162151467Y-105742965D01*
X162174114Y-105698890D01*
X162179000Y-105664000D01*
X162179000Y-105248128D01*
X162189059Y-105223903D01*
X162189539Y-104674507D01*
X162179000Y-104649001D01*
X162179000Y-96855700D01*
X162628148Y-96855700D01*
X162807971Y-96819931D01*
X162960417Y-96718069D01*
X163031486Y-96647000D01*
X163539100Y-96647000D01*
X163539100Y-108429377D01*
G36*
X163539100Y-80137000D02*
X158918633Y-80137000D01*
X158877000Y-80095294D01*
X158877000Y-79408993D01*
X159771912Y-79408993D01*
X159913378Y-79712182D01*
X160649855Y-79997137D01*
X161439318Y-79978564D01*
X162082422Y-79712182D01*
X162223888Y-79408993D01*
X160997900Y-78183005D01*
X159771912Y-79408993D01*
X158877000Y-79408993D01*
X158877000Y-78449409D01*
X158918599Y-78349228D01*
X158919200Y-77660593D01*
X158917036Y-77655355D01*
X159004163Y-77655355D01*
X159022736Y-78444818D01*
X159289118Y-79087922D01*
X159592307Y-79229388D01*
X160818295Y-78003400D01*
X161177505Y-78003400D01*
X162403493Y-79229388D01*
X162706682Y-79087922D01*
X162991637Y-78351445D01*
X162973064Y-77561982D01*
X162706682Y-76918878D01*
X162403493Y-76777412D01*
X161177505Y-78003400D01*
X160818295Y-78003400D01*
X159592307Y-76777412D01*
X159289118Y-76918878D01*
X159004163Y-77655355D01*
X158917036Y-77655355D01*
X158877000Y-77558461D01*
X158877000Y-76597807D01*
X159771912Y-76597807D01*
X160997900Y-77823795D01*
X162223888Y-76597807D01*
X162082422Y-76294618D01*
X161345945Y-76009663D01*
X160556482Y-76028236D01*
X159913378Y-76294618D01*
X159771912Y-76597807D01*
X158877000Y-76597807D01*
X158877000Y-76073000D01*
X158867333Y-76024399D01*
X158839803Y-75983197D01*
X158798601Y-75955667D01*
X158750000Y-75946000D01*
X156337000Y-75946000D01*
X156337000Y-74302790D01*
X156511300Y-74188731D01*
X156511300Y-73085000D01*
X156765300Y-73085000D01*
X156765300Y-74188731D01*
X156955909Y-74313462D01*
X157393585Y-74100015D01*
X157711128Y-73736381D01*
X157763341Y-73581493D01*
X158557061Y-73581493D01*
X158766863Y-74089251D01*
X159155005Y-74478072D01*
X159662397Y-74688759D01*
X160211793Y-74689239D01*
X160719551Y-74479437D01*
X161108372Y-74091295D01*
X161319059Y-73583903D01*
X161319539Y-73034507D01*
X161109737Y-72526749D01*
X160721595Y-72137928D01*
X160214203Y-71927241D01*
X159664807Y-71926761D01*
X159157049Y-72136563D01*
X158768228Y-72524705D01*
X158557541Y-73032097D01*
X158557061Y-73581493D01*
X157763341Y-73581493D01*
X157865343Y-73278908D01*
X157716345Y-73085000D01*
X156765300Y-73085000D01*
X156511300Y-73085000D01*
X156491300Y-73085000D01*
X156491300Y-72831000D01*
X156511300Y-72831000D01*
X156511300Y-71727269D01*
X156765300Y-71727269D01*
X156765300Y-72831000D01*
X157716345Y-72831000D01*
X157865343Y-72637092D01*
X157711128Y-72179619D01*
X157393585Y-71815985D01*
X156955909Y-71602538D01*
X156765300Y-71727269D01*
X156511300Y-71727269D01*
X156320691Y-71602538D01*
X156190387Y-71666085D01*
X139712798Y-71653400D01*
X139664190Y-71663030D01*
X139638272Y-71677495D01*
X138129676Y-72768618D01*
X138029737Y-72526749D01*
X137641595Y-72137928D01*
X137134203Y-71927241D01*
X136584807Y-71926761D01*
X136077049Y-72136563D01*
X135688228Y-72524705D01*
X135477541Y-73032097D01*
X135477061Y-73581493D01*
X135686863Y-74089251D01*
X135841520Y-74244179D01*
X131950530Y-74244179D01*
X131949294Y-74015600D01*
X132213350Y-74015600D01*
X132372100Y-73856850D01*
X132372100Y-72720200D01*
X132626100Y-72720200D01*
X132626100Y-73856850D01*
X132784850Y-74015600D01*
X133158809Y-74015600D01*
X133392198Y-73918927D01*
X133570827Y-73740299D01*
X133667500Y-73506910D01*
X133667500Y-72878950D01*
X133508750Y-72720200D01*
X132626100Y-72720200D01*
X132372100Y-72720200D01*
X132352100Y-72720200D01*
X132352100Y-72466200D01*
X132372100Y-72466200D01*
X132372100Y-71329550D01*
X132626100Y-71329550D01*
X132626100Y-72466200D01*
X133508750Y-72466200D01*
X133667500Y-72307450D01*
X133667500Y-71679490D01*
X133570827Y-71446101D01*
X133392198Y-71267473D01*
X133158809Y-71170800D01*
X132784850Y-71170800D01*
X132626100Y-71329550D01*
X132372100Y-71329550D01*
X132213350Y-71170800D01*
X131933917Y-71170800D01*
X131929571Y-70366789D01*
X163539100Y-70356911D01*
X163539100Y-80137000D01*
X163539100Y-80137000D01*
G37*
X163539100Y-80137000D02*
X158918633Y-80137000D01*
X158877000Y-80095294D01*
X158877000Y-79408993D01*
X159771912Y-79408993D01*
X159913378Y-79712182D01*
X160649855Y-79997137D01*
X161439318Y-79978564D01*
X162082422Y-79712182D01*
X162223888Y-79408993D01*
X160997900Y-78183005D01*
X159771912Y-79408993D01*
X158877000Y-79408993D01*
X158877000Y-78449409D01*
X158918599Y-78349228D01*
X158919200Y-77660593D01*
X158917036Y-77655355D01*
X159004163Y-77655355D01*
X159022736Y-78444818D01*
X159289118Y-79087922D01*
X159592307Y-79229388D01*
X160818295Y-78003400D01*
X161177505Y-78003400D01*
X162403493Y-79229388D01*
X162706682Y-79087922D01*
X162991637Y-78351445D01*
X162973064Y-77561982D01*
X162706682Y-76918878D01*
X162403493Y-76777412D01*
X161177505Y-78003400D01*
X160818295Y-78003400D01*
X159592307Y-76777412D01*
X159289118Y-76918878D01*
X159004163Y-77655355D01*
X158917036Y-77655355D01*
X158877000Y-77558461D01*
X158877000Y-76597807D01*
X159771912Y-76597807D01*
X160997900Y-77823795D01*
X162223888Y-76597807D01*
X162082422Y-76294618D01*
X161345945Y-76009663D01*
X160556482Y-76028236D01*
X159913378Y-76294618D01*
X159771912Y-76597807D01*
X158877000Y-76597807D01*
X158877000Y-76073000D01*
X158867333Y-76024399D01*
X158839803Y-75983197D01*
X158798601Y-75955667D01*
X158750000Y-75946000D01*
X156337000Y-75946000D01*
X156337000Y-74302790D01*
X156511300Y-74188731D01*
X156511300Y-73085000D01*
X156765300Y-73085000D01*
X156765300Y-74188731D01*
X156955909Y-74313462D01*
X157393585Y-74100015D01*
X157711128Y-73736381D01*
X157763341Y-73581493D01*
X158557061Y-73581493D01*
X158766863Y-74089251D01*
X159155005Y-74478072D01*
X159662397Y-74688759D01*
X160211793Y-74689239D01*
X160719551Y-74479437D01*
X161108372Y-74091295D01*
X161319059Y-73583903D01*
X161319539Y-73034507D01*
X161109737Y-72526749D01*
X160721595Y-72137928D01*
X160214203Y-71927241D01*
X159664807Y-71926761D01*
X159157049Y-72136563D01*
X158768228Y-72524705D01*
X158557541Y-73032097D01*
X158557061Y-73581493D01*
X157763341Y-73581493D01*
X157865343Y-73278908D01*
X157716345Y-73085000D01*
X156765300Y-73085000D01*
X156511300Y-73085000D01*
X156491300Y-73085000D01*
X156491300Y-72831000D01*
X156511300Y-72831000D01*
X156511300Y-71727269D01*
X156765300Y-71727269D01*
X156765300Y-72831000D01*
X157716345Y-72831000D01*
X157865343Y-72637092D01*
X157711128Y-72179619D01*
X157393585Y-71815985D01*
X156955909Y-71602538D01*
X156765300Y-71727269D01*
X156511300Y-71727269D01*
X156320691Y-71602538D01*
X156190387Y-71666085D01*
X139712798Y-71653400D01*
X139664190Y-71663030D01*
X139638272Y-71677495D01*
X138129676Y-72768618D01*
X138029737Y-72526749D01*
X137641595Y-72137928D01*
X137134203Y-71927241D01*
X136584807Y-71926761D01*
X136077049Y-72136563D01*
X135688228Y-72524705D01*
X135477541Y-73032097D01*
X135477061Y-73581493D01*
X135686863Y-74089251D01*
X135841520Y-74244179D01*
X131950530Y-74244179D01*
X131949294Y-74015600D01*
X132213350Y-74015600D01*
X132372100Y-73856850D01*
X132372100Y-72720200D01*
X132626100Y-72720200D01*
X132626100Y-73856850D01*
X132784850Y-74015600D01*
X133158809Y-74015600D01*
X133392198Y-73918927D01*
X133570827Y-73740299D01*
X133667500Y-73506910D01*
X133667500Y-72878950D01*
X133508750Y-72720200D01*
X132626100Y-72720200D01*
X132372100Y-72720200D01*
X132352100Y-72720200D01*
X132352100Y-72466200D01*
X132372100Y-72466200D01*
X132372100Y-71329550D01*
X132626100Y-71329550D01*
X132626100Y-72466200D01*
X133508750Y-72466200D01*
X133667500Y-72307450D01*
X133667500Y-71679490D01*
X133570827Y-71446101D01*
X133392198Y-71267473D01*
X133158809Y-71170800D01*
X132784850Y-71170800D01*
X132626100Y-71329550D01*
X132372100Y-71329550D01*
X132213350Y-71170800D01*
X131933917Y-71170800D01*
X131929571Y-70366789D01*
X163539100Y-70356911D01*
X163539100Y-80137000D01*
%TD*%
M02*
