%TF.GenerationSoftware,KiCad,Pcbnew,no-vcs-found-f685cfa~60~ubuntu16.04.1*%
%TF.CreationDate,2017-10-11T22:15:00+02:00*%
%TF.ProjectId,usb_alien,7573625F616C69656E2E6B696361645F,rev?*%
%TF.SameCoordinates,Original*%
%TF.FileFunction,Copper,L2,Bot,Signal*%
%TF.FilePolarity,Positive*%
%FSLAX46Y46*%
G04 Gerber Fmt 4.6, Leading zero omitted, Abs format (unit mm)*
G04 Created by KiCad (PCBNEW no-vcs-found-f685cfa~60~ubuntu16.04.1) date Wed Oct 11 22:15:00 2017*
%MOMM*%
%LPD*%
G01*
G04 APERTURE LIST*
%TA.AperFunction,ComponentPad*%
%ADD10C,2.700000*%
%TD*%
%TA.AperFunction,ComponentPad*%
%ADD11R,2.700000X2.700000*%
%TD*%
%TA.AperFunction,SMDPad,CuDef*%
%ADD12R,0.600000X2.200000*%
%TD*%
%TA.AperFunction,ComponentPad*%
%ADD13R,1.524000X1.524000*%
%TD*%
%TA.AperFunction,ComponentPad*%
%ADD14C,1.524000*%
%TD*%
%TA.AperFunction,ComponentPad*%
%ADD15O,1.200000X1.524000*%
%TD*%
%TA.AperFunction,ComponentPad*%
%ADD16R,1.200000X1.524000*%
%TD*%
%TA.AperFunction,ComponentPad*%
%ADD17O,1.524000X1.200000*%
%TD*%
%TA.AperFunction,ComponentPad*%
%ADD18R,1.524000X1.200000*%
%TD*%
%TA.AperFunction,ViaPad*%
%ADD19C,0.800000*%
%TD*%
%TA.AperFunction,Conductor*%
%ADD20C,0.254000*%
%TD*%
%TA.AperFunction,Conductor*%
%ADD21C,0.152400*%
%TD*%
%TA.AperFunction,Conductor*%
%ADD22C,0.177800*%
%TD*%
G04 APERTURE END LIST*
D10*
%TO.P,P2,4*%
%TO.N,GND*%
X145567400Y-102831900D03*
%TO.P,P2,3*%
%TO.N,/USB+*%
X149377400Y-102831900D03*
%TO.P,P2,2*%
%TO.N,/USB-*%
X153187400Y-102831900D03*
D11*
%TO.P,P2,1*%
%TO.N,VDD*%
X156997400Y-102831900D03*
%TD*%
%TO.P,P1,1*%
%TO.N,VDD*%
X129476500Y-102831900D03*
D10*
%TO.P,P1,2*%
X133286500Y-102831900D03*
%TO.P,P1,3*%
%TO.N,GND*%
X137096500Y-102831900D03*
%TO.P,P1,4*%
X140906500Y-102831900D03*
%TD*%
D12*
%TO.P,U2,7*%
%TO.N,GND*%
X138557000Y-91926100D03*
%TO.P,U2,8*%
%TO.N,Net-(U2-Pad8)*%
X138557000Y-97126100D03*
%TO.P,U2,6*%
%TO.N,/C_Down*%
X137287000Y-91926100D03*
%TO.P,U2,9*%
%TO.N,GND*%
X137287000Y-97126100D03*
%TO.P,U2,5*%
%TO.N,/Up*%
X136017000Y-91926100D03*
%TO.P,U2,10*%
%TO.N,GND*%
X136017000Y-97126100D03*
%TO.P,U2,4*%
%TO.N,Net-(U2-Pad3)*%
X134747000Y-91926100D03*
%TO.P,U2,11*%
%TO.N,Net-(U2-Pad11)*%
X134747000Y-97126100D03*
%TO.P,U2,3*%
%TO.N,Net-(U2-Pad3)*%
X133477000Y-91926100D03*
%TO.P,U2,12*%
%TO.N,GND*%
X133477000Y-97126100D03*
%TO.P,U2,2*%
%TO.N,/Down*%
X132207000Y-91926100D03*
%TO.P,U2,13*%
%TO.N,GND*%
X132207000Y-97126100D03*
%TO.P,U2,1*%
%TO.N,/Down*%
X130937000Y-91926100D03*
%TO.P,U2,14*%
%TO.N,VDD*%
X130937000Y-97126100D03*
%TD*%
%TO.P,U1,14*%
%TO.N,VDD*%
X145542000Y-97062600D03*
%TO.P,U1,1*%
%TO.N,/Left*%
X145542000Y-91862600D03*
%TO.P,U1,13*%
X146812000Y-97062600D03*
%TO.P,U1,2*%
X146812000Y-91862600D03*
%TO.P,U1,12*%
%TO.N,Net-(U1-Pad12)*%
X148082000Y-97062600D03*
%TO.P,U1,3*%
%TO.N,Net-(U1-Pad3)*%
X148082000Y-91862600D03*
%TO.P,U1,11*%
%TO.N,/C_Right*%
X149352000Y-97062600D03*
%TO.P,U1,4*%
%TO.N,Net-(U1-Pad3)*%
X149352000Y-91862600D03*
%TO.P,U1,10*%
%TO.N,/Right*%
X150622000Y-97062600D03*
%TO.P,U1,5*%
X150622000Y-91862600D03*
%TO.P,U1,9*%
X151892000Y-97062600D03*
%TO.P,U1,6*%
%TO.N,/C_Left*%
X151892000Y-91862600D03*
%TO.P,U1,8*%
%TO.N,Net-(U1-Pad12)*%
X153162000Y-97062600D03*
%TO.P,U1,7*%
%TO.N,GND*%
X153162000Y-91862600D03*
%TD*%
D13*
%TO.P,J2,1*%
%TO.N,VDD*%
X130162300Y-80937100D03*
D14*
%TO.P,J2,2*%
X130162300Y-83477100D03*
%TO.P,J2,3*%
%TO.N,/HOME*%
X132702300Y-80937100D03*
%TO.P,J2,4*%
%TO.N,/L2*%
X132702300Y-83477100D03*
%TO.P,J2,5*%
%TO.N,/L1*%
X135242300Y-80937100D03*
%TO.P,J2,6*%
%TO.N,/R2*%
X135242300Y-83477100D03*
%TO.P,J2,7*%
%TO.N,/L3*%
X137782300Y-80937100D03*
%TO.P,J2,8*%
%TO.N,/Select*%
X137782300Y-83477100D03*
%TO.P,J2,9*%
%TO.N,/Up*%
X140322300Y-80937100D03*
%TO.P,J2,10*%
%TO.N,/C_Down*%
X140322300Y-83477100D03*
%TO.P,J2,11*%
%TO.N,/Start*%
X142862300Y-80937100D03*
%TO.P,J2,12*%
%TO.N,/Cross*%
X142862300Y-83477100D03*
%TO.P,J2,13*%
%TO.N,/Circle*%
X145402300Y-80937100D03*
%TO.P,J2,14*%
%TO.N,/Square*%
X145402300Y-83477100D03*
%TO.P,J2,15*%
%TO.N,/Triangle*%
X147942300Y-80937100D03*
%TO.P,J2,16*%
%TO.N,/C_Left*%
X147942300Y-83477100D03*
%TO.P,J2,17*%
%TO.N,/R3*%
X150482300Y-80937100D03*
%TO.P,J2,18*%
%TO.N,/C_Right*%
X150482300Y-83477100D03*
%TO.P,J2,19*%
%TO.N,/R1*%
X153022300Y-80937100D03*
%TO.P,J2,20*%
%TO.N,Net-(J2-Pad20)*%
X153022300Y-83477100D03*
%TO.P,J2,21*%
%TO.N,GND*%
X155562300Y-80937100D03*
%TO.P,J2,22*%
X155562300Y-83477100D03*
%TO.P,J2,23*%
%TO.N,/USB-*%
X158102300Y-80937100D03*
%TO.P,J2,24*%
%TO.N,/USB+*%
X158102300Y-83477100D03*
%TD*%
D10*
%TO.P,P4,10*%
%TO.N,GND*%
X160947100Y-86410800D03*
%TO.P,P4,9*%
X157137100Y-86410800D03*
%TO.P,P4,8*%
%TO.N,/C_Right*%
X153327100Y-86410800D03*
%TO.P,P4,7*%
%TO.N,/C_Left*%
X149517100Y-86410800D03*
%TO.P,P4,6*%
%TO.N,/Square*%
X145707100Y-86410800D03*
%TO.P,P4,5*%
%TO.N,/Cross*%
X141897100Y-86410800D03*
%TO.P,P4,4*%
%TO.N,/C_Down*%
X138087100Y-86410800D03*
%TO.P,P4,3*%
%TO.N,/Select*%
X134277100Y-86410800D03*
%TO.P,P4,2*%
%TO.N,/R2*%
X130467100Y-86410800D03*
D11*
%TO.P,P4,1*%
%TO.N,/L2*%
X126657100Y-86410800D03*
%TD*%
%TO.P,P3,1*%
%TO.N,/HOME*%
X126707900Y-78003400D03*
D10*
%TO.P,P3,2*%
%TO.N,/L1*%
X130517900Y-78003400D03*
%TO.P,P3,3*%
%TO.N,/L3*%
X134327900Y-78003400D03*
%TO.P,P3,4*%
%TO.N,/Up*%
X138137900Y-78003400D03*
%TO.P,P3,5*%
%TO.N,/Start*%
X141947900Y-78003400D03*
%TO.P,P3,6*%
%TO.N,/Circle*%
X145757900Y-78003400D03*
%TO.P,P3,7*%
%TO.N,/Triangle*%
X149567900Y-78003400D03*
%TO.P,P3,8*%
%TO.N,/R3*%
X153377900Y-78003400D03*
%TO.P,P3,9*%
%TO.N,/R1*%
X157187900Y-78003400D03*
%TO.P,P3,10*%
%TO.N,GND*%
X160997900Y-78003400D03*
%TD*%
D15*
%TO.P,J1,J4_8*%
%TO.N,GND*%
X162098300Y-108168000D03*
%TO.P,J1,J4_7*%
%TO.N,/R1*%
X160098300Y-108168000D03*
%TO.P,J1,J4_6*%
%TO.N,/R3*%
X158098300Y-108168000D03*
%TO.P,J1,J4_5*%
%TO.N,/Triangle*%
X156098300Y-108168000D03*
%TO.P,J1,J4_4*%
%TO.N,/Square*%
X154098300Y-108168000D03*
%TO.P,J1,J4_3*%
%TO.N,/Circle*%
X152098300Y-108168000D03*
%TO.P,J1,J4_2*%
%TO.N,/Cross*%
X150098300Y-108168000D03*
D16*
%TO.P,J1,J4_1*%
%TO.N,/Select*%
X148098300Y-108168000D03*
D15*
%TO.P,J1,J5_8*%
%TO.N,N/C*%
X145558300Y-108168000D03*
%TO.P,J1,J5_7*%
%TO.N,/R2*%
X143558300Y-108168000D03*
%TO.P,J1,J5_6*%
%TO.N,Net-(J1-PadJ5_6)*%
X141558300Y-108168000D03*
%TO.P,J1,J5_5*%
%TO.N,N/C*%
X139558300Y-108168000D03*
%TO.P,J1,J5_3*%
X135558300Y-108168000D03*
%TO.P,J1,J5_2*%
%TO.N,/L2*%
X133558300Y-108168000D03*
%TO.P,J1,J5_4*%
%TO.N,N/C*%
X137558300Y-108168000D03*
D16*
%TO.P,J1,J5_1*%
%TO.N,Net-(J1-PadJ5_1)*%
X131558300Y-108168000D03*
D15*
%TO.P,J1,J3_9*%
%TO.N,GND*%
X156638300Y-72958000D03*
%TO.P,J1,J3_8*%
%TO.N,/Start*%
X154638300Y-72958000D03*
%TO.P,J1,J3_7*%
%TO.N,/Right*%
X152638300Y-72958000D03*
%TO.P,J1,J3_6*%
%TO.N,/Left*%
X150638300Y-72958000D03*
%TO.P,J1,J3_3*%
%TO.N,/L3*%
X144638300Y-72958000D03*
%TO.P,J1,J3_5*%
%TO.N,/Down*%
X148638300Y-72958000D03*
%TO.P,J1,J3_4*%
%TO.N,/Up*%
X146638300Y-72958000D03*
%TO.P,J1,J3_2*%
%TO.N,/L1*%
X142638300Y-72958000D03*
D16*
%TO.P,J1,J3_1*%
%TO.N,/HOME*%
X140638300Y-72958000D03*
D17*
%TO.P,J1,J1_5*%
%TO.N,GND*%
X160798300Y-91208000D03*
%TO.P,J1,J1_4*%
X160798300Y-93208000D03*
%TO.P,J1,J1_3*%
%TO.N,/USB+*%
X160798300Y-95208000D03*
D18*
%TO.P,J1,J1_1*%
%TO.N,VDD*%
X160798300Y-99208000D03*
D17*
%TO.P,J1,J1_2*%
%TO.N,/USB-*%
X160798300Y-97208000D03*
%TD*%
D19*
%TO.N,GND*%
X162610800Y-98221800D03*
X163169600Y-97066100D03*
X140798600Y-89535000D03*
X139877800Y-89535000D03*
X138976100Y-89522300D03*
X140867795Y-88526233D03*
X139877800Y-88531700D03*
X138976100Y-88531700D03*
X136563100Y-99021900D03*
X128993900Y-91846400D03*
X128993900Y-93027500D03*
X132816600Y-95211900D03*
X136626600Y-95186500D03*
%TO.N,/R1*%
X145199100Y-89496900D03*
X147472400Y-104330500D03*
%TO.N,/R3*%
X144145000Y-104800400D03*
X143764000Y-89535000D03*
%TO.N,/Triangle*%
X142875000Y-90678000D03*
X142925800Y-104724200D03*
%TO.N,/Square*%
X141579601Y-105003599D03*
%TO.N,/Circle*%
X139026900Y-105016300D03*
%TO.N,/Cross*%
X135420100Y-104825800D03*
%TO.N,/Select*%
X127431800Y-105067100D03*
%TO.N,/R2*%
X126695200Y-105752900D03*
%TO.N,/L2*%
X125933200Y-106870498D03*
%TO.N,/Right*%
X150622000Y-95161100D03*
X155549600Y-88823800D03*
X150609300Y-88785700D03*
%TO.N,/Left*%
X146126200Y-93700600D03*
%TO.N,/Down*%
X148640800Y-74637900D03*
X131610102Y-89433400D03*
%TO.N,/Up*%
X146621500Y-75349100D03*
%TO.N,VDD*%
X145719800Y-95123000D03*
X128955800Y-98298000D03*
X128968500Y-97142300D03*
%TO.N,Net-(U1-Pad12)*%
X148094700Y-98920300D03*
%TO.N,Net-(U1-Pad3)*%
X148729700Y-93726000D03*
%TO.N,Net-(U2-Pad3)*%
X134112000Y-89954100D03*
%TO.N,/C_Right*%
X149415500Y-95351600D03*
X152996900Y-88938100D03*
%TO.N,/C_Left*%
X151892000Y-89585800D03*
%TO.N,/C_Down*%
X137299700Y-89281000D03*
%TD*%
D20*
%TO.N,GND*%
X139877800Y-89535000D02*
X140798600Y-89535000D01*
X138976100Y-88531700D02*
X138976100Y-89522300D01*
X138976100Y-88531700D02*
X139877800Y-88531700D01*
X138576101Y-88931699D02*
X138976100Y-88531700D01*
X138557000Y-88950800D02*
X138576101Y-88931699D01*
X138557000Y-91926100D02*
X138557000Y-88950800D01*
X137287000Y-97126100D02*
X137287000Y-98298000D01*
X137287000Y-98298000D02*
X136563100Y-99021900D01*
X136017000Y-97126100D02*
X136017000Y-98475800D01*
X136017000Y-98475800D02*
X136563100Y-99021900D01*
X128993900Y-93027500D02*
X128993900Y-91846400D01*
X137287000Y-97126100D02*
X137287000Y-95846900D01*
X137287000Y-95846900D02*
X136626600Y-95186500D01*
X136017000Y-97126100D02*
X136017000Y-95796100D01*
X136017000Y-95796100D02*
X136626600Y-95186500D01*
X133477000Y-97126100D02*
X133477000Y-95872300D01*
X133477000Y-95872300D02*
X132816600Y-95211900D01*
X132207000Y-97126100D02*
X132207000Y-95821500D01*
X132207000Y-95821500D02*
X132816600Y-95211900D01*
X157137100Y-86410800D02*
X159046288Y-86410800D01*
X159046288Y-86410800D02*
X160947100Y-86410800D01*
X155536900Y-73672700D02*
X155536900Y-73825100D01*
X156251600Y-72958000D02*
X155536900Y-73672700D01*
X156638300Y-72958000D02*
X156251600Y-72958000D01*
X156282700Y-72958000D02*
X155511500Y-72186800D01*
X156638300Y-72958000D02*
X156282700Y-72958000D01*
D21*
%TO.N,/R1*%
X147472400Y-104330500D02*
X147472400Y-101396800D01*
X147472400Y-101396800D02*
X144399000Y-98323400D01*
X144399000Y-98323400D02*
X144399000Y-90297000D01*
X144399000Y-90297000D02*
X145199100Y-89496900D01*
%TO.N,/R3*%
X143751300Y-90779600D02*
X143751300Y-103606600D01*
X144145000Y-104000300D02*
X144145000Y-104800400D01*
X143751300Y-103606600D02*
X144145000Y-104000300D01*
X143751300Y-90779600D02*
X143751300Y-90576400D01*
X143751300Y-90779600D02*
X143751300Y-89547700D01*
X143751300Y-89547700D02*
X143764000Y-89535000D01*
%TO.N,/Triangle*%
X142925800Y-104724200D02*
X142925800Y-104101900D01*
X142925800Y-104101900D02*
X143274999Y-103752701D01*
X142875000Y-91541600D02*
X142875000Y-90678000D01*
X143274999Y-103752701D02*
X143274999Y-91941599D01*
X143274999Y-91941599D02*
X142875000Y-91541600D01*
X149567900Y-78003400D02*
X147942300Y-79629000D01*
X147942300Y-79629000D02*
X147942300Y-80937100D01*
%TO.N,/Square*%
X142849600Y-102095300D02*
X142849600Y-103733600D01*
X142849600Y-103733600D02*
X141579601Y-105003599D01*
X142849600Y-102095300D02*
X142849600Y-101333300D01*
X142849600Y-101333300D02*
X142849600Y-92087700D01*
X145707100Y-86410800D02*
X145707100Y-84501612D01*
X145707100Y-84501612D02*
X145402300Y-84196812D01*
X145402300Y-84196812D02*
X145402300Y-83477100D01*
X142849600Y-92087700D02*
X142246399Y-91484499D01*
X142246399Y-91484499D02*
X142246399Y-89871501D01*
X142246399Y-89871501D02*
X144357101Y-87760799D01*
X144357101Y-87760799D02*
X145707100Y-86410800D01*
X142849600Y-102095300D02*
X142849600Y-101841300D01*
%TO.N,/Circle*%
X139026900Y-105016300D02*
X139026900Y-100088700D01*
X139026900Y-100088700D02*
X140411200Y-98704400D01*
X144119600Y-84213700D02*
X144119600Y-82219800D01*
X140411200Y-98704400D02*
X140436600Y-98704400D01*
X140436600Y-98704400D02*
X141833610Y-97307390D01*
X141833610Y-97307390D02*
X141833610Y-89661990D01*
X141833610Y-89661990D02*
X143802100Y-87693500D01*
X143802100Y-84531200D02*
X144119600Y-84213700D01*
X143802100Y-87693500D02*
X143802100Y-84531200D01*
X144119600Y-82219800D02*
X144640301Y-81699099D01*
X144640301Y-81699099D02*
X145402300Y-80937100D01*
X145757900Y-78003400D02*
X145757900Y-80581500D01*
X145757900Y-80581500D02*
X145402300Y-80937100D01*
%TO.N,/Cross*%
X135420100Y-104825800D02*
X135420100Y-103632000D01*
X135420100Y-103632000D02*
X135204200Y-103416100D01*
X135204200Y-103416100D02*
X135204200Y-101600000D01*
X135204200Y-101600000D02*
X136055100Y-100749100D01*
X136055100Y-100749100D02*
X137118670Y-100749100D01*
X141528800Y-96338970D02*
X141528800Y-88836500D01*
X137118670Y-100749100D02*
X141528800Y-96338970D01*
X141528800Y-88836500D02*
X141897100Y-88468200D01*
X141897100Y-88468200D02*
X141897100Y-86410800D01*
X141897100Y-86410800D02*
X141897100Y-84442300D01*
X141897100Y-84442300D02*
X142862300Y-83477100D01*
%TO.N,/Select*%
X134277100Y-86410800D02*
X132194300Y-88493600D01*
X132194300Y-88493600D02*
X129692400Y-88493600D01*
X129692400Y-88493600D02*
X127431800Y-90754200D01*
X127431800Y-90754200D02*
X127431800Y-104501415D01*
X127431800Y-104501415D02*
X127431800Y-105067100D01*
X134277100Y-86410800D02*
X137210800Y-83477100D01*
X137210800Y-83477100D02*
X137782300Y-83477100D01*
%TO.N,/R2*%
X130467100Y-86410800D02*
X126707900Y-90170000D01*
X126707900Y-90170000D02*
X126707900Y-105765600D01*
X126707900Y-105765600D02*
X126695200Y-105752900D01*
X130467100Y-86410800D02*
X131978400Y-84899500D01*
X131978400Y-84899500D02*
X133248400Y-84899500D01*
X134670800Y-83477100D02*
X135242300Y-83477100D01*
X133248400Y-84899500D02*
X134670800Y-83477100D01*
%TO.N,/L2*%
X126657100Y-86410800D02*
X126657100Y-89192100D01*
X126657100Y-89192100D02*
X125933200Y-89916000D01*
X125933200Y-89916000D02*
X125933200Y-106870498D01*
X126657100Y-86410800D02*
X128159500Y-86410800D01*
X128574800Y-85648800D02*
X129578100Y-84645500D01*
X128159500Y-86410800D02*
X128574800Y-85995500D01*
X131533900Y-84645500D02*
X132702300Y-83477100D01*
X128574800Y-85995500D02*
X128574800Y-85648800D01*
X129578100Y-84645500D02*
X131533900Y-84645500D01*
%TO.N,/Start*%
X141947900Y-78003400D02*
X141947900Y-80022700D01*
X141947900Y-80022700D02*
X142862300Y-80937100D01*
%TO.N,/Right*%
X152638300Y-72958000D02*
X152638300Y-75060000D01*
X152638300Y-75060000D02*
X151765000Y-75933300D01*
X155149601Y-88423801D02*
X155549600Y-88823800D01*
X151765000Y-75933300D02*
X151765000Y-84061300D01*
X151765000Y-84061300D02*
X152349200Y-84645500D01*
X155124201Y-85134501D02*
X155124201Y-88398401D01*
X152349200Y-84645500D02*
X154635200Y-84645500D01*
X154635200Y-84645500D02*
X155124201Y-85134501D01*
X155124201Y-88398401D02*
X155149601Y-88423801D01*
X150622000Y-95161100D02*
X150622000Y-95726785D01*
X150622000Y-95726785D02*
X150622000Y-97062600D01*
X151511000Y-95161100D02*
X150622000Y-95161100D01*
X151892000Y-97062600D02*
X151892000Y-95542100D01*
X151892000Y-95542100D02*
X151511000Y-95161100D01*
X150622000Y-88798400D02*
X150609300Y-88785700D01*
X150622000Y-91862600D02*
X150622000Y-88798400D01*
X150622000Y-91862600D02*
X150622000Y-94386400D01*
X150622000Y-94386400D02*
X150622000Y-97062600D01*
X150622000Y-97062600D02*
X150622000Y-95821500D01*
%TO.N,/Left*%
X150638300Y-72958000D02*
X150638300Y-74266000D01*
X150638300Y-74266000D02*
X147650200Y-77254100D01*
X147650200Y-79108300D02*
X146697700Y-80060800D01*
X147650200Y-77254100D02*
X147650200Y-79108300D01*
X146697700Y-80060800D02*
X146697700Y-84378800D01*
X146697700Y-84378800D02*
X147675600Y-85356700D01*
X147675600Y-85356700D02*
X147675600Y-88963500D01*
X147675600Y-88963500D02*
X146812000Y-89827100D01*
X146812000Y-89827100D02*
X146812000Y-91862600D01*
X146812000Y-97062600D02*
X146812000Y-94386400D01*
X146812000Y-94386400D02*
X146126200Y-93700600D01*
X145542000Y-93116400D02*
X146126200Y-93700600D01*
X145542000Y-91862600D02*
X145542000Y-93116400D01*
X146812000Y-93014800D02*
X146126200Y-93700600D01*
X146812000Y-91862600D02*
X146812000Y-93014800D01*
%TO.N,/L3*%
X134327900Y-78003400D02*
X137261600Y-80937100D01*
X137261600Y-80937100D02*
X137782300Y-80937100D01*
%TO.N,/Down*%
X148638300Y-72958000D02*
X148638300Y-74635400D01*
X148638300Y-74635400D02*
X148640800Y-74637900D01*
X148638300Y-72958000D02*
X148638300Y-73116400D01*
X132010101Y-89833399D02*
X131610102Y-89433400D01*
X131210103Y-89833399D02*
X131610102Y-89433400D01*
X130937000Y-90106502D02*
X131210103Y-89833399D01*
X130937000Y-91926100D02*
X130937000Y-90106502D01*
X132207000Y-90030298D02*
X132010101Y-89833399D01*
X132207000Y-91926100D02*
X132207000Y-90030298D01*
%TO.N,/Up*%
X146638300Y-72958000D02*
X146638300Y-75332300D01*
X146638300Y-75332300D02*
X146621500Y-75349100D01*
X136017000Y-91926100D02*
X136017000Y-85661500D01*
X136017000Y-85661500D02*
X137058400Y-84620100D01*
X137058400Y-84620100D02*
X138455400Y-84620100D01*
X138455400Y-84620100D02*
X139115800Y-83959700D01*
X139115800Y-83959700D02*
X139115800Y-82143600D01*
X139115800Y-82143600D02*
X140322300Y-80937100D01*
X138137900Y-78003400D02*
X140322300Y-80187800D01*
X140322300Y-80187800D02*
X140322300Y-80937100D01*
X146638300Y-72958000D02*
X146638300Y-73135200D01*
%TO.N,/L1*%
X142621000Y-72940700D02*
X142638300Y-72958000D01*
D22*
%TO.N,/USB+*%
X158496000Y-96343054D02*
X158808854Y-96030200D01*
X160036300Y-95208000D02*
X160798300Y-95208000D01*
X158808854Y-96030200D02*
X159214100Y-96030200D01*
X159214100Y-96030200D02*
X160036300Y-95208000D01*
X158496000Y-98884752D02*
X158496000Y-96343054D01*
X157698452Y-99682300D02*
X158496000Y-98884752D01*
X152123152Y-99682300D02*
X157698452Y-99682300D01*
X151104600Y-100700852D02*
X152123152Y-99682300D01*
X151104600Y-101104700D02*
X151104600Y-100700852D01*
X149377400Y-102831900D02*
X151104600Y-101104700D01*
D21*
X160636300Y-95208000D02*
X160798300Y-95208000D01*
D20*
%TO.N,VDD*%
X129476500Y-102831900D02*
X131080500Y-102831900D01*
X131080500Y-102831900D02*
X133286500Y-102831900D01*
X129476500Y-105473500D02*
X129476500Y-104435900D01*
X129476500Y-104435900D02*
X129476500Y-102831900D01*
X145719800Y-95530800D02*
X145719800Y-95123000D01*
X145542000Y-97062600D02*
X145542000Y-95708600D01*
X145542000Y-95708600D02*
X145719800Y-95530800D01*
X130379500Y-97129600D02*
X128981200Y-97129600D01*
X128981200Y-97129600D02*
X128968500Y-97142300D01*
X130937000Y-97126100D02*
X130383000Y-97126100D01*
X130383000Y-97126100D02*
X130379500Y-97129600D01*
D22*
%TO.N,/USB-*%
X158851600Y-96490350D02*
X158956150Y-96385800D01*
X158956150Y-96385800D02*
X159214100Y-96385800D01*
X159214100Y-96385800D02*
X160036300Y-97208000D01*
X160036300Y-97208000D02*
X160798300Y-97208000D01*
X158851600Y-99032048D02*
X158851600Y-96490350D01*
X157845748Y-100037900D02*
X158851600Y-99032048D01*
X152270448Y-100037900D02*
X157845748Y-100037900D01*
X151460200Y-100848148D02*
X152270448Y-100037900D01*
X151460200Y-101104700D02*
X151460200Y-100848148D01*
X153187400Y-102831900D02*
X151460200Y-101104700D01*
D21*
X160636300Y-97208000D02*
X160798300Y-97208000D01*
%TO.N,Net-(U1-Pad12)*%
X148094700Y-98920300D02*
X152679400Y-98920300D01*
X152679400Y-98920300D02*
X153162000Y-98437700D01*
X153162000Y-98437700D02*
X153162000Y-97062600D01*
X148082000Y-97062600D02*
X148082000Y-98907600D01*
X148082000Y-98907600D02*
X148094700Y-98920300D01*
%TO.N,Net-(U1-Pad3)*%
X148729700Y-93726000D02*
X148958300Y-93726000D01*
X148958300Y-93726000D02*
X149352000Y-93332300D01*
X149352000Y-93332300D02*
X149352000Y-91862600D01*
X148539200Y-93726000D02*
X148082000Y-93268800D01*
X148082000Y-93268800D02*
X148082000Y-91862600D01*
X148729700Y-93726000D02*
X148539200Y-93726000D01*
%TO.N,Net-(U2-Pad3)*%
X134747000Y-91926100D02*
X134747000Y-90589100D01*
X134747000Y-90589100D02*
X134112000Y-89954100D01*
X133477000Y-91926100D02*
X133477000Y-90589100D01*
X133477000Y-90589100D02*
X134112000Y-89954100D01*
%TO.N,/C_Right*%
X149352000Y-95415100D02*
X149415500Y-95351600D01*
X149352000Y-97062600D02*
X149352000Y-95415100D01*
X152996900Y-88938100D02*
X152996900Y-86741000D01*
X152996900Y-86741000D02*
X153327100Y-86410800D01*
X150482300Y-83477100D02*
X153327100Y-86321900D01*
X153327100Y-86321900D02*
X153327100Y-86410800D01*
%TO.N,/C_Left*%
X151892000Y-88785700D02*
X151892000Y-89585800D01*
X151892000Y-91862600D02*
X151892000Y-88785700D01*
X147942300Y-83477100D02*
X147942300Y-84836000D01*
X147942300Y-84836000D02*
X149517100Y-86410800D01*
X149517100Y-86410800D02*
X151892000Y-88785700D01*
%TO.N,/C_Down*%
X137699699Y-88881001D02*
X137299700Y-89281000D01*
X138087100Y-88493600D02*
X137699699Y-88881001D01*
X138087100Y-86410800D02*
X138087100Y-88493600D01*
X137287000Y-89293700D02*
X137299700Y-89281000D01*
X137287000Y-91926100D02*
X137287000Y-89293700D01*
X138087100Y-86410800D02*
X140322300Y-84175600D01*
X140322300Y-84175600D02*
X140322300Y-83477100D01*
%TD*%
D20*
%TO.N,VDD*%
G36*
X130002000Y-96840350D02*
X130160750Y-96999100D01*
X130810000Y-96999100D01*
X130810000Y-96979100D01*
X131053003Y-96979100D01*
X131064001Y-99695514D01*
X131073865Y-99744075D01*
X131101562Y-99785165D01*
X131142875Y-99812529D01*
X131191000Y-99822000D01*
X134874000Y-99822000D01*
X134874000Y-101287054D01*
X134781802Y-101425037D01*
X134747000Y-101600000D01*
X134747000Y-101631531D01*
X134692093Y-101605912D01*
X133466105Y-102831900D01*
X134692093Y-104057888D01*
X134874000Y-103973011D01*
X134874000Y-104267409D01*
X134758386Y-104382821D01*
X134639236Y-104669768D01*
X134638964Y-104980469D01*
X134757614Y-105267623D01*
X134874000Y-105384213D01*
X134874000Y-105537000D01*
X134883667Y-105585601D01*
X134911197Y-105626803D01*
X134952399Y-105654333D01*
X135000742Y-105664000D01*
X138577178Y-105671259D01*
X138583921Y-105678014D01*
X138870868Y-105797164D01*
X139181569Y-105797436D01*
X139468723Y-105678786D01*
X139474438Y-105673081D01*
X141163586Y-105676509D01*
X141423569Y-105784463D01*
X141734270Y-105784735D01*
X141992126Y-105678191D01*
X153771342Y-105702100D01*
X153819963Y-105692531D01*
X153861220Y-105665085D01*
X153892813Y-105613000D01*
X154365269Y-104101955D01*
X154654014Y-103813713D01*
X154918099Y-103177728D01*
X154918151Y-103117650D01*
X155012400Y-103117650D01*
X155012400Y-104308210D01*
X155109073Y-104541599D01*
X155287702Y-104720227D01*
X155521091Y-104816900D01*
X156711650Y-104816900D01*
X156870400Y-104658150D01*
X156870400Y-102958900D01*
X157124400Y-102958900D01*
X157124400Y-104658150D01*
X157283150Y-104816900D01*
X158473709Y-104816900D01*
X158707098Y-104720227D01*
X158885727Y-104541599D01*
X158982400Y-104308210D01*
X158982400Y-103117650D01*
X158823650Y-102958900D01*
X157124400Y-102958900D01*
X156870400Y-102958900D01*
X155171150Y-102958900D01*
X155012400Y-103117650D01*
X154918151Y-103117650D01*
X154918700Y-102489093D01*
X154890727Y-102421394D01*
X155012400Y-102032251D01*
X155012400Y-102546150D01*
X155171150Y-102704900D01*
X156870400Y-102704900D01*
X156870400Y-102684900D01*
X157124400Y-102684900D01*
X157124400Y-102704900D01*
X158823650Y-102704900D01*
X158982400Y-102546150D01*
X158982400Y-101355590D01*
X158885727Y-101122201D01*
X158707098Y-100943573D01*
X158473709Y-100846900D01*
X158352879Y-100846900D01*
X159314247Y-99780016D01*
X159339599Y-99737439D01*
X159346681Y-99702458D01*
X159358957Y-99493750D01*
X159401300Y-99493750D01*
X159401300Y-99934309D01*
X159497973Y-100167698D01*
X159676601Y-100346327D01*
X159909990Y-100443000D01*
X160512550Y-100443000D01*
X160671300Y-100284250D01*
X160671300Y-99335000D01*
X160925300Y-99335000D01*
X160925300Y-100284250D01*
X161084050Y-100443000D01*
X161686610Y-100443000D01*
X161919999Y-100346327D01*
X162098627Y-100167698D01*
X162195300Y-99934309D01*
X162195300Y-99493750D01*
X162036550Y-99335000D01*
X160925300Y-99335000D01*
X160671300Y-99335000D01*
X159560050Y-99335000D01*
X159401300Y-99493750D01*
X159358957Y-99493750D01*
X159377749Y-99174300D01*
X163539100Y-99174300D01*
X163539100Y-105280859D01*
X162168510Y-105273390D01*
X162189059Y-105223903D01*
X162189539Y-104674507D01*
X161979737Y-104166749D01*
X161591595Y-103777928D01*
X161084203Y-103567241D01*
X160534807Y-103566761D01*
X160027049Y-103776563D01*
X159638228Y-104164705D01*
X159427541Y-104672097D01*
X159427061Y-105221493D01*
X159442366Y-105258534D01*
X159271392Y-105257602D01*
X159222739Y-105267004D01*
X159181388Y-105294309D01*
X159160709Y-105321109D01*
X158295686Y-106819669D01*
X127952190Y-106807053D01*
X127949367Y-105653974D01*
X128093514Y-105510079D01*
X128212664Y-105223132D01*
X128212936Y-104912431D01*
X128173463Y-104816900D01*
X129190750Y-104816900D01*
X129349500Y-104658150D01*
X129349500Y-102958900D01*
X129329500Y-102958900D01*
X129329500Y-102704900D01*
X129349500Y-102704900D01*
X129349500Y-101005650D01*
X129603500Y-101005650D01*
X129603500Y-102704900D01*
X129623500Y-102704900D01*
X129623500Y-102958900D01*
X129603500Y-102958900D01*
X129603500Y-104658150D01*
X129762250Y-104816900D01*
X130952809Y-104816900D01*
X131186198Y-104720227D01*
X131364827Y-104541599D01*
X131461500Y-104308210D01*
X131461500Y-104237493D01*
X132060512Y-104237493D01*
X132201978Y-104540682D01*
X132938455Y-104825637D01*
X133727918Y-104807064D01*
X134371022Y-104540682D01*
X134512488Y-104237493D01*
X133286500Y-103011505D01*
X132060512Y-104237493D01*
X131461500Y-104237493D01*
X131461500Y-103635847D01*
X131577718Y-103916422D01*
X131880907Y-104057888D01*
X133106895Y-102831900D01*
X131880907Y-101605912D01*
X131577718Y-101747378D01*
X131461500Y-102047748D01*
X131461500Y-101426307D01*
X132060512Y-101426307D01*
X133286500Y-102652295D01*
X134512488Y-101426307D01*
X134371022Y-101123118D01*
X133634545Y-100838163D01*
X132845082Y-100856736D01*
X132201978Y-101123118D01*
X132060512Y-101426307D01*
X131461500Y-101426307D01*
X131461500Y-101355590D01*
X131364827Y-101122201D01*
X131186198Y-100943573D01*
X130952809Y-100846900D01*
X129762250Y-100846900D01*
X129603500Y-101005650D01*
X129349500Y-101005650D01*
X129190750Y-100846900D01*
X128000191Y-100846900D01*
X127937663Y-100872800D01*
X127929191Y-97411850D01*
X130002000Y-97411850D01*
X130002000Y-98352410D01*
X130098673Y-98585799D01*
X130277302Y-98764427D01*
X130510691Y-98861100D01*
X130651250Y-98861100D01*
X130810000Y-98702350D01*
X130810000Y-97253100D01*
X130160750Y-97253100D01*
X130002000Y-97411850D01*
X127929191Y-97411850D01*
X127927412Y-96685100D01*
X130002000Y-96685100D01*
X130002000Y-96840350D01*
X130002000Y-96840350D01*
G37*
X130002000Y-96840350D02*
X130160750Y-96999100D01*
X130810000Y-96999100D01*
X130810000Y-96979100D01*
X131053003Y-96979100D01*
X131064001Y-99695514D01*
X131073865Y-99744075D01*
X131101562Y-99785165D01*
X131142875Y-99812529D01*
X131191000Y-99822000D01*
X134874000Y-99822000D01*
X134874000Y-101287054D01*
X134781802Y-101425037D01*
X134747000Y-101600000D01*
X134747000Y-101631531D01*
X134692093Y-101605912D01*
X133466105Y-102831900D01*
X134692093Y-104057888D01*
X134874000Y-103973011D01*
X134874000Y-104267409D01*
X134758386Y-104382821D01*
X134639236Y-104669768D01*
X134638964Y-104980469D01*
X134757614Y-105267623D01*
X134874000Y-105384213D01*
X134874000Y-105537000D01*
X134883667Y-105585601D01*
X134911197Y-105626803D01*
X134952399Y-105654333D01*
X135000742Y-105664000D01*
X138577178Y-105671259D01*
X138583921Y-105678014D01*
X138870868Y-105797164D01*
X139181569Y-105797436D01*
X139468723Y-105678786D01*
X139474438Y-105673081D01*
X141163586Y-105676509D01*
X141423569Y-105784463D01*
X141734270Y-105784735D01*
X141992126Y-105678191D01*
X153771342Y-105702100D01*
X153819963Y-105692531D01*
X153861220Y-105665085D01*
X153892813Y-105613000D01*
X154365269Y-104101955D01*
X154654014Y-103813713D01*
X154918099Y-103177728D01*
X154918151Y-103117650D01*
X155012400Y-103117650D01*
X155012400Y-104308210D01*
X155109073Y-104541599D01*
X155287702Y-104720227D01*
X155521091Y-104816900D01*
X156711650Y-104816900D01*
X156870400Y-104658150D01*
X156870400Y-102958900D01*
X157124400Y-102958900D01*
X157124400Y-104658150D01*
X157283150Y-104816900D01*
X158473709Y-104816900D01*
X158707098Y-104720227D01*
X158885727Y-104541599D01*
X158982400Y-104308210D01*
X158982400Y-103117650D01*
X158823650Y-102958900D01*
X157124400Y-102958900D01*
X156870400Y-102958900D01*
X155171150Y-102958900D01*
X155012400Y-103117650D01*
X154918151Y-103117650D01*
X154918700Y-102489093D01*
X154890727Y-102421394D01*
X155012400Y-102032251D01*
X155012400Y-102546150D01*
X155171150Y-102704900D01*
X156870400Y-102704900D01*
X156870400Y-102684900D01*
X157124400Y-102684900D01*
X157124400Y-102704900D01*
X158823650Y-102704900D01*
X158982400Y-102546150D01*
X158982400Y-101355590D01*
X158885727Y-101122201D01*
X158707098Y-100943573D01*
X158473709Y-100846900D01*
X158352879Y-100846900D01*
X159314247Y-99780016D01*
X159339599Y-99737439D01*
X159346681Y-99702458D01*
X159358957Y-99493750D01*
X159401300Y-99493750D01*
X159401300Y-99934309D01*
X159497973Y-100167698D01*
X159676601Y-100346327D01*
X159909990Y-100443000D01*
X160512550Y-100443000D01*
X160671300Y-100284250D01*
X160671300Y-99335000D01*
X160925300Y-99335000D01*
X160925300Y-100284250D01*
X161084050Y-100443000D01*
X161686610Y-100443000D01*
X161919999Y-100346327D01*
X162098627Y-100167698D01*
X162195300Y-99934309D01*
X162195300Y-99493750D01*
X162036550Y-99335000D01*
X160925300Y-99335000D01*
X160671300Y-99335000D01*
X159560050Y-99335000D01*
X159401300Y-99493750D01*
X159358957Y-99493750D01*
X159377749Y-99174300D01*
X163539100Y-99174300D01*
X163539100Y-105280859D01*
X162168510Y-105273390D01*
X162189059Y-105223903D01*
X162189539Y-104674507D01*
X161979737Y-104166749D01*
X161591595Y-103777928D01*
X161084203Y-103567241D01*
X160534807Y-103566761D01*
X160027049Y-103776563D01*
X159638228Y-104164705D01*
X159427541Y-104672097D01*
X159427061Y-105221493D01*
X159442366Y-105258534D01*
X159271392Y-105257602D01*
X159222739Y-105267004D01*
X159181388Y-105294309D01*
X159160709Y-105321109D01*
X158295686Y-106819669D01*
X127952190Y-106807053D01*
X127949367Y-105653974D01*
X128093514Y-105510079D01*
X128212664Y-105223132D01*
X128212936Y-104912431D01*
X128173463Y-104816900D01*
X129190750Y-104816900D01*
X129349500Y-104658150D01*
X129349500Y-102958900D01*
X129329500Y-102958900D01*
X129329500Y-102704900D01*
X129349500Y-102704900D01*
X129349500Y-101005650D01*
X129603500Y-101005650D01*
X129603500Y-102704900D01*
X129623500Y-102704900D01*
X129623500Y-102958900D01*
X129603500Y-102958900D01*
X129603500Y-104658150D01*
X129762250Y-104816900D01*
X130952809Y-104816900D01*
X131186198Y-104720227D01*
X131364827Y-104541599D01*
X131461500Y-104308210D01*
X131461500Y-104237493D01*
X132060512Y-104237493D01*
X132201978Y-104540682D01*
X132938455Y-104825637D01*
X133727918Y-104807064D01*
X134371022Y-104540682D01*
X134512488Y-104237493D01*
X133286500Y-103011505D01*
X132060512Y-104237493D01*
X131461500Y-104237493D01*
X131461500Y-103635847D01*
X131577718Y-103916422D01*
X131880907Y-104057888D01*
X133106895Y-102831900D01*
X131880907Y-101605912D01*
X131577718Y-101747378D01*
X131461500Y-102047748D01*
X131461500Y-101426307D01*
X132060512Y-101426307D01*
X133286500Y-102652295D01*
X134512488Y-101426307D01*
X134371022Y-101123118D01*
X133634545Y-100838163D01*
X132845082Y-100856736D01*
X132201978Y-101123118D01*
X132060512Y-101426307D01*
X131461500Y-101426307D01*
X131461500Y-101355590D01*
X131364827Y-101122201D01*
X131186198Y-100943573D01*
X130952809Y-100846900D01*
X129762250Y-100846900D01*
X129603500Y-101005650D01*
X129349500Y-101005650D01*
X129190750Y-100846900D01*
X128000191Y-100846900D01*
X127937663Y-100872800D01*
X127929191Y-97411850D01*
X130002000Y-97411850D01*
X130002000Y-98352410D01*
X130098673Y-98585799D01*
X130277302Y-98764427D01*
X130510691Y-98861100D01*
X130651250Y-98861100D01*
X130810000Y-98702350D01*
X130810000Y-97253100D01*
X130160750Y-97253100D01*
X130002000Y-97411850D01*
X127929191Y-97411850D01*
X127927412Y-96685100D01*
X130002000Y-96685100D01*
X130002000Y-96840350D01*
%TO.N,GND*%
G36*
X163539100Y-98587698D02*
X162088563Y-98578218D01*
X162029760Y-93779878D01*
X162153762Y-93525609D01*
X162029031Y-93335000D01*
X160925300Y-93335000D01*
X160925300Y-93355000D01*
X160671300Y-93355000D01*
X160671300Y-93335000D01*
X159567569Y-93335000D01*
X159530142Y-93392194D01*
X157696132Y-93389403D01*
X157677585Y-93390736D01*
X155121630Y-93764048D01*
X153009600Y-93752115D01*
X153009600Y-93464250D01*
X153035000Y-93438850D01*
X153035000Y-91989600D01*
X153289000Y-91989600D01*
X153289000Y-93438850D01*
X153447750Y-93597600D01*
X153588309Y-93597600D01*
X153821698Y-93500927D01*
X154000327Y-93322299D01*
X154097000Y-93088910D01*
X154097000Y-92148350D01*
X153938250Y-91989600D01*
X153289000Y-91989600D01*
X153035000Y-91989600D01*
X153015000Y-91989600D01*
X153015000Y-91735600D01*
X153035000Y-91735600D01*
X153035000Y-90286350D01*
X153289000Y-90286350D01*
X153289000Y-91735600D01*
X153938250Y-91735600D01*
X154097000Y-91576850D01*
X154097000Y-91525609D01*
X159442838Y-91525609D01*
X159656285Y-91963285D01*
X159936520Y-92208000D01*
X159656285Y-92452715D01*
X159442838Y-92890391D01*
X159567569Y-93081000D01*
X160671300Y-93081000D01*
X160671300Y-91335000D01*
X160925300Y-91335000D01*
X160925300Y-93081000D01*
X162029031Y-93081000D01*
X162153762Y-92890391D01*
X161940315Y-92452715D01*
X161660080Y-92208000D01*
X161940315Y-91963285D01*
X162153762Y-91525609D01*
X162029031Y-91335000D01*
X160925300Y-91335000D01*
X160671300Y-91335000D01*
X159567569Y-91335000D01*
X159442838Y-91525609D01*
X154097000Y-91525609D01*
X154097000Y-90890391D01*
X159442838Y-90890391D01*
X159567569Y-91081000D01*
X160671300Y-91081000D01*
X160671300Y-90129955D01*
X160925300Y-90129955D01*
X160925300Y-91081000D01*
X162029031Y-91081000D01*
X162153762Y-90890391D01*
X161940315Y-90452715D01*
X161576681Y-90135172D01*
X161119208Y-89980957D01*
X160925300Y-90129955D01*
X160671300Y-90129955D01*
X160477392Y-89980957D01*
X160019919Y-90135172D01*
X159656285Y-90452715D01*
X159442838Y-90890391D01*
X154097000Y-90890391D01*
X154097000Y-90636290D01*
X154000327Y-90402901D01*
X153821698Y-90224273D01*
X153588309Y-90127600D01*
X153447750Y-90127600D01*
X153289000Y-90286350D01*
X153035000Y-90286350D01*
X153009600Y-90260950D01*
X153009600Y-89939335D01*
X153240914Y-89682319D01*
X153438723Y-89600586D01*
X153658614Y-89381079D01*
X153777764Y-89094132D01*
X153777771Y-89085811D01*
X154667001Y-88097778D01*
X154667001Y-88398401D01*
X154701803Y-88573364D01*
X154768731Y-88673528D01*
X154768464Y-88978469D01*
X154887114Y-89265623D01*
X155106621Y-89485514D01*
X155393568Y-89604664D01*
X155704269Y-89604936D01*
X155991423Y-89486286D01*
X156211314Y-89266779D01*
X156330464Y-88979832D01*
X156330736Y-88669131D01*
X156212086Y-88381977D01*
X155992579Y-88162086D01*
X155705632Y-88042936D01*
X155581401Y-88042827D01*
X155581401Y-87816393D01*
X155911112Y-87816393D01*
X156052578Y-88119582D01*
X156789055Y-88404537D01*
X157578518Y-88385964D01*
X158221622Y-88119582D01*
X158363088Y-87816393D01*
X159721112Y-87816393D01*
X159862578Y-88119582D01*
X160599055Y-88404537D01*
X161388518Y-88385964D01*
X162031622Y-88119582D01*
X162173088Y-87816393D01*
X160947100Y-86590405D01*
X159721112Y-87816393D01*
X158363088Y-87816393D01*
X157137100Y-86590405D01*
X155911112Y-87816393D01*
X155581401Y-87816393D01*
X155581401Y-87566750D01*
X155731507Y-87636788D01*
X156957495Y-86410800D01*
X157316705Y-86410800D01*
X158542693Y-87636788D01*
X158845882Y-87495322D01*
X159035414Y-87005468D01*
X159238318Y-87495322D01*
X159541507Y-87636788D01*
X160767495Y-86410800D01*
X161126705Y-86410800D01*
X162352693Y-87636788D01*
X162655882Y-87495322D01*
X162940837Y-86758845D01*
X162922264Y-85969382D01*
X162655882Y-85326278D01*
X162352693Y-85184812D01*
X161126705Y-86410800D01*
X160767495Y-86410800D01*
X159541507Y-85184812D01*
X159238318Y-85326278D01*
X159048786Y-85816132D01*
X158845882Y-85326278D01*
X158542693Y-85184812D01*
X157316705Y-86410800D01*
X156957495Y-86410800D01*
X156943353Y-86396658D01*
X157122958Y-86217053D01*
X157137100Y-86231195D01*
X158363088Y-85005207D01*
X159721112Y-85005207D01*
X160947100Y-86231195D01*
X162173088Y-85005207D01*
X162031622Y-84702018D01*
X161295145Y-84417063D01*
X160505682Y-84435636D01*
X159862578Y-84702018D01*
X159721112Y-85005207D01*
X158363088Y-85005207D01*
X158221622Y-84702018D01*
X158009694Y-84620020D01*
X158328659Y-84620298D01*
X158748912Y-84446654D01*
X159070723Y-84125403D01*
X159245101Y-83705454D01*
X159245498Y-83250741D01*
X159071854Y-82830488D01*
X158856854Y-82615113D01*
X158872877Y-82582096D01*
X158877000Y-82550000D01*
X158877000Y-81778789D01*
X159070723Y-81585403D01*
X159245101Y-81165454D01*
X159245498Y-80710741D01*
X159071854Y-80290488D01*
X158877000Y-80095294D01*
X158877000Y-79408993D01*
X159771912Y-79408993D01*
X159913378Y-79712182D01*
X160649855Y-79997137D01*
X161439318Y-79978564D01*
X162082422Y-79712182D01*
X162223888Y-79408993D01*
X160997900Y-78183005D01*
X159771912Y-79408993D01*
X158877000Y-79408993D01*
X158877000Y-78449409D01*
X158918599Y-78349228D01*
X158919200Y-77660593D01*
X158917036Y-77655355D01*
X159004163Y-77655355D01*
X159022736Y-78444818D01*
X159289118Y-79087922D01*
X159592307Y-79229388D01*
X160818295Y-78003400D01*
X161177505Y-78003400D01*
X162403493Y-79229388D01*
X162706682Y-79087922D01*
X162991637Y-78351445D01*
X162973064Y-77561982D01*
X162706682Y-76918878D01*
X162403493Y-76777412D01*
X161177505Y-78003400D01*
X160818295Y-78003400D01*
X159592307Y-76777412D01*
X159289118Y-76918878D01*
X159004163Y-77655355D01*
X158917036Y-77655355D01*
X158877000Y-77558461D01*
X158877000Y-76597807D01*
X159771912Y-76597807D01*
X160997900Y-77823795D01*
X162223888Y-76597807D01*
X162082422Y-76294618D01*
X161345945Y-76009663D01*
X160556482Y-76028236D01*
X159913378Y-76294618D01*
X159771912Y-76597807D01*
X158877000Y-76597807D01*
X158877000Y-76073000D01*
X158867333Y-76024399D01*
X158839803Y-75983197D01*
X158798601Y-75955667D01*
X158750000Y-75946000D01*
X155321000Y-75946000D01*
X155321000Y-73843396D01*
X155331972Y-73836065D01*
X155509507Y-73570364D01*
X155565472Y-73736381D01*
X155883015Y-74100015D01*
X156320691Y-74313462D01*
X156511300Y-74188731D01*
X156511300Y-73085000D01*
X156765300Y-73085000D01*
X156765300Y-74188731D01*
X156955909Y-74313462D01*
X157393585Y-74100015D01*
X157711128Y-73736381D01*
X157763341Y-73581493D01*
X158557061Y-73581493D01*
X158766863Y-74089251D01*
X159155005Y-74478072D01*
X159662397Y-74688759D01*
X160211793Y-74689239D01*
X160719551Y-74479437D01*
X161108372Y-74091295D01*
X161319059Y-73583903D01*
X161319539Y-73034507D01*
X161109737Y-72526749D01*
X160721595Y-72137928D01*
X160214203Y-71927241D01*
X159664807Y-71926761D01*
X159157049Y-72136563D01*
X158768228Y-72524705D01*
X158557541Y-73032097D01*
X158557061Y-73581493D01*
X157763341Y-73581493D01*
X157865343Y-73278908D01*
X157716345Y-73085000D01*
X156765300Y-73085000D01*
X156511300Y-73085000D01*
X156491300Y-73085000D01*
X156491300Y-72831000D01*
X156511300Y-72831000D01*
X156511300Y-71727269D01*
X156765300Y-71727269D01*
X156765300Y-72831000D01*
X157716345Y-72831000D01*
X157865343Y-72637092D01*
X157711128Y-72179619D01*
X157393585Y-71815985D01*
X156955909Y-71602538D01*
X156765300Y-71727269D01*
X156511300Y-71727269D01*
X156320691Y-71602538D01*
X155883015Y-71815985D01*
X155565472Y-72179619D01*
X155509507Y-72345636D01*
X155331972Y-72079935D01*
X155321000Y-72072604D01*
X155321000Y-70359479D01*
X163539100Y-70356911D01*
X163539100Y-98587698D01*
X163539100Y-98587698D01*
G37*
X163539100Y-98587698D02*
X162088563Y-98578218D01*
X162029760Y-93779878D01*
X162153762Y-93525609D01*
X162029031Y-93335000D01*
X160925300Y-93335000D01*
X160925300Y-93355000D01*
X160671300Y-93355000D01*
X160671300Y-93335000D01*
X159567569Y-93335000D01*
X159530142Y-93392194D01*
X157696132Y-93389403D01*
X157677585Y-93390736D01*
X155121630Y-93764048D01*
X153009600Y-93752115D01*
X153009600Y-93464250D01*
X153035000Y-93438850D01*
X153035000Y-91989600D01*
X153289000Y-91989600D01*
X153289000Y-93438850D01*
X153447750Y-93597600D01*
X153588309Y-93597600D01*
X153821698Y-93500927D01*
X154000327Y-93322299D01*
X154097000Y-93088910D01*
X154097000Y-92148350D01*
X153938250Y-91989600D01*
X153289000Y-91989600D01*
X153035000Y-91989600D01*
X153015000Y-91989600D01*
X153015000Y-91735600D01*
X153035000Y-91735600D01*
X153035000Y-90286350D01*
X153289000Y-90286350D01*
X153289000Y-91735600D01*
X153938250Y-91735600D01*
X154097000Y-91576850D01*
X154097000Y-91525609D01*
X159442838Y-91525609D01*
X159656285Y-91963285D01*
X159936520Y-92208000D01*
X159656285Y-92452715D01*
X159442838Y-92890391D01*
X159567569Y-93081000D01*
X160671300Y-93081000D01*
X160671300Y-91335000D01*
X160925300Y-91335000D01*
X160925300Y-93081000D01*
X162029031Y-93081000D01*
X162153762Y-92890391D01*
X161940315Y-92452715D01*
X161660080Y-92208000D01*
X161940315Y-91963285D01*
X162153762Y-91525609D01*
X162029031Y-91335000D01*
X160925300Y-91335000D01*
X160671300Y-91335000D01*
X159567569Y-91335000D01*
X159442838Y-91525609D01*
X154097000Y-91525609D01*
X154097000Y-90890391D01*
X159442838Y-90890391D01*
X159567569Y-91081000D01*
X160671300Y-91081000D01*
X160671300Y-90129955D01*
X160925300Y-90129955D01*
X160925300Y-91081000D01*
X162029031Y-91081000D01*
X162153762Y-90890391D01*
X161940315Y-90452715D01*
X161576681Y-90135172D01*
X161119208Y-89980957D01*
X160925300Y-90129955D01*
X160671300Y-90129955D01*
X160477392Y-89980957D01*
X160019919Y-90135172D01*
X159656285Y-90452715D01*
X159442838Y-90890391D01*
X154097000Y-90890391D01*
X154097000Y-90636290D01*
X154000327Y-90402901D01*
X153821698Y-90224273D01*
X153588309Y-90127600D01*
X153447750Y-90127600D01*
X153289000Y-90286350D01*
X153035000Y-90286350D01*
X153009600Y-90260950D01*
X153009600Y-89939335D01*
X153240914Y-89682319D01*
X153438723Y-89600586D01*
X153658614Y-89381079D01*
X153777764Y-89094132D01*
X153777771Y-89085811D01*
X154667001Y-88097778D01*
X154667001Y-88398401D01*
X154701803Y-88573364D01*
X154768731Y-88673528D01*
X154768464Y-88978469D01*
X154887114Y-89265623D01*
X155106621Y-89485514D01*
X155393568Y-89604664D01*
X155704269Y-89604936D01*
X155991423Y-89486286D01*
X156211314Y-89266779D01*
X156330464Y-88979832D01*
X156330736Y-88669131D01*
X156212086Y-88381977D01*
X155992579Y-88162086D01*
X155705632Y-88042936D01*
X155581401Y-88042827D01*
X155581401Y-87816393D01*
X155911112Y-87816393D01*
X156052578Y-88119582D01*
X156789055Y-88404537D01*
X157578518Y-88385964D01*
X158221622Y-88119582D01*
X158363088Y-87816393D01*
X159721112Y-87816393D01*
X159862578Y-88119582D01*
X160599055Y-88404537D01*
X161388518Y-88385964D01*
X162031622Y-88119582D01*
X162173088Y-87816393D01*
X160947100Y-86590405D01*
X159721112Y-87816393D01*
X158363088Y-87816393D01*
X157137100Y-86590405D01*
X155911112Y-87816393D01*
X155581401Y-87816393D01*
X155581401Y-87566750D01*
X155731507Y-87636788D01*
X156957495Y-86410800D01*
X157316705Y-86410800D01*
X158542693Y-87636788D01*
X158845882Y-87495322D01*
X159035414Y-87005468D01*
X159238318Y-87495322D01*
X159541507Y-87636788D01*
X160767495Y-86410800D01*
X161126705Y-86410800D01*
X162352693Y-87636788D01*
X162655882Y-87495322D01*
X162940837Y-86758845D01*
X162922264Y-85969382D01*
X162655882Y-85326278D01*
X162352693Y-85184812D01*
X161126705Y-86410800D01*
X160767495Y-86410800D01*
X159541507Y-85184812D01*
X159238318Y-85326278D01*
X159048786Y-85816132D01*
X158845882Y-85326278D01*
X158542693Y-85184812D01*
X157316705Y-86410800D01*
X156957495Y-86410800D01*
X156943353Y-86396658D01*
X157122958Y-86217053D01*
X157137100Y-86231195D01*
X158363088Y-85005207D01*
X159721112Y-85005207D01*
X160947100Y-86231195D01*
X162173088Y-85005207D01*
X162031622Y-84702018D01*
X161295145Y-84417063D01*
X160505682Y-84435636D01*
X159862578Y-84702018D01*
X159721112Y-85005207D01*
X158363088Y-85005207D01*
X158221622Y-84702018D01*
X158009694Y-84620020D01*
X158328659Y-84620298D01*
X158748912Y-84446654D01*
X159070723Y-84125403D01*
X159245101Y-83705454D01*
X159245498Y-83250741D01*
X159071854Y-82830488D01*
X158856854Y-82615113D01*
X158872877Y-82582096D01*
X158877000Y-82550000D01*
X158877000Y-81778789D01*
X159070723Y-81585403D01*
X159245101Y-81165454D01*
X159245498Y-80710741D01*
X159071854Y-80290488D01*
X158877000Y-80095294D01*
X158877000Y-79408993D01*
X159771912Y-79408993D01*
X159913378Y-79712182D01*
X160649855Y-79997137D01*
X161439318Y-79978564D01*
X162082422Y-79712182D01*
X162223888Y-79408993D01*
X160997900Y-78183005D01*
X159771912Y-79408993D01*
X158877000Y-79408993D01*
X158877000Y-78449409D01*
X158918599Y-78349228D01*
X158919200Y-77660593D01*
X158917036Y-77655355D01*
X159004163Y-77655355D01*
X159022736Y-78444818D01*
X159289118Y-79087922D01*
X159592307Y-79229388D01*
X160818295Y-78003400D01*
X161177505Y-78003400D01*
X162403493Y-79229388D01*
X162706682Y-79087922D01*
X162991637Y-78351445D01*
X162973064Y-77561982D01*
X162706682Y-76918878D01*
X162403493Y-76777412D01*
X161177505Y-78003400D01*
X160818295Y-78003400D01*
X159592307Y-76777412D01*
X159289118Y-76918878D01*
X159004163Y-77655355D01*
X158917036Y-77655355D01*
X158877000Y-77558461D01*
X158877000Y-76597807D01*
X159771912Y-76597807D01*
X160997900Y-77823795D01*
X162223888Y-76597807D01*
X162082422Y-76294618D01*
X161345945Y-76009663D01*
X160556482Y-76028236D01*
X159913378Y-76294618D01*
X159771912Y-76597807D01*
X158877000Y-76597807D01*
X158877000Y-76073000D01*
X158867333Y-76024399D01*
X158839803Y-75983197D01*
X158798601Y-75955667D01*
X158750000Y-75946000D01*
X155321000Y-75946000D01*
X155321000Y-73843396D01*
X155331972Y-73836065D01*
X155509507Y-73570364D01*
X155565472Y-73736381D01*
X155883015Y-74100015D01*
X156320691Y-74313462D01*
X156511300Y-74188731D01*
X156511300Y-73085000D01*
X156765300Y-73085000D01*
X156765300Y-74188731D01*
X156955909Y-74313462D01*
X157393585Y-74100015D01*
X157711128Y-73736381D01*
X157763341Y-73581493D01*
X158557061Y-73581493D01*
X158766863Y-74089251D01*
X159155005Y-74478072D01*
X159662397Y-74688759D01*
X160211793Y-74689239D01*
X160719551Y-74479437D01*
X161108372Y-74091295D01*
X161319059Y-73583903D01*
X161319539Y-73034507D01*
X161109737Y-72526749D01*
X160721595Y-72137928D01*
X160214203Y-71927241D01*
X159664807Y-71926761D01*
X159157049Y-72136563D01*
X158768228Y-72524705D01*
X158557541Y-73032097D01*
X158557061Y-73581493D01*
X157763341Y-73581493D01*
X157865343Y-73278908D01*
X157716345Y-73085000D01*
X156765300Y-73085000D01*
X156511300Y-73085000D01*
X156491300Y-73085000D01*
X156491300Y-72831000D01*
X156511300Y-72831000D01*
X156511300Y-71727269D01*
X156765300Y-71727269D01*
X156765300Y-72831000D01*
X157716345Y-72831000D01*
X157865343Y-72637092D01*
X157711128Y-72179619D01*
X157393585Y-71815985D01*
X156955909Y-71602538D01*
X156765300Y-71727269D01*
X156511300Y-71727269D01*
X156320691Y-71602538D01*
X155883015Y-71815985D01*
X155565472Y-72179619D01*
X155509507Y-72345636D01*
X155331972Y-72079935D01*
X155321000Y-72072604D01*
X155321000Y-70359479D01*
X163539100Y-70356911D01*
X163539100Y-98587698D01*
G36*
X141439900Y-88278822D02*
X141205511Y-88513211D01*
X141106402Y-88661537D01*
X141071600Y-88836500D01*
X141071600Y-95413524D01*
X137935150Y-95402401D01*
X137886516Y-95411896D01*
X137845216Y-95439280D01*
X137841816Y-95444329D01*
X137713309Y-95391100D01*
X137572750Y-95391100D01*
X137414000Y-95549850D01*
X137414000Y-96999100D01*
X137434000Y-96999100D01*
X137434000Y-97253100D01*
X137414000Y-97253100D01*
X137414000Y-97273100D01*
X137160000Y-97273100D01*
X137160000Y-97253100D01*
X136144000Y-97253100D01*
X136144000Y-97273100D01*
X135890000Y-97273100D01*
X135890000Y-97253100D01*
X135870000Y-97253100D01*
X135870000Y-96999100D01*
X135890000Y-96999100D01*
X135890000Y-95549850D01*
X136144000Y-95549850D01*
X136144000Y-96999100D01*
X137160000Y-96999100D01*
X137160000Y-95549850D01*
X137001250Y-95391100D01*
X136860691Y-95391100D01*
X136652000Y-95477543D01*
X136443309Y-95391100D01*
X136302750Y-95391100D01*
X136144000Y-95549850D01*
X135890000Y-95549850D01*
X135731250Y-95391100D01*
X135590691Y-95391100D01*
X135520925Y-95419998D01*
X135496300Y-95415100D01*
X134048500Y-95415100D01*
X133999899Y-95424767D01*
X133994040Y-95428682D01*
X133903309Y-95391100D01*
X133762750Y-95391100D01*
X133604000Y-95549850D01*
X133604000Y-96999100D01*
X133624000Y-96999100D01*
X133624000Y-97253100D01*
X133604000Y-97253100D01*
X133604000Y-97273100D01*
X133350000Y-97273100D01*
X133350000Y-97253100D01*
X132334000Y-97253100D01*
X132334000Y-97273100D01*
X132080000Y-97273100D01*
X132080000Y-97253100D01*
X132060000Y-97253100D01*
X132060000Y-96999100D01*
X132080000Y-96999100D01*
X132080000Y-95549850D01*
X132334000Y-95549850D01*
X132334000Y-96999100D01*
X133350000Y-96999100D01*
X133350000Y-95549850D01*
X133191250Y-95391100D01*
X133050691Y-95391100D01*
X132842000Y-95477543D01*
X132633309Y-95391100D01*
X132492750Y-95391100D01*
X132334000Y-95549850D01*
X132080000Y-95549850D01*
X131921250Y-95391100D01*
X131780691Y-95391100D01*
X131547302Y-95487773D01*
X131527483Y-95507591D01*
X131512251Y-95471176D01*
X131477090Y-95436259D01*
X131406900Y-95415100D01*
X127889000Y-95415100D01*
X127889000Y-91300300D01*
X130136900Y-91300300D01*
X130136900Y-93484700D01*
X130146567Y-93533301D01*
X130174097Y-93574503D01*
X130215299Y-93602033D01*
X130263490Y-93611699D01*
X138072338Y-93636930D01*
X138130691Y-93661100D01*
X138271250Y-93661100D01*
X138430000Y-93502350D01*
X138430000Y-92053100D01*
X138684000Y-92053100D01*
X138684000Y-93502350D01*
X138842750Y-93661100D01*
X138983309Y-93661100D01*
X139216698Y-93564427D01*
X139395327Y-93385799D01*
X139492000Y-93152410D01*
X139492000Y-92211850D01*
X139333250Y-92053100D01*
X138684000Y-92053100D01*
X138430000Y-92053100D01*
X138410000Y-92053100D01*
X138410000Y-91799100D01*
X138430000Y-91799100D01*
X138430000Y-90349850D01*
X138684000Y-90349850D01*
X138684000Y-91799100D01*
X139333250Y-91799100D01*
X139492000Y-91640350D01*
X139492000Y-90699790D01*
X139395327Y-90466401D01*
X139216698Y-90287773D01*
X138983309Y-90191100D01*
X138842750Y-90191100D01*
X138684000Y-90349850D01*
X138430000Y-90349850D01*
X138282972Y-90202822D01*
X138294789Y-88932489D01*
X138410389Y-88816889D01*
X138509498Y-88668563D01*
X138544300Y-88493600D01*
X138544300Y-88174856D01*
X141439900Y-88165074D01*
X141439900Y-88278822D01*
X141439900Y-88278822D01*
G37*
X141439900Y-88278822D02*
X141205511Y-88513211D01*
X141106402Y-88661537D01*
X141071600Y-88836500D01*
X141071600Y-95413524D01*
X137935150Y-95402401D01*
X137886516Y-95411896D01*
X137845216Y-95439280D01*
X137841816Y-95444329D01*
X137713309Y-95391100D01*
X137572750Y-95391100D01*
X137414000Y-95549850D01*
X137414000Y-96999100D01*
X137434000Y-96999100D01*
X137434000Y-97253100D01*
X137414000Y-97253100D01*
X137414000Y-97273100D01*
X137160000Y-97273100D01*
X137160000Y-97253100D01*
X136144000Y-97253100D01*
X136144000Y-97273100D01*
X135890000Y-97273100D01*
X135890000Y-97253100D01*
X135870000Y-97253100D01*
X135870000Y-96999100D01*
X135890000Y-96999100D01*
X135890000Y-95549850D01*
X136144000Y-95549850D01*
X136144000Y-96999100D01*
X137160000Y-96999100D01*
X137160000Y-95549850D01*
X137001250Y-95391100D01*
X136860691Y-95391100D01*
X136652000Y-95477543D01*
X136443309Y-95391100D01*
X136302750Y-95391100D01*
X136144000Y-95549850D01*
X135890000Y-95549850D01*
X135731250Y-95391100D01*
X135590691Y-95391100D01*
X135520925Y-95419998D01*
X135496300Y-95415100D01*
X134048500Y-95415100D01*
X133999899Y-95424767D01*
X133994040Y-95428682D01*
X133903309Y-95391100D01*
X133762750Y-95391100D01*
X133604000Y-95549850D01*
X133604000Y-96999100D01*
X133624000Y-96999100D01*
X133624000Y-97253100D01*
X133604000Y-97253100D01*
X133604000Y-97273100D01*
X133350000Y-97273100D01*
X133350000Y-97253100D01*
X132334000Y-97253100D01*
X132334000Y-97273100D01*
X132080000Y-97273100D01*
X132080000Y-97253100D01*
X132060000Y-97253100D01*
X132060000Y-96999100D01*
X132080000Y-96999100D01*
X132080000Y-95549850D01*
X132334000Y-95549850D01*
X132334000Y-96999100D01*
X133350000Y-96999100D01*
X133350000Y-95549850D01*
X133191250Y-95391100D01*
X133050691Y-95391100D01*
X132842000Y-95477543D01*
X132633309Y-95391100D01*
X132492750Y-95391100D01*
X132334000Y-95549850D01*
X132080000Y-95549850D01*
X131921250Y-95391100D01*
X131780691Y-95391100D01*
X131547302Y-95487773D01*
X131527483Y-95507591D01*
X131512251Y-95471176D01*
X131477090Y-95436259D01*
X131406900Y-95415100D01*
X127889000Y-95415100D01*
X127889000Y-91300300D01*
X130136900Y-91300300D01*
X130136900Y-93484700D01*
X130146567Y-93533301D01*
X130174097Y-93574503D01*
X130215299Y-93602033D01*
X130263490Y-93611699D01*
X138072338Y-93636930D01*
X138130691Y-93661100D01*
X138271250Y-93661100D01*
X138430000Y-93502350D01*
X138430000Y-92053100D01*
X138684000Y-92053100D01*
X138684000Y-93502350D01*
X138842750Y-93661100D01*
X138983309Y-93661100D01*
X139216698Y-93564427D01*
X139395327Y-93385799D01*
X139492000Y-93152410D01*
X139492000Y-92211850D01*
X139333250Y-92053100D01*
X138684000Y-92053100D01*
X138430000Y-92053100D01*
X138410000Y-92053100D01*
X138410000Y-91799100D01*
X138430000Y-91799100D01*
X138430000Y-90349850D01*
X138684000Y-90349850D01*
X138684000Y-91799100D01*
X139333250Y-91799100D01*
X139492000Y-91640350D01*
X139492000Y-90699790D01*
X139395327Y-90466401D01*
X139216698Y-90287773D01*
X138983309Y-90191100D01*
X138842750Y-90191100D01*
X138684000Y-90349850D01*
X138430000Y-90349850D01*
X138282972Y-90202822D01*
X138294789Y-88932489D01*
X138410389Y-88816889D01*
X138509498Y-88668563D01*
X138544300Y-88493600D01*
X138544300Y-88174856D01*
X141439900Y-88165074D01*
X141439900Y-88278822D01*
%TD*%
M02*
