%TF.GenerationSoftware,KiCad,Pcbnew,no-vcs-found-f685cfa~60~ubuntu16.04.1*%
%TF.CreationDate,2017-10-11T22:15:00+02:00*%
%TF.ProjectId,usb_alien,7573625F616C69656E2E6B696361645F,rev?*%
%TF.SameCoordinates,Original*%
%TF.FileFunction,Soldermask,Top*%
%TF.FilePolarity,Negative*%
%FSLAX46Y46*%
G04 Gerber Fmt 4.6, Leading zero omitted, Abs format (unit mm)*
G04 Created by KiCad (PCBNEW no-vcs-found-f685cfa~60~ubuntu16.04.1) date Wed Oct 11 22:15:00 2017*
%MOMM*%
%LPD*%
G01*
G04 APERTURE LIST*
%ADD10C,3.100000*%
%ADD11R,3.100000X3.100000*%
%ADD12R,1.370000X1.670000*%
%ADD13R,1.466800X1.314400*%
%ADD14R,1.924000X1.924000*%
%ADD15C,1.924000*%
%ADD16R,1.466800X1.974800*%
%ADD17O,1.600000X1.924000*%
%ADD18R,1.600000X1.924000*%
%ADD19O,1.924000X1.600000*%
%ADD20R,1.924000X1.600000*%
%ADD21C,2.400000*%
%ADD22R,1.314400X1.466800*%
G04 APERTURE END LIST*
D10*
%TO.C,P2*%
X145567400Y-102831900D03*
X149377400Y-102831900D03*
X153187400Y-102831900D03*
D11*
X156997400Y-102831900D03*
%TD*%
D12*
%TO.C,J5*%
X131605100Y-91554300D03*
X132885100Y-91554300D03*
%TD*%
%TO.C,J4*%
X149308900Y-97091500D03*
X150588900Y-97091500D03*
%TD*%
%TO.C,J3*%
X148496100Y-91795600D03*
X149776100Y-91795600D03*
%TD*%
D13*
%TO.C,C2*%
X128993900Y-94640400D03*
X128993900Y-96164400D03*
%TD*%
%TO.C,C1*%
X144106900Y-95135700D03*
X144106900Y-93611700D03*
%TD*%
D11*
%TO.C,P1*%
X129476500Y-102831900D03*
D10*
X133286500Y-102831900D03*
X137096500Y-102831900D03*
X140906500Y-102831900D03*
%TD*%
D14*
%TO.C,J2*%
X130162300Y-80937100D03*
D15*
X130162300Y-83477100D03*
X132702300Y-80937100D03*
X132702300Y-83477100D03*
X135242300Y-80937100D03*
X135242300Y-83477100D03*
X137782300Y-80937100D03*
X137782300Y-83477100D03*
X140322300Y-80937100D03*
X140322300Y-83477100D03*
X142862300Y-80937100D03*
X142862300Y-83477100D03*
X145402300Y-80937100D03*
X145402300Y-83477100D03*
X147942300Y-80937100D03*
X147942300Y-83477100D03*
X150482300Y-80937100D03*
X150482300Y-83477100D03*
X153022300Y-80937100D03*
X153022300Y-83477100D03*
X155562300Y-80937100D03*
X155562300Y-83477100D03*
X158102300Y-80937100D03*
X158102300Y-83477100D03*
%TD*%
D10*
%TO.C,P4*%
X160947100Y-86410800D03*
X157137100Y-86410800D03*
X153327100Y-86410800D03*
X149517100Y-86410800D03*
X145707100Y-86410800D03*
X141897100Y-86410800D03*
X138087100Y-86410800D03*
X134277100Y-86410800D03*
X130467100Y-86410800D03*
D11*
X126657100Y-86410800D03*
%TD*%
%TO.C,P3*%
X126707900Y-78003400D03*
D10*
X130517900Y-78003400D03*
X134327900Y-78003400D03*
X138137900Y-78003400D03*
X141947900Y-78003400D03*
X145757900Y-78003400D03*
X149567900Y-78003400D03*
X153377900Y-78003400D03*
X157187900Y-78003400D03*
X160997900Y-78003400D03*
%TD*%
D16*
%TO.C,D1*%
X130771900Y-72593200D03*
X132499100Y-72593200D03*
%TD*%
D17*
%TO.C,J1*%
X162098300Y-108168000D03*
X160098300Y-108168000D03*
X158098300Y-108168000D03*
X156098300Y-108168000D03*
X154098300Y-108168000D03*
X152098300Y-108168000D03*
X150098300Y-108168000D03*
D18*
X148098300Y-108168000D03*
D17*
X145558300Y-108168000D03*
X143558300Y-108168000D03*
X141558300Y-108168000D03*
X139558300Y-108168000D03*
X135558300Y-108168000D03*
X133558300Y-108168000D03*
X137558300Y-108168000D03*
D18*
X131558300Y-108168000D03*
D17*
X156638300Y-72958000D03*
X154638300Y-72958000D03*
X152638300Y-72958000D03*
X150638300Y-72958000D03*
X144638300Y-72958000D03*
X148638300Y-72958000D03*
X146638300Y-72958000D03*
X142638300Y-72958000D03*
D18*
X140638300Y-72958000D03*
D19*
X160798300Y-91208000D03*
X160798300Y-93208000D03*
X160798300Y-95208000D03*
D20*
X160798300Y-99208000D03*
D19*
X160798300Y-97208000D03*
D21*
X160808300Y-104948000D03*
X159938300Y-73308000D03*
X136858300Y-73308000D03*
%TD*%
D22*
%TO.C,R1*%
X127139700Y-72580500D03*
X128663700Y-72580500D03*
%TD*%
M02*
