%TF.GenerationSoftware,KiCad,Pcbnew,no-vcs-found-f685cfa~60~ubuntu16.04.1*%
%TF.CreationDate,2017-10-11T22:15:00+02:00*%
%TF.ProjectId,usb_alien,7573625F616C69656E2E6B696361645F,rev?*%
%TF.SameCoordinates,Original*%
%TF.FileFunction,Legend,Top*%
%TF.FilePolarity,Positive*%
%FSLAX46Y46*%
G04 Gerber Fmt 4.6, Leading zero omitted, Abs format (unit mm)*
G04 Created by KiCad (PCBNEW no-vcs-found-f685cfa~60~ubuntu16.04.1) date Wed Oct 11 22:15:00 2017*
%MOMM*%
%LPD*%
G01*
G04 APERTURE LIST*
%ADD10C,0.127000*%
%ADD11C,0.150000*%
%ADD12C,0.120000*%
%ADD13C,0.203200*%
%ADD14C,0.300000*%
%ADD15C,0.400000*%
G04 APERTURE END LIST*
D10*
X124450323Y-108883752D02*
X124401942Y-108980514D01*
X124401942Y-109174038D01*
X124450323Y-109270800D01*
X124547085Y-109367561D01*
X124643847Y-109415942D01*
X124837371Y-109415942D01*
X124934133Y-109367561D01*
X125030895Y-109270800D01*
X125079276Y-109174038D01*
X125079276Y-108980514D01*
X125030895Y-108883752D01*
X124063276Y-109077276D02*
X124111657Y-109319180D01*
X124256800Y-109561085D01*
X124498704Y-109706228D01*
X124740609Y-109754609D01*
X124982514Y-109706228D01*
X125224419Y-109561085D01*
X125369561Y-109319180D01*
X125417942Y-109077276D01*
X125369561Y-108835371D01*
X125224419Y-108593466D01*
X124982514Y-108448323D01*
X124740609Y-108399942D01*
X124498704Y-108448323D01*
X124256800Y-108593466D01*
X124111657Y-108835371D01*
X124063276Y-109077276D01*
X124305180Y-107238800D02*
X124256800Y-107190419D01*
X124208419Y-107093657D01*
X124208419Y-106851752D01*
X124256800Y-106754990D01*
X124305180Y-106706609D01*
X124401942Y-106658228D01*
X124498704Y-106658228D01*
X124643847Y-106706609D01*
X125224419Y-107287180D01*
X125224419Y-106658228D01*
X124208419Y-106029276D02*
X124208419Y-105932514D01*
X124256800Y-105835752D01*
X124305180Y-105787371D01*
X124401942Y-105738990D01*
X124595466Y-105690609D01*
X124837371Y-105690609D01*
X125030895Y-105738990D01*
X125127657Y-105787371D01*
X125176038Y-105835752D01*
X125224419Y-105932514D01*
X125224419Y-106029276D01*
X125176038Y-106126038D01*
X125127657Y-106174419D01*
X125030895Y-106222800D01*
X124837371Y-106271180D01*
X124595466Y-106271180D01*
X124401942Y-106222800D01*
X124305180Y-106174419D01*
X124256800Y-106126038D01*
X124208419Y-106029276D01*
X125224419Y-104722990D02*
X125224419Y-105303561D01*
X125224419Y-105013276D02*
X124208419Y-105013276D01*
X124353561Y-105110038D01*
X124450323Y-105206800D01*
X124498704Y-105303561D01*
X124208419Y-104384323D02*
X124208419Y-103706990D01*
X125224419Y-104142419D01*
X125224419Y-102545847D02*
X124208419Y-102545847D01*
X125224419Y-101965276D01*
X124208419Y-101965276D01*
X125224419Y-101481466D02*
X124547085Y-101481466D01*
X124208419Y-101481466D02*
X124256800Y-101529847D01*
X124305180Y-101481466D01*
X124256800Y-101433085D01*
X124208419Y-101481466D01*
X124305180Y-101481466D01*
X125224419Y-100852514D02*
X125176038Y-100949276D01*
X125079276Y-100997657D01*
X124208419Y-100997657D01*
X124547085Y-100030038D02*
X125224419Y-100030038D01*
X124547085Y-100465466D02*
X125079276Y-100465466D01*
X125176038Y-100417085D01*
X125224419Y-100320323D01*
X125224419Y-100175180D01*
X125176038Y-100078419D01*
X125127657Y-100030038D01*
X124547085Y-99546228D02*
X125417942Y-99546228D01*
X125514704Y-99594609D01*
X125563085Y-99691371D01*
X125563085Y-99739752D01*
X124208419Y-99546228D02*
X124256800Y-99594609D01*
X124305180Y-99546228D01*
X124256800Y-99497847D01*
X124208419Y-99546228D01*
X124305180Y-99546228D01*
X125176038Y-98675371D02*
X125224419Y-98772133D01*
X125224419Y-98965657D01*
X125176038Y-99062419D01*
X125079276Y-99110800D01*
X124692228Y-99110800D01*
X124595466Y-99062419D01*
X124547085Y-98965657D01*
X124547085Y-98772133D01*
X124595466Y-98675371D01*
X124692228Y-98626990D01*
X124788990Y-98626990D01*
X124885752Y-99110800D01*
X132568042Y-98529019D02*
X132229376Y-98045209D01*
X131987471Y-98529019D02*
X131987471Y-97513019D01*
X132374519Y-97513019D01*
X132471280Y-97561400D01*
X132519661Y-97609780D01*
X132568042Y-97706542D01*
X132568042Y-97851685D01*
X132519661Y-97948447D01*
X132471280Y-97996828D01*
X132374519Y-98045209D01*
X131987471Y-98045209D01*
X133390519Y-98480638D02*
X133293757Y-98529019D01*
X133100233Y-98529019D01*
X133003471Y-98480638D01*
X132955090Y-98383876D01*
X132955090Y-97996828D01*
X133003471Y-97900066D01*
X133100233Y-97851685D01*
X133293757Y-97851685D01*
X133390519Y-97900066D01*
X133438900Y-97996828D01*
X133438900Y-98093590D01*
X132955090Y-98190352D01*
X133777566Y-97851685D02*
X134019471Y-98529019D01*
X134261376Y-97851685D01*
X135761185Y-97996828D02*
X135906328Y-98045209D01*
X135954709Y-98093590D01*
X136003090Y-98190352D01*
X136003090Y-98335495D01*
X135954709Y-98432257D01*
X135906328Y-98480638D01*
X135809566Y-98529019D01*
X135422519Y-98529019D01*
X135422519Y-97513019D01*
X135761185Y-97513019D01*
X135857947Y-97561400D01*
X135906328Y-97609780D01*
X135954709Y-97706542D01*
X135954709Y-97803304D01*
X135906328Y-97900066D01*
X135857947Y-97948447D01*
X135761185Y-97996828D01*
X135422519Y-97996828D01*
X136632042Y-97513019D02*
X136728804Y-97513019D01*
X136825566Y-97561400D01*
X136873947Y-97609780D01*
X136922328Y-97706542D01*
X136970709Y-97900066D01*
X136970709Y-98141971D01*
X136922328Y-98335495D01*
X136873947Y-98432257D01*
X136825566Y-98480638D01*
X136728804Y-98529019D01*
X136632042Y-98529019D01*
X136535280Y-98480638D01*
X136486900Y-98432257D01*
X136438519Y-98335495D01*
X136390138Y-98141971D01*
X136390138Y-97900066D01*
X136438519Y-97706542D01*
X136486900Y-97609780D01*
X136535280Y-97561400D01*
X136632042Y-97513019D01*
X131907642Y-94058619D02*
X131907642Y-93042619D01*
X132149547Y-93042619D01*
X132294690Y-93091000D01*
X132391452Y-93187761D01*
X132439833Y-93284523D01*
X132488214Y-93478047D01*
X132488214Y-93623190D01*
X132439833Y-93816714D01*
X132391452Y-93913476D01*
X132294690Y-94010238D01*
X132149547Y-94058619D01*
X131907642Y-94058619D01*
X133068785Y-94058619D02*
X132972023Y-94010238D01*
X132923642Y-93961857D01*
X132875261Y-93865095D01*
X132875261Y-93574809D01*
X132923642Y-93478047D01*
X132972023Y-93429666D01*
X133068785Y-93381285D01*
X133213928Y-93381285D01*
X133310690Y-93429666D01*
X133359071Y-93478047D01*
X133407452Y-93574809D01*
X133407452Y-93865095D01*
X133359071Y-93961857D01*
X133310690Y-94010238D01*
X133213928Y-94058619D01*
X133068785Y-94058619D01*
X133842880Y-93381285D02*
X133842880Y-94397285D01*
X133842880Y-93429666D02*
X133939642Y-93381285D01*
X134133166Y-93381285D01*
X134229928Y-93429666D01*
X134278309Y-93478047D01*
X134326690Y-93574809D01*
X134326690Y-93865095D01*
X134278309Y-93961857D01*
X134229928Y-94010238D01*
X134133166Y-94058619D01*
X133939642Y-94058619D01*
X133842880Y-94010238D01*
X134762119Y-93381285D02*
X134762119Y-94397285D01*
X134762119Y-93429666D02*
X134858880Y-93381285D01*
X135052404Y-93381285D01*
X135149166Y-93429666D01*
X135197547Y-93478047D01*
X135245928Y-93574809D01*
X135245928Y-93865095D01*
X135197547Y-93961857D01*
X135149166Y-94010238D01*
X135052404Y-94058619D01*
X134858880Y-94058619D01*
X134762119Y-94010238D01*
X136068404Y-94010238D02*
X135971642Y-94058619D01*
X135778119Y-94058619D01*
X135681357Y-94010238D01*
X135632976Y-93913476D01*
X135632976Y-93526428D01*
X135681357Y-93429666D01*
X135778119Y-93381285D01*
X135971642Y-93381285D01*
X136068404Y-93429666D01*
X136116785Y-93526428D01*
X136116785Y-93623190D01*
X135632976Y-93719952D01*
X136697357Y-94058619D02*
X136600595Y-94010238D01*
X136552214Y-93913476D01*
X136552214Y-93042619D01*
X137519833Y-93381285D02*
X137519833Y-94203761D01*
X137471452Y-94300523D01*
X137423071Y-94348904D01*
X137326309Y-94397285D01*
X137181166Y-94397285D01*
X137084404Y-94348904D01*
X137519833Y-94010238D02*
X137423071Y-94058619D01*
X137229547Y-94058619D01*
X137132785Y-94010238D01*
X137084404Y-93961857D01*
X137036023Y-93865095D01*
X137036023Y-93574809D01*
X137084404Y-93478047D01*
X137132785Y-93429666D01*
X137229547Y-93381285D01*
X137423071Y-93381285D01*
X137519833Y-93429666D01*
X138439071Y-94058619D02*
X138439071Y-93526428D01*
X138390690Y-93429666D01*
X138293928Y-93381285D01*
X138100404Y-93381285D01*
X138003642Y-93429666D01*
X138439071Y-94010238D02*
X138342309Y-94058619D01*
X138100404Y-94058619D01*
X138003642Y-94010238D01*
X137955261Y-93913476D01*
X137955261Y-93816714D01*
X138003642Y-93719952D01*
X138100404Y-93671571D01*
X138342309Y-93671571D01*
X138439071Y-93623190D01*
X138922880Y-93381285D02*
X138922880Y-94058619D01*
X138922880Y-93478047D02*
X138971261Y-93429666D01*
X139068023Y-93381285D01*
X139213166Y-93381285D01*
X139309928Y-93429666D01*
X139358309Y-93526428D01*
X139358309Y-94058619D01*
X140277547Y-93381285D02*
X140277547Y-94203761D01*
X140229166Y-94300523D01*
X140180785Y-94348904D01*
X140084023Y-94397285D01*
X139938880Y-94397285D01*
X139842119Y-94348904D01*
X140277547Y-94010238D02*
X140180785Y-94058619D01*
X139987261Y-94058619D01*
X139890500Y-94010238D01*
X139842119Y-93961857D01*
X139793738Y-93865095D01*
X139793738Y-93574809D01*
X139842119Y-93478047D01*
X139890500Y-93429666D01*
X139987261Y-93381285D01*
X140180785Y-93381285D01*
X140277547Y-93429666D01*
X141148404Y-94010238D02*
X141051642Y-94058619D01*
X140858119Y-94058619D01*
X140761357Y-94010238D01*
X140712976Y-93913476D01*
X140712976Y-93526428D01*
X140761357Y-93429666D01*
X140858119Y-93381285D01*
X141051642Y-93381285D01*
X141148404Y-93429666D01*
X141196785Y-93526428D01*
X141196785Y-93623190D01*
X140712976Y-93719952D01*
X141632214Y-94058619D02*
X141632214Y-93381285D01*
X141632214Y-93574809D02*
X141680595Y-93478047D01*
X141728976Y-93429666D01*
X141825738Y-93381285D01*
X141922500Y-93381285D01*
X131950580Y-96039819D02*
X131950580Y-96862295D01*
X131998961Y-96959057D01*
X132047342Y-97007438D01*
X132144104Y-97055819D01*
X132337628Y-97055819D01*
X132434390Y-97007438D01*
X132482771Y-96959057D01*
X132531152Y-96862295D01*
X132531152Y-96039819D01*
X132966580Y-97007438D02*
X133111723Y-97055819D01*
X133353628Y-97055819D01*
X133450390Y-97007438D01*
X133498771Y-96959057D01*
X133547152Y-96862295D01*
X133547152Y-96765533D01*
X133498771Y-96668771D01*
X133450390Y-96620390D01*
X133353628Y-96572009D01*
X133160104Y-96523628D01*
X133063342Y-96475247D01*
X133014961Y-96426866D01*
X132966580Y-96330104D01*
X132966580Y-96233342D01*
X133014961Y-96136580D01*
X133063342Y-96088200D01*
X133160104Y-96039819D01*
X133402009Y-96039819D01*
X133547152Y-96088200D01*
X134321247Y-96523628D02*
X134466390Y-96572009D01*
X134514771Y-96620390D01*
X134563152Y-96717152D01*
X134563152Y-96862295D01*
X134514771Y-96959057D01*
X134466390Y-97007438D01*
X134369628Y-97055819D01*
X133982580Y-97055819D01*
X133982580Y-96039819D01*
X134321247Y-96039819D01*
X134418009Y-96088200D01*
X134466390Y-96136580D01*
X134514771Y-96233342D01*
X134514771Y-96330104D01*
X134466390Y-96426866D01*
X134418009Y-96475247D01*
X134321247Y-96523628D01*
X133982580Y-96523628D01*
X135724295Y-96765533D02*
X136208104Y-96765533D01*
X135627533Y-97055819D02*
X135966200Y-96039819D01*
X136304866Y-97055819D01*
X136788676Y-97055819D02*
X136691914Y-97007438D01*
X136643533Y-96910676D01*
X136643533Y-96039819D01*
X137175723Y-97055819D02*
X137175723Y-96378485D01*
X137175723Y-96039819D02*
X137127342Y-96088200D01*
X137175723Y-96136580D01*
X137224104Y-96088200D01*
X137175723Y-96039819D01*
X137175723Y-96136580D01*
X138046580Y-97007438D02*
X137949819Y-97055819D01*
X137756295Y-97055819D01*
X137659533Y-97007438D01*
X137611152Y-96910676D01*
X137611152Y-96523628D01*
X137659533Y-96426866D01*
X137756295Y-96378485D01*
X137949819Y-96378485D01*
X138046580Y-96426866D01*
X138094961Y-96523628D01*
X138094961Y-96620390D01*
X137611152Y-96717152D01*
X138530390Y-96378485D02*
X138530390Y-97055819D01*
X138530390Y-96475247D02*
X138578771Y-96426866D01*
X138675533Y-96378485D01*
X138820676Y-96378485D01*
X138917438Y-96426866D01*
X138965819Y-96523628D01*
X138965819Y-97055819D01*
D11*
%TO.C,P2*%
X159197400Y-99131900D02*
X159197400Y-106531900D01*
X143367400Y-99131900D02*
X159197400Y-99131900D01*
X143367400Y-106531900D02*
X143367400Y-99131900D01*
X159197400Y-106531900D02*
X143367400Y-106531900D01*
D12*
%TO.C,J5*%
X133515100Y-90664300D02*
X133515100Y-92444300D01*
X130975100Y-92444300D02*
X130975100Y-90664300D01*
X130975100Y-92444300D02*
X133515100Y-92444300D01*
X133515100Y-90664300D02*
X130975100Y-90664300D01*
%TO.C,J4*%
X148678900Y-97981500D02*
X151218900Y-97981500D01*
X151218900Y-96201500D02*
X148678900Y-96201500D01*
X151218900Y-96201500D02*
X151218900Y-97981500D01*
X148678900Y-97981500D02*
X148678900Y-96201500D01*
%TO.C,J3*%
X150406100Y-90905600D02*
X150406100Y-92685600D01*
X147866100Y-92685600D02*
X147866100Y-90905600D01*
X147866100Y-92685600D02*
X150406100Y-92685600D01*
X150406100Y-90905600D02*
X147866100Y-90905600D01*
D13*
%TO.C,C2*%
X128155700Y-93878400D02*
X129832100Y-93878400D01*
X128155700Y-96926400D02*
X129832100Y-96926400D01*
X128155700Y-96926400D02*
X128155700Y-93878400D01*
X129832100Y-96926400D02*
X129832100Y-93878400D01*
%TO.C,C1*%
X144945100Y-95897700D02*
X144945100Y-92849700D01*
X143268700Y-95897700D02*
X143268700Y-92849700D01*
X143268700Y-95897700D02*
X144945100Y-95897700D01*
X143268700Y-92849700D02*
X144945100Y-92849700D01*
D11*
%TO.C,P1*%
X127276500Y-99131900D02*
X143106500Y-99131900D01*
X143106500Y-99131900D02*
X143106500Y-106531900D01*
X143106500Y-106531900D02*
X127276500Y-106531900D01*
X127276500Y-106531900D02*
X127276500Y-99131900D01*
%TO.C,J2*%
X127622300Y-78397100D02*
X160642300Y-78397100D01*
X160642300Y-78397100D02*
X160642300Y-86017100D01*
X160642300Y-86017100D02*
X127622300Y-86017100D01*
X127622300Y-86017100D02*
X127622300Y-78397100D01*
%TO.C,P4*%
X124457100Y-90110800D02*
X124457100Y-82710800D01*
X163147100Y-90110800D02*
X124457100Y-90110800D01*
X163147100Y-82710800D02*
X163147100Y-90110800D01*
X124457100Y-82710800D02*
X163147100Y-82710800D01*
%TO.C,P3*%
X124507900Y-74303400D02*
X163197900Y-74303400D01*
X163197900Y-74303400D02*
X163197900Y-81703400D01*
X163197900Y-81703400D02*
X124507900Y-81703400D01*
X124507900Y-81703400D02*
X124507900Y-74303400D01*
D13*
%TO.C,D1*%
X129933700Y-71501000D02*
X129933700Y-73685400D01*
X129933700Y-71501000D02*
X133590500Y-71501000D01*
X133337300Y-71501000D02*
X133337300Y-73685400D01*
X129933700Y-73685400D02*
X133590500Y-73685400D01*
X133590500Y-71501000D02*
X133590500Y-73685400D01*
D14*
%TO.C,J1*%
X139560300Y-74295000D02*
X139560300Y-71628000D01*
X157848300Y-74295000D02*
X139560300Y-74295000D01*
X157848300Y-71628000D02*
X157848300Y-74295000D01*
X139560300Y-71628000D02*
X157848300Y-71628000D01*
D15*
X163558300Y-110358000D02*
X123558300Y-110358000D01*
X163558300Y-70358000D02*
X163558300Y-110358000D01*
X123558300Y-70358000D02*
X123558300Y-110358000D01*
X123558300Y-70358000D02*
X163558300Y-70358000D01*
D14*
X130416300Y-106934000D02*
X130416300Y-109474000D01*
X130416300Y-106934000D02*
X146672300Y-106934000D01*
X146672300Y-106934000D02*
X146672300Y-109474000D01*
X130416300Y-109474000D02*
X146672300Y-109474000D01*
X146926300Y-106934000D02*
X163182300Y-106934000D01*
X146926300Y-106934000D02*
X146926300Y-109474000D01*
X146926300Y-109474000D02*
X163182300Y-109474000D01*
X163182300Y-106934000D02*
X163182300Y-109474000D01*
X159626300Y-90170000D02*
X162039300Y-90170000D01*
X159626300Y-90170000D02*
X159626300Y-100203000D01*
X162039300Y-100203000D02*
X162039300Y-90170000D01*
X159626300Y-100203000D02*
X162039300Y-100203000D01*
D13*
%TO.C,R1*%
X126377700Y-73418700D02*
X129425700Y-73418700D01*
X126377700Y-71742300D02*
X129425700Y-71742300D01*
X126377700Y-71742300D02*
X126377700Y-73418700D01*
X129425700Y-71742300D02*
X129425700Y-73418700D01*
%TO.C,P2*%
D11*
X159461904Y-101752380D02*
X159461904Y-100752380D01*
X159842857Y-100752380D01*
X159938095Y-100800000D01*
X159985714Y-100847619D01*
X160033333Y-100942857D01*
X160033333Y-101085714D01*
X159985714Y-101180952D01*
X159938095Y-101228571D01*
X159842857Y-101276190D01*
X159461904Y-101276190D01*
X160414285Y-100847619D02*
X160461904Y-100800000D01*
X160557142Y-100752380D01*
X160795238Y-100752380D01*
X160890476Y-100800000D01*
X160938095Y-100847619D01*
X160985714Y-100942857D01*
X160985714Y-101038095D01*
X160938095Y-101180952D01*
X160366666Y-101752380D01*
X160985714Y-101752380D01*
%TO.C,J5*%
X134266666Y-91002380D02*
X134266666Y-91716666D01*
X134219047Y-91859523D01*
X134123809Y-91954761D01*
X133980952Y-92002380D01*
X133885714Y-92002380D01*
X135219047Y-91002380D02*
X134742857Y-91002380D01*
X134695238Y-91478571D01*
X134742857Y-91430952D01*
X134838095Y-91383333D01*
X135076190Y-91383333D01*
X135171428Y-91430952D01*
X135219047Y-91478571D01*
X135266666Y-91573809D01*
X135266666Y-91811904D01*
X135219047Y-91907142D01*
X135171428Y-91954761D01*
X135076190Y-92002380D01*
X134838095Y-92002380D01*
X134742857Y-91954761D01*
X134695238Y-91907142D01*
%TO.C,J4*%
X151787266Y-96480380D02*
X151787266Y-97194666D01*
X151739647Y-97337523D01*
X151644409Y-97432761D01*
X151501552Y-97480380D01*
X151406314Y-97480380D01*
X152692028Y-96813714D02*
X152692028Y-97480380D01*
X152453933Y-96432761D02*
X152215838Y-97147047D01*
X152834885Y-97147047D01*
%TO.C,J3*%
X151126866Y-91260680D02*
X151126866Y-91974966D01*
X151079247Y-92117823D01*
X150984009Y-92213061D01*
X150841152Y-92260680D01*
X150745914Y-92260680D01*
X151507819Y-91260680D02*
X152126866Y-91260680D01*
X151793533Y-91641633D01*
X151936390Y-91641633D01*
X152031628Y-91689252D01*
X152079247Y-91736871D01*
X152126866Y-91832109D01*
X152126866Y-92070204D01*
X152079247Y-92165442D01*
X152031628Y-92213061D01*
X151936390Y-92260680D01*
X151650676Y-92260680D01*
X151555438Y-92213061D01*
X151507819Y-92165442D01*
%TO.C,C2*%
X126833333Y-94857842D02*
X126785714Y-94905461D01*
X126642857Y-94953080D01*
X126547619Y-94953080D01*
X126404761Y-94905461D01*
X126309523Y-94810223D01*
X126261904Y-94714985D01*
X126214285Y-94524509D01*
X126214285Y-94381652D01*
X126261904Y-94191176D01*
X126309523Y-94095938D01*
X126404761Y-94000700D01*
X126547619Y-93953080D01*
X126642857Y-93953080D01*
X126785714Y-94000700D01*
X126833333Y-94048319D01*
X127214285Y-94048319D02*
X127261904Y-94000700D01*
X127357142Y-93953080D01*
X127595238Y-93953080D01*
X127690476Y-94000700D01*
X127738095Y-94048319D01*
X127785714Y-94143557D01*
X127785714Y-94238795D01*
X127738095Y-94381652D01*
X127166666Y-94953080D01*
X127785714Y-94953080D01*
%TO.C,C1*%
X143983333Y-97307142D02*
X143935714Y-97354761D01*
X143792857Y-97402380D01*
X143697619Y-97402380D01*
X143554761Y-97354761D01*
X143459523Y-97259523D01*
X143411904Y-97164285D01*
X143364285Y-96973809D01*
X143364285Y-96830952D01*
X143411904Y-96640476D01*
X143459523Y-96545238D01*
X143554761Y-96450000D01*
X143697619Y-96402380D01*
X143792857Y-96402380D01*
X143935714Y-96450000D01*
X143983333Y-96497619D01*
X144935714Y-97402380D02*
X144364285Y-97402380D01*
X144650000Y-97402380D02*
X144650000Y-96402380D01*
X144554761Y-96545238D01*
X144459523Y-96640476D01*
X144364285Y-96688095D01*
%TO.C,P1*%
X127261904Y-107852380D02*
X127261904Y-106852380D01*
X127642857Y-106852380D01*
X127738095Y-106900000D01*
X127785714Y-106947619D01*
X127833333Y-107042857D01*
X127833333Y-107185714D01*
X127785714Y-107280952D01*
X127738095Y-107328571D01*
X127642857Y-107376190D01*
X127261904Y-107376190D01*
X128785714Y-107852380D02*
X128214285Y-107852380D01*
X128500000Y-107852380D02*
X128500000Y-106852380D01*
X128404761Y-106995238D01*
X128309523Y-107090476D01*
X128214285Y-107138095D01*
%TO.C,J2*%
X126366666Y-83102380D02*
X126366666Y-83816666D01*
X126319047Y-83959523D01*
X126223809Y-84054761D01*
X126080952Y-84102380D01*
X125985714Y-84102380D01*
X126795238Y-83197619D02*
X126842857Y-83150000D01*
X126938095Y-83102380D01*
X127176190Y-83102380D01*
X127271428Y-83150000D01*
X127319047Y-83197619D01*
X127366666Y-83292857D01*
X127366666Y-83388095D01*
X127319047Y-83530952D01*
X126747619Y-84102380D01*
X127366666Y-84102380D01*
%TO.C,P4*%
X124839504Y-89809580D02*
X124839504Y-88809580D01*
X125220457Y-88809580D01*
X125315695Y-88857200D01*
X125363314Y-88904819D01*
X125410933Y-89000057D01*
X125410933Y-89142914D01*
X125363314Y-89238152D01*
X125315695Y-89285771D01*
X125220457Y-89333390D01*
X124839504Y-89333390D01*
X126268076Y-89142914D02*
X126268076Y-89809580D01*
X126029980Y-88761961D02*
X125791885Y-89476247D01*
X126410933Y-89476247D01*
%TO.C,P3*%
X124966504Y-81198980D02*
X124966504Y-80198980D01*
X125347457Y-80198980D01*
X125442695Y-80246600D01*
X125490314Y-80294219D01*
X125537933Y-80389457D01*
X125537933Y-80532314D01*
X125490314Y-80627552D01*
X125442695Y-80675171D01*
X125347457Y-80722790D01*
X124966504Y-80722790D01*
X125871266Y-80198980D02*
X126490314Y-80198980D01*
X126156980Y-80579933D01*
X126299838Y-80579933D01*
X126395076Y-80627552D01*
X126442695Y-80675171D01*
X126490314Y-80770409D01*
X126490314Y-81008504D01*
X126442695Y-81103742D01*
X126395076Y-81151361D01*
X126299838Y-81198980D01*
X126014123Y-81198980D01*
X125918885Y-81151361D01*
X125871266Y-81103742D01*
%TO.C,D1*%
X133881904Y-73045580D02*
X133881904Y-72045580D01*
X134120000Y-72045580D01*
X134262857Y-72093200D01*
X134358095Y-72188438D01*
X134405714Y-72283676D01*
X134453333Y-72474152D01*
X134453333Y-72617009D01*
X134405714Y-72807485D01*
X134358095Y-72902723D01*
X134262857Y-72997961D01*
X134120000Y-73045580D01*
X133881904Y-73045580D01*
X135405714Y-73045580D02*
X134834285Y-73045580D01*
X135120000Y-73045580D02*
X135120000Y-72045580D01*
X135024761Y-72188438D01*
X134929523Y-72283676D01*
X134834285Y-72331295D01*
%TO.C,R1*%
X125220433Y-73045580D02*
X124887100Y-72569390D01*
X124649004Y-73045580D02*
X124649004Y-72045580D01*
X125029957Y-72045580D01*
X125125195Y-72093200D01*
X125172814Y-72140819D01*
X125220433Y-72236057D01*
X125220433Y-72378914D01*
X125172814Y-72474152D01*
X125125195Y-72521771D01*
X125029957Y-72569390D01*
X124649004Y-72569390D01*
X126172814Y-73045580D02*
X125601385Y-73045580D01*
X125887100Y-73045580D02*
X125887100Y-72045580D01*
X125791861Y-72188438D01*
X125696623Y-72283676D01*
X125601385Y-72331295D01*
%TD*%
M02*
