M48
;DRILL file {KiCad no-vcs-found-835c19f~60~ubuntu16.04.1} date Tue Oct 10 23:16:53 2017
;FORMAT={-:-/ absolute / metric / decimal}
FMAT,2
METRIC,TZ
T1C0.400
T2C0.890
T3C1.120
%
G90
G05
M71
T1
X91.516Y-80.975
X91.567Y-82.099
X91.633Y-68.123
X92.558Y-80.772
X92.659Y-70.358
X93.25Y-65.38
X93.904Y-70.358
X93.922Y-64.577
X94.971Y-66.167
X96.154Y-65.032
X96.421Y-61.05
X97.389Y-65.052
X98.623Y-65.057
X98.73Y-79.197
X98.92Y-67.262
X98.92Y-68.303
X98.99Y-60.947
X99.746Y-80.086
X99.805Y-67.257
X99.808Y-68.303
X99.858Y-65.075
X100.127Y-60.528
X100.228Y-70.282
X100.635Y-79.197
X100.691Y-67.249
X100.696Y-68.303
X100.762Y-82.245
X101.117Y-60.884
X101.524Y-70.409
X101.778Y-80.747
X102.794Y-81.509
X103.073Y-66.167
X103.099Y-80.086
X103.124Y-74.422
X104.089Y-60.757
X104.267Y-74.143
X104.419Y-91.846
X105.613Y-90.78
X105.639Y-91.846
X105.639Y-91.846
X105.664Y-82.245
X105.664Y-74.447
X106.629Y-60.706
X106.909Y-91.846
X106.909Y-91.846
X106.985Y-90.78
X108.28Y-90.78
X108.28Y-91.846
X109.144Y-60.808
X109.169Y-74.371
X110.871Y-63.703
T2
X97.71Y-83.412
X98.73Y-85.192
X99.74Y-83.412
X100.76Y-85.192
X101.77Y-83.412
X102.79Y-85.192
X103.8Y-83.412
X104.82Y-85.192
T3
X94.259Y-75.692
X96.799Y-75.692
X99.339Y-75.692
X101.879Y-75.692
X104.419Y-75.692
X106.959Y-75.692
T0
M30
