M48
;DRILL file {KiCad no-vcs-found-f685cfa~60~ubuntu16.04.1} date Wed Oct 11 22:16:53 2017
;FORMAT={3:3/ absolute / metric / suppress leading zeros}
FMAT,2
METRIC,TZ
T1C0.400
T2C0.700
T3C0.762
T4C1.500
%
G90
G05
M71
T1
X125933Y-106870
X126695Y-105753
X127432Y-105067
X128956Y-98298
X128968Y-97142
X128994Y-91846
X128994Y-93027
X131610Y-89433
X132817Y-95212
X134112Y-89954
X135420Y-104826
X136563Y-99022
X136627Y-95187
X137300Y-89281
X138976Y-88532
X138976Y-89522
X139027Y-105016
X139878Y-88532
X139878Y-89535
X140799Y-89535
X140868Y-88526
X141580Y-105004
X142875Y-90678
X142926Y-104724
X143764Y-89535
X144145Y-104800
X145199Y-89497
X145720Y-95123
X146126Y-93701
X146622Y-75349
X147472Y-104331
X148095Y-98920
X148641Y-74638
X148730Y-93726
X149415Y-95352
X150609Y-88786
X150622Y-95161
X151892Y-89586
X152997Y-88938
X155550Y-88824
X162611Y-98222
X163170Y-97066
T2
X131558Y-108168
X133558Y-108168
X135558Y-108168
X137558Y-108168
X139558Y-108168
X140638Y-72958
X141558Y-108168
X142638Y-72958
X143558Y-108168
X144638Y-72958
X145558Y-108168
X146638Y-72958
X148098Y-108168
X148638Y-72958
X150098Y-108168
X150638Y-72958
X152098Y-108168
X152638Y-72958
X154098Y-108168
X154638Y-72958
X156098Y-108168
X156638Y-72958
X158098Y-108168
X160098Y-108168
X160798Y-91208
X160798Y-93208
X160798Y-95208
X160798Y-97208
X160798Y-99208
X162098Y-108168
T3
X130162Y-80937
X130162Y-83477
X132702Y-80937
X132702Y-83477
X135242Y-80937
X135242Y-83477
X137782Y-80937
X137782Y-83477
X140322Y-80937
X140322Y-83477
X142862Y-80937
X142862Y-83477
X145402Y-80937
X145402Y-83477
X147942Y-80937
X147942Y-83477
X150482Y-80937
X150482Y-83477
X153022Y-80937
X153022Y-83477
X155562Y-80937
X155562Y-83477
X158102Y-80937
X158102Y-83477
T4
X126708Y-78003
X130518Y-78003
X134328Y-78003
X138138Y-78003
X141948Y-78003
X145758Y-78003
X149568Y-78003
X153378Y-78003
X157188Y-78003
X160998Y-78003
X126657Y-86411
X130467Y-86411
X134277Y-86411
X138087Y-86411
X141897Y-86411
X145707Y-86411
X149517Y-86411
X153327Y-86411
X157137Y-86411
X160947Y-86411
X129476Y-102832
X133286Y-102832
X137097Y-102832
X140907Y-102832
X145567Y-102832
X149377Y-102832
X153187Y-102832
X156997Y-102832
T0
M30
