M48
;DRILL file {KiCad 4.1.0-alpha+201608171232+7063~46~ubuntu14.04.1-product} date Fri Aug 19 13:41:12 2016
;FORMAT={-:-/ absolute / inch / decimal}
FMAT,2
INCH,TZ
T1C0.012
T2C0.016
T3C0.028
T4C0.030
T5C0.035
T6C0.039
T7C0.043
T8C0.052
%
G90
G05
M72
T1
X5.0296Y-2.4315
X5.0535Y-2.4551
X5.08Y-2.48
X5.11Y-2.51
X5.1301Y-4.1263
X5.1301Y-4.1699
X5.1301Y-4.2156
X5.1904Y-4.1696
X5.1904Y-4.2156
X5.1906Y-4.1263
X5.3095Y-2.8888
X5.345Y-2.91
X5.345Y-3.5187
X5.3868Y-2.3982
X5.3872Y-3.4394
X5.4297Y-2.4317
X5.4779Y-3.8552
X5.4788Y-4.0502
X5.4788Y-3.597
X5.505Y-3.195
X5.5103Y-4.078
X5.5297Y-3.3019
X5.53Y-2.455
X5.53Y-3.5
X5.58Y-3.675
X5.5802Y-2.8889
X5.6299Y-3.4672
X5.63Y-2.48
X5.63Y-3.14
X5.68Y-2.5308
X5.68Y-3.755
X5.706Y-4.866
X5.73Y-2.51
X5.73Y-3.04
X5.7301Y-3.4361
X5.7795Y-3.7598
X5.7802Y-2.9102
X5.8059Y-3.3733
X5.83Y-2.8312
X5.885Y-2.84
X5.885Y-4.105
X5.91Y-3.405
X5.925Y-2.59
X5.925Y-2.62
X6.0151Y-2.3875
X6.022Y-3.5671
X6.0264Y-3.5172
X6.0615Y-3.9194
X6.065Y-2.91
X6.0897Y-3.9376
X6.1154Y-2.4102
X6.1256Y-3.9511
X6.1316Y-3.7056
X6.16Y-4.43
X6.16Y-4.4675
X6.16Y-4.505
X6.165Y-2.915
X6.1661Y-2.5094
X6.205Y-4.43
X6.205Y-4.4675
X6.205Y-4.505
X6.2149Y-3.0364
X6.2156Y-2.4326
X6.2265Y-3.705
X6.2572Y-4.1051
X6.26Y-3.705
X6.2645Y-3.8827
X6.2654Y-2.9095
X6.2654Y-2.6565
X6.2932Y-4.
X6.2949Y-3.8697
X6.315Y-3.07
X6.315Y-4.865
X6.3159Y-2.4545
X6.3268Y-4.
X6.3285Y-3.8697
X6.3661Y-2.9185
X6.3662Y-2.4955
X6.3667Y-3.5314
X6.3675Y-3.4638
X6.3727Y-4.0078
X6.3885Y-4.842
X6.415Y-3.095
X6.465Y-2.665
X6.4653Y-3.3734
X6.47Y-2.8369
X6.475Y-4.005
X6.4757Y-3.8863
X6.4795Y-3.9634
X6.4888Y-3.4683
X6.5Y-2.98
X6.51Y-2.315
X6.51Y-2.35
X6.5137Y-3.4367
X6.535Y-2.495
X6.5607Y-2.5306
X6.562Y-2.315
X6.562Y-2.35
X6.5964Y-2.5555
X6.597Y-2.5971
X6.614Y-2.315
X6.614Y-2.35
X6.625Y-4.425
X6.625Y-4.4717
X6.625Y-4.5183
X6.625Y-4.565
X6.6337Y-2.6563
X6.6337Y-2.6956
X6.6337Y-2.735
X6.6642Y-4.425
X6.665Y-4.4717
X6.665Y-4.5183
X6.666Y-2.315
X6.666Y-2.35
X6.6665Y-4.565
X6.718Y-2.315
X6.718Y-2.35
X6.723Y-2.8503
X6.7324Y-2.5
X6.7397Y-2.8762
X6.76Y-2.8977
X6.7696Y-2.5976
X6.77Y-2.315
X6.77Y-2.35
X6.785Y-2.935
X6.7929Y-2.9784
X6.8Y-3.095
X6.8088Y-3.8804
X6.821Y-3.0705
X6.8418Y-3.0466
X6.855Y-3.87
X6.9107Y-2.4546
X6.9455Y-2.4546
X6.9781Y-2.4546
X7.0127Y-2.4561
X7.144Y-3.906
T2
X5.4796Y-2.8669
T3
X5.2598Y-2.7885
X5.2598Y-2.8673
X5.2598Y-2.946
X5.2598Y-3.0247
X5.2598Y-3.1035
X5.2598Y-3.1822
X5.2598Y-3.261
X5.2598Y-3.3397
X5.2598Y-3.4397
X5.2598Y-3.5184
X5.2598Y-3.5972
X5.2598Y-3.6759
X5.2598Y-3.7547
X5.2598Y-3.8334
X5.2598Y-3.9121
X5.2598Y-3.9909
X5.6125Y-3.9397
X5.6913Y-3.9397
X5.77Y-3.9397
X5.8488Y-3.9397
X5.9275Y-3.9397
X6.646Y-3.146
X6.646Y-3.2247
X6.646Y-3.3035
X6.646Y-3.3822
X6.646Y-3.461
X6.646Y-3.5397
X6.646Y-3.6184
X6.646Y-3.6972
X6.646Y-3.7759
T4
X5.761Y-4.543
X5.861Y-4.543
X5.94Y-3.165
X5.961Y-4.543
X6.04Y-3.165
X6.14Y-3.165
X6.158Y-4.212
X6.24Y-3.165
X6.258Y-4.212
X6.34Y-3.165
X6.358Y-4.212
X6.44Y-3.165
X6.458Y-4.212
X6.558Y-4.212
X6.658Y-4.212
X6.854Y-4.377
X6.854Y-4.477
T5
X6.273Y-4.5549
X6.3132Y-4.625
X6.3529Y-4.5549
X6.3931Y-4.625
X6.4328Y-4.5549
X6.473Y-4.625
X6.5128Y-4.5549
X6.5529Y-4.625
T6
X5.321Y-4.794
X5.499Y-4.794
T7
X4.974Y-2.552
X4.974Y-2.702
X4.974Y-2.852
X4.974Y-3.002
X4.974Y-3.152
X4.974Y-3.302
X4.974Y-3.452
X4.974Y-3.602
X4.974Y-3.752
X4.974Y-3.902
X4.974Y-4.052
X4.974Y-4.202
X6.95Y-2.555
X6.95Y-2.705
X6.95Y-2.855
X6.95Y-3.005
X6.95Y-3.155
X6.95Y-3.305
X6.95Y-3.455
X6.95Y-3.605
X6.95Y-3.755
X6.95Y-3.905
X6.95Y-4.055
X6.95Y-4.205
T8
X5.272Y-4.696
X5.548Y-4.696
T0
M30
