%FSLAX45Y45*%
G04 Gerber Fmt 4.5, Leading zero omitted, Abs format (unit mm)*
G04 Created by KiCad (PCBNEW 4.1.0-alpha+201608171232+7063~46~ubuntu14.04.1-product) date Fri Aug 19 13:41:16 2016*
%MOMM*%
%LPD*%
G01*
G04 APERTURE LIST*
%ADD10C,0.127000*%
%ADD11C,0.150000*%
%ADD12C,0.200000*%
%ADD13C,0.300000*%
G04 APERTURE END LIST*
D10*
D11*
X18402300Y-5791200D02*
X11925300Y-5791200D01*
X18402300Y-12560300D02*
X18402300Y-5791200D01*
X11925300Y-12560300D02*
X18402300Y-12560300D01*
X11925300Y-5791200D02*
X11925300Y-12560300D01*
D12*
X15397920Y-11580000D02*
X15554920Y-11737000D01*
X15554920Y-11580000D02*
X15397920Y-11737000D01*
X17184920Y-11658500D02*
G75*
G03X17184920Y-11658500I-82500J0D01*
G01*
X13681840Y-9907840D02*
X13681840Y-10107840D01*
X13581840Y-10007840D02*
X13781840Y-10007840D01*
X16845840Y-7512840D02*
X16845840Y-7712840D01*
X16745840Y-7612840D02*
X16945840Y-7612840D01*
X16845840Y-9820840D02*
X16845840Y-10020840D01*
X16745840Y-9920840D02*
X16945840Y-9920840D01*
X12279738Y-6132938D02*
X12279738Y-5906662D01*
X12053462Y-5906662D01*
X12053462Y-6132938D01*
X12279738Y-6132938D01*
X12305138Y-12381338D02*
X12305138Y-12155062D01*
X12078862Y-12155062D01*
X12078862Y-12381338D01*
X12305138Y-12381338D01*
X18223338Y-12368638D02*
X18223338Y-12142362D01*
X17997062Y-12142362D01*
X17997062Y-12368638D01*
X18223338Y-12368638D01*
X18286838Y-6120238D02*
X18286838Y-5893962D01*
X18060562Y-5893962D01*
X18060562Y-6120238D01*
X18286838Y-6120238D01*
X15654420Y-12164000D02*
X15816920Y-12001500D01*
X15654420Y-11839000D01*
X15491920Y-12001500D01*
X15654420Y-12164000D01*
X16924420Y-12164000D02*
X17086920Y-12001500D01*
X16924420Y-11839000D01*
X16761920Y-12001500D01*
X16924420Y-12164000D01*
D13*
X12204228Y-13033514D02*
X12204228Y-12733514D01*
X12275657Y-12733514D01*
X12318514Y-12747800D01*
X12347086Y-12776371D01*
X12361371Y-12804943D01*
X12375657Y-12862086D01*
X12375657Y-12904943D01*
X12361371Y-12962086D01*
X12347086Y-12990657D01*
X12318514Y-13019229D01*
X12275657Y-13033514D01*
X12204228Y-13033514D01*
X12504228Y-13033514D02*
X12504228Y-12833514D01*
X12504228Y-12890657D02*
X12518514Y-12862086D01*
X12532800Y-12847800D01*
X12561371Y-12833514D01*
X12589943Y-12833514D01*
X12689943Y-13033514D02*
X12689943Y-12833514D01*
X12689943Y-12733514D02*
X12675657Y-12747800D01*
X12689943Y-12762086D01*
X12704228Y-12747800D01*
X12689943Y-12733514D01*
X12689943Y-12762086D01*
X12875657Y-13033514D02*
X12847086Y-13019229D01*
X12832800Y-12990657D01*
X12832800Y-12733514D01*
X13032800Y-13033514D02*
X13004228Y-13019229D01*
X12989943Y-12990657D01*
X12989943Y-12733514D01*
X13375657Y-13033514D02*
X13375657Y-12733514D01*
X13475657Y-12947800D01*
X13575657Y-12733514D01*
X13575657Y-13033514D01*
X13847086Y-13033514D02*
X13847086Y-12876371D01*
X13832800Y-12847800D01*
X13804228Y-12833514D01*
X13747086Y-12833514D01*
X13718514Y-12847800D01*
X13847086Y-13019229D02*
X13818514Y-13033514D01*
X13747086Y-13033514D01*
X13718514Y-13019229D01*
X13704228Y-12990657D01*
X13704228Y-12962086D01*
X13718514Y-12933514D01*
X13747086Y-12919229D01*
X13818514Y-12919229D01*
X13847086Y-12904943D01*
X13989943Y-12833514D02*
X13989943Y-13133514D01*
X13989943Y-12847800D02*
X14018514Y-12833514D01*
X14075657Y-12833514D01*
X14104228Y-12847800D01*
X14118514Y-12862086D01*
X14132800Y-12890657D01*
X14132800Y-12976371D01*
X14118514Y-13004943D01*
X14104228Y-13019229D01*
X14075657Y-13033514D01*
X14018514Y-13033514D01*
X13989943Y-13019229D01*
X14261371Y-13004943D02*
X14275657Y-13019229D01*
X14261371Y-13033514D01*
X14247086Y-13019229D01*
X14261371Y-13004943D01*
X14261371Y-13033514D01*
X14261371Y-12847800D02*
X14275657Y-12862086D01*
X14261371Y-12876371D01*
X14247086Y-12862086D01*
X14261371Y-12847800D01*
X14261371Y-12876371D01*
X11760800Y-13449300D02*
X11917800Y-13606300D01*
X11917800Y-13449300D02*
X11760800Y-13606300D01*
X12361371Y-13663514D02*
X12189943Y-13663514D01*
X12275657Y-13663514D02*
X12275657Y-13363514D01*
X12247086Y-13406371D01*
X12218514Y-13434943D01*
X12189943Y-13449229D01*
X12489943Y-13634943D02*
X12504228Y-13649229D01*
X12489943Y-13663514D01*
X12475657Y-13649229D01*
X12489943Y-13634943D01*
X12489943Y-13663514D01*
X12775657Y-13363514D02*
X12632800Y-13363514D01*
X12618514Y-13506371D01*
X12632800Y-13492086D01*
X12661371Y-13477800D01*
X12732800Y-13477800D01*
X12761371Y-13492086D01*
X12775657Y-13506371D01*
X12789943Y-13534943D01*
X12789943Y-13606371D01*
X12775657Y-13634943D01*
X12761371Y-13649229D01*
X12732800Y-13663514D01*
X12661371Y-13663514D01*
X12632800Y-13649229D01*
X12618514Y-13634943D01*
X12889943Y-13363514D02*
X13089943Y-13363514D01*
X12961371Y-13663514D01*
X13204228Y-13663514D02*
X13204228Y-13463514D01*
X13204228Y-13492086D02*
X13218514Y-13477800D01*
X13247086Y-13463514D01*
X13289943Y-13463514D01*
X13318514Y-13477800D01*
X13332800Y-13506371D01*
X13332800Y-13663514D01*
X13332800Y-13506371D02*
X13347086Y-13477800D01*
X13375657Y-13463514D01*
X13418514Y-13463514D01*
X13447086Y-13477800D01*
X13461371Y-13506371D01*
X13461371Y-13663514D01*
X13604228Y-13663514D02*
X13604228Y-13463514D01*
X13604228Y-13492086D02*
X13618514Y-13477800D01*
X13647086Y-13463514D01*
X13689943Y-13463514D01*
X13718514Y-13477800D01*
X13732800Y-13506371D01*
X13732800Y-13663514D01*
X13732800Y-13506371D02*
X13747086Y-13477800D01*
X13775657Y-13463514D01*
X13818514Y-13463514D01*
X13847086Y-13477800D01*
X13861371Y-13506371D01*
X13861371Y-13663514D01*
X14447086Y-13349229D02*
X14189943Y-13734943D01*
X14832800Y-13363514D02*
X14861371Y-13363514D01*
X14889943Y-13377800D01*
X14904228Y-13392086D01*
X14918514Y-13420657D01*
X14932800Y-13477800D01*
X14932800Y-13549229D01*
X14918514Y-13606371D01*
X14904228Y-13634943D01*
X14889943Y-13649229D01*
X14861371Y-13663514D01*
X14832800Y-13663514D01*
X14804228Y-13649229D01*
X14789943Y-13634943D01*
X14775657Y-13606371D01*
X14761371Y-13549229D01*
X14761371Y-13477800D01*
X14775657Y-13420657D01*
X14789943Y-13392086D01*
X14804228Y-13377800D01*
X14832800Y-13363514D01*
X15061371Y-13634943D02*
X15075657Y-13649229D01*
X15061371Y-13663514D01*
X15047086Y-13649229D01*
X15061371Y-13634943D01*
X15061371Y-13663514D01*
X15261371Y-13363514D02*
X15289943Y-13363514D01*
X15318514Y-13377800D01*
X15332800Y-13392086D01*
X15347086Y-13420657D01*
X15361371Y-13477800D01*
X15361371Y-13549229D01*
X15347086Y-13606371D01*
X15332800Y-13634943D01*
X15318514Y-13649229D01*
X15289943Y-13663514D01*
X15261371Y-13663514D01*
X15232800Y-13649229D01*
X15218514Y-13634943D01*
X15204228Y-13606371D01*
X15189943Y-13549229D01*
X15189943Y-13477800D01*
X15204228Y-13420657D01*
X15218514Y-13392086D01*
X15232800Y-13377800D01*
X15261371Y-13363514D01*
X15618514Y-13363514D02*
X15561371Y-13363514D01*
X15532800Y-13377800D01*
X15518514Y-13392086D01*
X15489943Y-13434943D01*
X15475657Y-13492086D01*
X15475657Y-13606371D01*
X15489943Y-13634943D01*
X15504228Y-13649229D01*
X15532800Y-13663514D01*
X15589943Y-13663514D01*
X15618514Y-13649229D01*
X15632800Y-13634943D01*
X15647086Y-13606371D01*
X15647086Y-13534943D01*
X15632800Y-13506371D01*
X15618514Y-13492086D01*
X15589943Y-13477800D01*
X15532800Y-13477800D01*
X15504228Y-13492086D01*
X15489943Y-13506371D01*
X15475657Y-13534943D01*
X15761371Y-13392086D02*
X15775657Y-13377800D01*
X15804228Y-13363514D01*
X15875657Y-13363514D01*
X15904228Y-13377800D01*
X15918514Y-13392086D01*
X15932800Y-13420657D01*
X15932800Y-13449229D01*
X15918514Y-13492086D01*
X15747086Y-13663514D01*
X15932800Y-13663514D01*
X16047086Y-13363514D02*
X16047086Y-13420657D01*
X16161371Y-13363514D02*
X16161371Y-13420657D01*
X16604228Y-13777800D02*
X16589943Y-13763514D01*
X16561371Y-13720657D01*
X16547086Y-13692086D01*
X16532800Y-13649229D01*
X16518514Y-13577800D01*
X16518514Y-13520657D01*
X16532800Y-13449229D01*
X16547086Y-13406371D01*
X16561371Y-13377800D01*
X16589943Y-13334943D01*
X16604228Y-13320657D01*
X16875657Y-13663514D02*
X16704228Y-13663514D01*
X16789943Y-13663514D02*
X16789943Y-13363514D01*
X16761371Y-13406371D01*
X16732800Y-13434943D01*
X16704228Y-13449229D01*
X17232800Y-13663514D02*
X17232800Y-13363514D01*
X17361371Y-13663514D02*
X17361371Y-13506371D01*
X17347086Y-13477800D01*
X17318514Y-13463514D01*
X17275657Y-13463514D01*
X17247086Y-13477800D01*
X17232800Y-13492086D01*
X17547086Y-13663514D02*
X17518514Y-13649229D01*
X17504228Y-13634943D01*
X17489943Y-13606371D01*
X17489943Y-13520657D01*
X17504228Y-13492086D01*
X17518514Y-13477800D01*
X17547086Y-13463514D01*
X17589943Y-13463514D01*
X17618514Y-13477800D01*
X17632800Y-13492086D01*
X17647086Y-13520657D01*
X17647086Y-13606371D01*
X17632800Y-13634943D01*
X17618514Y-13649229D01*
X17589943Y-13663514D01*
X17547086Y-13663514D01*
X17818514Y-13663514D02*
X17789943Y-13649229D01*
X17775657Y-13620657D01*
X17775657Y-13363514D01*
X18047086Y-13649229D02*
X18018514Y-13663514D01*
X17961371Y-13663514D01*
X17932800Y-13649229D01*
X17918514Y-13620657D01*
X17918514Y-13506371D01*
X17932800Y-13477800D01*
X17961371Y-13463514D01*
X18018514Y-13463514D01*
X18047086Y-13477800D01*
X18061371Y-13506371D01*
X18061371Y-13534943D01*
X17918514Y-13563514D01*
X18161371Y-13777800D02*
X18175657Y-13763514D01*
X18204228Y-13720657D01*
X18218514Y-13692086D01*
X18232800Y-13649229D01*
X18247086Y-13577800D01*
X18247086Y-13520657D01*
X18232800Y-13449229D01*
X18218514Y-13406371D01*
X18204228Y-13377800D01*
X18175657Y-13334943D01*
X18161371Y-13320657D01*
X18704228Y-13777800D02*
X18689943Y-13763514D01*
X18661371Y-13720657D01*
X18647086Y-13692086D01*
X18632800Y-13649229D01*
X18618514Y-13577800D01*
X18618514Y-13520657D01*
X18632800Y-13449229D01*
X18647086Y-13406371D01*
X18661371Y-13377800D01*
X18689943Y-13334943D01*
X18704228Y-13320657D01*
X18818514Y-13463514D02*
X18818514Y-13663514D01*
X18818514Y-13492086D02*
X18832800Y-13477800D01*
X18861371Y-13463514D01*
X18904228Y-13463514D01*
X18932800Y-13477800D01*
X18947086Y-13506371D01*
X18947086Y-13663514D01*
X19132800Y-13663514D02*
X19104228Y-13649229D01*
X19089943Y-13634943D01*
X19075657Y-13606371D01*
X19075657Y-13520657D01*
X19089943Y-13492086D01*
X19104228Y-13477800D01*
X19132800Y-13463514D01*
X19175657Y-13463514D01*
X19204228Y-13477800D01*
X19218514Y-13492086D01*
X19232800Y-13520657D01*
X19232800Y-13606371D01*
X19218514Y-13634943D01*
X19204228Y-13649229D01*
X19175657Y-13663514D01*
X19132800Y-13663514D01*
X19318514Y-13463514D02*
X19432800Y-13463514D01*
X19361371Y-13363514D02*
X19361371Y-13620657D01*
X19375657Y-13649229D01*
X19404228Y-13663514D01*
X19432800Y-13663514D01*
X19761371Y-13463514D02*
X19761371Y-13763514D01*
X19761371Y-13477800D02*
X19789943Y-13463514D01*
X19847086Y-13463514D01*
X19875657Y-13477800D01*
X19889943Y-13492086D01*
X19904228Y-13520657D01*
X19904228Y-13606371D01*
X19889943Y-13634943D01*
X19875657Y-13649229D01*
X19847086Y-13663514D01*
X19789943Y-13663514D01*
X19761371Y-13649229D01*
X20075657Y-13663514D02*
X20047086Y-13649229D01*
X20032800Y-13620657D01*
X20032800Y-13363514D01*
X20318514Y-13663514D02*
X20318514Y-13506371D01*
X20304228Y-13477800D01*
X20275657Y-13463514D01*
X20218514Y-13463514D01*
X20189943Y-13477800D01*
X20318514Y-13649229D02*
X20289943Y-13663514D01*
X20218514Y-13663514D01*
X20189943Y-13649229D01*
X20175657Y-13620657D01*
X20175657Y-13592086D01*
X20189943Y-13563514D01*
X20218514Y-13549229D01*
X20289943Y-13549229D01*
X20318514Y-13534943D01*
X20418514Y-13463514D02*
X20532800Y-13463514D01*
X20461371Y-13363514D02*
X20461371Y-13620657D01*
X20475657Y-13649229D01*
X20504228Y-13663514D01*
X20532800Y-13663514D01*
X20747086Y-13649229D02*
X20718514Y-13663514D01*
X20661371Y-13663514D01*
X20632800Y-13649229D01*
X20618514Y-13620657D01*
X20618514Y-13506371D01*
X20632800Y-13477800D01*
X20661371Y-13463514D01*
X20718514Y-13463514D01*
X20747086Y-13477800D01*
X20761371Y-13506371D01*
X20761371Y-13534943D01*
X20618514Y-13563514D01*
X21018514Y-13663514D02*
X21018514Y-13363514D01*
X21018514Y-13649229D02*
X20989943Y-13663514D01*
X20932800Y-13663514D01*
X20904228Y-13649229D01*
X20889943Y-13634943D01*
X20875657Y-13606371D01*
X20875657Y-13520657D01*
X20889943Y-13492086D01*
X20904228Y-13477800D01*
X20932800Y-13463514D01*
X20989943Y-13463514D01*
X21018514Y-13477800D01*
X21132800Y-13777800D02*
X21147086Y-13763514D01*
X21175657Y-13720657D01*
X21189943Y-13692086D01*
X21204228Y-13649229D01*
X21218514Y-13577800D01*
X21218514Y-13520657D01*
X21204228Y-13449229D01*
X21189943Y-13406371D01*
X21175657Y-13377800D01*
X21147086Y-13334943D01*
X21132800Y-13320657D01*
X11917800Y-13923800D02*
G75*
G03X11917800Y-13923800I-82500J0D01*
G01*
X12361371Y-14059514D02*
X12189943Y-14059514D01*
X12275657Y-14059514D02*
X12275657Y-13759514D01*
X12247086Y-13802371D01*
X12218514Y-13830943D01*
X12189943Y-13845229D01*
X12489943Y-14030943D02*
X12504228Y-14045229D01*
X12489943Y-14059514D01*
X12475657Y-14045229D01*
X12489943Y-14030943D01*
X12489943Y-14059514D01*
X12761371Y-13759514D02*
X12704228Y-13759514D01*
X12675657Y-13773800D01*
X12661371Y-13788086D01*
X12632800Y-13830943D01*
X12618514Y-13888086D01*
X12618514Y-14002371D01*
X12632800Y-14030943D01*
X12647086Y-14045229D01*
X12675657Y-14059514D01*
X12732800Y-14059514D01*
X12761371Y-14045229D01*
X12775657Y-14030943D01*
X12789943Y-14002371D01*
X12789943Y-13930943D01*
X12775657Y-13902371D01*
X12761371Y-13888086D01*
X12732800Y-13873800D01*
X12675657Y-13873800D01*
X12647086Y-13888086D01*
X12632800Y-13902371D01*
X12618514Y-13930943D01*
X13061371Y-13759514D02*
X12918514Y-13759514D01*
X12904228Y-13902371D01*
X12918514Y-13888086D01*
X12947086Y-13873800D01*
X13018514Y-13873800D01*
X13047086Y-13888086D01*
X13061371Y-13902371D01*
X13075657Y-13930943D01*
X13075657Y-14002371D01*
X13061371Y-14030943D01*
X13047086Y-14045229D01*
X13018514Y-14059514D01*
X12947086Y-14059514D01*
X12918514Y-14045229D01*
X12904228Y-14030943D01*
X13204228Y-14059514D02*
X13204228Y-13859514D01*
X13204228Y-13888086D02*
X13218514Y-13873800D01*
X13247086Y-13859514D01*
X13289943Y-13859514D01*
X13318514Y-13873800D01*
X13332800Y-13902371D01*
X13332800Y-14059514D01*
X13332800Y-13902371D02*
X13347086Y-13873800D01*
X13375657Y-13859514D01*
X13418514Y-13859514D01*
X13447086Y-13873800D01*
X13461371Y-13902371D01*
X13461371Y-14059514D01*
X13604228Y-14059514D02*
X13604228Y-13859514D01*
X13604228Y-13888086D02*
X13618514Y-13873800D01*
X13647086Y-13859514D01*
X13689943Y-13859514D01*
X13718514Y-13873800D01*
X13732800Y-13902371D01*
X13732800Y-14059514D01*
X13732800Y-13902371D02*
X13747086Y-13873800D01*
X13775657Y-13859514D01*
X13818514Y-13859514D01*
X13847086Y-13873800D01*
X13861371Y-13902371D01*
X13861371Y-14059514D01*
X14447086Y-13745229D02*
X14189943Y-14130943D01*
X14832800Y-13759514D02*
X14861371Y-13759514D01*
X14889943Y-13773800D01*
X14904228Y-13788086D01*
X14918514Y-13816657D01*
X14932800Y-13873800D01*
X14932800Y-13945229D01*
X14918514Y-14002371D01*
X14904228Y-14030943D01*
X14889943Y-14045229D01*
X14861371Y-14059514D01*
X14832800Y-14059514D01*
X14804228Y-14045229D01*
X14789943Y-14030943D01*
X14775657Y-14002371D01*
X14761371Y-13945229D01*
X14761371Y-13873800D01*
X14775657Y-13816657D01*
X14789943Y-13788086D01*
X14804228Y-13773800D01*
X14832800Y-13759514D01*
X15061371Y-14030943D02*
X15075657Y-14045229D01*
X15061371Y-14059514D01*
X15047086Y-14045229D01*
X15061371Y-14030943D01*
X15061371Y-14059514D01*
X15261371Y-13759514D02*
X15289943Y-13759514D01*
X15318514Y-13773800D01*
X15332800Y-13788086D01*
X15347086Y-13816657D01*
X15361371Y-13873800D01*
X15361371Y-13945229D01*
X15347086Y-14002371D01*
X15332800Y-14030943D01*
X15318514Y-14045229D01*
X15289943Y-14059514D01*
X15261371Y-14059514D01*
X15232800Y-14045229D01*
X15218514Y-14030943D01*
X15204228Y-14002371D01*
X15189943Y-13945229D01*
X15189943Y-13873800D01*
X15204228Y-13816657D01*
X15218514Y-13788086D01*
X15232800Y-13773800D01*
X15261371Y-13759514D01*
X15618514Y-13759514D02*
X15561371Y-13759514D01*
X15532800Y-13773800D01*
X15518514Y-13788086D01*
X15489943Y-13830943D01*
X15475657Y-13888086D01*
X15475657Y-14002371D01*
X15489943Y-14030943D01*
X15504228Y-14045229D01*
X15532800Y-14059514D01*
X15589943Y-14059514D01*
X15618514Y-14045229D01*
X15632800Y-14030943D01*
X15647086Y-14002371D01*
X15647086Y-13930943D01*
X15632800Y-13902371D01*
X15618514Y-13888086D01*
X15589943Y-13873800D01*
X15532800Y-13873800D01*
X15504228Y-13888086D01*
X15489943Y-13902371D01*
X15475657Y-13930943D01*
X15918514Y-13759514D02*
X15775657Y-13759514D01*
X15761371Y-13902371D01*
X15775657Y-13888086D01*
X15804228Y-13873800D01*
X15875657Y-13873800D01*
X15904228Y-13888086D01*
X15918514Y-13902371D01*
X15932800Y-13930943D01*
X15932800Y-14002371D01*
X15918514Y-14030943D01*
X15904228Y-14045229D01*
X15875657Y-14059514D01*
X15804228Y-14059514D01*
X15775657Y-14045229D01*
X15761371Y-14030943D01*
X16047086Y-13759514D02*
X16047086Y-13816657D01*
X16161371Y-13759514D02*
X16161371Y-13816657D01*
X16604228Y-14173800D02*
X16589943Y-14159514D01*
X16561371Y-14116657D01*
X16547086Y-14088086D01*
X16532800Y-14045229D01*
X16518514Y-13973800D01*
X16518514Y-13916657D01*
X16532800Y-13845229D01*
X16547086Y-13802371D01*
X16561371Y-13773800D01*
X16589943Y-13730943D01*
X16604228Y-13716657D01*
X16875657Y-14059514D02*
X16704228Y-14059514D01*
X16789943Y-14059514D02*
X16789943Y-13759514D01*
X16761371Y-13802371D01*
X16732800Y-13830943D01*
X16704228Y-13845229D01*
X17232800Y-14059514D02*
X17232800Y-13759514D01*
X17361371Y-14059514D02*
X17361371Y-13902371D01*
X17347086Y-13873800D01*
X17318514Y-13859514D01*
X17275657Y-13859514D01*
X17247086Y-13873800D01*
X17232800Y-13888086D01*
X17547086Y-14059514D02*
X17518514Y-14045229D01*
X17504228Y-14030943D01*
X17489943Y-14002371D01*
X17489943Y-13916657D01*
X17504228Y-13888086D01*
X17518514Y-13873800D01*
X17547086Y-13859514D01*
X17589943Y-13859514D01*
X17618514Y-13873800D01*
X17632800Y-13888086D01*
X17647086Y-13916657D01*
X17647086Y-14002371D01*
X17632800Y-14030943D01*
X17618514Y-14045229D01*
X17589943Y-14059514D01*
X17547086Y-14059514D01*
X17818514Y-14059514D02*
X17789943Y-14045229D01*
X17775657Y-14016657D01*
X17775657Y-13759514D01*
X18047086Y-14045229D02*
X18018514Y-14059514D01*
X17961371Y-14059514D01*
X17932800Y-14045229D01*
X17918514Y-14016657D01*
X17918514Y-13902371D01*
X17932800Y-13873800D01*
X17961371Y-13859514D01*
X18018514Y-13859514D01*
X18047086Y-13873800D01*
X18061371Y-13902371D01*
X18061371Y-13930943D01*
X17918514Y-13959514D01*
X18161371Y-14173800D02*
X18175657Y-14159514D01*
X18204228Y-14116657D01*
X18218514Y-14088086D01*
X18232800Y-14045229D01*
X18247086Y-13973800D01*
X18247086Y-13916657D01*
X18232800Y-13845229D01*
X18218514Y-13802371D01*
X18204228Y-13773800D01*
X18175657Y-13730943D01*
X18161371Y-13716657D01*
X18704228Y-14173800D02*
X18689943Y-14159514D01*
X18661371Y-14116657D01*
X18647086Y-14088086D01*
X18632800Y-14045229D01*
X18618514Y-13973800D01*
X18618514Y-13916657D01*
X18632800Y-13845229D01*
X18647086Y-13802371D01*
X18661371Y-13773800D01*
X18689943Y-13730943D01*
X18704228Y-13716657D01*
X18818514Y-13859514D02*
X18818514Y-14059514D01*
X18818514Y-13888086D02*
X18832800Y-13873800D01*
X18861371Y-13859514D01*
X18904228Y-13859514D01*
X18932800Y-13873800D01*
X18947086Y-13902371D01*
X18947086Y-14059514D01*
X19132800Y-14059514D02*
X19104228Y-14045229D01*
X19089943Y-14030943D01*
X19075657Y-14002371D01*
X19075657Y-13916657D01*
X19089943Y-13888086D01*
X19104228Y-13873800D01*
X19132800Y-13859514D01*
X19175657Y-13859514D01*
X19204228Y-13873800D01*
X19218514Y-13888086D01*
X19232800Y-13916657D01*
X19232800Y-14002371D01*
X19218514Y-14030943D01*
X19204228Y-14045229D01*
X19175657Y-14059514D01*
X19132800Y-14059514D01*
X19318514Y-13859514D02*
X19432800Y-13859514D01*
X19361371Y-13759514D02*
X19361371Y-14016657D01*
X19375657Y-14045229D01*
X19404228Y-14059514D01*
X19432800Y-14059514D01*
X19761371Y-13859514D02*
X19761371Y-14159514D01*
X19761371Y-13873800D02*
X19789943Y-13859514D01*
X19847086Y-13859514D01*
X19875657Y-13873800D01*
X19889943Y-13888086D01*
X19904228Y-13916657D01*
X19904228Y-14002371D01*
X19889943Y-14030943D01*
X19875657Y-14045229D01*
X19847086Y-14059514D01*
X19789943Y-14059514D01*
X19761371Y-14045229D01*
X20075657Y-14059514D02*
X20047086Y-14045229D01*
X20032800Y-14016657D01*
X20032800Y-13759514D01*
X20318514Y-14059514D02*
X20318514Y-13902371D01*
X20304228Y-13873800D01*
X20275657Y-13859514D01*
X20218514Y-13859514D01*
X20189943Y-13873800D01*
X20318514Y-14045229D02*
X20289943Y-14059514D01*
X20218514Y-14059514D01*
X20189943Y-14045229D01*
X20175657Y-14016657D01*
X20175657Y-13988086D01*
X20189943Y-13959514D01*
X20218514Y-13945229D01*
X20289943Y-13945229D01*
X20318514Y-13930943D01*
X20418514Y-13859514D02*
X20532800Y-13859514D01*
X20461371Y-13759514D02*
X20461371Y-14016657D01*
X20475657Y-14045229D01*
X20504228Y-14059514D01*
X20532800Y-14059514D01*
X20747086Y-14045229D02*
X20718514Y-14059514D01*
X20661371Y-14059514D01*
X20632800Y-14045229D01*
X20618514Y-14016657D01*
X20618514Y-13902371D01*
X20632800Y-13873800D01*
X20661371Y-13859514D01*
X20718514Y-13859514D01*
X20747086Y-13873800D01*
X20761371Y-13902371D01*
X20761371Y-13930943D01*
X20618514Y-13959514D01*
X21018514Y-14059514D02*
X21018514Y-13759514D01*
X21018514Y-14045229D02*
X20989943Y-14059514D01*
X20932800Y-14059514D01*
X20904228Y-14045229D01*
X20889943Y-14030943D01*
X20875657Y-14002371D01*
X20875657Y-13916657D01*
X20889943Y-13888086D01*
X20904228Y-13873800D01*
X20932800Y-13859514D01*
X20989943Y-13859514D01*
X21018514Y-13873800D01*
X21132800Y-14173800D02*
X21147086Y-14159514D01*
X21175657Y-14116657D01*
X21189943Y-14088086D01*
X21204228Y-14045229D01*
X21218514Y-13973800D01*
X21218514Y-13916657D01*
X21204228Y-13845229D01*
X21189943Y-13802371D01*
X21175657Y-13773800D01*
X21147086Y-13730943D01*
X21132800Y-13716657D01*
X11817800Y-14219800D02*
X11817800Y-14419800D01*
X11717800Y-14319800D02*
X11917800Y-14319800D01*
X12189943Y-14184086D02*
X12204228Y-14169800D01*
X12232800Y-14155514D01*
X12304228Y-14155514D01*
X12332800Y-14169800D01*
X12347086Y-14184086D01*
X12361371Y-14212657D01*
X12361371Y-14241229D01*
X12347086Y-14284086D01*
X12175657Y-14455514D01*
X12361371Y-14455514D01*
X12489943Y-14426943D02*
X12504228Y-14441229D01*
X12489943Y-14455514D01*
X12475657Y-14441229D01*
X12489943Y-14426943D01*
X12489943Y-14455514D01*
X12689943Y-14155514D02*
X12718514Y-14155514D01*
X12747086Y-14169800D01*
X12761371Y-14184086D01*
X12775657Y-14212657D01*
X12789943Y-14269800D01*
X12789943Y-14341229D01*
X12775657Y-14398371D01*
X12761371Y-14426943D01*
X12747086Y-14441229D01*
X12718514Y-14455514D01*
X12689943Y-14455514D01*
X12661371Y-14441229D01*
X12647086Y-14426943D01*
X12632800Y-14398371D01*
X12618514Y-14341229D01*
X12618514Y-14269800D01*
X12632800Y-14212657D01*
X12647086Y-14184086D01*
X12661371Y-14169800D01*
X12689943Y-14155514D01*
X12975657Y-14155514D02*
X13004228Y-14155514D01*
X13032800Y-14169800D01*
X13047086Y-14184086D01*
X13061371Y-14212657D01*
X13075657Y-14269800D01*
X13075657Y-14341229D01*
X13061371Y-14398371D01*
X13047086Y-14426943D01*
X13032800Y-14441229D01*
X13004228Y-14455514D01*
X12975657Y-14455514D01*
X12947086Y-14441229D01*
X12932800Y-14426943D01*
X12918514Y-14398371D01*
X12904228Y-14341229D01*
X12904228Y-14269800D01*
X12918514Y-14212657D01*
X12932800Y-14184086D01*
X12947086Y-14169800D01*
X12975657Y-14155514D01*
X13204228Y-14455514D02*
X13204228Y-14255514D01*
X13204228Y-14284086D02*
X13218514Y-14269800D01*
X13247086Y-14255514D01*
X13289943Y-14255514D01*
X13318514Y-14269800D01*
X13332800Y-14298371D01*
X13332800Y-14455514D01*
X13332800Y-14298371D02*
X13347086Y-14269800D01*
X13375657Y-14255514D01*
X13418514Y-14255514D01*
X13447086Y-14269800D01*
X13461371Y-14298371D01*
X13461371Y-14455514D01*
X13604228Y-14455514D02*
X13604228Y-14255514D01*
X13604228Y-14284086D02*
X13618514Y-14269800D01*
X13647086Y-14255514D01*
X13689943Y-14255514D01*
X13718514Y-14269800D01*
X13732800Y-14298371D01*
X13732800Y-14455514D01*
X13732800Y-14298371D02*
X13747086Y-14269800D01*
X13775657Y-14255514D01*
X13818514Y-14255514D01*
X13847086Y-14269800D01*
X13861371Y-14298371D01*
X13861371Y-14455514D01*
X14447086Y-14141229D02*
X14189943Y-14526943D01*
X14832800Y-14155514D02*
X14861371Y-14155514D01*
X14889943Y-14169800D01*
X14904228Y-14184086D01*
X14918514Y-14212657D01*
X14932800Y-14269800D01*
X14932800Y-14341229D01*
X14918514Y-14398371D01*
X14904228Y-14426943D01*
X14889943Y-14441229D01*
X14861371Y-14455514D01*
X14832800Y-14455514D01*
X14804228Y-14441229D01*
X14789943Y-14426943D01*
X14775657Y-14398371D01*
X14761371Y-14341229D01*
X14761371Y-14269800D01*
X14775657Y-14212657D01*
X14789943Y-14184086D01*
X14804228Y-14169800D01*
X14832800Y-14155514D01*
X15061371Y-14426943D02*
X15075657Y-14441229D01*
X15061371Y-14455514D01*
X15047086Y-14441229D01*
X15061371Y-14426943D01*
X15061371Y-14455514D01*
X15261371Y-14155514D02*
X15289943Y-14155514D01*
X15318514Y-14169800D01*
X15332800Y-14184086D01*
X15347086Y-14212657D01*
X15361371Y-14269800D01*
X15361371Y-14341229D01*
X15347086Y-14398371D01*
X15332800Y-14426943D01*
X15318514Y-14441229D01*
X15289943Y-14455514D01*
X15261371Y-14455514D01*
X15232800Y-14441229D01*
X15218514Y-14426943D01*
X15204228Y-14398371D01*
X15189943Y-14341229D01*
X15189943Y-14269800D01*
X15204228Y-14212657D01*
X15218514Y-14184086D01*
X15232800Y-14169800D01*
X15261371Y-14155514D01*
X15461371Y-14155514D02*
X15661371Y-14155514D01*
X15532800Y-14455514D01*
X15789943Y-14455514D02*
X15847086Y-14455514D01*
X15875657Y-14441229D01*
X15889943Y-14426943D01*
X15918514Y-14384086D01*
X15932800Y-14326943D01*
X15932800Y-14212657D01*
X15918514Y-14184086D01*
X15904228Y-14169800D01*
X15875657Y-14155514D01*
X15818514Y-14155514D01*
X15789943Y-14169800D01*
X15775657Y-14184086D01*
X15761371Y-14212657D01*
X15761371Y-14284086D01*
X15775657Y-14312657D01*
X15789943Y-14326943D01*
X15818514Y-14341229D01*
X15875657Y-14341229D01*
X15904228Y-14326943D01*
X15918514Y-14312657D01*
X15932800Y-14284086D01*
X16047086Y-14155514D02*
X16047086Y-14212657D01*
X16161371Y-14155514D02*
X16161371Y-14212657D01*
X16604228Y-14569800D02*
X16589943Y-14555514D01*
X16561371Y-14512657D01*
X16547086Y-14484086D01*
X16532800Y-14441229D01*
X16518514Y-14369800D01*
X16518514Y-14312657D01*
X16532800Y-14241229D01*
X16547086Y-14198371D01*
X16561371Y-14169800D01*
X16589943Y-14126943D01*
X16604228Y-14112657D01*
X16689943Y-14155514D02*
X16875657Y-14155514D01*
X16775657Y-14269800D01*
X16818514Y-14269800D01*
X16847086Y-14284086D01*
X16861371Y-14298371D01*
X16875657Y-14326943D01*
X16875657Y-14398371D01*
X16861371Y-14426943D01*
X16847086Y-14441229D01*
X16818514Y-14455514D01*
X16732800Y-14455514D01*
X16704228Y-14441229D01*
X16689943Y-14426943D01*
X17232800Y-14455514D02*
X17232800Y-14155514D01*
X17361371Y-14455514D02*
X17361371Y-14298371D01*
X17347086Y-14269800D01*
X17318514Y-14255514D01*
X17275657Y-14255514D01*
X17247086Y-14269800D01*
X17232800Y-14284086D01*
X17547086Y-14455514D02*
X17518514Y-14441229D01*
X17504228Y-14426943D01*
X17489943Y-14398371D01*
X17489943Y-14312657D01*
X17504228Y-14284086D01*
X17518514Y-14269800D01*
X17547086Y-14255514D01*
X17589943Y-14255514D01*
X17618514Y-14269800D01*
X17632800Y-14284086D01*
X17647086Y-14312657D01*
X17647086Y-14398371D01*
X17632800Y-14426943D01*
X17618514Y-14441229D01*
X17589943Y-14455514D01*
X17547086Y-14455514D01*
X17818514Y-14455514D02*
X17789943Y-14441229D01*
X17775657Y-14412657D01*
X17775657Y-14155514D01*
X18047086Y-14441229D02*
X18018514Y-14455514D01*
X17961371Y-14455514D01*
X17932800Y-14441229D01*
X17918514Y-14412657D01*
X17918514Y-14298371D01*
X17932800Y-14269800D01*
X17961371Y-14255514D01*
X18018514Y-14255514D01*
X18047086Y-14269800D01*
X18061371Y-14298371D01*
X18061371Y-14326943D01*
X17918514Y-14355514D01*
X18175657Y-14441229D02*
X18204228Y-14455514D01*
X18261371Y-14455514D01*
X18289943Y-14441229D01*
X18304228Y-14412657D01*
X18304228Y-14398371D01*
X18289943Y-14369800D01*
X18261371Y-14355514D01*
X18218514Y-14355514D01*
X18189943Y-14341229D01*
X18175657Y-14312657D01*
X18175657Y-14298371D01*
X18189943Y-14269800D01*
X18218514Y-14255514D01*
X18261371Y-14255514D01*
X18289943Y-14269800D01*
X18404228Y-14569800D02*
X18418514Y-14555514D01*
X18447086Y-14512657D01*
X18461371Y-14484086D01*
X18475657Y-14441229D01*
X18489943Y-14369800D01*
X18489943Y-14312657D01*
X18475657Y-14241229D01*
X18461371Y-14198371D01*
X18447086Y-14169800D01*
X18418514Y-14126943D01*
X18404228Y-14112657D01*
X18947086Y-14569800D02*
X18932800Y-14555514D01*
X18904228Y-14512657D01*
X18889943Y-14484086D01*
X18875657Y-14441229D01*
X18861371Y-14369800D01*
X18861371Y-14312657D01*
X18875657Y-14241229D01*
X18889943Y-14198371D01*
X18904228Y-14169800D01*
X18932800Y-14126943D01*
X18947086Y-14112657D01*
X19061371Y-14255514D02*
X19061371Y-14455514D01*
X19061371Y-14284086D02*
X19075657Y-14269800D01*
X19104228Y-14255514D01*
X19147086Y-14255514D01*
X19175657Y-14269800D01*
X19189943Y-14298371D01*
X19189943Y-14455514D01*
X19375657Y-14455514D02*
X19347086Y-14441229D01*
X19332800Y-14426943D01*
X19318514Y-14398371D01*
X19318514Y-14312657D01*
X19332800Y-14284086D01*
X19347086Y-14269800D01*
X19375657Y-14255514D01*
X19418514Y-14255514D01*
X19447086Y-14269800D01*
X19461371Y-14284086D01*
X19475657Y-14312657D01*
X19475657Y-14398371D01*
X19461371Y-14426943D01*
X19447086Y-14441229D01*
X19418514Y-14455514D01*
X19375657Y-14455514D01*
X19561371Y-14255514D02*
X19675657Y-14255514D01*
X19604228Y-14155514D02*
X19604228Y-14412657D01*
X19618514Y-14441229D01*
X19647086Y-14455514D01*
X19675657Y-14455514D01*
X20004228Y-14255514D02*
X20004228Y-14555514D01*
X20004228Y-14269800D02*
X20032800Y-14255514D01*
X20089943Y-14255514D01*
X20118514Y-14269800D01*
X20132800Y-14284086D01*
X20147086Y-14312657D01*
X20147086Y-14398371D01*
X20132800Y-14426943D01*
X20118514Y-14441229D01*
X20089943Y-14455514D01*
X20032800Y-14455514D01*
X20004228Y-14441229D01*
X20318514Y-14455514D02*
X20289943Y-14441229D01*
X20275657Y-14412657D01*
X20275657Y-14155514D01*
X20561371Y-14455514D02*
X20561371Y-14298371D01*
X20547086Y-14269800D01*
X20518514Y-14255514D01*
X20461371Y-14255514D01*
X20432800Y-14269800D01*
X20561371Y-14441229D02*
X20532800Y-14455514D01*
X20461371Y-14455514D01*
X20432800Y-14441229D01*
X20418514Y-14412657D01*
X20418514Y-14384086D01*
X20432800Y-14355514D01*
X20461371Y-14341229D01*
X20532800Y-14341229D01*
X20561371Y-14326943D01*
X20661371Y-14255514D02*
X20775657Y-14255514D01*
X20704228Y-14155514D02*
X20704228Y-14412657D01*
X20718514Y-14441229D01*
X20747086Y-14455514D01*
X20775657Y-14455514D01*
X20989943Y-14441229D02*
X20961371Y-14455514D01*
X20904228Y-14455514D01*
X20875657Y-14441229D01*
X20861371Y-14412657D01*
X20861371Y-14298371D01*
X20875657Y-14269800D01*
X20904228Y-14255514D01*
X20961371Y-14255514D01*
X20989943Y-14269800D01*
X21004228Y-14298371D01*
X21004228Y-14326943D01*
X20861371Y-14355514D01*
X21261371Y-14455514D02*
X21261371Y-14155514D01*
X21261371Y-14441229D02*
X21232800Y-14455514D01*
X21175657Y-14455514D01*
X21147086Y-14441229D01*
X21132800Y-14426943D01*
X21118514Y-14398371D01*
X21118514Y-14312657D01*
X21132800Y-14284086D01*
X21147086Y-14269800D01*
X21175657Y-14255514D01*
X21232800Y-14255514D01*
X21261371Y-14269800D01*
X21375657Y-14569800D02*
X21389943Y-14555514D01*
X21418514Y-14512657D01*
X21432800Y-14484086D01*
X21447086Y-14441229D01*
X21461371Y-14369800D01*
X21461371Y-14312657D01*
X21447086Y-14241229D01*
X21432800Y-14198371D01*
X21418514Y-14169800D01*
X21389943Y-14126943D01*
X21375657Y-14112657D01*
X11870938Y-14828938D02*
X11870938Y-14602662D01*
X11644662Y-14602662D01*
X11644662Y-14828938D01*
X11870938Y-14828938D01*
X12175657Y-14551514D02*
X12361371Y-14551514D01*
X12261371Y-14665800D01*
X12304228Y-14665800D01*
X12332800Y-14680086D01*
X12347086Y-14694371D01*
X12361371Y-14722943D01*
X12361371Y-14794371D01*
X12347086Y-14822943D01*
X12332800Y-14837229D01*
X12304228Y-14851514D01*
X12218514Y-14851514D01*
X12189943Y-14837229D01*
X12175657Y-14822943D01*
X12489943Y-14822943D02*
X12504228Y-14837229D01*
X12489943Y-14851514D01*
X12475657Y-14837229D01*
X12489943Y-14822943D01*
X12489943Y-14851514D01*
X12618514Y-14580086D02*
X12632800Y-14565800D01*
X12661371Y-14551514D01*
X12732800Y-14551514D01*
X12761371Y-14565800D01*
X12775657Y-14580086D01*
X12789943Y-14608657D01*
X12789943Y-14637229D01*
X12775657Y-14680086D01*
X12604228Y-14851514D01*
X12789943Y-14851514D01*
X12975657Y-14551514D02*
X13004228Y-14551514D01*
X13032800Y-14565800D01*
X13047086Y-14580086D01*
X13061371Y-14608657D01*
X13075657Y-14665800D01*
X13075657Y-14737229D01*
X13061371Y-14794371D01*
X13047086Y-14822943D01*
X13032800Y-14837229D01*
X13004228Y-14851514D01*
X12975657Y-14851514D01*
X12947086Y-14837229D01*
X12932800Y-14822943D01*
X12918514Y-14794371D01*
X12904228Y-14737229D01*
X12904228Y-14665800D01*
X12918514Y-14608657D01*
X12932800Y-14580086D01*
X12947086Y-14565800D01*
X12975657Y-14551514D01*
X13204228Y-14851514D02*
X13204228Y-14651514D01*
X13204228Y-14680086D02*
X13218514Y-14665800D01*
X13247086Y-14651514D01*
X13289943Y-14651514D01*
X13318514Y-14665800D01*
X13332800Y-14694371D01*
X13332800Y-14851514D01*
X13332800Y-14694371D02*
X13347086Y-14665800D01*
X13375657Y-14651514D01*
X13418514Y-14651514D01*
X13447086Y-14665800D01*
X13461371Y-14694371D01*
X13461371Y-14851514D01*
X13604228Y-14851514D02*
X13604228Y-14651514D01*
X13604228Y-14680086D02*
X13618514Y-14665800D01*
X13647086Y-14651514D01*
X13689943Y-14651514D01*
X13718514Y-14665800D01*
X13732800Y-14694371D01*
X13732800Y-14851514D01*
X13732800Y-14694371D02*
X13747086Y-14665800D01*
X13775657Y-14651514D01*
X13818514Y-14651514D01*
X13847086Y-14665800D01*
X13861371Y-14694371D01*
X13861371Y-14851514D01*
X14447086Y-14537229D02*
X14189943Y-14922943D01*
X14832800Y-14551514D02*
X14861371Y-14551514D01*
X14889943Y-14565800D01*
X14904228Y-14580086D01*
X14918514Y-14608657D01*
X14932800Y-14665800D01*
X14932800Y-14737229D01*
X14918514Y-14794371D01*
X14904228Y-14822943D01*
X14889943Y-14837229D01*
X14861371Y-14851514D01*
X14832800Y-14851514D01*
X14804228Y-14837229D01*
X14789943Y-14822943D01*
X14775657Y-14794371D01*
X14761371Y-14737229D01*
X14761371Y-14665800D01*
X14775657Y-14608657D01*
X14789943Y-14580086D01*
X14804228Y-14565800D01*
X14832800Y-14551514D01*
X15061371Y-14822943D02*
X15075657Y-14837229D01*
X15061371Y-14851514D01*
X15047086Y-14837229D01*
X15061371Y-14822943D01*
X15061371Y-14851514D01*
X15361371Y-14851514D02*
X15189943Y-14851514D01*
X15275657Y-14851514D02*
X15275657Y-14551514D01*
X15247086Y-14594371D01*
X15218514Y-14622943D01*
X15189943Y-14637229D01*
X15475657Y-14580086D02*
X15489943Y-14565800D01*
X15518514Y-14551514D01*
X15589943Y-14551514D01*
X15618514Y-14565800D01*
X15632800Y-14580086D01*
X15647086Y-14608657D01*
X15647086Y-14637229D01*
X15632800Y-14680086D01*
X15461371Y-14851514D01*
X15647086Y-14851514D01*
X15904228Y-14551514D02*
X15847086Y-14551514D01*
X15818514Y-14565800D01*
X15804228Y-14580086D01*
X15775657Y-14622943D01*
X15761371Y-14680086D01*
X15761371Y-14794371D01*
X15775657Y-14822943D01*
X15789943Y-14837229D01*
X15818514Y-14851514D01*
X15875657Y-14851514D01*
X15904228Y-14837229D01*
X15918514Y-14822943D01*
X15932800Y-14794371D01*
X15932800Y-14722943D01*
X15918514Y-14694371D01*
X15904228Y-14680086D01*
X15875657Y-14665800D01*
X15818514Y-14665800D01*
X15789943Y-14680086D01*
X15775657Y-14694371D01*
X15761371Y-14722943D01*
X16047086Y-14551514D02*
X16047086Y-14608657D01*
X16161371Y-14551514D02*
X16161371Y-14608657D01*
X16604228Y-14965800D02*
X16589943Y-14951514D01*
X16561371Y-14908657D01*
X16547086Y-14880086D01*
X16532800Y-14837229D01*
X16518514Y-14765800D01*
X16518514Y-14708657D01*
X16532800Y-14637229D01*
X16547086Y-14594371D01*
X16561371Y-14565800D01*
X16589943Y-14522943D01*
X16604228Y-14508657D01*
X16847086Y-14651514D02*
X16847086Y-14851514D01*
X16775657Y-14537229D02*
X16704228Y-14751514D01*
X16889943Y-14751514D01*
X17232800Y-14851514D02*
X17232800Y-14551514D01*
X17361371Y-14851514D02*
X17361371Y-14694371D01*
X17347086Y-14665800D01*
X17318514Y-14651514D01*
X17275657Y-14651514D01*
X17247086Y-14665800D01*
X17232800Y-14680086D01*
X17547086Y-14851514D02*
X17518514Y-14837229D01*
X17504228Y-14822943D01*
X17489943Y-14794371D01*
X17489943Y-14708657D01*
X17504228Y-14680086D01*
X17518514Y-14665800D01*
X17547086Y-14651514D01*
X17589943Y-14651514D01*
X17618514Y-14665800D01*
X17632800Y-14680086D01*
X17647086Y-14708657D01*
X17647086Y-14794371D01*
X17632800Y-14822943D01*
X17618514Y-14837229D01*
X17589943Y-14851514D01*
X17547086Y-14851514D01*
X17818514Y-14851514D02*
X17789943Y-14837229D01*
X17775657Y-14808657D01*
X17775657Y-14551514D01*
X18047086Y-14837229D02*
X18018514Y-14851514D01*
X17961371Y-14851514D01*
X17932800Y-14837229D01*
X17918514Y-14808657D01*
X17918514Y-14694371D01*
X17932800Y-14665800D01*
X17961371Y-14651514D01*
X18018514Y-14651514D01*
X18047086Y-14665800D01*
X18061371Y-14694371D01*
X18061371Y-14722943D01*
X17918514Y-14751514D01*
X18175657Y-14837229D02*
X18204228Y-14851514D01*
X18261371Y-14851514D01*
X18289943Y-14837229D01*
X18304228Y-14808657D01*
X18304228Y-14794371D01*
X18289943Y-14765800D01*
X18261371Y-14751514D01*
X18218514Y-14751514D01*
X18189943Y-14737229D01*
X18175657Y-14708657D01*
X18175657Y-14694371D01*
X18189943Y-14665800D01*
X18218514Y-14651514D01*
X18261371Y-14651514D01*
X18289943Y-14665800D01*
X18404228Y-14965800D02*
X18418514Y-14951514D01*
X18447086Y-14908657D01*
X18461371Y-14880086D01*
X18475657Y-14837229D01*
X18489943Y-14765800D01*
X18489943Y-14708657D01*
X18475657Y-14637229D01*
X18461371Y-14594371D01*
X18447086Y-14565800D01*
X18418514Y-14522943D01*
X18404228Y-14508657D01*
X18947086Y-14965800D02*
X18932800Y-14951514D01*
X18904228Y-14908657D01*
X18889943Y-14880086D01*
X18875657Y-14837229D01*
X18861371Y-14765800D01*
X18861371Y-14708657D01*
X18875657Y-14637229D01*
X18889943Y-14594371D01*
X18904228Y-14565800D01*
X18932800Y-14522943D01*
X18947086Y-14508657D01*
X19061371Y-14651514D02*
X19061371Y-14851514D01*
X19061371Y-14680086D02*
X19075657Y-14665800D01*
X19104228Y-14651514D01*
X19147086Y-14651514D01*
X19175657Y-14665800D01*
X19189943Y-14694371D01*
X19189943Y-14851514D01*
X19375657Y-14851514D02*
X19347086Y-14837229D01*
X19332800Y-14822943D01*
X19318514Y-14794371D01*
X19318514Y-14708657D01*
X19332800Y-14680086D01*
X19347086Y-14665800D01*
X19375657Y-14651514D01*
X19418514Y-14651514D01*
X19447086Y-14665800D01*
X19461371Y-14680086D01*
X19475657Y-14708657D01*
X19475657Y-14794371D01*
X19461371Y-14822943D01*
X19447086Y-14837229D01*
X19418514Y-14851514D01*
X19375657Y-14851514D01*
X19561371Y-14651514D02*
X19675657Y-14651514D01*
X19604228Y-14551514D02*
X19604228Y-14808657D01*
X19618514Y-14837229D01*
X19647086Y-14851514D01*
X19675657Y-14851514D01*
X20004228Y-14651514D02*
X20004228Y-14951514D01*
X20004228Y-14665800D02*
X20032800Y-14651514D01*
X20089943Y-14651514D01*
X20118514Y-14665800D01*
X20132800Y-14680086D01*
X20147086Y-14708657D01*
X20147086Y-14794371D01*
X20132800Y-14822943D01*
X20118514Y-14837229D01*
X20089943Y-14851514D01*
X20032800Y-14851514D01*
X20004228Y-14837229D01*
X20318514Y-14851514D02*
X20289943Y-14837229D01*
X20275657Y-14808657D01*
X20275657Y-14551514D01*
X20561371Y-14851514D02*
X20561371Y-14694371D01*
X20547086Y-14665800D01*
X20518514Y-14651514D01*
X20461371Y-14651514D01*
X20432800Y-14665800D01*
X20561371Y-14837229D02*
X20532800Y-14851514D01*
X20461371Y-14851514D01*
X20432800Y-14837229D01*
X20418514Y-14808657D01*
X20418514Y-14780086D01*
X20432800Y-14751514D01*
X20461371Y-14737229D01*
X20532800Y-14737229D01*
X20561371Y-14722943D01*
X20661371Y-14651514D02*
X20775657Y-14651514D01*
X20704228Y-14551514D02*
X20704228Y-14808657D01*
X20718514Y-14837229D01*
X20747086Y-14851514D01*
X20775657Y-14851514D01*
X20989943Y-14837229D02*
X20961371Y-14851514D01*
X20904228Y-14851514D01*
X20875657Y-14837229D01*
X20861371Y-14808657D01*
X20861371Y-14694371D01*
X20875657Y-14665800D01*
X20904228Y-14651514D01*
X20961371Y-14651514D01*
X20989943Y-14665800D01*
X21004228Y-14694371D01*
X21004228Y-14722943D01*
X20861371Y-14751514D01*
X21261371Y-14851514D02*
X21261371Y-14551514D01*
X21261371Y-14837229D02*
X21232800Y-14851514D01*
X21175657Y-14851514D01*
X21147086Y-14837229D01*
X21132800Y-14822943D01*
X21118514Y-14794371D01*
X21118514Y-14708657D01*
X21132800Y-14680086D01*
X21147086Y-14665800D01*
X21175657Y-14651514D01*
X21232800Y-14651514D01*
X21261371Y-14665800D01*
X21375657Y-14965800D02*
X21389943Y-14951514D01*
X21418514Y-14908657D01*
X21432800Y-14880086D01*
X21447086Y-14837229D01*
X21461371Y-14765800D01*
X21461371Y-14708657D01*
X21447086Y-14637229D01*
X21432800Y-14594371D01*
X21418514Y-14565800D01*
X21389943Y-14522943D01*
X21375657Y-14508657D01*
X11755300Y-15328300D02*
X11917800Y-15165800D01*
X11755300Y-15003300D01*
X11592800Y-15165800D01*
X11755300Y-15328300D01*
X12175657Y-15001514D02*
X12361371Y-15001514D01*
X12261371Y-15115800D01*
X12304228Y-15115800D01*
X12332800Y-15130086D01*
X12347086Y-15144371D01*
X12361371Y-15172943D01*
X12361371Y-15244371D01*
X12347086Y-15272943D01*
X12332800Y-15287229D01*
X12304228Y-15301514D01*
X12218514Y-15301514D01*
X12189943Y-15287229D01*
X12175657Y-15272943D01*
X12489943Y-15272943D02*
X12504228Y-15287229D01*
X12489943Y-15301514D01*
X12475657Y-15287229D01*
X12489943Y-15272943D01*
X12489943Y-15301514D01*
X12618514Y-15030086D02*
X12632800Y-15015800D01*
X12661371Y-15001514D01*
X12732800Y-15001514D01*
X12761371Y-15015800D01*
X12775657Y-15030086D01*
X12789943Y-15058657D01*
X12789943Y-15087229D01*
X12775657Y-15130086D01*
X12604228Y-15301514D01*
X12789943Y-15301514D01*
X13061371Y-15001514D02*
X12918514Y-15001514D01*
X12904228Y-15144371D01*
X12918514Y-15130086D01*
X12947086Y-15115800D01*
X13018514Y-15115800D01*
X13047086Y-15130086D01*
X13061371Y-15144371D01*
X13075657Y-15172943D01*
X13075657Y-15244371D01*
X13061371Y-15272943D01*
X13047086Y-15287229D01*
X13018514Y-15301514D01*
X12947086Y-15301514D01*
X12918514Y-15287229D01*
X12904228Y-15272943D01*
X13204228Y-15301514D02*
X13204228Y-15101514D01*
X13204228Y-15130086D02*
X13218514Y-15115800D01*
X13247086Y-15101514D01*
X13289943Y-15101514D01*
X13318514Y-15115800D01*
X13332800Y-15144371D01*
X13332800Y-15301514D01*
X13332800Y-15144371D02*
X13347086Y-15115800D01*
X13375657Y-15101514D01*
X13418514Y-15101514D01*
X13447086Y-15115800D01*
X13461371Y-15144371D01*
X13461371Y-15301514D01*
X13604228Y-15301514D02*
X13604228Y-15101514D01*
X13604228Y-15130086D02*
X13618514Y-15115800D01*
X13647086Y-15101514D01*
X13689943Y-15101514D01*
X13718514Y-15115800D01*
X13732800Y-15144371D01*
X13732800Y-15301514D01*
X13732800Y-15144371D02*
X13747086Y-15115800D01*
X13775657Y-15101514D01*
X13818514Y-15101514D01*
X13847086Y-15115800D01*
X13861371Y-15144371D01*
X13861371Y-15301514D01*
X14447086Y-14987229D02*
X14189943Y-15372943D01*
X14832800Y-15001514D02*
X14861371Y-15001514D01*
X14889943Y-15015800D01*
X14904228Y-15030086D01*
X14918514Y-15058657D01*
X14932800Y-15115800D01*
X14932800Y-15187229D01*
X14918514Y-15244371D01*
X14904228Y-15272943D01*
X14889943Y-15287229D01*
X14861371Y-15301514D01*
X14832800Y-15301514D01*
X14804228Y-15287229D01*
X14789943Y-15272943D01*
X14775657Y-15244371D01*
X14761371Y-15187229D01*
X14761371Y-15115800D01*
X14775657Y-15058657D01*
X14789943Y-15030086D01*
X14804228Y-15015800D01*
X14832800Y-15001514D01*
X15061371Y-15272943D02*
X15075657Y-15287229D01*
X15061371Y-15301514D01*
X15047086Y-15287229D01*
X15061371Y-15272943D01*
X15061371Y-15301514D01*
X15361371Y-15301514D02*
X15189943Y-15301514D01*
X15275657Y-15301514D02*
X15275657Y-15001514D01*
X15247086Y-15044371D01*
X15218514Y-15072943D01*
X15189943Y-15087229D01*
X15475657Y-15030086D02*
X15489943Y-15015800D01*
X15518514Y-15001514D01*
X15589943Y-15001514D01*
X15618514Y-15015800D01*
X15632800Y-15030086D01*
X15647086Y-15058657D01*
X15647086Y-15087229D01*
X15632800Y-15130086D01*
X15461371Y-15301514D01*
X15647086Y-15301514D01*
X15818514Y-15130086D02*
X15789943Y-15115800D01*
X15775657Y-15101514D01*
X15761371Y-15072943D01*
X15761371Y-15058657D01*
X15775657Y-15030086D01*
X15789943Y-15015800D01*
X15818514Y-15001514D01*
X15875657Y-15001514D01*
X15904228Y-15015800D01*
X15918514Y-15030086D01*
X15932800Y-15058657D01*
X15932800Y-15072943D01*
X15918514Y-15101514D01*
X15904228Y-15115800D01*
X15875657Y-15130086D01*
X15818514Y-15130086D01*
X15789943Y-15144371D01*
X15775657Y-15158657D01*
X15761371Y-15187229D01*
X15761371Y-15244371D01*
X15775657Y-15272943D01*
X15789943Y-15287229D01*
X15818514Y-15301514D01*
X15875657Y-15301514D01*
X15904228Y-15287229D01*
X15918514Y-15272943D01*
X15932800Y-15244371D01*
X15932800Y-15187229D01*
X15918514Y-15158657D01*
X15904228Y-15144371D01*
X15875657Y-15130086D01*
X16047086Y-15001514D02*
X16047086Y-15058657D01*
X16161371Y-15001514D02*
X16161371Y-15058657D01*
X16604228Y-15415800D02*
X16589943Y-15401514D01*
X16561371Y-15358657D01*
X16547086Y-15330086D01*
X16532800Y-15287229D01*
X16518514Y-15215800D01*
X16518514Y-15158657D01*
X16532800Y-15087229D01*
X16547086Y-15044371D01*
X16561371Y-15015800D01*
X16589943Y-14972943D01*
X16604228Y-14958657D01*
X16704228Y-15030086D02*
X16718514Y-15015800D01*
X16747086Y-15001514D01*
X16818514Y-15001514D01*
X16847086Y-15015800D01*
X16861371Y-15030086D01*
X16875657Y-15058657D01*
X16875657Y-15087229D01*
X16861371Y-15130086D01*
X16689943Y-15301514D01*
X16875657Y-15301514D01*
X17232800Y-15301514D02*
X17232800Y-15001514D01*
X17361371Y-15301514D02*
X17361371Y-15144371D01*
X17347086Y-15115800D01*
X17318514Y-15101514D01*
X17275657Y-15101514D01*
X17247086Y-15115800D01*
X17232800Y-15130086D01*
X17547086Y-15301514D02*
X17518514Y-15287229D01*
X17504228Y-15272943D01*
X17489943Y-15244371D01*
X17489943Y-15158657D01*
X17504228Y-15130086D01*
X17518514Y-15115800D01*
X17547086Y-15101514D01*
X17589943Y-15101514D01*
X17618514Y-15115800D01*
X17632800Y-15130086D01*
X17647086Y-15158657D01*
X17647086Y-15244371D01*
X17632800Y-15272943D01*
X17618514Y-15287229D01*
X17589943Y-15301514D01*
X17547086Y-15301514D01*
X17818514Y-15301514D02*
X17789943Y-15287229D01*
X17775657Y-15258657D01*
X17775657Y-15001514D01*
X18047086Y-15287229D02*
X18018514Y-15301514D01*
X17961371Y-15301514D01*
X17932800Y-15287229D01*
X17918514Y-15258657D01*
X17918514Y-15144371D01*
X17932800Y-15115800D01*
X17961371Y-15101514D01*
X18018514Y-15101514D01*
X18047086Y-15115800D01*
X18061371Y-15144371D01*
X18061371Y-15172943D01*
X17918514Y-15201514D01*
X18175657Y-15287229D02*
X18204228Y-15301514D01*
X18261371Y-15301514D01*
X18289943Y-15287229D01*
X18304228Y-15258657D01*
X18304228Y-15244371D01*
X18289943Y-15215800D01*
X18261371Y-15201514D01*
X18218514Y-15201514D01*
X18189943Y-15187229D01*
X18175657Y-15158657D01*
X18175657Y-15144371D01*
X18189943Y-15115800D01*
X18218514Y-15101514D01*
X18261371Y-15101514D01*
X18289943Y-15115800D01*
X18404228Y-15415800D02*
X18418514Y-15401514D01*
X18447086Y-15358657D01*
X18461371Y-15330086D01*
X18475657Y-15287229D01*
X18489943Y-15215800D01*
X18489943Y-15158657D01*
X18475657Y-15087229D01*
X18461371Y-15044371D01*
X18447086Y-15015800D01*
X18418514Y-14972943D01*
X18404228Y-14958657D01*
X18947086Y-15415800D02*
X18932800Y-15401514D01*
X18904228Y-15358657D01*
X18889943Y-15330086D01*
X18875657Y-15287229D01*
X18861371Y-15215800D01*
X18861371Y-15158657D01*
X18875657Y-15087229D01*
X18889943Y-15044371D01*
X18904228Y-15015800D01*
X18932800Y-14972943D01*
X18947086Y-14958657D01*
X19061371Y-15101514D02*
X19061371Y-15301514D01*
X19061371Y-15130086D02*
X19075657Y-15115800D01*
X19104228Y-15101514D01*
X19147086Y-15101514D01*
X19175657Y-15115800D01*
X19189943Y-15144371D01*
X19189943Y-15301514D01*
X19375657Y-15301514D02*
X19347086Y-15287229D01*
X19332800Y-15272943D01*
X19318514Y-15244371D01*
X19318514Y-15158657D01*
X19332800Y-15130086D01*
X19347086Y-15115800D01*
X19375657Y-15101514D01*
X19418514Y-15101514D01*
X19447086Y-15115800D01*
X19461371Y-15130086D01*
X19475657Y-15158657D01*
X19475657Y-15244371D01*
X19461371Y-15272943D01*
X19447086Y-15287229D01*
X19418514Y-15301514D01*
X19375657Y-15301514D01*
X19561371Y-15101514D02*
X19675657Y-15101514D01*
X19604228Y-15001514D02*
X19604228Y-15258657D01*
X19618514Y-15287229D01*
X19647086Y-15301514D01*
X19675657Y-15301514D01*
X20004228Y-15101514D02*
X20004228Y-15401514D01*
X20004228Y-15115800D02*
X20032800Y-15101514D01*
X20089943Y-15101514D01*
X20118514Y-15115800D01*
X20132800Y-15130086D01*
X20147086Y-15158657D01*
X20147086Y-15244371D01*
X20132800Y-15272943D01*
X20118514Y-15287229D01*
X20089943Y-15301514D01*
X20032800Y-15301514D01*
X20004228Y-15287229D01*
X20318514Y-15301514D02*
X20289943Y-15287229D01*
X20275657Y-15258657D01*
X20275657Y-15001514D01*
X20561371Y-15301514D02*
X20561371Y-15144371D01*
X20547086Y-15115800D01*
X20518514Y-15101514D01*
X20461371Y-15101514D01*
X20432800Y-15115800D01*
X20561371Y-15287229D02*
X20532800Y-15301514D01*
X20461371Y-15301514D01*
X20432800Y-15287229D01*
X20418514Y-15258657D01*
X20418514Y-15230086D01*
X20432800Y-15201514D01*
X20461371Y-15187229D01*
X20532800Y-15187229D01*
X20561371Y-15172943D01*
X20661371Y-15101514D02*
X20775657Y-15101514D01*
X20704228Y-15001514D02*
X20704228Y-15258657D01*
X20718514Y-15287229D01*
X20747086Y-15301514D01*
X20775657Y-15301514D01*
X20989943Y-15287229D02*
X20961371Y-15301514D01*
X20904228Y-15301514D01*
X20875657Y-15287229D01*
X20861371Y-15258657D01*
X20861371Y-15144371D01*
X20875657Y-15115800D01*
X20904228Y-15101514D01*
X20961371Y-15101514D01*
X20989943Y-15115800D01*
X21004228Y-15144371D01*
X21004228Y-15172943D01*
X20861371Y-15201514D01*
X21261371Y-15301514D02*
X21261371Y-15001514D01*
X21261371Y-15287229D02*
X21232800Y-15301514D01*
X21175657Y-15301514D01*
X21147086Y-15287229D01*
X21132800Y-15272943D01*
X21118514Y-15244371D01*
X21118514Y-15158657D01*
X21132800Y-15130086D01*
X21147086Y-15115800D01*
X21175657Y-15101514D01*
X21232800Y-15101514D01*
X21261371Y-15115800D01*
X21375657Y-15415800D02*
X21389943Y-15401514D01*
X21418514Y-15358657D01*
X21432800Y-15330086D01*
X21447086Y-15287229D01*
X21461371Y-15215800D01*
X21461371Y-15158657D01*
X21447086Y-15087229D01*
X21432800Y-15044371D01*
X21418514Y-15015800D01*
X21389943Y-14972943D01*
X21375657Y-14958657D01*
M02*
