M48
;DRILL file {KiCad no-vcs-found-bf44d39~61~ubuntu16.04.1} date Thu Jan  4 16:51:47 2018
;FORMAT={3:3/ absolute / metric / suppress leading zeros}
FMAT,2
METRIC,TZ
T1C0.400
T2C0.890
T3C1.120
%
G90
G05
M71
T1
X91516Y-80975
X91567Y-82099
X92558Y-80772
X92630Y-64780
X92659Y-70358
X93000Y-66840
X93904Y-70358
X94971Y-66167
X95160Y-60950
X96154Y-65032
X97389Y-65052
X97710Y-60910
X98623Y-65057
X98730Y-79197
X98920Y-67262
X98920Y-68303
X99746Y-80086
X99805Y-67257
X99808Y-68303
X100228Y-70282
X100635Y-79197
X100691Y-67249
X100696Y-68303
X100762Y-82245
X101117Y-60884
X101524Y-70409
X101770Y-81500
X102150Y-60780
X102810Y-81090
X103099Y-80086
X103124Y-74422
X103300Y-60810
X104267Y-74143
X104320Y-67620
X104419Y-91846
X105340Y-70470
X105613Y-90780
X105639Y-91846
X105639Y-91846
X105660Y-60750
X105664Y-82245
X105664Y-74447
X106909Y-91846
X106909Y-91846
X106985Y-90780
X107590Y-69740
X107880Y-60770
X108280Y-90780
X108280Y-91846
X108620Y-69750
X109160Y-64630
X109169Y-74371
X109570Y-67630
X109570Y-68710
X109590Y-69760
X109870Y-60590
X110580Y-67620
X110590Y-68710
X110610Y-69750
T2
X97710Y-83412
X98730Y-85192
X99740Y-83412
X100760Y-85192
X101770Y-83412
X102790Y-85192
X103800Y-83412
X104820Y-85192
T3
X94259Y-75692
X96799Y-75692
X99339Y-75692
X101879Y-75692
X104419Y-75692
X106959Y-75692
T0
M30
