G04 #@! TF.GenerationSoftware,KiCad,Pcbnew,no-vcs-found-0f0cb64~58~ubuntu14.04.1*
G04 #@! TF.CreationDate,2017-03-27T23:46:48+02:00*
G04 #@! TF.ProjectId,Doppelganger,446F7070656C67616E6765722E6B6963,rev?*
G04 #@! TF.FileFunction,Legend,Top*
G04 #@! TF.FilePolarity,Positive*
%FSLAX46Y46*%
G04 Gerber Fmt 4.6, Leading zero omitted, Abs format (unit mm)*
G04 Created by KiCad (PCBNEW no-vcs-found-0f0cb64~58~ubuntu14.04.1) date Mon Mar 27 23:46:48 2017*
%MOMM*%
%LPD*%
G01*
G04 APERTURE LIST*
%ADD10C,0.100000*%
%ADD11C,0.150000*%
%ADD12C,0.300000*%
%ADD13C,0.400000*%
%ADD14C,0.200000*%
%ADD15C,0.250000*%
%ADD16C,0.203200*%
G04 APERTURE END LIST*
D10*
D11*
X177002200Y-166007200D02*
X177002200Y-198007200D01*
X285002200Y-198007200D01*
X285002200Y-166007200D01*
X177002200Y-166007200D01*
D10*
D11*
X10000000Y-10000000D02*
X10000000Y-200007200D01*
X287002200Y-200007200D01*
X287002200Y-10000000D01*
X10000000Y-10000000D01*
D10*
D11*
X12000000Y-12000000D02*
X12000000Y-198007200D01*
X285002200Y-198007200D01*
X285002200Y-12000000D01*
X12000000Y-12000000D01*
D10*
D11*
X60000000Y-12000000D02*
X60000000Y-10000000D01*
D10*
D11*
X110000000Y-12000000D02*
X110000000Y-10000000D01*
D10*
D11*
X160000000Y-12000000D02*
X160000000Y-10000000D01*
D10*
D11*
X210000000Y-12000000D02*
X210000000Y-10000000D01*
D10*
D11*
X260000000Y-12000000D02*
X260000000Y-10000000D01*
D10*
D11*
X36065476Y-11588095D02*
X35322619Y-11588095D01*
X35694047Y-11588095D02*
X35694047Y-10288095D01*
X35570238Y-10473809D01*
X35446428Y-10597619D01*
X35322619Y-10659523D01*
D10*
D11*
X85322619Y-10411904D02*
X85384523Y-10350000D01*
X85508333Y-10288095D01*
X85817857Y-10288095D01*
X85941666Y-10350000D01*
X86003571Y-10411904D01*
X86065476Y-10535714D01*
X86065476Y-10659523D01*
X86003571Y-10845238D01*
X85260714Y-11588095D01*
X86065476Y-11588095D01*
D10*
D11*
X135260714Y-10288095D02*
X136065476Y-10288095D01*
X135632142Y-10783333D01*
X135817857Y-10783333D01*
X135941666Y-10845238D01*
X136003571Y-10907142D01*
X136065476Y-11030952D01*
X136065476Y-11340476D01*
X136003571Y-11464285D01*
X135941666Y-11526190D01*
X135817857Y-11588095D01*
X135446428Y-11588095D01*
X135322619Y-11526190D01*
X135260714Y-11464285D01*
D10*
D11*
X185941666Y-10721428D02*
X185941666Y-11588095D01*
X185632142Y-10226190D02*
X185322619Y-11154761D01*
X186127380Y-11154761D01*
D10*
D11*
X236003571Y-10288095D02*
X235384523Y-10288095D01*
X235322619Y-10907142D01*
X235384523Y-10845238D01*
X235508333Y-10783333D01*
X235817857Y-10783333D01*
X235941666Y-10845238D01*
X236003571Y-10907142D01*
X236065476Y-11030952D01*
X236065476Y-11340476D01*
X236003571Y-11464285D01*
X235941666Y-11526190D01*
X235817857Y-11588095D01*
X235508333Y-11588095D01*
X235384523Y-11526190D01*
X235322619Y-11464285D01*
D10*
D11*
X285941666Y-10288095D02*
X285694047Y-10288095D01*
X285570238Y-10350000D01*
X285508333Y-10411904D01*
X285384523Y-10597619D01*
X285322619Y-10845238D01*
X285322619Y-11340476D01*
X285384523Y-11464285D01*
X285446428Y-11526190D01*
X285570238Y-11588095D01*
X285817857Y-11588095D01*
X285941666Y-11526190D01*
X286003571Y-11464285D01*
X286065476Y-11340476D01*
X286065476Y-11030952D01*
X286003571Y-10907142D01*
X285941666Y-10845238D01*
X285817857Y-10783333D01*
X285570238Y-10783333D01*
X285446428Y-10845238D01*
X285384523Y-10907142D01*
X285322619Y-11030952D01*
D10*
D11*
X60000000Y-198007200D02*
X60000000Y-200007200D01*
D10*
D11*
X110000000Y-198007200D02*
X110000000Y-200007200D01*
D10*
D11*
X160000000Y-198007200D02*
X160000000Y-200007200D01*
D10*
D11*
X210000000Y-198007200D02*
X210000000Y-200007200D01*
D10*
D11*
X260000000Y-198007200D02*
X260000000Y-200007200D01*
D10*
D11*
X36065476Y-199595295D02*
X35322619Y-199595295D01*
X35694047Y-199595295D02*
X35694047Y-198295295D01*
X35570238Y-198481009D01*
X35446428Y-198604819D01*
X35322619Y-198666723D01*
D10*
D11*
X85322619Y-198419104D02*
X85384523Y-198357200D01*
X85508333Y-198295295D01*
X85817857Y-198295295D01*
X85941666Y-198357200D01*
X86003571Y-198419104D01*
X86065476Y-198542914D01*
X86065476Y-198666723D01*
X86003571Y-198852438D01*
X85260714Y-199595295D01*
X86065476Y-199595295D01*
D10*
D11*
X135260714Y-198295295D02*
X136065476Y-198295295D01*
X135632142Y-198790533D01*
X135817857Y-198790533D01*
X135941666Y-198852438D01*
X136003571Y-198914342D01*
X136065476Y-199038152D01*
X136065476Y-199347676D01*
X136003571Y-199471485D01*
X135941666Y-199533390D01*
X135817857Y-199595295D01*
X135446428Y-199595295D01*
X135322619Y-199533390D01*
X135260714Y-199471485D01*
D10*
D11*
X185941666Y-198728628D02*
X185941666Y-199595295D01*
X185632142Y-198233390D02*
X185322619Y-199161961D01*
X186127380Y-199161961D01*
D10*
D11*
X236003571Y-198295295D02*
X235384523Y-198295295D01*
X235322619Y-198914342D01*
X235384523Y-198852438D01*
X235508333Y-198790533D01*
X235817857Y-198790533D01*
X235941666Y-198852438D01*
X236003571Y-198914342D01*
X236065476Y-199038152D01*
X236065476Y-199347676D01*
X236003571Y-199471485D01*
X235941666Y-199533390D01*
X235817857Y-199595295D01*
X235508333Y-199595295D01*
X235384523Y-199533390D01*
X235322619Y-199471485D01*
D10*
D11*
X285941666Y-198295295D02*
X285694047Y-198295295D01*
X285570238Y-198357200D01*
X285508333Y-198419104D01*
X285384523Y-198604819D01*
X285322619Y-198852438D01*
X285322619Y-199347676D01*
X285384523Y-199471485D01*
X285446428Y-199533390D01*
X285570238Y-199595295D01*
X285817857Y-199595295D01*
X285941666Y-199533390D01*
X286003571Y-199471485D01*
X286065476Y-199347676D01*
X286065476Y-199038152D01*
X286003571Y-198914342D01*
X285941666Y-198852438D01*
X285817857Y-198790533D01*
X285570238Y-198790533D01*
X285446428Y-198852438D01*
X285384523Y-198914342D01*
X285322619Y-199038152D01*
D10*
D11*
X10000000Y-60000000D02*
X12000000Y-60000000D01*
D10*
D11*
X10000000Y-110000000D02*
X12000000Y-110000000D01*
D10*
D11*
X10000000Y-160000000D02*
X12000000Y-160000000D01*
D10*
D11*
X10690476Y-35216666D02*
X11309523Y-35216666D01*
X10566666Y-35588095D02*
X11000000Y-34288095D01*
X11433333Y-35588095D01*
D10*
D11*
X11092857Y-84907142D02*
X11278571Y-84969047D01*
X11340476Y-85030952D01*
X11402380Y-85154761D01*
X11402380Y-85340476D01*
X11340476Y-85464285D01*
X11278571Y-85526190D01*
X11154761Y-85588095D01*
X10659523Y-85588095D01*
X10659523Y-84288095D01*
X11092857Y-84288095D01*
X11216666Y-84350000D01*
X11278571Y-84411904D01*
X11340476Y-84535714D01*
X11340476Y-84659523D01*
X11278571Y-84783333D01*
X11216666Y-84845238D01*
X11092857Y-84907142D01*
X10659523Y-84907142D01*
D10*
D11*
X11402380Y-135464285D02*
X11340476Y-135526190D01*
X11154761Y-135588095D01*
X11030952Y-135588095D01*
X10845238Y-135526190D01*
X10721428Y-135402380D01*
X10659523Y-135278571D01*
X10597619Y-135030952D01*
X10597619Y-134845238D01*
X10659523Y-134597619D01*
X10721428Y-134473809D01*
X10845238Y-134350000D01*
X11030952Y-134288095D01*
X11154761Y-134288095D01*
X11340476Y-134350000D01*
X11402380Y-134411904D01*
D10*
D11*
X10659523Y-185588095D02*
X10659523Y-184288095D01*
X10969047Y-184288095D01*
X11154761Y-184350000D01*
X11278571Y-184473809D01*
X11340476Y-184597619D01*
X11402380Y-184845238D01*
X11402380Y-185030952D01*
X11340476Y-185278571D01*
X11278571Y-185402380D01*
X11154761Y-185526190D01*
X10969047Y-185588095D01*
X10659523Y-185588095D01*
D10*
D11*
X287002200Y-60000000D02*
X285002200Y-60000000D01*
D10*
D11*
X287002200Y-110000000D02*
X285002200Y-110000000D01*
D10*
D11*
X287002200Y-160000000D02*
X285002200Y-160000000D01*
D10*
D11*
X285692676Y-35216666D02*
X286311723Y-35216666D01*
X285568866Y-35588095D02*
X286002200Y-34288095D01*
X286435533Y-35588095D01*
D10*
D11*
X286095057Y-84907142D02*
X286280771Y-84969047D01*
X286342676Y-85030952D01*
X286404580Y-85154761D01*
X286404580Y-85340476D01*
X286342676Y-85464285D01*
X286280771Y-85526190D01*
X286156961Y-85588095D01*
X285661723Y-85588095D01*
X285661723Y-84288095D01*
X286095057Y-84288095D01*
X286218866Y-84350000D01*
X286280771Y-84411904D01*
X286342676Y-84535714D01*
X286342676Y-84659523D01*
X286280771Y-84783333D01*
X286218866Y-84845238D01*
X286095057Y-84907142D01*
X285661723Y-84907142D01*
D10*
D11*
X286404580Y-135464285D02*
X286342676Y-135526190D01*
X286156961Y-135588095D01*
X286033152Y-135588095D01*
X285847438Y-135526190D01*
X285723628Y-135402380D01*
X285661723Y-135278571D01*
X285599819Y-135030952D01*
X285599819Y-134845238D01*
X285661723Y-134597619D01*
X285723628Y-134473809D01*
X285847438Y-134350000D01*
X286033152Y-134288095D01*
X286156961Y-134288095D01*
X286342676Y-134350000D01*
X286404580Y-134411904D01*
D10*
D11*
X285661723Y-185588095D02*
X285661723Y-184288095D01*
X285971247Y-184288095D01*
X286156961Y-184350000D01*
X286280771Y-184473809D01*
X286342676Y-184597619D01*
X286404580Y-184845238D01*
X286404580Y-185030952D01*
X286342676Y-185278571D01*
X286280771Y-185402380D01*
X286156961Y-185526190D01*
X285971247Y-185588095D01*
X285661723Y-185588095D01*
D10*
D11*
X200434342Y-193785771D02*
X200434342Y-192285771D01*
X200791485Y-192285771D01*
X201005771Y-192357200D01*
X201148628Y-192500057D01*
X201220057Y-192642914D01*
X201291485Y-192928628D01*
X201291485Y-193142914D01*
X201220057Y-193428628D01*
X201148628Y-193571485D01*
X201005771Y-193714342D01*
X200791485Y-193785771D01*
X200434342Y-193785771D01*
X202577200Y-193785771D02*
X202577200Y-193000057D01*
X202505771Y-192857200D01*
X202362914Y-192785771D01*
X202077200Y-192785771D01*
X201934342Y-192857200D01*
X202577200Y-193714342D02*
X202434342Y-193785771D01*
X202077200Y-193785771D01*
X201934342Y-193714342D01*
X201862914Y-193571485D01*
X201862914Y-193428628D01*
X201934342Y-193285771D01*
X202077200Y-193214342D01*
X202434342Y-193214342D01*
X202577200Y-193142914D01*
X203077200Y-192785771D02*
X203648628Y-192785771D01*
X203291485Y-192285771D02*
X203291485Y-193571485D01*
X203362914Y-193714342D01*
X203505771Y-193785771D01*
X203648628Y-193785771D01*
X204720057Y-193714342D02*
X204577200Y-193785771D01*
X204291485Y-193785771D01*
X204148628Y-193714342D01*
X204077200Y-193571485D01*
X204077200Y-193000057D01*
X204148628Y-192857200D01*
X204291485Y-192785771D01*
X204577200Y-192785771D01*
X204720057Y-192857200D01*
X204791485Y-193000057D01*
X204791485Y-193142914D01*
X204077200Y-193285771D01*
X205434342Y-193642914D02*
X205505771Y-193714342D01*
X205434342Y-193785771D01*
X205362914Y-193714342D01*
X205434342Y-193642914D01*
X205434342Y-193785771D01*
X205434342Y-192857200D02*
X205505771Y-192928628D01*
X205434342Y-193000057D01*
X205362914Y-192928628D01*
X205434342Y-192857200D01*
X205434342Y-193000057D01*
D10*
D11*
X177002200Y-194507200D02*
X285002200Y-194507200D01*
D10*
D11*
X178434342Y-196585771D02*
X178434342Y-195085771D01*
X179291485Y-196585771D02*
X178648628Y-195728628D01*
X179291485Y-195085771D02*
X178434342Y-195942914D01*
X179934342Y-196585771D02*
X179934342Y-195585771D01*
X179934342Y-195085771D02*
X179862914Y-195157200D01*
X179934342Y-195228628D01*
X180005771Y-195157200D01*
X179934342Y-195085771D01*
X179934342Y-195228628D01*
X181505771Y-196442914D02*
X181434342Y-196514342D01*
X181220057Y-196585771D01*
X181077200Y-196585771D01*
X180862914Y-196514342D01*
X180720057Y-196371485D01*
X180648628Y-196228628D01*
X180577200Y-195942914D01*
X180577200Y-195728628D01*
X180648628Y-195442914D01*
X180720057Y-195300057D01*
X180862914Y-195157200D01*
X181077200Y-195085771D01*
X181220057Y-195085771D01*
X181434342Y-195157200D01*
X181505771Y-195228628D01*
X182791485Y-196585771D02*
X182791485Y-195800057D01*
X182720057Y-195657200D01*
X182577200Y-195585771D01*
X182291485Y-195585771D01*
X182148628Y-195657200D01*
X182791485Y-196514342D02*
X182648628Y-196585771D01*
X182291485Y-196585771D01*
X182148628Y-196514342D01*
X182077200Y-196371485D01*
X182077200Y-196228628D01*
X182148628Y-196085771D01*
X182291485Y-196014342D01*
X182648628Y-196014342D01*
X182791485Y-195942914D01*
X184148628Y-196585771D02*
X184148628Y-195085771D01*
X184148628Y-196514342D02*
X184005771Y-196585771D01*
X183720057Y-196585771D01*
X183577200Y-196514342D01*
X183505771Y-196442914D01*
X183434342Y-196300057D01*
X183434342Y-195871485D01*
X183505771Y-195728628D01*
X183577200Y-195657200D01*
X183720057Y-195585771D01*
X184005771Y-195585771D01*
X184148628Y-195657200D01*
X186005771Y-195800057D02*
X186505771Y-195800057D01*
X186720057Y-196585771D02*
X186005771Y-196585771D01*
X186005771Y-195085771D01*
X186720057Y-195085771D01*
X187362914Y-196442914D02*
X187434342Y-196514342D01*
X187362914Y-196585771D01*
X187291485Y-196514342D01*
X187362914Y-196442914D01*
X187362914Y-196585771D01*
X188077200Y-196585771D02*
X188077200Y-195085771D01*
X188434342Y-195085771D01*
X188648628Y-195157200D01*
X188791485Y-195300057D01*
X188862914Y-195442914D01*
X188934342Y-195728628D01*
X188934342Y-195942914D01*
X188862914Y-196228628D01*
X188791485Y-196371485D01*
X188648628Y-196514342D01*
X188434342Y-196585771D01*
X188077200Y-196585771D01*
X189577200Y-196442914D02*
X189648628Y-196514342D01*
X189577200Y-196585771D01*
X189505771Y-196514342D01*
X189577200Y-196442914D01*
X189577200Y-196585771D01*
X190220057Y-196157200D02*
X190934342Y-196157200D01*
X190077200Y-196585771D02*
X190577200Y-195085771D01*
X191077200Y-196585771D01*
X191577200Y-196442914D02*
X191648628Y-196514342D01*
X191577200Y-196585771D01*
X191505771Y-196514342D01*
X191577200Y-196442914D01*
X191577200Y-196585771D01*
X194577200Y-196585771D02*
X194577200Y-195085771D01*
X194720057Y-196014342D02*
X195148628Y-196585771D01*
X195148628Y-195585771D02*
X194577200Y-196157200D01*
X195791485Y-196585771D02*
X195791485Y-195585771D01*
X195791485Y-195085771D02*
X195720057Y-195157200D01*
X195791485Y-195228628D01*
X195862914Y-195157200D01*
X195791485Y-195085771D01*
X195791485Y-195228628D01*
X197148628Y-196514342D02*
X197005771Y-196585771D01*
X196720057Y-196585771D01*
X196577200Y-196514342D01*
X196505771Y-196442914D01*
X196434342Y-196300057D01*
X196434342Y-195871485D01*
X196505771Y-195728628D01*
X196577200Y-195657200D01*
X196720057Y-195585771D01*
X197005771Y-195585771D01*
X197148628Y-195657200D01*
X198434342Y-196585771D02*
X198434342Y-195800057D01*
X198362914Y-195657200D01*
X198220057Y-195585771D01*
X197934342Y-195585771D01*
X197791485Y-195657200D01*
X198434342Y-196514342D02*
X198291485Y-196585771D01*
X197934342Y-196585771D01*
X197791485Y-196514342D01*
X197720057Y-196371485D01*
X197720057Y-196228628D01*
X197791485Y-196085771D01*
X197934342Y-196014342D01*
X198291485Y-196014342D01*
X198434342Y-195942914D01*
X199791485Y-196585771D02*
X199791485Y-195085771D01*
X199791485Y-196514342D02*
X199648628Y-196585771D01*
X199362914Y-196585771D01*
X199220057Y-196514342D01*
X199148628Y-196442914D01*
X199077200Y-196300057D01*
X199077200Y-195871485D01*
X199148628Y-195728628D01*
X199220057Y-195657200D01*
X199362914Y-195585771D01*
X199648628Y-195585771D01*
X199791485Y-195657200D01*
X201648628Y-195585771D02*
X201648628Y-196585771D01*
X201648628Y-195728628D02*
X201720057Y-195657200D01*
X201862914Y-195585771D01*
X202077200Y-195585771D01*
X202220057Y-195657200D01*
X202291485Y-195800057D01*
X202291485Y-196585771D01*
X203220057Y-196585771D02*
X203077200Y-196514342D01*
X203005771Y-196442914D01*
X202934342Y-196300057D01*
X202934342Y-195871485D01*
X203005771Y-195728628D01*
X203077200Y-195657200D01*
X203220057Y-195585771D01*
X203434342Y-195585771D01*
X203577200Y-195657200D01*
X203648628Y-195728628D01*
X203720057Y-195871485D01*
X203720057Y-196300057D01*
X203648628Y-196442914D01*
X203577200Y-196514342D01*
X203434342Y-196585771D01*
X203220057Y-196585771D01*
X204362914Y-196014342D02*
X205505771Y-196014342D01*
X206077200Y-195585771D02*
X206434342Y-196585771D01*
X206791485Y-195585771D01*
X208005771Y-196514342D02*
X207862914Y-196585771D01*
X207577200Y-196585771D01*
X207434342Y-196514342D01*
X207362914Y-196442914D01*
X207291485Y-196300057D01*
X207291485Y-195871485D01*
X207362914Y-195728628D01*
X207434342Y-195657200D01*
X207577200Y-195585771D01*
X207862914Y-195585771D01*
X208005771Y-195657200D01*
X208577200Y-196514342D02*
X208720057Y-196585771D01*
X209005771Y-196585771D01*
X209148628Y-196514342D01*
X209220057Y-196371485D01*
X209220057Y-196300057D01*
X209148628Y-196157200D01*
X209005771Y-196085771D01*
X208791485Y-196085771D01*
X208648628Y-196014342D01*
X208577200Y-195871485D01*
X208577200Y-195800057D01*
X208648628Y-195657200D01*
X208791485Y-195585771D01*
X209005771Y-195585771D01*
X209148628Y-195657200D01*
X209862914Y-196014342D02*
X211005771Y-196014342D01*
X211505771Y-195585771D02*
X212077200Y-195585771D01*
X211720057Y-196585771D02*
X211720057Y-195300057D01*
X211791485Y-195157200D01*
X211934342Y-195085771D01*
X212077200Y-195085771D01*
X212791485Y-196585771D02*
X212648628Y-196514342D01*
X212577200Y-196442914D01*
X212505771Y-196300057D01*
X212505771Y-195871485D01*
X212577200Y-195728628D01*
X212648628Y-195657200D01*
X212791485Y-195585771D01*
X213005771Y-195585771D01*
X213148628Y-195657200D01*
X213220057Y-195728628D01*
X213291485Y-195871485D01*
X213291485Y-196300057D01*
X213220057Y-196442914D01*
X213148628Y-196514342D01*
X213005771Y-196585771D01*
X212791485Y-196585771D01*
X214577200Y-195585771D02*
X214577200Y-196585771D01*
X213934342Y-195585771D02*
X213934342Y-196371485D01*
X214005771Y-196514342D01*
X214148628Y-196585771D01*
X214362914Y-196585771D01*
X214505771Y-196514342D01*
X214577200Y-196442914D01*
X215291485Y-195585771D02*
X215291485Y-196585771D01*
X215291485Y-195728628D02*
X215362914Y-195657200D01*
X215505771Y-195585771D01*
X215720057Y-195585771D01*
X215862914Y-195657200D01*
X215934342Y-195800057D01*
X215934342Y-196585771D01*
X217291485Y-196585771D02*
X217291485Y-195085771D01*
X217291485Y-196514342D02*
X217148628Y-196585771D01*
X216862914Y-196585771D01*
X216720057Y-196514342D01*
X216648628Y-196442914D01*
X216577200Y-196300057D01*
X216577200Y-195871485D01*
X216648628Y-195728628D01*
X216720057Y-195657200D01*
X216862914Y-195585771D01*
X217148628Y-195585771D01*
X217291485Y-195657200D01*
X218005771Y-196014342D02*
X219148628Y-196014342D01*
X220148628Y-195085771D02*
X220291485Y-195085771D01*
X220434342Y-195157200D01*
X220505771Y-195228628D01*
X220577200Y-195371485D01*
X220648628Y-195657200D01*
X220648628Y-196014342D01*
X220577200Y-196300057D01*
X220505771Y-196442914D01*
X220434342Y-196514342D01*
X220291485Y-196585771D01*
X220148628Y-196585771D01*
X220005771Y-196514342D01*
X219934342Y-196442914D01*
X219862914Y-196300057D01*
X219791485Y-196014342D01*
X219791485Y-195657200D01*
X219862914Y-195371485D01*
X219934342Y-195228628D01*
X220005771Y-195157200D01*
X220148628Y-195085771D01*
X221077200Y-195585771D02*
X221648628Y-195585771D01*
X221291485Y-196585771D02*
X221291485Y-195300057D01*
X221362914Y-195157200D01*
X221505771Y-195085771D01*
X221648628Y-195085771D01*
X222434342Y-195085771D02*
X222577200Y-195085771D01*
X222720057Y-195157200D01*
X222791485Y-195228628D01*
X222862914Y-195371485D01*
X222934342Y-195657200D01*
X222934342Y-196014342D01*
X222862914Y-196300057D01*
X222791485Y-196442914D01*
X222720057Y-196514342D01*
X222577200Y-196585771D01*
X222434342Y-196585771D01*
X222291485Y-196514342D01*
X222220057Y-196442914D01*
X222148628Y-196300057D01*
X222077200Y-196014342D01*
X222077200Y-195657200D01*
X222148628Y-195371485D01*
X222220057Y-195228628D01*
X222291485Y-195157200D01*
X222434342Y-195085771D01*
X224220057Y-196514342D02*
X224077200Y-196585771D01*
X223791485Y-196585771D01*
X223648628Y-196514342D01*
X223577200Y-196442914D01*
X223505771Y-196300057D01*
X223505771Y-195871485D01*
X223577200Y-195728628D01*
X223648628Y-195657200D01*
X223791485Y-195585771D01*
X224077200Y-195585771D01*
X224220057Y-195657200D01*
X224862914Y-196585771D02*
X224862914Y-195085771D01*
X224862914Y-195657200D02*
X225005771Y-195585771D01*
X225291485Y-195585771D01*
X225434342Y-195657200D01*
X225505771Y-195728628D01*
X225577200Y-195871485D01*
X225577200Y-196300057D01*
X225505771Y-196442914D01*
X225434342Y-196514342D01*
X225291485Y-196585771D01*
X225005771Y-196585771D01*
X224862914Y-196514342D01*
X226862914Y-195085771D02*
X226577200Y-195085771D01*
X226434342Y-195157200D01*
X226362914Y-195228628D01*
X226220057Y-195442914D01*
X226148628Y-195728628D01*
X226148628Y-196300057D01*
X226220057Y-196442914D01*
X226291485Y-196514342D01*
X226434342Y-196585771D01*
X226720057Y-196585771D01*
X226862914Y-196514342D01*
X226934342Y-196442914D01*
X227005771Y-196300057D01*
X227005771Y-195942914D01*
X226934342Y-195800057D01*
X226862914Y-195728628D01*
X226720057Y-195657200D01*
X226434342Y-195657200D01*
X226291485Y-195728628D01*
X226220057Y-195800057D01*
X226148628Y-195942914D01*
X228291485Y-195585771D02*
X228291485Y-196585771D01*
X227934342Y-195014342D02*
X227577200Y-196085771D01*
X228505771Y-196085771D01*
X228967557Y-194677200D02*
X230148628Y-194677200D01*
X229791485Y-195085771D02*
X229077200Y-195085771D01*
X229005771Y-195800057D01*
X229077200Y-195728628D01*
X229220057Y-195657200D01*
X229577200Y-195657200D01*
X229720057Y-195728628D01*
X229791485Y-195800057D01*
X229862914Y-195942914D01*
X229862914Y-196300057D01*
X229791485Y-196442914D01*
X229720057Y-196514342D01*
X229577200Y-196585771D01*
X229220057Y-196585771D01*
X229077200Y-196514342D01*
X229005771Y-196442914D01*
X230148628Y-194677200D02*
X231577200Y-194677200D01*
X230720057Y-195728628D02*
X230577200Y-195657200D01*
X230505771Y-195585771D01*
X230434342Y-195442914D01*
X230434342Y-195371485D01*
X230505771Y-195228628D01*
X230577200Y-195157200D01*
X230720057Y-195085771D01*
X231005771Y-195085771D01*
X231148628Y-195157200D01*
X231220057Y-195228628D01*
X231291485Y-195371485D01*
X231291485Y-195442914D01*
X231220057Y-195585771D01*
X231148628Y-195657200D01*
X231005771Y-195728628D01*
X230720057Y-195728628D01*
X230577200Y-195800057D01*
X230505771Y-195871485D01*
X230434342Y-196014342D01*
X230434342Y-196300057D01*
X230505771Y-196442914D01*
X230577200Y-196514342D01*
X230720057Y-196585771D01*
X231005771Y-196585771D01*
X231148628Y-196514342D01*
X231220057Y-196442914D01*
X231291485Y-196300057D01*
X231291485Y-196014342D01*
X231220057Y-195871485D01*
X231148628Y-195800057D01*
X231005771Y-195728628D01*
X232577200Y-195585771D02*
X232577200Y-196585771D01*
X231934342Y-195585771D02*
X231934342Y-196371485D01*
X232005771Y-196514342D01*
X232148628Y-196585771D01*
X232362914Y-196585771D01*
X232505771Y-196514342D01*
X232577200Y-196442914D01*
X233291485Y-196585771D02*
X233291485Y-195085771D01*
X233291485Y-195657200D02*
X233434342Y-195585771D01*
X233720057Y-195585771D01*
X233862914Y-195657200D01*
X233934342Y-195728628D01*
X234005771Y-195871485D01*
X234005771Y-196300057D01*
X233934342Y-196442914D01*
X233862914Y-196514342D01*
X233720057Y-196585771D01*
X233434342Y-196585771D01*
X233291485Y-196514342D01*
X235291485Y-195585771D02*
X235291485Y-196585771D01*
X234648628Y-195585771D02*
X234648628Y-196371485D01*
X234720057Y-196514342D01*
X234862914Y-196585771D01*
X235077200Y-196585771D01*
X235220057Y-196514342D01*
X235291485Y-196442914D01*
X236005771Y-195585771D02*
X236005771Y-196585771D01*
X236005771Y-195728628D02*
X236077200Y-195657200D01*
X236220057Y-195585771D01*
X236434342Y-195585771D01*
X236577200Y-195657200D01*
X236648628Y-195800057D01*
X236648628Y-196585771D01*
X237148628Y-195585771D02*
X237720057Y-195585771D01*
X237362914Y-195085771D02*
X237362914Y-196371485D01*
X237434342Y-196514342D01*
X237577200Y-196585771D01*
X237720057Y-196585771D01*
X238862914Y-195585771D02*
X238862914Y-196585771D01*
X238220057Y-195585771D02*
X238220057Y-196371485D01*
X238291485Y-196514342D01*
X238434342Y-196585771D01*
X238648628Y-196585771D01*
X238791485Y-196514342D01*
X238862914Y-196442914D01*
X240362914Y-196585771D02*
X239505771Y-196585771D01*
X239934342Y-196585771D02*
X239934342Y-195085771D01*
X239791485Y-195300057D01*
X239648628Y-195442914D01*
X239505771Y-195514342D01*
X241648628Y-195585771D02*
X241648628Y-196585771D01*
X241291485Y-195014342D02*
X240934342Y-196085771D01*
X241862914Y-196085771D01*
X242434342Y-196442914D02*
X242505771Y-196514342D01*
X242434342Y-196585771D01*
X242362914Y-196514342D01*
X242434342Y-196442914D01*
X242434342Y-196585771D01*
X243434342Y-195085771D02*
X243577200Y-195085771D01*
X243720057Y-195157200D01*
X243791485Y-195228628D01*
X243862914Y-195371485D01*
X243934342Y-195657200D01*
X243934342Y-196014342D01*
X243862914Y-196300057D01*
X243791485Y-196442914D01*
X243720057Y-196514342D01*
X243577200Y-196585771D01*
X243434342Y-196585771D01*
X243291485Y-196514342D01*
X243220057Y-196442914D01*
X243148628Y-196300057D01*
X243077200Y-196014342D01*
X243077200Y-195657200D01*
X243148628Y-195371485D01*
X243220057Y-195228628D01*
X243291485Y-195157200D01*
X243434342Y-195085771D01*
X245220057Y-195585771D02*
X245220057Y-196585771D01*
X244862914Y-195014342D02*
X244505771Y-196085771D01*
X245434342Y-196085771D01*
X246005771Y-196442914D02*
X246077200Y-196514342D01*
X246005771Y-196585771D01*
X245934342Y-196514342D01*
X246005771Y-196442914D01*
X246005771Y-196585771D01*
X247505771Y-196585771D02*
X246648628Y-196585771D01*
X247077200Y-196585771D02*
X247077200Y-195085771D01*
X246934342Y-195300057D01*
X246791485Y-195442914D01*
X246648628Y-195514342D01*
D10*
D11*
X177002200Y-191507200D02*
X285002200Y-191507200D01*
D10*
D12*
X264411485Y-193785771D02*
X263911485Y-193071485D01*
X263554342Y-193785771D02*
X263554342Y-192285771D01*
X264125771Y-192285771D01*
X264268628Y-192357200D01*
X264340057Y-192428628D01*
X264411485Y-192571485D01*
X264411485Y-192785771D01*
X264340057Y-192928628D01*
X264268628Y-193000057D01*
X264125771Y-193071485D01*
X263554342Y-193071485D01*
X265625771Y-193714342D02*
X265482914Y-193785771D01*
X265197200Y-193785771D01*
X265054342Y-193714342D01*
X264982914Y-193571485D01*
X264982914Y-193000057D01*
X265054342Y-192857200D01*
X265197200Y-192785771D01*
X265482914Y-192785771D01*
X265625771Y-192857200D01*
X265697200Y-193000057D01*
X265697200Y-193142914D01*
X264982914Y-193285771D01*
X266197200Y-192785771D02*
X266554342Y-193785771D01*
X266911485Y-192785771D01*
X267482914Y-193642914D02*
X267554342Y-193714342D01*
X267482914Y-193785771D01*
X267411485Y-193714342D01*
X267482914Y-193642914D01*
X267482914Y-193785771D01*
X267482914Y-192857200D02*
X267554342Y-192928628D01*
X267482914Y-193000057D01*
X267411485Y-192928628D01*
X267482914Y-192857200D01*
X267482914Y-193000057D01*
D10*
D11*
X178362914Y-193714342D02*
X178577200Y-193785771D01*
X178934342Y-193785771D01*
X179077200Y-193714342D01*
X179148628Y-193642914D01*
X179220057Y-193500057D01*
X179220057Y-193357200D01*
X179148628Y-193214342D01*
X179077200Y-193142914D01*
X178934342Y-193071485D01*
X178648628Y-193000057D01*
X178505771Y-192928628D01*
X178434342Y-192857200D01*
X178362914Y-192714342D01*
X178362914Y-192571485D01*
X178434342Y-192428628D01*
X178505771Y-192357200D01*
X178648628Y-192285771D01*
X179005771Y-192285771D01*
X179220057Y-192357200D01*
X179862914Y-193785771D02*
X179862914Y-192785771D01*
X179862914Y-192285771D02*
X179791485Y-192357200D01*
X179862914Y-192428628D01*
X179934342Y-192357200D01*
X179862914Y-192285771D01*
X179862914Y-192428628D01*
X180434342Y-192785771D02*
X181220057Y-192785771D01*
X180434342Y-193785771D01*
X181220057Y-193785771D01*
X182362914Y-193714342D02*
X182220057Y-193785771D01*
X181934342Y-193785771D01*
X181791485Y-193714342D01*
X181720057Y-193571485D01*
X181720057Y-193000057D01*
X181791485Y-192857200D01*
X181934342Y-192785771D01*
X182220057Y-192785771D01*
X182362914Y-192857200D01*
X182434342Y-193000057D01*
X182434342Y-193142914D01*
X181720057Y-193285771D01*
X183077200Y-193642914D02*
X183148628Y-193714342D01*
X183077200Y-193785771D01*
X183005771Y-193714342D01*
X183077200Y-193642914D01*
X183077200Y-193785771D01*
X183077200Y-192857200D02*
X183148628Y-192928628D01*
X183077200Y-193000057D01*
X183005771Y-192928628D01*
X183077200Y-192857200D01*
X183077200Y-193000057D01*
X184862914Y-193357200D02*
X185577200Y-193357200D01*
X184720057Y-193785771D02*
X185220057Y-192285771D01*
X185720057Y-193785771D01*
X186862914Y-192785771D02*
X186862914Y-193785771D01*
X186505771Y-192214342D02*
X186148628Y-193285771D01*
X187077200Y-193285771D01*
D10*
D11*
X263434342Y-196585771D02*
X263434342Y-195085771D01*
X264791485Y-196585771D02*
X264791485Y-195085771D01*
X264791485Y-196514342D02*
X264648628Y-196585771D01*
X264362914Y-196585771D01*
X264220057Y-196514342D01*
X264148628Y-196442914D01*
X264077200Y-196300057D01*
X264077200Y-195871485D01*
X264148628Y-195728628D01*
X264220057Y-195657200D01*
X264362914Y-195585771D01*
X264648628Y-195585771D01*
X264791485Y-195657200D01*
X265505771Y-196442914D02*
X265577200Y-196514342D01*
X265505771Y-196585771D01*
X265434342Y-196514342D01*
X265505771Y-196442914D01*
X265505771Y-196585771D01*
X265505771Y-195657200D02*
X265577200Y-195728628D01*
X265505771Y-195800057D01*
X265434342Y-195728628D01*
X265505771Y-195657200D01*
X265505771Y-195800057D01*
X268148628Y-196585771D02*
X267291485Y-196585771D01*
X267720057Y-196585771D02*
X267720057Y-195085771D01*
X267577200Y-195300057D01*
X267434342Y-195442914D01*
X267291485Y-195514342D01*
X269862914Y-195014342D02*
X268577200Y-196942914D01*
X271148628Y-196585771D02*
X270291485Y-196585771D01*
X270720057Y-196585771D02*
X270720057Y-195085771D01*
X270577200Y-195300057D01*
X270434342Y-195442914D01*
X270291485Y-195514342D01*
D10*
D11*
X177002200Y-187507200D02*
X285002200Y-187507200D01*
D10*
D13*
X178714580Y-188211961D02*
X179857438Y-188211961D01*
X179036009Y-190211961D02*
X179286009Y-188211961D01*
X180274104Y-190211961D02*
X180440771Y-188878628D01*
X180524104Y-188211961D02*
X180416961Y-188307200D01*
X180500295Y-188402438D01*
X180607438Y-188307200D01*
X180524104Y-188211961D01*
X180500295Y-188402438D01*
X181107438Y-188878628D02*
X181869342Y-188878628D01*
X181476485Y-188211961D02*
X181262200Y-189926247D01*
X181333628Y-190116723D01*
X181512200Y-190211961D01*
X181702676Y-190211961D01*
X182655057Y-190211961D02*
X182476485Y-190116723D01*
X182405057Y-189926247D01*
X182619342Y-188211961D01*
X184190771Y-190116723D02*
X183988390Y-190211961D01*
X183607438Y-190211961D01*
X183428866Y-190116723D01*
X183357438Y-189926247D01*
X183452676Y-189164342D01*
X183571723Y-188973866D01*
X183774104Y-188878628D01*
X184155057Y-188878628D01*
X184333628Y-188973866D01*
X184405057Y-189164342D01*
X184381247Y-189354819D01*
X183405057Y-189545295D01*
X185155057Y-190021485D02*
X185238390Y-190116723D01*
X185131247Y-190211961D01*
X185047914Y-190116723D01*
X185155057Y-190021485D01*
X185131247Y-190211961D01*
X185286009Y-188973866D02*
X185369342Y-189069104D01*
X185262200Y-189164342D01*
X185178866Y-189069104D01*
X185286009Y-188973866D01*
X185262200Y-189164342D01*
D10*
D11*
X178934342Y-185600057D02*
X178434342Y-185600057D01*
X178434342Y-186385771D02*
X178434342Y-184885771D01*
X179148628Y-184885771D01*
X179720057Y-186385771D02*
X179720057Y-185385771D01*
X179720057Y-184885771D02*
X179648628Y-184957200D01*
X179720057Y-185028628D01*
X179791485Y-184957200D01*
X179720057Y-184885771D01*
X179720057Y-185028628D01*
X180648628Y-186385771D02*
X180505771Y-186314342D01*
X180434342Y-186171485D01*
X180434342Y-184885771D01*
X181791485Y-186314342D02*
X181648628Y-186385771D01*
X181362914Y-186385771D01*
X181220057Y-186314342D01*
X181148628Y-186171485D01*
X181148628Y-185600057D01*
X181220057Y-185457200D01*
X181362914Y-185385771D01*
X181648628Y-185385771D01*
X181791485Y-185457200D01*
X181862914Y-185600057D01*
X181862914Y-185742914D01*
X181148628Y-185885771D01*
X182505771Y-186242914D02*
X182577200Y-186314342D01*
X182505771Y-186385771D01*
X182434342Y-186314342D01*
X182505771Y-186242914D01*
X182505771Y-186385771D01*
X182505771Y-185457200D02*
X182577200Y-185528628D01*
X182505771Y-185600057D01*
X182434342Y-185528628D01*
X182505771Y-185457200D01*
X182505771Y-185600057D01*
X184362914Y-186385771D02*
X184362914Y-184885771D01*
X184720057Y-184885771D01*
X184934342Y-184957200D01*
X185077200Y-185100057D01*
X185148628Y-185242914D01*
X185220057Y-185528628D01*
X185220057Y-185742914D01*
X185148628Y-186028628D01*
X185077200Y-186171485D01*
X184934342Y-186314342D01*
X184720057Y-186385771D01*
X184362914Y-186385771D01*
X186077200Y-186385771D02*
X185934342Y-186314342D01*
X185862914Y-186242914D01*
X185791485Y-186100057D01*
X185791485Y-185671485D01*
X185862914Y-185528628D01*
X185934342Y-185457200D01*
X186077200Y-185385771D01*
X186291485Y-185385771D01*
X186434342Y-185457200D01*
X186505771Y-185528628D01*
X186577200Y-185671485D01*
X186577200Y-186100057D01*
X186505771Y-186242914D01*
X186434342Y-186314342D01*
X186291485Y-186385771D01*
X186077200Y-186385771D01*
X187220057Y-185385771D02*
X187220057Y-186885771D01*
X187220057Y-185457200D02*
X187362914Y-185385771D01*
X187648628Y-185385771D01*
X187791485Y-185457200D01*
X187862914Y-185528628D01*
X187934342Y-185671485D01*
X187934342Y-186100057D01*
X187862914Y-186242914D01*
X187791485Y-186314342D01*
X187648628Y-186385771D01*
X187362914Y-186385771D01*
X187220057Y-186314342D01*
X188577200Y-185385771D02*
X188577200Y-186885771D01*
X188577200Y-185457200D02*
X188720057Y-185385771D01*
X189005771Y-185385771D01*
X189148628Y-185457200D01*
X189220057Y-185528628D01*
X189291485Y-185671485D01*
X189291485Y-186100057D01*
X189220057Y-186242914D01*
X189148628Y-186314342D01*
X189005771Y-186385771D01*
X188720057Y-186385771D01*
X188577200Y-186314342D01*
X190505771Y-186314342D02*
X190362914Y-186385771D01*
X190077200Y-186385771D01*
X189934342Y-186314342D01*
X189862914Y-186171485D01*
X189862914Y-185600057D01*
X189934342Y-185457200D01*
X190077200Y-185385771D01*
X190362914Y-185385771D01*
X190505771Y-185457200D01*
X190577200Y-185600057D01*
X190577200Y-185742914D01*
X189862914Y-185885771D01*
X191434342Y-186385771D02*
X191291485Y-186314342D01*
X191220057Y-186171485D01*
X191220057Y-184885771D01*
X192648628Y-185385771D02*
X192648628Y-186600057D01*
X192577200Y-186742914D01*
X192505771Y-186814342D01*
X192362914Y-186885771D01*
X192148628Y-186885771D01*
X192005771Y-186814342D01*
X192648628Y-186314342D02*
X192505771Y-186385771D01*
X192220057Y-186385771D01*
X192077200Y-186314342D01*
X192005771Y-186242914D01*
X191934342Y-186100057D01*
X191934342Y-185671485D01*
X192005771Y-185528628D01*
X192077200Y-185457200D01*
X192220057Y-185385771D01*
X192505771Y-185385771D01*
X192648628Y-185457200D01*
X194005771Y-186385771D02*
X194005771Y-185600057D01*
X193934342Y-185457200D01*
X193791485Y-185385771D01*
X193505771Y-185385771D01*
X193362914Y-185457200D01*
X194005771Y-186314342D02*
X193862914Y-186385771D01*
X193505771Y-186385771D01*
X193362914Y-186314342D01*
X193291485Y-186171485D01*
X193291485Y-186028628D01*
X193362914Y-185885771D01*
X193505771Y-185814342D01*
X193862914Y-185814342D01*
X194005771Y-185742914D01*
X194720057Y-185385771D02*
X194720057Y-186385771D01*
X194720057Y-185528628D02*
X194791485Y-185457200D01*
X194934342Y-185385771D01*
X195148628Y-185385771D01*
X195291485Y-185457200D01*
X195362914Y-185600057D01*
X195362914Y-186385771D01*
X196720057Y-185385771D02*
X196720057Y-186600057D01*
X196648628Y-186742914D01*
X196577200Y-186814342D01*
X196434342Y-186885771D01*
X196220057Y-186885771D01*
X196077200Y-186814342D01*
X196720057Y-186314342D02*
X196577200Y-186385771D01*
X196291485Y-186385771D01*
X196148628Y-186314342D01*
X196077200Y-186242914D01*
X196005771Y-186100057D01*
X196005771Y-185671485D01*
X196077200Y-185528628D01*
X196148628Y-185457200D01*
X196291485Y-185385771D01*
X196577200Y-185385771D01*
X196720057Y-185457200D01*
X198005771Y-186314342D02*
X197862914Y-186385771D01*
X197577200Y-186385771D01*
X197434342Y-186314342D01*
X197362914Y-186171485D01*
X197362914Y-185600057D01*
X197434342Y-185457200D01*
X197577200Y-185385771D01*
X197862914Y-185385771D01*
X198005771Y-185457200D01*
X198077200Y-185600057D01*
X198077200Y-185742914D01*
X197362914Y-185885771D01*
X198720057Y-186385771D02*
X198720057Y-185385771D01*
X198720057Y-185671485D02*
X198791485Y-185528628D01*
X198862914Y-185457200D01*
X199005771Y-185385771D01*
X199148628Y-185385771D01*
X199648628Y-186242914D02*
X199720057Y-186314342D01*
X199648628Y-186385771D01*
X199577200Y-186314342D01*
X199648628Y-186242914D01*
X199648628Y-186385771D01*
X200362914Y-186385771D02*
X200362914Y-184885771D01*
X200505771Y-185814342D02*
X200934342Y-186385771D01*
X200934342Y-185385771D02*
X200362914Y-185957200D01*
X201577200Y-186385771D02*
X201577200Y-185385771D01*
X201577200Y-184885771D02*
X201505771Y-184957200D01*
X201577200Y-185028628D01*
X201648628Y-184957200D01*
X201577200Y-184885771D01*
X201577200Y-185028628D01*
X202934342Y-186314342D02*
X202791485Y-186385771D01*
X202505771Y-186385771D01*
X202362914Y-186314342D01*
X202291485Y-186242914D01*
X202220057Y-186100057D01*
X202220057Y-185671485D01*
X202291485Y-185528628D01*
X202362914Y-185457200D01*
X202505771Y-185385771D01*
X202791485Y-185385771D01*
X202934342Y-185457200D01*
X204220057Y-186385771D02*
X204220057Y-185600057D01*
X204148628Y-185457200D01*
X204005771Y-185385771D01*
X203720057Y-185385771D01*
X203577200Y-185457200D01*
X204220057Y-186314342D02*
X204077200Y-186385771D01*
X203720057Y-186385771D01*
X203577200Y-186314342D01*
X203505771Y-186171485D01*
X203505771Y-186028628D01*
X203577200Y-185885771D01*
X203720057Y-185814342D01*
X204077200Y-185814342D01*
X204220057Y-185742914D01*
X205577200Y-186385771D02*
X205577200Y-184885771D01*
X205577200Y-186314342D02*
X205434342Y-186385771D01*
X205148628Y-186385771D01*
X205005771Y-186314342D01*
X204934342Y-186242914D01*
X204862914Y-186100057D01*
X204862914Y-185671485D01*
X204934342Y-185528628D01*
X205005771Y-185457200D01*
X205148628Y-185385771D01*
X205434342Y-185385771D01*
X205577200Y-185457200D01*
X205934342Y-186528628D02*
X207077200Y-186528628D01*
X207434342Y-185385771D02*
X207434342Y-186885771D01*
X207434342Y-185457200D02*
X207577200Y-185385771D01*
X207862914Y-185385771D01*
X208005771Y-185457200D01*
X208077200Y-185528628D01*
X208148628Y-185671485D01*
X208148628Y-186100057D01*
X208077200Y-186242914D01*
X208005771Y-186314342D01*
X207862914Y-186385771D01*
X207577200Y-186385771D01*
X207434342Y-186314342D01*
X209434342Y-186314342D02*
X209291485Y-186385771D01*
X209005771Y-186385771D01*
X208862914Y-186314342D01*
X208791485Y-186242914D01*
X208720057Y-186100057D01*
X208720057Y-185671485D01*
X208791485Y-185528628D01*
X208862914Y-185457200D01*
X209005771Y-185385771D01*
X209291485Y-185385771D01*
X209434342Y-185457200D01*
X210077200Y-186385771D02*
X210077200Y-184885771D01*
X210077200Y-185457200D02*
X210220057Y-185385771D01*
X210505771Y-185385771D01*
X210648628Y-185457200D01*
X210720057Y-185528628D01*
X210791485Y-185671485D01*
X210791485Y-186100057D01*
X210720057Y-186242914D01*
X210648628Y-186314342D01*
X210505771Y-186385771D01*
X210220057Y-186385771D01*
X210077200Y-186314342D01*
D10*
D11*
X177002200Y-181507200D02*
X285002200Y-181507200D01*
D10*
D11*
X178362914Y-183614342D02*
X178577200Y-183685771D01*
X178934342Y-183685771D01*
X179077200Y-183614342D01*
X179148628Y-183542914D01*
X179220057Y-183400057D01*
X179220057Y-183257200D01*
X179148628Y-183114342D01*
X179077200Y-183042914D01*
X178934342Y-182971485D01*
X178648628Y-182900057D01*
X178505771Y-182828628D01*
X178434342Y-182757200D01*
X178362914Y-182614342D01*
X178362914Y-182471485D01*
X178434342Y-182328628D01*
X178505771Y-182257200D01*
X178648628Y-182185771D01*
X179005771Y-182185771D01*
X179220057Y-182257200D01*
X179862914Y-183685771D02*
X179862914Y-182185771D01*
X180505771Y-183685771D02*
X180505771Y-182900057D01*
X180434342Y-182757200D01*
X180291485Y-182685771D01*
X180077200Y-182685771D01*
X179934342Y-182757200D01*
X179862914Y-182828628D01*
X181791485Y-183614342D02*
X181648628Y-183685771D01*
X181362914Y-183685771D01*
X181220057Y-183614342D01*
X181148628Y-183471485D01*
X181148628Y-182900057D01*
X181220057Y-182757200D01*
X181362914Y-182685771D01*
X181648628Y-182685771D01*
X181791485Y-182757200D01*
X181862914Y-182900057D01*
X181862914Y-183042914D01*
X181148628Y-183185771D01*
X183077200Y-183614342D02*
X182934342Y-183685771D01*
X182648628Y-183685771D01*
X182505771Y-183614342D01*
X182434342Y-183471485D01*
X182434342Y-182900057D01*
X182505771Y-182757200D01*
X182648628Y-182685771D01*
X182934342Y-182685771D01*
X183077200Y-182757200D01*
X183148628Y-182900057D01*
X183148628Y-183042914D01*
X182434342Y-183185771D01*
X183577200Y-182685771D02*
X184148628Y-182685771D01*
X183791485Y-182185771D02*
X183791485Y-183471485D01*
X183862914Y-183614342D01*
X184005771Y-183685771D01*
X184148628Y-183685771D01*
X184648628Y-183542914D02*
X184720057Y-183614342D01*
X184648628Y-183685771D01*
X184577200Y-183614342D01*
X184648628Y-183542914D01*
X184648628Y-183685771D01*
X184648628Y-182757200D02*
X184720057Y-182828628D01*
X184648628Y-182900057D01*
X184577200Y-182828628D01*
X184648628Y-182757200D01*
X184648628Y-182900057D01*
D10*
D11*
X197002200Y-191507200D02*
X197002200Y-194507200D01*
D10*
D11*
X261002200Y-191507200D02*
X261002200Y-198007200D01*
D14*
X172546191Y-71769514D02*
X172546191Y-70318085D01*
X172981620Y-71479228D02*
X172981620Y-70608371D01*
X171893048Y-71043800D02*
X172546191Y-71043800D01*
X173417048Y-70898657D02*
X173417048Y-71188942D01*
X157045259Y-96348703D02*
X158145259Y-95982037D01*
X157045259Y-95615370D01*
X158092878Y-94777275D02*
X158145259Y-94882037D01*
X158145259Y-95091560D01*
X158092878Y-95196322D01*
X158040497Y-95248703D01*
X157935735Y-95301084D01*
X157621449Y-95301084D01*
X157516687Y-95248703D01*
X157464306Y-95196322D01*
X157411925Y-95091560D01*
X157411925Y-94882037D01*
X157464306Y-94777275D01*
X158092878Y-93834418D02*
X158145259Y-93939180D01*
X158145259Y-94148703D01*
X158092878Y-94253465D01*
X158040497Y-94305846D01*
X157935735Y-94358227D01*
X157621449Y-94358227D01*
X157516687Y-94305846D01*
X157464306Y-94253465D01*
X157411925Y-94148703D01*
X157411925Y-93939180D01*
X157464306Y-93834418D01*
X167100000Y-71861276D02*
X167100000Y-71289847D01*
X168100000Y-71575561D02*
X167100000Y-71575561D01*
X168100000Y-71051752D02*
X167433334Y-70527942D01*
X167433334Y-71051752D02*
X168100000Y-70527942D01*
X170703500Y-71266038D02*
X170227310Y-71599371D01*
X170703500Y-71837466D02*
X169703500Y-71837466D01*
X169703500Y-71456514D01*
X169751120Y-71361276D01*
X169798739Y-71313657D01*
X169893977Y-71266038D01*
X170036834Y-71266038D01*
X170132072Y-71313657D01*
X170179691Y-71361276D01*
X170227310Y-71456514D01*
X170227310Y-71837466D01*
X170703500Y-70932704D02*
X170036834Y-70408895D01*
X170036834Y-70932704D02*
X170703500Y-70408895D01*
X157516687Y-80604929D02*
X157516687Y-79557310D01*
X157830973Y-80395405D02*
X157830973Y-79766834D01*
X157045259Y-80081120D02*
X157516687Y-80081120D01*
X158145259Y-79976358D02*
X158145259Y-80185881D01*
X158145259Y-85197133D02*
X158145259Y-85720942D01*
X157045259Y-85720942D01*
X158145259Y-84254276D02*
X158145259Y-84882847D01*
X158145259Y-84568561D02*
X157045259Y-84568561D01*
X157202401Y-84673323D01*
X157307163Y-84778085D01*
X157359544Y-84882847D01*
X158145259Y-90307613D02*
X158145259Y-90831422D01*
X157045259Y-90831422D01*
X157150020Y-89993327D02*
X157097640Y-89940946D01*
X157045259Y-89836184D01*
X157045259Y-89574280D01*
X157097640Y-89469518D01*
X157150020Y-89417137D01*
X157254782Y-89364756D01*
X157359544Y-89364756D01*
X157516687Y-89417137D01*
X158145259Y-90045708D01*
X158145259Y-89364756D01*
X115409703Y-80509000D02*
X115076370Y-80032810D01*
X114838275Y-80509000D02*
X114838275Y-79509000D01*
X115219227Y-79509000D01*
X115314465Y-79556620D01*
X115362084Y-79604239D01*
X115409703Y-79699477D01*
X115409703Y-79842334D01*
X115362084Y-79937572D01*
X115314465Y-79985191D01*
X115219227Y-80032810D01*
X114838275Y-80032810D01*
X116219227Y-80461381D02*
X116123989Y-80509000D01*
X115933513Y-80509000D01*
X115838275Y-80461381D01*
X115790656Y-80366143D01*
X115790656Y-79985191D01*
X115838275Y-79889953D01*
X115933513Y-79842334D01*
X116123989Y-79842334D01*
X116219227Y-79889953D01*
X116266846Y-79985191D01*
X116266846Y-80080429D01*
X115790656Y-80175667D01*
X116600180Y-79842334D02*
X116838275Y-80509000D01*
X117076370Y-79842334D01*
X118552560Y-79985191D02*
X118695418Y-80032810D01*
X118743037Y-80080429D01*
X118790656Y-80175667D01*
X118790656Y-80318524D01*
X118743037Y-80413762D01*
X118695418Y-80461381D01*
X118600180Y-80509000D01*
X118219227Y-80509000D01*
X118219227Y-79509000D01*
X118552560Y-79509000D01*
X118647799Y-79556620D01*
X118695418Y-79604239D01*
X118743037Y-79699477D01*
X118743037Y-79794715D01*
X118695418Y-79889953D01*
X118647799Y-79937572D01*
X118552560Y-79985191D01*
X118219227Y-79985191D01*
X119409703Y-79509000D02*
X119504941Y-79509000D01*
X119600180Y-79556620D01*
X119647799Y-79604239D01*
X119695418Y-79699477D01*
X119743037Y-79889953D01*
X119743037Y-80128048D01*
X119695418Y-80318524D01*
X119647799Y-80413762D01*
X119600180Y-80461381D01*
X119504941Y-80509000D01*
X119409703Y-80509000D01*
X119314465Y-80461381D01*
X119266846Y-80413762D01*
X119219227Y-80318524D01*
X119171608Y-80128048D01*
X119171608Y-79889953D01*
X119219227Y-79699477D01*
X119266846Y-79604239D01*
X119314465Y-79556620D01*
X119409703Y-79509000D01*
X115647799Y-81447096D02*
X115552560Y-81399477D01*
X115362084Y-81399477D01*
X115266846Y-81447096D01*
X115171608Y-81542334D01*
X115123989Y-81637572D01*
X115123989Y-81828048D01*
X115171608Y-81923286D01*
X115266846Y-82018524D01*
X115362084Y-82066143D01*
X115552560Y-82066143D01*
X115647799Y-82018524D01*
X115457322Y-81066143D02*
X115219227Y-81113762D01*
X114981132Y-81256620D01*
X114838275Y-81494715D01*
X114790656Y-81732810D01*
X114838275Y-81970905D01*
X114981132Y-82209000D01*
X115219227Y-82351858D01*
X115457322Y-82399477D01*
X115695418Y-82351858D01*
X115933513Y-82209000D01*
X116076370Y-81970905D01*
X116123989Y-81732810D01*
X116076370Y-81494715D01*
X115933513Y-81256620D01*
X115695418Y-81113762D01*
X115457322Y-81066143D01*
X117266846Y-81304239D02*
X117314465Y-81256620D01*
X117409703Y-81209000D01*
X117647799Y-81209000D01*
X117743037Y-81256620D01*
X117790656Y-81304239D01*
X117838275Y-81399477D01*
X117838275Y-81494715D01*
X117790656Y-81637572D01*
X117219227Y-82209000D01*
X117838275Y-82209000D01*
X118457322Y-81209000D02*
X118552560Y-81209000D01*
X118647799Y-81256620D01*
X118695418Y-81304239D01*
X118743037Y-81399477D01*
X118790656Y-81589953D01*
X118790656Y-81828048D01*
X118743037Y-82018524D01*
X118695418Y-82113762D01*
X118647799Y-82161381D01*
X118552560Y-82209000D01*
X118457322Y-82209000D01*
X118362084Y-82161381D01*
X118314465Y-82113762D01*
X118266846Y-82018524D01*
X118219227Y-81828048D01*
X118219227Y-81589953D01*
X118266846Y-81399477D01*
X118314465Y-81304239D01*
X118362084Y-81256620D01*
X118457322Y-81209000D01*
X119743037Y-82209000D02*
X119171608Y-82209000D01*
X119457322Y-82209000D02*
X119457322Y-81209000D01*
X119362084Y-81351858D01*
X119266846Y-81447096D01*
X119171608Y-81494715D01*
X120076370Y-81209000D02*
X120743037Y-81209000D01*
X120314465Y-82209000D01*
X121885894Y-82209000D02*
X121885894Y-81209000D01*
X122457322Y-82209000D01*
X122457322Y-81209000D01*
X122933513Y-82209000D02*
X122933513Y-81542334D01*
X122933513Y-81209000D02*
X122885894Y-81256620D01*
X122933513Y-81304239D01*
X122981132Y-81256620D01*
X122933513Y-81209000D01*
X122933513Y-81304239D01*
X123552560Y-82209000D02*
X123457322Y-82161381D01*
X123409703Y-82066143D01*
X123409703Y-81209000D01*
X124362084Y-81542334D02*
X124362084Y-82209000D01*
X123933513Y-81542334D02*
X123933513Y-82066143D01*
X123981132Y-82161381D01*
X124076370Y-82209000D01*
X124219227Y-82209000D01*
X124314465Y-82161381D01*
X124362084Y-82113762D01*
X124838275Y-81542334D02*
X124838275Y-82399477D01*
X124790656Y-82494715D01*
X124695418Y-82542334D01*
X124647799Y-82542334D01*
X124838275Y-81209000D02*
X124790656Y-81256620D01*
X124838275Y-81304239D01*
X124885894Y-81256620D01*
X124838275Y-81209000D01*
X124838275Y-81304239D01*
X125695418Y-82161381D02*
X125600180Y-82209000D01*
X125409703Y-82209000D01*
X125314465Y-82161381D01*
X125266846Y-82066143D01*
X125266846Y-81685191D01*
X125314465Y-81589953D01*
X125409703Y-81542334D01*
X125600180Y-81542334D01*
X125695418Y-81589953D01*
X125743037Y-81685191D01*
X125743037Y-81780429D01*
X125266846Y-81875667D01*
D15*
X114813808Y-78858677D02*
X114813808Y-77658677D01*
X115099522Y-77658677D01*
X115270951Y-77715820D01*
X115385237Y-77830105D01*
X115442380Y-77944391D01*
X115499522Y-78172962D01*
X115499522Y-78344391D01*
X115442380Y-78572962D01*
X115385237Y-78687248D01*
X115270951Y-78801534D01*
X115099522Y-78858677D01*
X114813808Y-78858677D01*
X116185237Y-78858677D02*
X116070951Y-78801534D01*
X116013808Y-78744391D01*
X115956665Y-78630105D01*
X115956665Y-78287248D01*
X116013808Y-78172962D01*
X116070951Y-78115820D01*
X116185237Y-78058677D01*
X116356665Y-78058677D01*
X116470951Y-78115820D01*
X116528094Y-78172962D01*
X116585237Y-78287248D01*
X116585237Y-78630105D01*
X116528094Y-78744391D01*
X116470951Y-78801534D01*
X116356665Y-78858677D01*
X116185237Y-78858677D01*
X117099522Y-78058677D02*
X117099522Y-79258677D01*
X117099522Y-78115820D02*
X117213808Y-78058677D01*
X117442380Y-78058677D01*
X117556665Y-78115820D01*
X117613808Y-78172962D01*
X117670951Y-78287248D01*
X117670951Y-78630105D01*
X117613808Y-78744391D01*
X117556665Y-78801534D01*
X117442380Y-78858677D01*
X117213808Y-78858677D01*
X117099522Y-78801534D01*
X118185237Y-78058677D02*
X118185237Y-79258677D01*
X118185237Y-78115820D02*
X118299522Y-78058677D01*
X118528094Y-78058677D01*
X118642380Y-78115820D01*
X118699522Y-78172962D01*
X118756665Y-78287248D01*
X118756665Y-78630105D01*
X118699522Y-78744391D01*
X118642380Y-78801534D01*
X118528094Y-78858677D01*
X118299522Y-78858677D01*
X118185237Y-78801534D01*
X119728094Y-78801534D02*
X119613808Y-78858677D01*
X119385237Y-78858677D01*
X119270951Y-78801534D01*
X119213808Y-78687248D01*
X119213808Y-78230105D01*
X119270951Y-78115820D01*
X119385237Y-78058677D01*
X119613808Y-78058677D01*
X119728094Y-78115820D01*
X119785237Y-78230105D01*
X119785237Y-78344391D01*
X119213808Y-78458677D01*
X120470951Y-78858677D02*
X120356665Y-78801534D01*
X120299522Y-78687248D01*
X120299522Y-77658677D01*
X121442380Y-78058677D02*
X121442380Y-79030105D01*
X121385237Y-79144391D01*
X121328094Y-79201534D01*
X121213808Y-79258677D01*
X121042380Y-79258677D01*
X120928094Y-79201534D01*
X121442380Y-78801534D02*
X121328094Y-78858677D01*
X121099522Y-78858677D01*
X120985237Y-78801534D01*
X120928094Y-78744391D01*
X120870951Y-78630105D01*
X120870951Y-78287248D01*
X120928094Y-78172962D01*
X120985237Y-78115820D01*
X121099522Y-78058677D01*
X121328094Y-78058677D01*
X121442380Y-78115820D01*
X122528094Y-78858677D02*
X122528094Y-78230105D01*
X122470951Y-78115820D01*
X122356665Y-78058677D01*
X122128094Y-78058677D01*
X122013808Y-78115820D01*
X122528094Y-78801534D02*
X122413808Y-78858677D01*
X122128094Y-78858677D01*
X122013808Y-78801534D01*
X121956665Y-78687248D01*
X121956665Y-78572962D01*
X122013808Y-78458677D01*
X122128094Y-78401534D01*
X122413808Y-78401534D01*
X122528094Y-78344391D01*
X123099522Y-78058677D02*
X123099522Y-78858677D01*
X123099522Y-78172962D02*
X123156665Y-78115820D01*
X123270951Y-78058677D01*
X123442380Y-78058677D01*
X123556665Y-78115820D01*
X123613808Y-78230105D01*
X123613808Y-78858677D01*
X124699522Y-78058677D02*
X124699522Y-79030105D01*
X124642380Y-79144391D01*
X124585237Y-79201534D01*
X124470951Y-79258677D01*
X124299522Y-79258677D01*
X124185237Y-79201534D01*
X124699522Y-78801534D02*
X124585237Y-78858677D01*
X124356665Y-78858677D01*
X124242380Y-78801534D01*
X124185237Y-78744391D01*
X124128094Y-78630105D01*
X124128094Y-78287248D01*
X124185237Y-78172962D01*
X124242380Y-78115820D01*
X124356665Y-78058677D01*
X124585237Y-78058677D01*
X124699522Y-78115820D01*
X125728094Y-78801534D02*
X125613808Y-78858677D01*
X125385237Y-78858677D01*
X125270951Y-78801534D01*
X125213808Y-78687248D01*
X125213808Y-78230105D01*
X125270951Y-78115820D01*
X125385237Y-78058677D01*
X125613808Y-78058677D01*
X125728094Y-78115820D01*
X125785237Y-78230105D01*
X125785237Y-78344391D01*
X125213808Y-78458677D01*
X126299522Y-78858677D02*
X126299522Y-78058677D01*
X126299522Y-78287248D02*
X126356665Y-78172962D01*
X126413808Y-78115820D01*
X126528094Y-78058677D01*
X126642380Y-78058677D01*
D14*
X161453285Y-75764571D02*
X162904714Y-75764571D01*
X161743571Y-76200000D02*
X162614428Y-76200000D01*
X162179000Y-75111428D02*
X162179000Y-75764571D01*
X162324142Y-76635428D02*
X162033857Y-76635428D01*
X156295838Y-76144380D02*
X156295838Y-75144380D01*
X156533933Y-75144380D01*
X156676790Y-75192000D01*
X156772028Y-75287238D01*
X156819647Y-75382476D01*
X156867266Y-75572952D01*
X156867266Y-75715809D01*
X156819647Y-75906285D01*
X156772028Y-76001523D01*
X156676790Y-76096761D01*
X156533933Y-76144380D01*
X156295838Y-76144380D01*
X157295838Y-76144380D02*
X157295838Y-75477714D01*
X157295838Y-75144380D02*
X157248219Y-75192000D01*
X157295838Y-75239619D01*
X157343457Y-75192000D01*
X157295838Y-75144380D01*
X157295838Y-75239619D01*
X157724409Y-76096761D02*
X157819647Y-76144380D01*
X158010123Y-76144380D01*
X158105361Y-76096761D01*
X158152980Y-76001523D01*
X158152980Y-75953904D01*
X158105361Y-75858666D01*
X158010123Y-75811047D01*
X157867266Y-75811047D01*
X157772028Y-75763428D01*
X157724409Y-75668190D01*
X157724409Y-75620571D01*
X157772028Y-75525333D01*
X157867266Y-75477714D01*
X158010123Y-75477714D01*
X158105361Y-75525333D01*
X109957325Y-112510751D02*
X111408754Y-112510751D01*
X110247611Y-112946180D02*
X111118468Y-112946180D01*
X110683040Y-111857608D02*
X110683040Y-112510751D01*
X110828182Y-113381608D02*
X110537897Y-113381608D01*
X110236261Y-89487261D02*
X110045785Y-89392023D01*
X109950547Y-89296785D01*
X109855309Y-89106309D01*
X109855309Y-88534880D01*
X109950547Y-88344404D01*
X110045785Y-88249166D01*
X110236261Y-88153928D01*
X110521976Y-88153928D01*
X110712452Y-88249166D01*
X110807690Y-88344404D01*
X110902928Y-88534880D01*
X110902928Y-89106309D01*
X110807690Y-89296785D01*
X110712452Y-89392023D01*
X110521976Y-89487261D01*
X110236261Y-89487261D01*
X109967214Y-93198214D02*
X111110071Y-93198214D01*
X111110071Y-94341071D01*
X109967214Y-94341071D01*
X109967214Y-93198214D01*
X109752929Y-99474411D02*
X110252929Y-97974411D01*
X110752929Y-99474411D01*
X109752929Y-99474411D01*
X131927600Y-75227714D02*
X131927600Y-76370571D01*
X132213314Y-76084857D02*
X131927600Y-76370571D01*
X131641885Y-76084857D01*
X121297771Y-75799142D02*
X122440628Y-75799142D01*
X122154914Y-76084857D02*
X122440628Y-75799142D01*
X122154914Y-75513428D01*
X137033000Y-76319771D02*
X137033000Y-75176914D01*
X136747285Y-75462628D02*
X137033000Y-75176914D01*
X137318714Y-75462628D01*
X127393628Y-75900742D02*
X126250771Y-75900742D01*
X126536485Y-76186457D02*
X126250771Y-75900742D01*
X126536485Y-75615028D01*
X110969466Y-66711580D02*
X111636133Y-67711580D01*
X111636133Y-66711580D02*
X110969466Y-67711580D01*
X146353304Y-76296780D02*
X146353304Y-75296780D01*
X146734257Y-75296780D01*
X146829495Y-75344400D01*
X146877114Y-75392019D01*
X146924733Y-75487257D01*
X146924733Y-75630114D01*
X146877114Y-75725352D01*
X146829495Y-75772971D01*
X146734257Y-75820590D01*
X146353304Y-75820590D01*
X147305685Y-76249161D02*
X147448542Y-76296780D01*
X147686638Y-76296780D01*
X147781876Y-76249161D01*
X147829495Y-76201542D01*
X147877114Y-76106304D01*
X147877114Y-76011066D01*
X147829495Y-75915828D01*
X147781876Y-75868209D01*
X147686638Y-75820590D01*
X147496161Y-75772971D01*
X147400923Y-75725352D01*
X147353304Y-75677733D01*
X147305685Y-75582495D01*
X147305685Y-75487257D01*
X147353304Y-75392019D01*
X147400923Y-75344400D01*
X147496161Y-75296780D01*
X147734257Y-75296780D01*
X147877114Y-75344400D01*
X151472971Y-76147561D02*
X151615828Y-76195180D01*
X151853923Y-76195180D01*
X151949161Y-76147561D01*
X151996780Y-76099942D01*
X152044400Y-76004704D01*
X152044400Y-75909466D01*
X151996780Y-75814228D01*
X151949161Y-75766609D01*
X151853923Y-75718990D01*
X151663447Y-75671371D01*
X151568209Y-75623752D01*
X151520590Y-75576133D01*
X151472971Y-75480895D01*
X151472971Y-75385657D01*
X151520590Y-75290419D01*
X151568209Y-75242800D01*
X151663447Y-75195180D01*
X151901542Y-75195180D01*
X152044400Y-75242800D01*
X152330114Y-75528514D02*
X152711066Y-75528514D01*
X152472971Y-75195180D02*
X152472971Y-76052323D01*
X152520590Y-76147561D01*
X152615828Y-76195180D01*
X152711066Y-76195180D01*
X116876533Y-76245980D02*
X116400342Y-76245980D01*
X116400342Y-75245980D01*
X117114628Y-75245980D02*
X117733676Y-75245980D01*
X117400342Y-75626933D01*
X117543200Y-75626933D01*
X117638438Y-75674552D01*
X117686057Y-75722171D01*
X117733676Y-75817409D01*
X117733676Y-76055504D01*
X117686057Y-76150742D01*
X117638438Y-76198361D01*
X117543200Y-76245980D01*
X117257485Y-76245980D01*
X117162247Y-76198361D01*
X117114628Y-76150742D01*
X110324357Y-74239380D02*
X109848166Y-74239380D01*
X109848166Y-73239380D01*
X111181500Y-74239380D02*
X110610071Y-74239380D01*
X110895785Y-74239380D02*
X110895785Y-73239380D01*
X110800547Y-73382238D01*
X110705309Y-73477476D01*
X110610071Y-73525095D01*
X140774895Y-76147561D02*
X140917752Y-76195180D01*
X141155847Y-76195180D01*
X141251085Y-76147561D01*
X141298704Y-76099942D01*
X141346323Y-76004704D01*
X141346323Y-75909466D01*
X141298704Y-75814228D01*
X141251085Y-75766609D01*
X141155847Y-75718990D01*
X140965371Y-75671371D01*
X140870133Y-75623752D01*
X140822514Y-75576133D01*
X140774895Y-75480895D01*
X140774895Y-75385657D01*
X140822514Y-75290419D01*
X140870133Y-75242800D01*
X140965371Y-75195180D01*
X141203466Y-75195180D01*
X141346323Y-75242800D01*
X141917752Y-76195180D02*
X141822514Y-76147561D01*
X141774895Y-76052323D01*
X141774895Y-75195180D01*
X142727276Y-76147561D02*
X142632038Y-76195180D01*
X142441561Y-76195180D01*
X142346323Y-76147561D01*
X142298704Y-76099942D01*
X142251085Y-76004704D01*
X142251085Y-75718990D01*
X142298704Y-75623752D01*
X142346323Y-75576133D01*
X142441561Y-75528514D01*
X142632038Y-75528514D01*
X142727276Y-75576133D01*
X143012990Y-75528514D02*
X143393942Y-75528514D01*
X143155847Y-75195180D02*
X143155847Y-76052323D01*
X143203466Y-76147561D01*
X143298704Y-76195180D01*
X143393942Y-76195180D01*
X110419595Y-109227880D02*
X110086262Y-108751690D01*
X109848166Y-109227880D02*
X109848166Y-108227880D01*
X110229119Y-108227880D01*
X110324357Y-108275500D01*
X110371976Y-108323119D01*
X110419595Y-108418357D01*
X110419595Y-108561214D01*
X110371976Y-108656452D01*
X110324357Y-108704071D01*
X110229119Y-108751690D01*
X109848166Y-108751690D01*
X111371976Y-109227880D02*
X110800547Y-109227880D01*
X111086262Y-109227880D02*
X111086262Y-108227880D01*
X110991023Y-108370738D01*
X110895785Y-108465976D01*
X110800547Y-108513595D01*
X110419595Y-104147880D02*
X110086262Y-103671690D01*
X109848166Y-104147880D02*
X109848166Y-103147880D01*
X110229119Y-103147880D01*
X110324357Y-103195500D01*
X110371976Y-103243119D01*
X110419595Y-103338357D01*
X110419595Y-103481214D01*
X110371976Y-103576452D01*
X110324357Y-103624071D01*
X110229119Y-103671690D01*
X109848166Y-103671690D01*
X110752928Y-103147880D02*
X111371976Y-103147880D01*
X111038642Y-103528833D01*
X111181500Y-103528833D01*
X111276738Y-103576452D01*
X111324357Y-103624071D01*
X111371976Y-103719309D01*
X111371976Y-103957404D01*
X111324357Y-104052642D01*
X111276738Y-104100261D01*
X111181500Y-104147880D01*
X110895785Y-104147880D01*
X110800547Y-104100261D01*
X110752928Y-104052642D01*
X110324357Y-84145380D02*
X109848166Y-84145380D01*
X109848166Y-83145380D01*
X110610071Y-83240619D02*
X110657690Y-83193000D01*
X110752928Y-83145380D01*
X110991024Y-83145380D01*
X111086262Y-83193000D01*
X111133881Y-83240619D01*
X111181500Y-83335857D01*
X111181500Y-83431095D01*
X111133881Y-83573952D01*
X110562452Y-84145380D01*
X111181500Y-84145380D01*
X110419595Y-79319380D02*
X110086262Y-78843190D01*
X109848166Y-79319380D02*
X109848166Y-78319380D01*
X110229119Y-78319380D01*
X110324357Y-78367000D01*
X110371976Y-78414619D01*
X110419595Y-78509857D01*
X110419595Y-78652714D01*
X110371976Y-78747952D01*
X110324357Y-78795571D01*
X110229119Y-78843190D01*
X109848166Y-78843190D01*
X110800547Y-78414619D02*
X110848166Y-78367000D01*
X110943404Y-78319380D01*
X111181500Y-78319380D01*
X111276738Y-78367000D01*
X111324357Y-78414619D01*
X111371976Y-78509857D01*
X111371976Y-78605095D01*
X111324357Y-78747952D01*
X110752928Y-79319380D01*
X111371976Y-79319380D01*
D16*
X170815000Y-93992700D02*
X173863000Y-93992700D01*
X170815000Y-92316300D02*
X173863000Y-92316300D01*
X170815000Y-92316300D02*
X170815000Y-93992700D01*
X173863000Y-92316300D02*
X173863000Y-93992700D01*
X146380200Y-101701600D02*
X149428200Y-101701600D01*
X146380200Y-100025200D02*
X149428200Y-100025200D01*
X146380200Y-100025200D02*
X146380200Y-101701600D01*
X149428200Y-100025200D02*
X149428200Y-101701600D01*
D12*
X159436680Y-98134440D02*
X159436680Y-77134440D01*
X159436680Y-77134440D02*
X168436680Y-77134440D01*
X168436680Y-77134440D02*
X168436680Y-98134440D01*
X168436680Y-98134440D02*
X159436680Y-98134440D01*
X104084120Y-65751400D02*
X108584120Y-65751400D01*
X108584120Y-65751400D02*
X108584120Y-117251400D01*
X108584120Y-117251400D02*
X99584120Y-117251400D01*
X99584120Y-117251400D02*
X99584120Y-65751400D01*
X99584120Y-65751400D02*
X104084120Y-65751400D01*
X165001200Y-70104000D02*
X165001200Y-74604000D01*
X165001200Y-74604000D02*
X113501200Y-74604000D01*
X113501200Y-74604000D02*
X113501200Y-65604000D01*
X113501200Y-65604000D02*
X165001200Y-65604000D01*
X165001200Y-65604000D02*
X165001200Y-70104000D01*
D11*
X174053500Y-72326500D02*
X174053500Y-74866500D01*
X166433500Y-72326500D02*
X174053500Y-72326500D01*
X166433500Y-74866500D02*
X166433500Y-72326500D01*
X174053500Y-74866500D02*
X166433500Y-74866500D01*
D12*
X148615400Y-95326200D02*
G75*
G03X148615400Y-95326200I-254000J0D01*
G01*
X149377400Y-82880200D02*
X149377400Y-97612200D01*
X134645400Y-82880200D02*
X149377400Y-82880200D01*
X134645400Y-97612200D02*
X134645400Y-82880200D01*
X149377400Y-97612200D02*
X134645400Y-97612200D01*
X159368760Y-116125880D02*
X159368760Y-99865880D01*
X175118760Y-116125880D02*
X159368760Y-116125880D01*
X175118760Y-99865880D02*
X159368760Y-99865880D01*
X175118760Y-116125880D02*
X175118760Y-99865880D01*
X129892500Y-80933500D02*
X129892500Y-78266500D01*
X148180500Y-80933500D02*
X129892500Y-80933500D01*
X148180500Y-78266500D02*
X148180500Y-80933500D01*
X129892500Y-78266500D02*
X148180500Y-78266500D01*
D13*
X153890500Y-116996500D02*
X113890500Y-116996500D01*
X153890500Y-76996500D02*
X153890500Y-116996500D01*
X113890500Y-76996500D02*
X113890500Y-116996500D01*
X113890500Y-76996500D02*
X153890500Y-76996500D01*
D12*
X120748500Y-113572500D02*
X120748500Y-116112500D01*
X120748500Y-113572500D02*
X137004500Y-113572500D01*
X137004500Y-113572500D02*
X137004500Y-116112500D01*
X120748500Y-116112500D02*
X137004500Y-116112500D01*
X137258500Y-113572500D02*
X153514500Y-113572500D01*
X137258500Y-113572500D02*
X137258500Y-116112500D01*
X137258500Y-116112500D02*
X153514500Y-116112500D01*
X153514500Y-113572500D02*
X153514500Y-116112500D01*
X149958500Y-96808500D02*
X152371500Y-96808500D01*
X149958500Y-96808500D02*
X149958500Y-106841500D01*
X152371500Y-106841500D02*
X152371500Y-96808500D01*
X149958500Y-106841500D02*
X152371500Y-106841500D01*
X156035800Y-108682360D02*
G75*
G03X156035800Y-109342360I0J-330000D01*
G01*
X156035800Y-106652360D02*
X156035800Y-108682360D01*
X156035800Y-111392360D02*
X156035800Y-109342360D01*
X152675800Y-111382360D02*
X156035800Y-111392360D01*
X152675800Y-106652360D02*
X152675800Y-111382360D01*
X156035800Y-106652360D02*
X152675800Y-106652360D01*
D16*
X155798520Y-111452660D02*
X152750520Y-111452660D01*
X155798520Y-113129060D02*
X152750520Y-113129060D01*
X155798520Y-113129060D02*
X155798520Y-111452660D01*
X152750520Y-113129060D02*
X152750520Y-111452660D01*
X154686000Y-106116120D02*
X154686000Y-103068120D01*
X153009600Y-106116120D02*
X153009600Y-103068120D01*
X153009600Y-106116120D02*
X154686000Y-106116120D01*
X153009600Y-103068120D02*
X154686000Y-103068120D01*
D11*
X169553593Y-92307682D02*
X169505974Y-92355301D01*
X169363117Y-92402920D01*
X169267879Y-92402920D01*
X169125021Y-92355301D01*
X169029783Y-92260063D01*
X168982164Y-92164825D01*
X168934545Y-91974349D01*
X168934545Y-91831492D01*
X168982164Y-91641016D01*
X169029783Y-91545778D01*
X169125021Y-91450540D01*
X169267879Y-91402920D01*
X169363117Y-91402920D01*
X169505974Y-91450540D01*
X169553593Y-91498159D01*
X170410736Y-91736254D02*
X170410736Y-92402920D01*
X170172640Y-91355301D02*
X169934545Y-92069587D01*
X170553593Y-92069587D01*
X144798753Y-101228162D02*
X144751134Y-101275781D01*
X144608277Y-101323400D01*
X144513039Y-101323400D01*
X144370181Y-101275781D01*
X144274943Y-101180543D01*
X144227324Y-101085305D01*
X144179705Y-100894829D01*
X144179705Y-100751972D01*
X144227324Y-100561496D01*
X144274943Y-100466258D01*
X144370181Y-100371020D01*
X144513039Y-100323400D01*
X144608277Y-100323400D01*
X144751134Y-100371020D01*
X144798753Y-100418639D01*
X145370181Y-100751972D02*
X145274943Y-100704353D01*
X145227324Y-100656734D01*
X145179705Y-100561496D01*
X145179705Y-100513877D01*
X145227324Y-100418639D01*
X145274943Y-100371020D01*
X145370181Y-100323400D01*
X145560658Y-100323400D01*
X145655896Y-100371020D01*
X145703515Y-100418639D01*
X145751134Y-100513877D01*
X145751134Y-100561496D01*
X145703515Y-100656734D01*
X145655896Y-100704353D01*
X145560658Y-100751972D01*
X145370181Y-100751972D01*
X145274943Y-100799591D01*
X145227324Y-100847210D01*
X145179705Y-100942448D01*
X145179705Y-101132924D01*
X145227324Y-101228162D01*
X145274943Y-101275781D01*
X145370181Y-101323400D01*
X145560658Y-101323400D01*
X145655896Y-101275781D01*
X145703515Y-101228162D01*
X145751134Y-101132924D01*
X145751134Y-100942448D01*
X145703515Y-100847210D01*
X145655896Y-100799591D01*
X145560658Y-100751972D01*
X169738300Y-78561155D02*
X168738300Y-78561155D01*
X168738300Y-78180202D01*
X168785920Y-78084964D01*
X168833539Y-78037345D01*
X168928777Y-77989726D01*
X169071634Y-77989726D01*
X169166872Y-78037345D01*
X169214491Y-78084964D01*
X169262110Y-78180202D01*
X169262110Y-78561155D01*
X168738300Y-77132583D02*
X168738300Y-77323060D01*
X168785920Y-77418298D01*
X168833539Y-77465917D01*
X168976396Y-77561155D01*
X169166872Y-77608774D01*
X169547824Y-77608774D01*
X169643062Y-77561155D01*
X169690681Y-77513536D01*
X169738300Y-77418298D01*
X169738300Y-77227821D01*
X169690681Y-77132583D01*
X169643062Y-77084964D01*
X169547824Y-77037345D01*
X169309729Y-77037345D01*
X169214491Y-77084964D01*
X169166872Y-77132583D01*
X169119253Y-77227821D01*
X169119253Y-77418298D01*
X169166872Y-77513536D01*
X169214491Y-77561155D01*
X169309729Y-77608774D01*
X109852720Y-67453735D02*
X108852720Y-67453735D01*
X108852720Y-67072782D01*
X108900340Y-66977544D01*
X108947959Y-66929925D01*
X109043197Y-66882306D01*
X109186054Y-66882306D01*
X109281292Y-66929925D01*
X109328911Y-66977544D01*
X109376530Y-67072782D01*
X109376530Y-67453735D01*
X108947959Y-66501354D02*
X108900340Y-66453735D01*
X108852720Y-66358497D01*
X108852720Y-66120401D01*
X108900340Y-66025163D01*
X108947959Y-65977544D01*
X109043197Y-65929925D01*
X109138435Y-65929925D01*
X109281292Y-65977544D01*
X109852720Y-66548973D01*
X109852720Y-65929925D01*
X165362664Y-67018160D02*
X165362664Y-66018160D01*
X165743617Y-66018160D01*
X165838855Y-66065780D01*
X165886474Y-66113399D01*
X165934093Y-66208637D01*
X165934093Y-66351494D01*
X165886474Y-66446732D01*
X165838855Y-66494351D01*
X165743617Y-66541970D01*
X165362664Y-66541970D01*
X166886474Y-67018160D02*
X166315045Y-67018160D01*
X166600760Y-67018160D02*
X166600760Y-66018160D01*
X166505521Y-66161018D01*
X166410283Y-66256256D01*
X166315045Y-66303875D01*
X172561024Y-76286620D02*
X172561024Y-75286620D01*
X172941977Y-75286620D01*
X173037215Y-75334240D01*
X173084834Y-75381859D01*
X173132453Y-75477097D01*
X173132453Y-75619954D01*
X173084834Y-75715192D01*
X173037215Y-75762811D01*
X172941977Y-75810430D01*
X172561024Y-75810430D01*
X174037215Y-75286620D02*
X173561024Y-75286620D01*
X173513405Y-75762811D01*
X173561024Y-75715192D01*
X173656262Y-75667573D01*
X173894358Y-75667573D01*
X173989596Y-75715192D01*
X174037215Y-75762811D01*
X174084834Y-75858049D01*
X174084834Y-76096144D01*
X174037215Y-76191382D01*
X173989596Y-76239001D01*
X173894358Y-76286620D01*
X173656262Y-76286620D01*
X173561024Y-76239001D01*
X173513405Y-76191382D01*
X135046834Y-98011697D02*
X135046834Y-98983125D01*
X135103977Y-99097411D01*
X135161120Y-99154554D01*
X135275405Y-99211697D01*
X135503977Y-99211697D01*
X135618262Y-99154554D01*
X135675405Y-99097411D01*
X135732548Y-98983125D01*
X135732548Y-98011697D01*
X136475405Y-98525982D02*
X136361120Y-98468840D01*
X136303977Y-98411697D01*
X136246834Y-98297411D01*
X136246834Y-98240268D01*
X136303977Y-98125982D01*
X136361120Y-98068840D01*
X136475405Y-98011697D01*
X136703977Y-98011697D01*
X136818262Y-98068840D01*
X136875405Y-98125982D01*
X136932548Y-98240268D01*
X136932548Y-98297411D01*
X136875405Y-98411697D01*
X136818262Y-98468840D01*
X136703977Y-98525982D01*
X136475405Y-98525982D01*
X136361120Y-98583125D01*
X136303977Y-98640268D01*
X136246834Y-98754554D01*
X136246834Y-98983125D01*
X136303977Y-99097411D01*
X136361120Y-99154554D01*
X136475405Y-99211697D01*
X136703977Y-99211697D01*
X136818262Y-99154554D01*
X136875405Y-99097411D01*
X136932548Y-98983125D01*
X136932548Y-98754554D01*
X136875405Y-98640268D01*
X136818262Y-98583125D01*
X136703977Y-98525982D01*
X173810140Y-99011413D02*
X174524426Y-99011413D01*
X174667283Y-99059032D01*
X174762521Y-99154270D01*
X174810140Y-99297127D01*
X174810140Y-99392365D01*
X174810140Y-98011413D02*
X174810140Y-98582841D01*
X174810140Y-98297127D02*
X173810140Y-98297127D01*
X173952998Y-98392365D01*
X174048236Y-98487603D01*
X174095855Y-98582841D01*
X148053466Y-112159800D02*
X148053466Y-112874086D01*
X148005847Y-113016943D01*
X147910609Y-113112181D01*
X147767752Y-113159800D01*
X147672514Y-113159800D01*
X148482038Y-112255039D02*
X148529657Y-112207420D01*
X148624895Y-112159800D01*
X148862990Y-112159800D01*
X148958228Y-112207420D01*
X149005847Y-112255039D01*
X149053466Y-112350277D01*
X149053466Y-112445515D01*
X149005847Y-112588372D01*
X148434419Y-113159800D01*
X149053466Y-113159800D01*
X138068166Y-112135880D02*
X138068166Y-112850166D01*
X138020547Y-112993023D01*
X137925309Y-113088261D01*
X137782452Y-113135880D01*
X137687214Y-113135880D01*
X138972928Y-112469214D02*
X138972928Y-113135880D01*
X138734833Y-112088261D02*
X138496738Y-112802547D01*
X139115785Y-112802547D01*
X121558166Y-111881880D02*
X121558166Y-112596166D01*
X121510547Y-112739023D01*
X121415309Y-112834261D01*
X121272452Y-112881880D01*
X121177214Y-112881880D01*
X122510547Y-111881880D02*
X122034357Y-111881880D01*
X121986738Y-112358071D01*
X122034357Y-112310452D01*
X122129595Y-112262833D01*
X122367690Y-112262833D01*
X122462928Y-112310452D01*
X122510547Y-112358071D01*
X122558166Y-112453309D01*
X122558166Y-112691404D01*
X122510547Y-112786642D01*
X122462928Y-112834261D01*
X122367690Y-112881880D01*
X122129595Y-112881880D01*
X122034357Y-112834261D01*
X121986738Y-112786642D01*
X130448166Y-81401880D02*
X130448166Y-82116166D01*
X130400547Y-82259023D01*
X130305309Y-82354261D01*
X130162452Y-82401880D01*
X130067214Y-82401880D01*
X130829119Y-81401880D02*
X131448166Y-81401880D01*
X131114833Y-81782833D01*
X131257690Y-81782833D01*
X131352928Y-81830452D01*
X131400547Y-81878071D01*
X131448166Y-81973309D01*
X131448166Y-82211404D01*
X131400547Y-82306642D01*
X131352928Y-82354261D01*
X131257690Y-82401880D01*
X130971976Y-82401880D01*
X130876738Y-82354261D01*
X130829119Y-82306642D01*
X148228166Y-105404880D02*
X148228166Y-106119166D01*
X148180547Y-106262023D01*
X148085309Y-106357261D01*
X147942452Y-106404880D01*
X147847214Y-106404880D01*
X149228166Y-106404880D02*
X148656738Y-106404880D01*
X148942452Y-106404880D02*
X148942452Y-105404880D01*
X148847214Y-105547738D01*
X148751976Y-105642976D01*
X148656738Y-105690595D01*
X114042866Y-111383771D02*
X113709533Y-111383771D01*
X113709533Y-111907580D02*
X113709533Y-110907580D01*
X114185723Y-110907580D01*
X114519057Y-111002819D02*
X114566676Y-110955200D01*
X114661914Y-110907580D01*
X114900009Y-110907580D01*
X114995247Y-110955200D01*
X115042866Y-111002819D01*
X115090485Y-111098057D01*
X115090485Y-111193295D01*
X115042866Y-111336152D01*
X114471438Y-111907580D01*
X115090485Y-111907580D01*
X150761795Y-108433620D02*
X150761795Y-109243144D01*
X150809414Y-109338382D01*
X150857033Y-109386001D01*
X150952271Y-109433620D01*
X151142747Y-109433620D01*
X151237985Y-109386001D01*
X151285604Y-109338382D01*
X151333223Y-109243144D01*
X151333223Y-108433620D01*
X151761795Y-108528859D02*
X151809414Y-108481240D01*
X151904652Y-108433620D01*
X152142747Y-108433620D01*
X152237985Y-108481240D01*
X152285604Y-108528859D01*
X152333223Y-108624097D01*
X152333223Y-108719335D01*
X152285604Y-108862192D01*
X151714176Y-109433620D01*
X152333223Y-109433620D01*
X154952462Y-114304082D02*
X154904843Y-114351701D01*
X154761986Y-114399320D01*
X154666748Y-114399320D01*
X154523891Y-114351701D01*
X154428653Y-114256463D01*
X154381034Y-114161225D01*
X154333415Y-113970749D01*
X154333415Y-113827892D01*
X154381034Y-113637416D01*
X154428653Y-113542178D01*
X154523891Y-113446940D01*
X154666748Y-113399320D01*
X154761986Y-113399320D01*
X154904843Y-113446940D01*
X154952462Y-113494559D01*
X155904843Y-114399320D02*
X155333415Y-114399320D01*
X155619129Y-114399320D02*
X155619129Y-113399320D01*
X155523891Y-113542178D01*
X155428653Y-113637416D01*
X155333415Y-113685035D01*
X156857224Y-114399320D02*
X156285796Y-114399320D01*
X156571510Y-114399320D02*
X156571510Y-113399320D01*
X156476272Y-113542178D01*
X156381034Y-113637416D01*
X156285796Y-113685035D01*
X155937222Y-105189257D02*
X155984841Y-105236876D01*
X156032460Y-105379733D01*
X156032460Y-105474971D01*
X155984841Y-105617828D01*
X155889603Y-105713066D01*
X155794365Y-105760685D01*
X155603889Y-105808304D01*
X155461032Y-105808304D01*
X155270556Y-105760685D01*
X155175318Y-105713066D01*
X155080080Y-105617828D01*
X155032460Y-105474971D01*
X155032460Y-105379733D01*
X155080080Y-105236876D01*
X155127699Y-105189257D01*
X156032460Y-104236876D02*
X156032460Y-104808304D01*
X156032460Y-104522590D02*
X155032460Y-104522590D01*
X155175318Y-104617828D01*
X155270556Y-104713066D01*
X155318175Y-104808304D01*
X155032460Y-103617828D02*
X155032460Y-103522590D01*
X155080080Y-103427352D01*
X155127699Y-103379733D01*
X155222937Y-103332114D01*
X155413413Y-103284495D01*
X155651508Y-103284495D01*
X155841984Y-103332114D01*
X155937222Y-103379733D01*
X155984841Y-103427352D01*
X156032460Y-103522590D01*
X156032460Y-103617828D01*
X155984841Y-103713066D01*
X155937222Y-103760685D01*
X155841984Y-103808304D01*
X155651508Y-103855923D01*
X155413413Y-103855923D01*
X155222937Y-103808304D01*
X155127699Y-103760685D01*
X155080080Y-103713066D01*
X155032460Y-103617828D01*
M02*
