M48
;DRILL file {KiCad no-vcs-found-0f0cb64~58~ubuntu14.04.1} date Mon Mar 27 23:47:00 2017
;FORMAT={-:-/ absolute / metric / decimal}
FMAT,2
METRIC,TZ
T1C0.305
T2C0.700
T3C0.890
T4C0.991
T5C1.120
T6C1.321
T7C1.700
%
G90
G05
M71
T1
X105.283Y-112.131
X105.296Y-111.021
X106.263Y-112.131
X106.304Y-111.021
X107.452Y-111.034
X107.467Y-112.131
X108.577Y-111.021
X108.577Y-112.144
X112.497Y-94.056
X112.547Y-103.835
X113.734Y-69.68
X113.751Y-70.571
X113.751Y-71.463
X114.579Y-97.714
X114.579Y-107.467
X114.592Y-92.514
X114.762Y-69.68
X114.762Y-70.571
X115.849Y-105.41
X115.849Y-95.631
X115.849Y-100.838
X115.849Y-107.213
X115.849Y-110.592
X117.119Y-97.714
X117.119Y-105.41
X117.119Y-87.909
X117.119Y-107.467
X117.136Y-82.577
X117.146Y-92.497
X118.374Y-92.48
X118.389Y-95.631
X118.389Y-102.133
X118.389Y-105.41
X118.389Y-110.617
X118.392Y-87.945
X119.456Y-101.498
X119.655Y-82.527
X119.656Y-92.42
X119.659Y-87.909
X119.659Y-105.41
X119.659Y-97.714
X119.685Y-110.668
X121.691Y-109.042
X121.92Y-72.39
X121.971Y-99.289
X122.149Y-89.484
X122.373Y-106.905
X122.555Y-85.7
X123.088Y-84.277
X126.644Y-82.55
X126.799Y-87.673
X126.949Y-72.847
X127.864Y-85.928
X127.864Y-87.478
X127.914Y-82.728
X128.93Y-86.081
X129.184Y-87.884
X129.696Y-81.891
X131.688Y-86.619
X131.724Y-87.679
X131.978Y-81.305
X132.004Y-73.203
X132.973Y-94.063
X133.675Y-101.527
X134.361Y-92.061
X134.391Y-103.48
X134.392Y-97.734
X134.528Y-87.219
X134.597Y-95.767
X134.645Y-93.193
X134.925Y-100.863
X135.064Y-87.993
X135.266Y-96.113
X135.458Y-107.442
X135.606Y-84.928
X136.017Y-106.274
X136.55Y-102.108
X136.576Y-104.673
X137.008Y-73.533
X137.566Y-86.233
X137.566Y-87.833
X137.566Y-88.646
X137.566Y-89.433
X137.592Y-105.41
X137.668Y-91.846
X137.668Y-92.659
X137.668Y-93.472
X138.074Y-103.556
X138.089Y-99.062
X138.201Y-94.361
X138.791Y-97.22
X138.938Y-87.782
X138.938Y-88.671
X139.04Y-92.278
X139.065Y-91.313
X139.954Y-77.648
X140.081Y-81.356
X140.085Y-100.07
X140.411Y-94.717
X140.462Y-73.838
X140.699Y-99.455
X140.793Y-101.679
X140.843Y-97.765
X140.843Y-110.668
X141.605Y-88.697
X141.656Y-90.17
X141.757Y-97.384
X141.834Y-92.024
X141.966Y-109.471
X141.966Y-112.179
X142.519Y-98.75
X142.52Y-99.503
X142.748Y-92.024
X142.87Y-102.253
X142.874Y-108.01
X143.237Y-93.666
X143.237Y-94.647
X143.323Y-108.856
X143.601Y-109.784
X143.607Y-81.5
X143.607Y-83.055
X143.688Y-92.024
X143.815Y-102.21
X143.825Y-103.987
X143.967Y-76.987
X144.094Y-87.122
X144.424Y-83.337
X144.435Y-81.07
X144.475Y-105.385
X144.805Y-99.162
X144.805Y-107.851
X145.725Y-91.681
X145.725Y-92.42
X145.73Y-90.942
X145.796Y-98.069
X145.796Y-104.546
X145.847Y-88.316
X145.847Y-89.103
X146.253Y-100.863
X146.38Y-87.046
X147.091Y-97.384
X147.21Y-110.327
X148.014Y-110.327
X148.471Y-106.564
X148.471Y-107.31
X148.471Y-108.057
X148.473Y-105.818
X148.6Y-109.027
X148.692Y-74.016
X148.955Y-87.02
X148.995Y-71.796
X149.022Y-92.659
X149.047Y-91.846
X149.276Y-99.06
X149.611Y-91.059
X149.758Y-71.806
X150.089Y-93.447
X150.393Y-72.593
X151.003Y-93.142
X151.026Y-85.62
X151.181Y-73.254
X151.738Y-87.005
X152.553Y-88.294
X152.636Y-86.327
X152.832Y-76.149
X153.655Y-87.75
X154.229Y-75.59
X154.582Y-114.782
X155.15Y-114.214
X156.997Y-75.032
X158.055Y-96.459
X158.064Y-74.201
X158.648Y-97.053
X158.674Y-73.609
X159.334Y-98.45
X160.02Y-97.739
X161.721Y-112.249
X161.751Y-105.319
X163.017Y-114.046
X165.481Y-92.354
X168.529Y-76.175
X169.291Y-93.091
T2
X121.89Y-114.806
X123.89Y-114.806
X125.89Y-114.806
X127.89Y-114.806
X129.891Y-114.806
X130.97Y-79.596
X131.891Y-114.806
X132.97Y-79.596
X133.891Y-114.806
X134.97Y-79.596
X135.891Y-114.806
X136.97Y-79.596
X138.43Y-114.806
X138.97Y-79.596
X140.43Y-114.806
X140.97Y-79.596
X142.43Y-114.806
X142.97Y-79.596
X144.43Y-114.806
X144.97Y-79.596
X146.43Y-114.806
X146.97Y-79.596
X148.43Y-114.806
X150.43Y-114.806
X151.13Y-97.846
X151.13Y-99.846
X151.13Y-101.846
X151.13Y-103.846
X151.13Y-105.846
X152.43Y-114.806
T3
X165.339Y-105.466
X165.339Y-107.496
X165.339Y-109.526
X165.339Y-111.556
X167.119Y-104.446
X167.119Y-106.476
X167.119Y-108.506
X167.119Y-110.536
T4
X173.203Y-80.797
X173.203Y-85.319
X173.203Y-90.893
X173.203Y-95.415
T5
X155.766Y-81.915
X155.766Y-84.455
X155.766Y-86.995
X155.766Y-89.535
X155.766Y-92.075
X155.766Y-94.615
X158.039Y-100.721
X158.039Y-103.261
X158.039Y-105.801
X158.039Y-108.341
X158.039Y-110.881
X158.039Y-113.421
X167.703Y-73.596
X170.243Y-73.596
X172.784Y-73.596
T6
X170.713Y-79.553
X170.713Y-86.563
X170.713Y-89.649
X170.713Y-96.659
T7
X104.084Y-68.751
X104.084Y-73.751
X104.084Y-78.751
X104.084Y-83.751
X104.084Y-88.751
X104.084Y-93.751
X104.084Y-98.751
X104.084Y-103.751
X104.084Y-108.751
X104.084Y-113.751
X117.001Y-70.104
X122.001Y-70.104
X127.001Y-70.104
X132.001Y-70.104
X137.001Y-70.104
X142.001Y-70.104
X147.001Y-70.104
X152.001Y-70.104
X157.001Y-70.104
X162.001Y-70.104
X163.937Y-80.134
X163.937Y-85.134
X163.937Y-90.134
X163.937Y-95.134
T0
M30
