M48
;DRILL file {KiCad no-vcs-found-f685cfa~60~ubuntu16.04.1} date Wed Oct 11 21:57:24 2017
;FORMAT={3:3/ absolute / metric / suppress leading zeros}
FMAT,2
METRIC,TZ
T1C0.305
T2C0.700
T3C0.890
T4C0.991
T5C1.120
T6C1.321
T7C1.700
%
G90
G05
M71
T1
X105283Y-112131
X105296Y-111021
X106263Y-112131
X106304Y-111021
X107452Y-111034
X107467Y-112131
X108577Y-111021
X108577Y-112144
X112395Y-94107
X112395Y-103886
X113734Y-69680
X113751Y-70571
X113751Y-71463
X114554Y-92456
X114554Y-97282
X114554Y-107442
X114762Y-69680
X114762Y-70571
X115189Y-87884
X115824Y-95758
X115824Y-101600
X115824Y-105537
X115824Y-112014
X117094Y-81915
X117094Y-87757
X117094Y-92456
X117094Y-97663
X117094Y-105537
X117094Y-110744
X118364Y-105537
X118364Y-87757
X118364Y-92456
X118364Y-95758
X118364Y-100965
X118364Y-111379
X118389Y-102205
X119634Y-81915
X119634Y-87757
X119634Y-92456
X119634Y-105537
X119634Y-110744
X119659Y-97714
X121793Y-109093
X121945Y-99263
X122149Y-89484
X123190Y-84328
X124079Y-82550
X124587Y-71120
X126644Y-82550
X127000Y-72390
X127889Y-85979
X127889Y-82550
X129159Y-85979
X129159Y-87757
X129794Y-91694
X130429Y-81915
X130454Y-87757
X131699Y-87757
X131953Y-73025
X131978Y-81234
X132334Y-94234
X133477Y-92456
X133477Y-93345
X133599Y-100924
X133604Y-101854
X134620Y-95631
X134874Y-83693
X134874Y-84496
X134874Y-85299
X135001Y-87884
X135255Y-96520
X135255Y-103378
X135890Y-108204
X135903Y-97701
X136525Y-106299
X137033Y-73660
X137160Y-104775
X137566Y-87833
X137570Y-88649
X137586Y-89453
X137601Y-102121
X137609Y-91821
X137610Y-92625
X137795Y-104013
X137795Y-105410
X137983Y-93444
X138557Y-74274
X138684Y-109728
X138811Y-97409
X138862Y-93472
X138938Y-87782
X138938Y-88671
X139040Y-92278
X139065Y-91313
X139267Y-94541
X139954Y-77648
X140208Y-81280
X140338Y-99692
X140411Y-94717
X140716Y-109601
X140840Y-99190
X140843Y-97765
X140970Y-102108
X141605Y-88697
X141656Y-90170
X141757Y-97384
X141834Y-92024
X141986Y-112014
X142433Y-93919
X142519Y-98750
X142748Y-92024
X142874Y-108010
X142936Y-94422
X143129Y-102108
X143205Y-99568
X143572Y-81436
X143596Y-83180
X143637Y-87503
X143688Y-92024
X144399Y-81407
X144399Y-83185
X144511Y-105461
X144805Y-99162
X144907Y-76327
X145034Y-108636
X145725Y-91681
X145725Y-92420
X145730Y-90942
X145796Y-86741
X145796Y-98069
X145827Y-105379
X145846Y-88330
X145847Y-89103
X146253Y-100863
X146787Y-109357
X147066Y-74295
X147091Y-97384
X147447Y-109093
X148471Y-106564
X148471Y-107310
X148471Y-108057
X148473Y-105818
X148717Y-71755
X148965Y-87020
X149098Y-92710
X149276Y-99060
X149352Y-93472
X149703Y-91859
X149830Y-72437
X150308Y-91046
X150368Y-93345
X150495Y-73025
X151257Y-73660
X151663Y-85641
X152281Y-87005
X153022Y-86246
X153065Y-88646
X153670Y-87884
X153670Y-77089
X154711Y-114554
X155423Y-114554
X156337Y-76454
X156972Y-75692
X158052Y-75476
X158055Y-96459
X158814Y-73609
X158814Y-97041
X159512Y-98374
X160249Y-97681
X161760Y-105512
X161798Y-112776
X165475Y-92347
X166243Y-92964
X168529Y-77089
T2
X121891Y-114807
X123891Y-114807
X125891Y-114807
X127891Y-114807
X129891Y-114807
X130971Y-79597
X131891Y-114807
X132971Y-79597
X133891Y-114807
X134971Y-79597
X135891Y-114807
X136971Y-79597
X138431Y-114807
X138971Y-79597
X140431Y-114807
X140971Y-79597
X142431Y-114807
X142971Y-79597
X144431Y-114807
X144971Y-79597
X146431Y-114807
X146971Y-79597
X148431Y-114807
X150431Y-114807
X151131Y-97847
X151131Y-99847
X151131Y-101847
X151131Y-103847
X151131Y-105847
X152431Y-114807
T3
X165339Y-105466
X165339Y-107496
X165339Y-109526
X165339Y-111556
X167119Y-104446
X167119Y-106476
X167119Y-108506
X167119Y-110536
T4
X173203Y-90893
X173203Y-95416
X173203Y-80797
X173203Y-85319
T5
X155766Y-81915
X155766Y-84455
X155766Y-86995
X155766Y-89535
X155766Y-92075
X155766Y-94615
X158039Y-100721
X158039Y-103261
X158039Y-105801
X158039Y-108341
X158039Y-110881
X158039Y-113421
X167704Y-73597
X170244Y-73597
X172784Y-73597
T6
X170713Y-89649
X170713Y-96659
X170713Y-79553
X170713Y-86563
T7
X104084Y-68751
X104084Y-73751
X104084Y-78751
X104084Y-83751
X104084Y-88751
X104084Y-93751
X104084Y-98751
X104084Y-103751
X104084Y-108751
X104084Y-113751
X117001Y-70104
X122001Y-70104
X127001Y-70104
X132001Y-70104
X137001Y-70104
X142001Y-70104
X147001Y-70104
X152001Y-70104
X157001Y-70104
X162001Y-70104
X163937Y-80134
X163937Y-85134
X163937Y-90134
X163937Y-95134
T0
M30
