G04 #@! TF.GenerationSoftware,KiCad,Pcbnew,no-vcs-found-bf44d39~61~ubuntu16.04.1*
G04 #@! TF.CreationDate,2018-01-04T16:51:09+01:00*
G04 #@! TF.ProjectId,arcade_adapter,6172636164655F616461707465722E6B,rev?*
G04 #@! TF.SameCoordinates,Original*
G04 #@! TF.FileFunction,Legend,Bot*
G04 #@! TF.FilePolarity,Positive*
%FSLAX46Y46*%
G04 Gerber Fmt 4.6, Leading zero omitted, Abs format (unit mm)*
G04 Created by KiCad (PCBNEW no-vcs-found-bf44d39~61~ubuntu16.04.1) date Thu Jan  4 16:51:09 2018*
%MOMM*%
%LPD*%
G01*
G04 APERTURE LIST*
%ADD10C,0.200000*%
%ADD11C,0.203200*%
%ADD12C,0.300000*%
%ADD13C,0.150000*%
G04 APERTURE END LIST*
D10*
X91437114Y-76184057D02*
X92122828Y-76184057D01*
X91779971Y-76184057D02*
X91779971Y-74984057D01*
X91894257Y-75155485D01*
X92008542Y-75269771D01*
X92122828Y-75326914D01*
X110462857Y-77728571D02*
X110577142Y-77671428D01*
X110805714Y-77671428D01*
X110920000Y-77728571D01*
X111034285Y-77842857D01*
X111091428Y-77957142D01*
X111091428Y-78185714D01*
X111034285Y-78300000D01*
X110920000Y-78414285D01*
X110805714Y-78471428D01*
X110577142Y-78471428D01*
X110462857Y-78414285D01*
X110691428Y-77271428D02*
X110977142Y-77328571D01*
X111262857Y-77500000D01*
X111434285Y-77785714D01*
X111491428Y-78071428D01*
X111434285Y-78357142D01*
X111262857Y-78642857D01*
X110977142Y-78814285D01*
X110691428Y-78871428D01*
X110405714Y-78814285D01*
X110120000Y-78642857D01*
X109948571Y-78357142D01*
X109891428Y-78071428D01*
X109948571Y-77785714D01*
X110120000Y-77500000D01*
X110405714Y-77328571D01*
X110691428Y-77271428D01*
X108520000Y-77557142D02*
X108462857Y-77500000D01*
X108348571Y-77442857D01*
X108062857Y-77442857D01*
X107948571Y-77500000D01*
X107891428Y-77557142D01*
X107834285Y-77671428D01*
X107834285Y-77785714D01*
X107891428Y-77957142D01*
X108577142Y-78642857D01*
X107834285Y-78642857D01*
X107091428Y-77442857D02*
X106977142Y-77442857D01*
X106862857Y-77500000D01*
X106805714Y-77557142D01*
X106748571Y-77671428D01*
X106691428Y-77900000D01*
X106691428Y-78185714D01*
X106748571Y-78414285D01*
X106805714Y-78528571D01*
X106862857Y-78585714D01*
X106977142Y-78642857D01*
X107091428Y-78642857D01*
X107205714Y-78585714D01*
X107262857Y-78528571D01*
X107320000Y-78414285D01*
X107377142Y-78185714D01*
X107377142Y-77900000D01*
X107320000Y-77671428D01*
X107262857Y-77557142D01*
X107205714Y-77500000D01*
X107091428Y-77442857D01*
X105548571Y-78642857D02*
X106234285Y-78642857D01*
X105891428Y-78642857D02*
X105891428Y-77442857D01*
X106005714Y-77614285D01*
X106120000Y-77728571D01*
X106234285Y-77785714D01*
X104862857Y-77957142D02*
X104977142Y-77900000D01*
X105034285Y-77842857D01*
X105091428Y-77728571D01*
X105091428Y-77671428D01*
X105034285Y-77557142D01*
X104977142Y-77500000D01*
X104862857Y-77442857D01*
X104634285Y-77442857D01*
X104520000Y-77500000D01*
X104462857Y-77557142D01*
X104405714Y-77671428D01*
X104405714Y-77728571D01*
X104462857Y-77842857D01*
X104520000Y-77900000D01*
X104634285Y-77957142D01*
X104862857Y-77957142D01*
X104977142Y-78014285D01*
X105034285Y-78071428D01*
X105091428Y-78185714D01*
X105091428Y-78414285D01*
X105034285Y-78528571D01*
X104977142Y-78585714D01*
X104862857Y-78642857D01*
X104634285Y-78642857D01*
X104520000Y-78585714D01*
X104462857Y-78528571D01*
X104405714Y-78414285D01*
X104405714Y-78185714D01*
X104462857Y-78071428D01*
X104520000Y-78014285D01*
X104634285Y-77957142D01*
X102977142Y-78642857D02*
X102977142Y-77442857D01*
X102291428Y-78642857D01*
X102291428Y-77442857D01*
X101720000Y-78642857D02*
X101720000Y-77842857D01*
X101720000Y-77442857D02*
X101777142Y-77500000D01*
X101720000Y-77557142D01*
X101662857Y-77500000D01*
X101720000Y-77442857D01*
X101720000Y-77557142D01*
X100977142Y-78642857D02*
X101091428Y-78585714D01*
X101148571Y-78471428D01*
X101148571Y-77442857D01*
X100005714Y-77842857D02*
X100005714Y-78642857D01*
X100520000Y-77842857D02*
X100520000Y-78471428D01*
X100462857Y-78585714D01*
X100348571Y-78642857D01*
X100177142Y-78642857D01*
X100062857Y-78585714D01*
X100005714Y-78528571D01*
X99434285Y-77842857D02*
X99434285Y-78871428D01*
X99491428Y-78985714D01*
X99605714Y-79042857D01*
X99662857Y-79042857D01*
X99434285Y-77442857D02*
X99491428Y-77500000D01*
X99434285Y-77557142D01*
X99377142Y-77500000D01*
X99434285Y-77442857D01*
X99434285Y-77557142D01*
X98405714Y-78585714D02*
X98520000Y-78642857D01*
X98748571Y-78642857D01*
X98862857Y-78585714D01*
X98920000Y-78471428D01*
X98920000Y-78014285D01*
X98862857Y-77900000D01*
X98748571Y-77842857D01*
X98520000Y-77842857D01*
X98405714Y-77900000D01*
X98348571Y-78014285D01*
X98348571Y-78128571D01*
X98920000Y-78242857D01*
X103589057Y-62474657D02*
X103589057Y-61274657D01*
X103303342Y-61274657D01*
X103131914Y-61331800D01*
X103017628Y-61446085D01*
X102960485Y-61560371D01*
X102903342Y-61788942D01*
X102903342Y-61960371D01*
X102960485Y-62188942D01*
X103017628Y-62303228D01*
X103131914Y-62417514D01*
X103303342Y-62474657D01*
X103589057Y-62474657D01*
X102217628Y-62474657D02*
X102331914Y-62417514D01*
X102389057Y-62360371D01*
X102446200Y-62246085D01*
X102446200Y-61903228D01*
X102389057Y-61788942D01*
X102331914Y-61731800D01*
X102217628Y-61674657D01*
X102046200Y-61674657D01*
X101931914Y-61731800D01*
X101874771Y-61788942D01*
X101817628Y-61903228D01*
X101817628Y-62246085D01*
X101874771Y-62360371D01*
X101931914Y-62417514D01*
X102046200Y-62474657D01*
X102217628Y-62474657D01*
X101303342Y-61674657D02*
X101303342Y-62874657D01*
X101303342Y-61731800D02*
X101189057Y-61674657D01*
X100960485Y-61674657D01*
X100846200Y-61731800D01*
X100789057Y-61788942D01*
X100731914Y-61903228D01*
X100731914Y-62246085D01*
X100789057Y-62360371D01*
X100846200Y-62417514D01*
X100960485Y-62474657D01*
X101189057Y-62474657D01*
X101303342Y-62417514D01*
X100217628Y-61674657D02*
X100217628Y-62874657D01*
X100217628Y-61731800D02*
X100103342Y-61674657D01*
X99874771Y-61674657D01*
X99760485Y-61731800D01*
X99703342Y-61788942D01*
X99646200Y-61903228D01*
X99646200Y-62246085D01*
X99703342Y-62360371D01*
X99760485Y-62417514D01*
X99874771Y-62474657D01*
X100103342Y-62474657D01*
X100217628Y-62417514D01*
X98674771Y-62417514D02*
X98789057Y-62474657D01*
X99017628Y-62474657D01*
X99131914Y-62417514D01*
X99189057Y-62303228D01*
X99189057Y-61846085D01*
X99131914Y-61731800D01*
X99017628Y-61674657D01*
X98789057Y-61674657D01*
X98674771Y-61731800D01*
X98617628Y-61846085D01*
X98617628Y-61960371D01*
X99189057Y-62074657D01*
X97931914Y-62474657D02*
X98046200Y-62417514D01*
X98103342Y-62303228D01*
X98103342Y-61274657D01*
X96960485Y-61674657D02*
X96960485Y-62646085D01*
X97017628Y-62760371D01*
X97074771Y-62817514D01*
X97189057Y-62874657D01*
X97360485Y-62874657D01*
X97474771Y-62817514D01*
X96960485Y-62417514D02*
X97074771Y-62474657D01*
X97303342Y-62474657D01*
X97417628Y-62417514D01*
X97474771Y-62360371D01*
X97531914Y-62246085D01*
X97531914Y-61903228D01*
X97474771Y-61788942D01*
X97417628Y-61731800D01*
X97303342Y-61674657D01*
X97074771Y-61674657D01*
X96960485Y-61731800D01*
X95874771Y-62474657D02*
X95874771Y-61846085D01*
X95931914Y-61731800D01*
X96046200Y-61674657D01*
X96274771Y-61674657D01*
X96389057Y-61731800D01*
X95874771Y-62417514D02*
X95989057Y-62474657D01*
X96274771Y-62474657D01*
X96389057Y-62417514D01*
X96446200Y-62303228D01*
X96446200Y-62188942D01*
X96389057Y-62074657D01*
X96274771Y-62017514D01*
X95989057Y-62017514D01*
X95874771Y-61960371D01*
X95303342Y-61674657D02*
X95303342Y-62474657D01*
X95303342Y-61788942D02*
X95246200Y-61731800D01*
X95131914Y-61674657D01*
X94960485Y-61674657D01*
X94846200Y-61731800D01*
X94789057Y-61846085D01*
X94789057Y-62474657D01*
X93703342Y-61674657D02*
X93703342Y-62646085D01*
X93760485Y-62760371D01*
X93817628Y-62817514D01*
X93931914Y-62874657D01*
X94103342Y-62874657D01*
X94217628Y-62817514D01*
X93703342Y-62417514D02*
X93817628Y-62474657D01*
X94046200Y-62474657D01*
X94160485Y-62417514D01*
X94217628Y-62360371D01*
X94274771Y-62246085D01*
X94274771Y-61903228D01*
X94217628Y-61788942D01*
X94160485Y-61731800D01*
X94046200Y-61674657D01*
X93817628Y-61674657D01*
X93703342Y-61731800D01*
X92674771Y-62417514D02*
X92789057Y-62474657D01*
X93017628Y-62474657D01*
X93131914Y-62417514D01*
X93189057Y-62303228D01*
X93189057Y-61846085D01*
X93131914Y-61731800D01*
X93017628Y-61674657D01*
X92789057Y-61674657D01*
X92674771Y-61731800D01*
X92617628Y-61846085D01*
X92617628Y-61960371D01*
X93189057Y-62074657D01*
X92103342Y-62474657D02*
X92103342Y-61674657D01*
X92103342Y-61903228D02*
X92046200Y-61788942D01*
X91989057Y-61731800D01*
X91874771Y-61674657D01*
X91760485Y-61674657D01*
X105074771Y-64131800D02*
X104503342Y-64131800D01*
X105189057Y-64474657D02*
X104789057Y-63274657D01*
X104389057Y-64474657D01*
X103989057Y-64474657D02*
X103989057Y-63674657D01*
X103989057Y-63903228D02*
X103931914Y-63788942D01*
X103874771Y-63731800D01*
X103760485Y-63674657D01*
X103646200Y-63674657D01*
X102731914Y-64417514D02*
X102846200Y-64474657D01*
X103074771Y-64474657D01*
X103189057Y-64417514D01*
X103246200Y-64360371D01*
X103303342Y-64246085D01*
X103303342Y-63903228D01*
X103246200Y-63788942D01*
X103189057Y-63731800D01*
X103074771Y-63674657D01*
X102846200Y-63674657D01*
X102731914Y-63731800D01*
X101703342Y-64474657D02*
X101703342Y-63846085D01*
X101760485Y-63731800D01*
X101874771Y-63674657D01*
X102103342Y-63674657D01*
X102217628Y-63731800D01*
X101703342Y-64417514D02*
X101817628Y-64474657D01*
X102103342Y-64474657D01*
X102217628Y-64417514D01*
X102274771Y-64303228D01*
X102274771Y-64188942D01*
X102217628Y-64074657D01*
X102103342Y-64017514D01*
X101817628Y-64017514D01*
X101703342Y-63960371D01*
X100617628Y-64474657D02*
X100617628Y-63274657D01*
X100617628Y-64417514D02*
X100731914Y-64474657D01*
X100960485Y-64474657D01*
X101074771Y-64417514D01*
X101131914Y-64360371D01*
X101189057Y-64246085D01*
X101189057Y-63903228D01*
X101131914Y-63788942D01*
X101074771Y-63731800D01*
X100960485Y-63674657D01*
X100731914Y-63674657D01*
X100617628Y-63731800D01*
X99589057Y-64417514D02*
X99703342Y-64474657D01*
X99931914Y-64474657D01*
X100046200Y-64417514D01*
X100103342Y-64303228D01*
X100103342Y-63846085D01*
X100046200Y-63731800D01*
X99931914Y-63674657D01*
X99703342Y-63674657D01*
X99589057Y-63731800D01*
X99531914Y-63846085D01*
X99531914Y-63960371D01*
X100103342Y-64074657D01*
X98160485Y-64131800D02*
X97589057Y-64131800D01*
X98274771Y-64474657D02*
X97874771Y-63274657D01*
X97474771Y-64474657D01*
X96560485Y-64474657D02*
X96560485Y-63274657D01*
X96560485Y-64417514D02*
X96674771Y-64474657D01*
X96903342Y-64474657D01*
X97017628Y-64417514D01*
X97074771Y-64360371D01*
X97131914Y-64246085D01*
X97131914Y-63903228D01*
X97074771Y-63788942D01*
X97017628Y-63731800D01*
X96903342Y-63674657D01*
X96674771Y-63674657D01*
X96560485Y-63731800D01*
X95474771Y-64474657D02*
X95474771Y-63846085D01*
X95531914Y-63731800D01*
X95646200Y-63674657D01*
X95874771Y-63674657D01*
X95989057Y-63731800D01*
X95474771Y-64417514D02*
X95589057Y-64474657D01*
X95874771Y-64474657D01*
X95989057Y-64417514D01*
X96046200Y-64303228D01*
X96046200Y-64188942D01*
X95989057Y-64074657D01*
X95874771Y-64017514D01*
X95589057Y-64017514D01*
X95474771Y-63960371D01*
X94903342Y-63674657D02*
X94903342Y-64874657D01*
X94903342Y-63731800D02*
X94789057Y-63674657D01*
X94560485Y-63674657D01*
X94446200Y-63731800D01*
X94389057Y-63788942D01*
X94331914Y-63903228D01*
X94331914Y-64246085D01*
X94389057Y-64360371D01*
X94446200Y-64417514D01*
X94560485Y-64474657D01*
X94789057Y-64474657D01*
X94903342Y-64417514D01*
X93989057Y-63674657D02*
X93531914Y-63674657D01*
X93817628Y-63274657D02*
X93817628Y-64303228D01*
X93760485Y-64417514D01*
X93646200Y-64474657D01*
X93531914Y-64474657D01*
X92674771Y-64417514D02*
X92789057Y-64474657D01*
X93017628Y-64474657D01*
X93131914Y-64417514D01*
X93189057Y-64303228D01*
X93189057Y-63846085D01*
X93131914Y-63731800D01*
X93017628Y-63674657D01*
X92789057Y-63674657D01*
X92674771Y-63731800D01*
X92617628Y-63846085D01*
X92617628Y-63960371D01*
X93189057Y-64074657D01*
X92103342Y-64474657D02*
X92103342Y-63674657D01*
X92103342Y-63903228D02*
X92046200Y-63788942D01*
X91989057Y-63731800D01*
X91874771Y-63674657D01*
X91760485Y-63674657D01*
X97074771Y-66474657D02*
X97474771Y-65903228D01*
X97760485Y-66474657D02*
X97760485Y-65274657D01*
X97303342Y-65274657D01*
X97189057Y-65331800D01*
X97131914Y-65388942D01*
X97074771Y-65503228D01*
X97074771Y-65674657D01*
X97131914Y-65788942D01*
X97189057Y-65846085D01*
X97303342Y-65903228D01*
X97760485Y-65903228D01*
X96103342Y-66417514D02*
X96217628Y-66474657D01*
X96446200Y-66474657D01*
X96560485Y-66417514D01*
X96617628Y-66303228D01*
X96617628Y-65846085D01*
X96560485Y-65731800D01*
X96446200Y-65674657D01*
X96217628Y-65674657D01*
X96103342Y-65731800D01*
X96046200Y-65846085D01*
X96046200Y-65960371D01*
X96617628Y-66074657D01*
X95646200Y-65674657D02*
X95360485Y-66474657D01*
X95074771Y-65674657D01*
X93303342Y-65846085D02*
X93131914Y-65903228D01*
X93074771Y-65960371D01*
X93017628Y-66074657D01*
X93017628Y-66246085D01*
X93074771Y-66360371D01*
X93131914Y-66417514D01*
X93246200Y-66474657D01*
X93703342Y-66474657D01*
X93703342Y-65274657D01*
X93303342Y-65274657D01*
X93189057Y-65331800D01*
X93131914Y-65388942D01*
X93074771Y-65503228D01*
X93074771Y-65617514D01*
X93131914Y-65731800D01*
X93189057Y-65788942D01*
X93303342Y-65846085D01*
X93703342Y-65846085D01*
X91874771Y-66474657D02*
X92560485Y-66474657D01*
X92217628Y-66474657D02*
X92217628Y-65274657D01*
X92331914Y-65446085D01*
X92446200Y-65560371D01*
X92560485Y-65617514D01*
D11*
X99669600Y-70695820D02*
X96621600Y-70695820D01*
X99669600Y-69019420D02*
X96621600Y-69019420D01*
X99669600Y-69019420D02*
X99669600Y-70695820D01*
X96621600Y-69019420D02*
X96621600Y-70695820D01*
X96621600Y-70967600D02*
X96621600Y-72644000D01*
X99669600Y-70967600D02*
X99669600Y-72644000D01*
X99669600Y-70967600D02*
X96621600Y-70967600D01*
X99669600Y-72644000D02*
X96621600Y-72644000D01*
X105246000Y-66781800D02*
X108294000Y-66781800D01*
X105246000Y-68458200D02*
X108294000Y-68458200D01*
X105246000Y-68458200D02*
X105246000Y-66781800D01*
X108294000Y-68458200D02*
X108294000Y-66781800D01*
X111937800Y-85877400D02*
X110261400Y-85877400D01*
X111937800Y-88925400D02*
X110261400Y-88925400D01*
X111937800Y-88925400D02*
X111937800Y-85877400D01*
X110261400Y-88925400D02*
X110261400Y-85877400D01*
X108294000Y-66488200D02*
X105246000Y-66488200D01*
X108294000Y-64811800D02*
X105246000Y-64811800D01*
X108294000Y-64811800D02*
X108294000Y-66488200D01*
X105246000Y-64811800D02*
X105246000Y-66488200D01*
X98171000Y-88900000D02*
X98171000Y-90576400D01*
X101219000Y-88900000D02*
X101219000Y-90576400D01*
X101219000Y-88900000D02*
X98171000Y-88900000D01*
X101219000Y-90576400D02*
X98171000Y-90576400D01*
X92283280Y-67284600D02*
X92283280Y-68961000D01*
X95331280Y-67284600D02*
X95331280Y-68961000D01*
X95331280Y-67284600D02*
X92283280Y-67284600D01*
X95331280Y-68961000D02*
X92283280Y-68961000D01*
X110007400Y-92836200D02*
X112191800Y-92836200D01*
X112191800Y-89179400D02*
X112191800Y-92836200D01*
X110007400Y-92583000D02*
X112191800Y-92583000D01*
X110007400Y-89179400D02*
X110007400Y-92836200D01*
X110007400Y-89179400D02*
X112191800Y-89179400D01*
X101574600Y-90830400D02*
X101574600Y-88646000D01*
X101574600Y-90830400D02*
X105231400Y-90830400D01*
X104978200Y-90830400D02*
X104978200Y-88646000D01*
X101574600Y-88646000D02*
X105231400Y-88646000D01*
X105231400Y-90830400D02*
X105231400Y-88646000D01*
D12*
X92989400Y-74422000D02*
X92989400Y-76962000D01*
X108229400Y-74422000D02*
X92989400Y-74422000D01*
X108229400Y-76962000D02*
X108229400Y-74422000D01*
X92989400Y-76962000D02*
X108229400Y-76962000D01*
D13*
X101116666Y-69707142D02*
X101164285Y-69754761D01*
X101307142Y-69802380D01*
X101402380Y-69802380D01*
X101545238Y-69754761D01*
X101640476Y-69659523D01*
X101688095Y-69564285D01*
X101735714Y-69373809D01*
X101735714Y-69230952D01*
X101688095Y-69040476D01*
X101640476Y-68945238D01*
X101545238Y-68850000D01*
X101402380Y-68802380D01*
X101307142Y-68802380D01*
X101164285Y-68850000D01*
X101116666Y-68897619D01*
X100783333Y-68802380D02*
X100164285Y-68802380D01*
X100497619Y-69183333D01*
X100354761Y-69183333D01*
X100259523Y-69230952D01*
X100211904Y-69278571D01*
X100164285Y-69373809D01*
X100164285Y-69611904D01*
X100211904Y-69707142D01*
X100259523Y-69754761D01*
X100354761Y-69802380D01*
X100640476Y-69802380D01*
X100735714Y-69754761D01*
X100783333Y-69707142D01*
X101182466Y-72086742D02*
X101230085Y-72134361D01*
X101372942Y-72181980D01*
X101468180Y-72181980D01*
X101611038Y-72134361D01*
X101706276Y-72039123D01*
X101753895Y-71943885D01*
X101801514Y-71753409D01*
X101801514Y-71610552D01*
X101753895Y-71420076D01*
X101706276Y-71324838D01*
X101611038Y-71229600D01*
X101468180Y-71181980D01*
X101372942Y-71181980D01*
X101230085Y-71229600D01*
X101182466Y-71277219D01*
X100801514Y-71277219D02*
X100753895Y-71229600D01*
X100658657Y-71181980D01*
X100420561Y-71181980D01*
X100325323Y-71229600D01*
X100277704Y-71277219D01*
X100230085Y-71372457D01*
X100230085Y-71467695D01*
X100277704Y-71610552D01*
X100849133Y-72181980D01*
X100230085Y-72181980D01*
X109576666Y-68017142D02*
X109624285Y-68064761D01*
X109767142Y-68112380D01*
X109862380Y-68112380D01*
X110005238Y-68064761D01*
X110100476Y-67969523D01*
X110148095Y-67874285D01*
X110195714Y-67683809D01*
X110195714Y-67540952D01*
X110148095Y-67350476D01*
X110100476Y-67255238D01*
X110005238Y-67160000D01*
X109862380Y-67112380D01*
X109767142Y-67112380D01*
X109624285Y-67160000D01*
X109576666Y-67207619D01*
X108624285Y-68112380D02*
X109195714Y-68112380D01*
X108910000Y-68112380D02*
X108910000Y-67112380D01*
X109005238Y-67255238D01*
X109100476Y-67350476D01*
X109195714Y-67398095D01*
X112009180Y-84516933D02*
X111532990Y-84183600D01*
X112009180Y-83945504D02*
X111009180Y-83945504D01*
X111009180Y-84326457D01*
X111056800Y-84421695D01*
X111104419Y-84469314D01*
X111199657Y-84516933D01*
X111342514Y-84516933D01*
X111437752Y-84469314D01*
X111485371Y-84421695D01*
X111532990Y-84326457D01*
X111532990Y-83945504D01*
X111342514Y-85374076D02*
X112009180Y-85374076D01*
X110961561Y-85135980D02*
X111675847Y-84897885D01*
X111675847Y-85516933D01*
X109536666Y-66142380D02*
X109870000Y-65666190D01*
X110108095Y-66142380D02*
X110108095Y-65142380D01*
X109727142Y-65142380D01*
X109631904Y-65190000D01*
X109584285Y-65237619D01*
X109536666Y-65332857D01*
X109536666Y-65475714D01*
X109584285Y-65570952D01*
X109631904Y-65618571D01*
X109727142Y-65666190D01*
X110108095Y-65666190D01*
X109203333Y-65142380D02*
X108584285Y-65142380D01*
X108917619Y-65523333D01*
X108774761Y-65523333D01*
X108679523Y-65570952D01*
X108631904Y-65618571D01*
X108584285Y-65713809D01*
X108584285Y-65951904D01*
X108631904Y-66047142D01*
X108679523Y-66094761D01*
X108774761Y-66142380D01*
X109060476Y-66142380D01*
X109155714Y-66094761D01*
X109203333Y-66047142D01*
X99937866Y-88514180D02*
X100271200Y-88037990D01*
X100509295Y-88514180D02*
X100509295Y-87514180D01*
X100128342Y-87514180D01*
X100033104Y-87561800D01*
X99985485Y-87609419D01*
X99937866Y-87704657D01*
X99937866Y-87847514D01*
X99985485Y-87942752D01*
X100033104Y-87990371D01*
X100128342Y-88037990D01*
X100509295Y-88037990D01*
X99556914Y-87609419D02*
X99509295Y-87561800D01*
X99414057Y-87514180D01*
X99175961Y-87514180D01*
X99080723Y-87561800D01*
X99033104Y-87609419D01*
X98985485Y-87704657D01*
X98985485Y-87799895D01*
X99033104Y-87942752D01*
X99604533Y-88514180D01*
X98985485Y-88514180D01*
X91466666Y-68602380D02*
X91800000Y-68126190D01*
X92038095Y-68602380D02*
X92038095Y-67602380D01*
X91657142Y-67602380D01*
X91561904Y-67650000D01*
X91514285Y-67697619D01*
X91466666Y-67792857D01*
X91466666Y-67935714D01*
X91514285Y-68030952D01*
X91561904Y-68078571D01*
X91657142Y-68126190D01*
X92038095Y-68126190D01*
X90514285Y-68602380D02*
X91085714Y-68602380D01*
X90800000Y-68602380D02*
X90800000Y-67602380D01*
X90895238Y-67745238D01*
X90990476Y-67840476D01*
X91085714Y-67888095D01*
X109799380Y-89635104D02*
X108799380Y-89635104D01*
X108799380Y-89873200D01*
X108847000Y-90016057D01*
X108942238Y-90111295D01*
X109037476Y-90158914D01*
X109227952Y-90206533D01*
X109370809Y-90206533D01*
X109561285Y-90158914D01*
X109656523Y-90111295D01*
X109751761Y-90016057D01*
X109799380Y-89873200D01*
X109799380Y-89635104D01*
X108894619Y-90587485D02*
X108847000Y-90635104D01*
X108799380Y-90730342D01*
X108799380Y-90968438D01*
X108847000Y-91063676D01*
X108894619Y-91111295D01*
X108989857Y-91158914D01*
X109085095Y-91158914D01*
X109227952Y-91111295D01*
X109799380Y-90539866D01*
X109799380Y-91158914D01*
X104090695Y-88310980D02*
X104090695Y-87310980D01*
X103852600Y-87310980D01*
X103709742Y-87358600D01*
X103614504Y-87453838D01*
X103566885Y-87549076D01*
X103519266Y-87739552D01*
X103519266Y-87882409D01*
X103566885Y-88072885D01*
X103614504Y-88168123D01*
X103709742Y-88263361D01*
X103852600Y-88310980D01*
X104090695Y-88310980D01*
X102566885Y-88310980D02*
X103138314Y-88310980D01*
X102852600Y-88310980D02*
X102852600Y-87310980D01*
X102947838Y-87453838D01*
X103043076Y-87549076D01*
X103138314Y-87596695D01*
X111002380Y-60766666D02*
X111716666Y-60766666D01*
X111859523Y-60719047D01*
X111954761Y-60623809D01*
X112002380Y-60480952D01*
X112002380Y-60385714D01*
X111002380Y-61147619D02*
X111002380Y-61766666D01*
X111383333Y-61433333D01*
X111383333Y-61576190D01*
X111430952Y-61671428D01*
X111478571Y-61719047D01*
X111573809Y-61766666D01*
X111811904Y-61766666D01*
X111907142Y-61719047D01*
X111954761Y-61671428D01*
X112002380Y-61576190D01*
X112002380Y-61290476D01*
X111954761Y-61195238D01*
X111907142Y-61147619D01*
X94710200Y-77270057D02*
X94710200Y-78127200D01*
X94767342Y-78298628D01*
X94881628Y-78412914D01*
X95053057Y-78470057D01*
X95167342Y-78470057D01*
X94195914Y-77384342D02*
X94138771Y-77327200D01*
X94024485Y-77270057D01*
X93738771Y-77270057D01*
X93624485Y-77327200D01*
X93567342Y-77384342D01*
X93510200Y-77498628D01*
X93510200Y-77612914D01*
X93567342Y-77784342D01*
X94253057Y-78470057D01*
X93510200Y-78470057D01*
M02*
