G04 #@! TF.GenerationSoftware,KiCad,Pcbnew,no-vcs-found-bf44d39~61~ubuntu16.04.1*
G04 #@! TF.CreationDate,2018-01-04T16:51:09+01:00*
G04 #@! TF.ProjectId,arcade_adapter,6172636164655F616461707465722E6B,rev?*
G04 #@! TF.SameCoordinates,Original*
G04 #@! TF.FileFunction,Other,Fab,Bot*
%FSLAX46Y46*%
G04 Gerber Fmt 4.6, Leading zero omitted, Abs format (unit mm)*
G04 Created by KiCad (PCBNEW no-vcs-found-bf44d39~61~ubuntu16.04.1) date Thu Jan  4 16:51:09 2018*
%MOMM*%
%LPD*%
G01*
G04 APERTURE LIST*
%ADD10C,0.100000*%
%ADD11C,0.150000*%
G04 APERTURE END LIST*
D10*
X114190000Y-49040000D02*
X114190000Y-42680000D01*
X114190000Y-42680000D02*
X88790000Y-42680000D01*
X88790000Y-42680000D02*
X88790000Y-49040000D01*
X115460000Y-50310000D02*
X121180000Y-50310000D01*
X121180000Y-50310000D02*
X121180000Y-49040000D01*
X121180000Y-49040000D02*
X81810000Y-49040000D01*
X81810000Y-49040000D02*
X81810000Y-50310000D01*
X81810000Y-50310000D02*
X87520000Y-50310000D01*
X114830000Y-53480000D02*
X115460000Y-53480000D01*
X115460000Y-53480000D02*
X115460000Y-50310000D01*
X115460000Y-50310000D02*
X87520000Y-50310000D01*
X87520000Y-50310000D02*
X87520000Y-53480000D01*
X87520000Y-53480000D02*
X88160000Y-53480000D01*
X112920000Y-54750000D02*
X114830000Y-54750000D01*
X114830000Y-54750000D02*
X114830000Y-53480000D01*
X114830000Y-53480000D02*
X88160000Y-53480000D01*
X88160000Y-53480000D02*
X88160000Y-54750000D01*
X88160000Y-54750000D02*
X90060000Y-54750000D01*
D11*
X98261466Y-70214762D02*
X98309085Y-70262381D01*
X98451942Y-70310000D01*
X98547180Y-70310000D01*
X98690038Y-70262381D01*
X98785276Y-70167143D01*
X98832895Y-70071905D01*
X98880514Y-69881429D01*
X98880514Y-69738572D01*
X98832895Y-69548096D01*
X98785276Y-69452858D01*
X98690038Y-69357620D01*
X98547180Y-69310000D01*
X98451942Y-69310000D01*
X98309085Y-69357620D01*
X98261466Y-69405239D01*
X97928133Y-69310000D02*
X97309085Y-69310000D01*
X97642419Y-69690953D01*
X97499561Y-69690953D01*
X97404323Y-69738572D01*
X97356704Y-69786191D01*
X97309085Y-69881429D01*
X97309085Y-70119524D01*
X97356704Y-70214762D01*
X97404323Y-70262381D01*
X97499561Y-70310000D01*
X97785276Y-70310000D01*
X97880514Y-70262381D01*
X97928133Y-70214762D01*
X98388466Y-72213742D02*
X98436085Y-72261361D01*
X98578942Y-72308980D01*
X98674180Y-72308980D01*
X98817038Y-72261361D01*
X98912276Y-72166123D01*
X98959895Y-72070885D01*
X99007514Y-71880409D01*
X99007514Y-71737552D01*
X98959895Y-71547076D01*
X98912276Y-71451838D01*
X98817038Y-71356600D01*
X98674180Y-71308980D01*
X98578942Y-71308980D01*
X98436085Y-71356600D01*
X98388466Y-71404219D01*
X98007514Y-71404219D02*
X97959895Y-71356600D01*
X97864657Y-71308980D01*
X97626561Y-71308980D01*
X97531323Y-71356600D01*
X97483704Y-71404219D01*
X97436085Y-71499457D01*
X97436085Y-71594695D01*
X97483704Y-71737552D01*
X98055133Y-72308980D01*
X97436085Y-72308980D01*
X106987466Y-67977142D02*
X107035085Y-68024761D01*
X107177942Y-68072380D01*
X107273180Y-68072380D01*
X107416038Y-68024761D01*
X107511276Y-67929523D01*
X107558895Y-67834285D01*
X107606514Y-67643809D01*
X107606514Y-67500952D01*
X107558895Y-67310476D01*
X107511276Y-67215238D01*
X107416038Y-67120000D01*
X107273180Y-67072380D01*
X107177942Y-67072380D01*
X107035085Y-67120000D01*
X106987466Y-67167619D01*
X106035085Y-68072380D02*
X106606514Y-68072380D01*
X106320800Y-68072380D02*
X106320800Y-67072380D01*
X106416038Y-67215238D01*
X106511276Y-67310476D01*
X106606514Y-67358095D01*
X111577380Y-87260133D02*
X111101190Y-86926800D01*
X111577380Y-86688704D02*
X110577380Y-86688704D01*
X110577380Y-87069657D01*
X110625000Y-87164895D01*
X110672619Y-87212514D01*
X110767857Y-87260133D01*
X110910714Y-87260133D01*
X111005952Y-87212514D01*
X111053571Y-87164895D01*
X111101190Y-87069657D01*
X111101190Y-86688704D01*
X110910714Y-88117276D02*
X111577380Y-88117276D01*
X110529761Y-87879180D02*
X111244047Y-87641085D01*
X111244047Y-88260133D01*
X106911266Y-66076980D02*
X107244600Y-65600790D01*
X107482695Y-66076980D02*
X107482695Y-65076980D01*
X107101742Y-65076980D01*
X107006504Y-65124600D01*
X106958885Y-65172219D01*
X106911266Y-65267457D01*
X106911266Y-65410314D01*
X106958885Y-65505552D01*
X107006504Y-65553171D01*
X107101742Y-65600790D01*
X107482695Y-65600790D01*
X106577933Y-65076980D02*
X105958885Y-65076980D01*
X106292219Y-65457933D01*
X106149361Y-65457933D01*
X106054123Y-65505552D01*
X106006504Y-65553171D01*
X105958885Y-65648409D01*
X105958885Y-65886504D01*
X106006504Y-65981742D01*
X106054123Y-66029361D01*
X106149361Y-66076980D01*
X106435076Y-66076980D01*
X106530314Y-66029361D01*
X106577933Y-65981742D01*
X99810866Y-90317580D02*
X100144200Y-89841390D01*
X100382295Y-90317580D02*
X100382295Y-89317580D01*
X100001342Y-89317580D01*
X99906104Y-89365200D01*
X99858485Y-89412819D01*
X99810866Y-89508057D01*
X99810866Y-89650914D01*
X99858485Y-89746152D01*
X99906104Y-89793771D01*
X100001342Y-89841390D01*
X100382295Y-89841390D01*
X99429914Y-89412819D02*
X99382295Y-89365200D01*
X99287057Y-89317580D01*
X99048961Y-89317580D01*
X98953723Y-89365200D01*
X98906104Y-89412819D01*
X98858485Y-89508057D01*
X98858485Y-89603295D01*
X98906104Y-89746152D01*
X99477533Y-90317580D01*
X98858485Y-90317580D01*
X93923146Y-68625980D02*
X94256480Y-68149790D01*
X94494575Y-68625980D02*
X94494575Y-67625980D01*
X94113622Y-67625980D01*
X94018384Y-67673600D01*
X93970765Y-67721219D01*
X93923146Y-67816457D01*
X93923146Y-67959314D01*
X93970765Y-68054552D01*
X94018384Y-68102171D01*
X94113622Y-68149790D01*
X94494575Y-68149790D01*
X92970765Y-68625980D02*
X93542194Y-68625980D01*
X93256480Y-68625980D02*
X93256480Y-67625980D01*
X93351718Y-67768838D01*
X93446956Y-67864076D01*
X93542194Y-67911695D01*
X106323333Y-52412380D02*
X106323333Y-51412380D01*
X106085238Y-51412380D01*
X105942380Y-51460000D01*
X105847142Y-51555238D01*
X105799523Y-51650476D01*
X105751904Y-51840952D01*
X105751904Y-51983809D01*
X105799523Y-52174285D01*
X105847142Y-52269523D01*
X105942380Y-52364761D01*
X106085238Y-52412380D01*
X106323333Y-52412380D01*
X104990000Y-51888571D02*
X104847142Y-51936190D01*
X104799523Y-51983809D01*
X104751904Y-52079047D01*
X104751904Y-52221904D01*
X104799523Y-52317142D01*
X104847142Y-52364761D01*
X104942380Y-52412380D01*
X105323333Y-52412380D01*
X105323333Y-51412380D01*
X104990000Y-51412380D01*
X104894761Y-51460000D01*
X104847142Y-51507619D01*
X104799523Y-51602857D01*
X104799523Y-51698095D01*
X104847142Y-51793333D01*
X104894761Y-51840952D01*
X104990000Y-51888571D01*
X105323333Y-51888571D01*
X103799523Y-52412380D02*
X104370952Y-52412380D01*
X104085238Y-52412380D02*
X104085238Y-51412380D01*
X104180476Y-51555238D01*
X104275714Y-51650476D01*
X104370952Y-51698095D01*
X102894761Y-51412380D02*
X103370952Y-51412380D01*
X103418571Y-51888571D01*
X103370952Y-51840952D01*
X103275714Y-51793333D01*
X103037619Y-51793333D01*
X102942380Y-51840952D01*
X102894761Y-51888571D01*
X102847142Y-51983809D01*
X102847142Y-52221904D01*
X102894761Y-52317142D01*
X102942380Y-52364761D01*
X103037619Y-52412380D01*
X103275714Y-52412380D01*
X103370952Y-52364761D01*
X103418571Y-52317142D01*
X102656666Y-52507619D02*
X101894761Y-52507619D01*
X101323333Y-51888571D02*
X101656666Y-51888571D01*
X101656666Y-52412380D02*
X101656666Y-51412380D01*
X101180476Y-51412380D01*
X100799523Y-51888571D02*
X100466190Y-51888571D01*
X100323333Y-52412380D02*
X100799523Y-52412380D01*
X100799523Y-51412380D01*
X100323333Y-51412380D01*
X99894761Y-52412380D02*
X99894761Y-51412380D01*
X99561428Y-52126666D01*
X99228095Y-51412380D01*
X99228095Y-52412380D01*
X98799523Y-52126666D02*
X98323333Y-52126666D01*
X98894761Y-52412380D02*
X98561428Y-51412380D01*
X98228095Y-52412380D01*
X97418571Y-52412380D02*
X97894761Y-52412380D01*
X97894761Y-51412380D01*
X97085238Y-51888571D02*
X96751904Y-51888571D01*
X96609047Y-52412380D02*
X97085238Y-52412380D01*
X97085238Y-51412380D01*
X96609047Y-51412380D01*
X111406971Y-73707571D02*
X111464114Y-73764714D01*
X111635542Y-73821857D01*
X111749828Y-73821857D01*
X111921257Y-73764714D01*
X112035542Y-73650428D01*
X112092685Y-73536142D01*
X112149828Y-73307571D01*
X112149828Y-73136142D01*
X112092685Y-72907571D01*
X112035542Y-72793285D01*
X111921257Y-72679000D01*
X111749828Y-72621857D01*
X111635542Y-72621857D01*
X111464114Y-72679000D01*
X111406971Y-72736142D01*
X110664114Y-72621857D02*
X110435542Y-72621857D01*
X110321257Y-72679000D01*
X110206971Y-72793285D01*
X110149828Y-73021857D01*
X110149828Y-73421857D01*
X110206971Y-73650428D01*
X110321257Y-73764714D01*
X110435542Y-73821857D01*
X110664114Y-73821857D01*
X110778400Y-73764714D01*
X110892685Y-73650428D01*
X110949828Y-73421857D01*
X110949828Y-73021857D01*
X110892685Y-72793285D01*
X110778400Y-72679000D01*
X110664114Y-72621857D01*
X109635542Y-73821857D02*
X109635542Y-72621857D01*
X108949828Y-73821857D01*
X108949828Y-72621857D01*
X108378400Y-73821857D02*
X108378400Y-72621857D01*
X107692685Y-73821857D01*
X107692685Y-72621857D01*
X107406971Y-73936142D02*
X106492685Y-73936142D01*
X105978400Y-72621857D02*
X105864114Y-72621857D01*
X105749828Y-72679000D01*
X105692685Y-72736142D01*
X105635542Y-72850428D01*
X105578400Y-73079000D01*
X105578400Y-73364714D01*
X105635542Y-73593285D01*
X105692685Y-73707571D01*
X105749828Y-73764714D01*
X105864114Y-73821857D01*
X105978400Y-73821857D01*
X106092685Y-73764714D01*
X106149828Y-73707571D01*
X106206971Y-73593285D01*
X106264114Y-73364714D01*
X106264114Y-73079000D01*
X106206971Y-72850428D01*
X106149828Y-72736142D01*
X106092685Y-72679000D01*
X105978400Y-72621857D01*
X104435542Y-73821857D02*
X105121257Y-73821857D01*
X104778400Y-73821857D02*
X104778400Y-72621857D01*
X104892685Y-72793285D01*
X105006971Y-72907571D01*
X105121257Y-72964714D01*
X104035542Y-72621857D02*
X103235542Y-73821857D01*
X103235542Y-72621857D02*
X104035542Y-73821857D01*
X102549828Y-72621857D02*
X102435542Y-72621857D01*
X102321257Y-72679000D01*
X102264114Y-72736142D01*
X102206971Y-72850428D01*
X102149828Y-73079000D01*
X102149828Y-73364714D01*
X102206971Y-73593285D01*
X102264114Y-73707571D01*
X102321257Y-73764714D01*
X102435542Y-73821857D01*
X102549828Y-73821857D01*
X102664114Y-73764714D01*
X102721257Y-73707571D01*
X102778400Y-73593285D01*
X102835542Y-73364714D01*
X102835542Y-73079000D01*
X102778400Y-72850428D01*
X102721257Y-72736142D01*
X102664114Y-72679000D01*
X102549828Y-72621857D01*
X101121257Y-72621857D02*
X101349828Y-72621857D01*
X101464114Y-72679000D01*
X101521257Y-72736142D01*
X101635542Y-72907571D01*
X101692685Y-73136142D01*
X101692685Y-73593285D01*
X101635542Y-73707571D01*
X101578400Y-73764714D01*
X101464114Y-73821857D01*
X101235542Y-73821857D01*
X101121257Y-73764714D01*
X101064114Y-73707571D01*
X101006971Y-73593285D01*
X101006971Y-73307571D01*
X101064114Y-73193285D01*
X101121257Y-73136142D01*
X101235542Y-73079000D01*
X101464114Y-73079000D01*
X101578400Y-73136142D01*
X101635542Y-73193285D01*
X101692685Y-73307571D01*
M02*
