G04 #@! TF.GenerationSoftware,KiCad,Pcbnew,no-vcs-found-bf44d39~61~ubuntu16.04.1*
G04 #@! TF.CreationDate,2018-01-04T16:51:09+01:00*
G04 #@! TF.ProjectId,arcade_adapter,6172636164655F616461707465722E6B,rev?*
G04 #@! TF.SameCoordinates,Original*
G04 #@! TF.FileFunction,Soldermask,Top*
G04 #@! TF.FilePolarity,Negative*
%FSLAX46Y46*%
G04 Gerber Fmt 4.6, Leading zero omitted, Abs format (unit mm)*
G04 Created by KiCad (PCBNEW no-vcs-found-bf44d39~61~ubuntu16.04.1) date Thu Jan  4 16:51:09 2018*
%MOMM*%
%LPD*%
G01*
G04 APERTURE LIST*
%ADD10R,2.180000X5.480000*%
%ADD11C,1.800000*%
%ADD12C,3.800000*%
%ADD13C,2.600000*%
%ADD14R,2.200000X2.200000*%
%ADD15C,2.200000*%
%ADD16R,1.000000X2.600000*%
G04 APERTURE END LIST*
D10*
X109870000Y-57290000D03*
X107080000Y-57290000D03*
X104290000Y-57290000D03*
X101490000Y-57290000D03*
X98700000Y-57290000D03*
X95900000Y-57290000D03*
X93110000Y-57290000D03*
D11*
X104819800Y-85191600D03*
X102789800Y-85191600D03*
X100759800Y-85191600D03*
X98729800Y-85191600D03*
X103799800Y-83411600D03*
X101769800Y-83411600D03*
X99739800Y-83411600D03*
X97709800Y-83411600D03*
D12*
X94919800Y-87731600D03*
X107619800Y-87731600D03*
D13*
X93139800Y-84301600D03*
X109399800Y-84301600D03*
D14*
X94259400Y-75692000D03*
D15*
X96799400Y-75692000D03*
X99339400Y-75692000D03*
X101879400Y-75692000D03*
X104419400Y-75692000D03*
X106959400Y-75692000D03*
D16*
X109143800Y-72265000D03*
X109143800Y-62865000D03*
X107873800Y-72265000D03*
X107873800Y-62865000D03*
X106603800Y-72265000D03*
X106603800Y-62865000D03*
X105333800Y-72265000D03*
X105333800Y-62865000D03*
X104063800Y-72265000D03*
X104063800Y-62865000D03*
X102793800Y-72265000D03*
X102793800Y-62865000D03*
X101523800Y-72265000D03*
X101523800Y-62865000D03*
X100253800Y-72265000D03*
X100253800Y-62865000D03*
X98983800Y-72265000D03*
X98983800Y-62865000D03*
X97713800Y-72265000D03*
X97713800Y-62865000D03*
X96443800Y-72265000D03*
X96443800Y-62865000D03*
X95173800Y-72265000D03*
X95173800Y-62865000D03*
X93903800Y-72265000D03*
X93903800Y-62865000D03*
X92633800Y-72265000D03*
X92633800Y-62865000D03*
M02*
